M48
; DRILL file KiCad 10.0.0 date 2026-04-13T20:14:15
; FORMAT={-:-/ absolute / metric / decimal}
; #@! TF.CreationDate,2026-04-13T20:14:15-04:00
; #@! TF.GenerationSoftware,Kicad,Pcbnew,10.0.0
; #@! TF.FileFunction,Plated,1,4,PTH
FMAT,2
METRIC
; #@! TA.AperFunction,Plated,PTH,ViaDrill
T1C0.300
; #@! TA.AperFunction,Plated,PTH,ComponentDrill
T2C0.890
; #@! TA.AperFunction,Plated,PTH,ComponentDrill
T3C1.000
; #@! TA.AperFunction,Plated,PTH,ComponentDrill
T4C1.300
; #@! TA.AperFunction,Plated,PTH,ComponentDrill
T5C2.010
; #@! TA.AperFunction,Plated,PTH,ComponentDrill
T6C3.200
%
G90
G05
T1
X120.0Y-135.6
X120.0Y-139.9
X122.9Y-139.9
X126.756Y-137.594
X128.637Y-140.213
X129.112Y-99.287
X129.195Y-119.7
X130.5Y-85.6
X130.95Y-104.188
X131.0Y-124.487
X131.6Y-135.1
X131.868Y-138.131
X132.35Y-102.287
X132.4Y-122.587
X133.137Y-140.312
X134.237Y-87.8
X134.6Y-136.97
X135.012Y-107.188
X135.014Y-138.95
X135.05Y-99.7
X135.05Y-103.188
X135.062Y-127.487
X135.1Y-120.0
X135.1Y-123.487
X136.1Y-84.7
X136.164Y-88.7
X137.95Y-95.587
X137.95Y-110.787
X138.0Y-115.887
X138.0Y-131.088
X138.05Y-104.688
X138.077Y-99.087
X138.1Y-124.987
X138.127Y-119.387
X138.75Y-101.688
X138.8Y-121.987
X139.377Y-107.487
X139.427Y-127.787
X140.012Y-104.787
X140.062Y-125.087
X140.713Y-99.087
X140.762Y-119.387
X141.3Y-104.8
X141.374Y-101.587
X141.4Y-121.887
X141.4Y-125.1
X141.8Y-90.0
X142.35Y-98.387
X142.35Y-108.188
X142.4Y-118.688
X142.4Y-128.487
X142.8Y-83.7
X146.1Y-132.3
X146.213Y-111.987
X148.3Y-106.344
X148.3Y-126.7
X148.338Y-104.094
X148.387Y-124.394
X148.612Y-102.188
X148.662Y-122.487
X149.713Y-91.295
X160.2Y-117.4
X160.2Y-120.7
X160.8Y-111.0
X160.8Y-114.6
X161.469Y-92.756
X162.8Y-99.9
X163.213Y-89.5
X163.262Y-129.7
X163.4Y-109.4
X163.6Y-108.15
X164.1Y-83.0
X164.2Y-94.1
X164.7Y-103.9
X164.9Y-99.9
X166.0Y-126.5
X168.4Y-126.5
X169.95Y-129.8
X170.1Y-110.1
X170.9Y-102.0
X172.4Y-121.32
X172.8Y-108.8
X172.8Y-109.8
X172.8Y-111.327
X172.862Y-104.825
X172.862Y-105.725
X172.862Y-106.625
X174.3Y-110.7
X174.3Y-112.05
X174.9Y-100.0
X175.9Y-101.7
X180.4Y-128.0
X184.093Y-87.043
X184.093Y-88.059
X184.093Y-89.075
X184.093Y-90.091
X184.093Y-91.107
X184.093Y-101.6
X184.093Y-102.616
X184.093Y-103.632
X184.093Y-104.648
X184.093Y-105.664
X185.109Y-87.043
X185.109Y-88.059
X185.109Y-89.075
X185.109Y-90.091
X185.109Y-91.107
X185.109Y-101.6
X185.109Y-102.616
X185.109Y-103.632
X185.109Y-104.648
X185.109Y-105.664
X186.125Y-87.043
X186.125Y-88.059
X186.125Y-89.075
X186.125Y-90.091
X186.125Y-91.107
X186.125Y-101.6
X186.125Y-102.616
X186.125Y-103.632
X186.125Y-104.648
X186.125Y-105.664
X187.141Y-87.043
X187.141Y-88.059
X187.141Y-89.075
X187.141Y-90.091
X187.141Y-91.107
X187.141Y-101.6
X187.141Y-102.616
X187.141Y-103.632
X187.141Y-104.648
X187.141Y-105.664
X188.157Y-87.043
X188.157Y-88.059
X188.157Y-89.075
X188.157Y-90.091
X188.157Y-91.107
X188.157Y-101.6
X188.157Y-102.616
X188.157Y-103.632
X188.157Y-104.648
X188.157Y-105.664
X193.9Y-86.795
X194.1Y-98.116
X194.1Y-99.132
X194.1Y-100.148
X194.6Y-86.8
X195.116Y-98.116
X195.116Y-99.132
X195.116Y-100.148
T2
X113.15Y-70.0
X113.15Y-72.54
X113.15Y-90.0
X113.15Y-92.54
X113.15Y-110.0
X113.15Y-112.54
X113.15Y-130.0
X113.15Y-132.54
T3
X129.58Y-54.8
X132.12Y-54.8
X132.625Y-81.5
X134.66Y-54.8
X135.165Y-81.5
X137.2Y-54.8
X137.24Y-59.96
X137.24Y-75.2
X139.74Y-54.8
X139.78Y-59.96
X139.78Y-75.2
X142.28Y-54.8
X142.32Y-59.96
X142.32Y-75.2
X144.82Y-54.8
X144.86Y-59.96
X144.86Y-75.2
X147.36Y-54.8
X147.4Y-59.96
X147.4Y-75.2
X149.9Y-54.8
X149.94Y-59.96
X149.94Y-75.2
X149.98Y-79.2
X152.48Y-59.96
X152.48Y-75.2
X152.52Y-79.2
X155.02Y-54.8
X155.02Y-59.96
X155.02Y-75.2
X155.06Y-79.2
X157.56Y-54.8
X157.56Y-59.96
X157.56Y-75.2
X157.6Y-79.2
X160.1Y-54.8
X160.1Y-59.96
X160.1Y-75.2
X160.14Y-79.2
X162.64Y-54.8
X162.64Y-59.96
X162.64Y-75.2
X162.68Y-79.2
X165.18Y-54.8
X165.18Y-59.96
X165.18Y-75.2
X165.7Y-140.2
X167.72Y-54.8
X167.72Y-59.96
X167.72Y-75.2
X170.26Y-54.8
X170.26Y-59.96
X170.26Y-75.2
X172.8Y-54.8
X172.8Y-59.96
X172.8Y-75.2
X173.3Y-140.2
X174.335Y-131.2
X175.34Y-54.8
X175.34Y-59.96
X175.34Y-75.2
X176.875Y-131.2
X177.88Y-54.8
X177.88Y-59.96
X177.88Y-75.2
X180.42Y-54.8
X180.42Y-59.96
X180.42Y-75.2
X182.96Y-54.8
X182.96Y-59.96
X182.96Y-75.2
X185.5Y-54.8
X185.5Y-59.96
X185.5Y-75.2
X185.9Y-123.835
X185.9Y-126.375
X188.04Y-54.8
X188.04Y-59.96
X188.04Y-75.2
X190.58Y-59.96
X190.58Y-75.2
X193.12Y-59.96
X193.12Y-72.66
X193.12Y-75.2
X195.66Y-59.96
X195.66Y-75.2
T4
X194.772Y-120.165
X194.772Y-125.245
T5
X108.07Y-64.92
X108.07Y-75.08
X108.07Y-84.92
X108.07Y-95.08
X108.07Y-104.92
X108.07Y-115.08
X108.07Y-124.92
X108.07Y-135.08
T6
X104.0Y-54.0
X104.0Y-146.0
X196.0Y-54.0
X196.0Y-146.0
T3
G00X185.65Y-137.85
M15
G01X185.65Y-135.25
M16
G05
G00X187.45Y-131.75
M15
G01X189.65Y-131.75
M16
G05
G00X191.95Y-137.65
M15
G01X191.95Y-135.45
M16
G05
M30
