%TF.GenerationSoftware,KiCad,Pcbnew,10.0.0*%
%TF.CreationDate,2026-04-10T00:53:23-04:00*%
%TF.ProjectId,lcr,6c63722e-6b69-4636-9164-5f7063625858,rev?*%
%TF.SameCoordinates,Original*%
%TF.FileFunction,Copper,L1,Top*%
%TF.FilePolarity,Positive*%
%FSLAX46Y46*%
G04 Gerber Fmt 4.6, Leading zero omitted, Abs format (unit mm)*
G04 Created by KiCad (PCBNEW 10.0.0) date 2026-04-10 00:53:23*
%MOMM*%
%LPD*%
G01*
G04 APERTURE LIST*
G04 Aperture macros list*
%AMRoundRect*
0 Rectangle with rounded corners*
0 $1 Rounding radius*
0 $2 $3 $4 $5 $6 $7 $8 $9 X,Y pos of 4 corners*
0 Add a 4 corners polygon primitive as box body*
4,1,4,$2,$3,$4,$5,$6,$7,$8,$9,$2,$3,0*
0 Add four circle primitives for the rounded corners*
1,1,$1+$1,$2,$3*
1,1,$1+$1,$4,$5*
1,1,$1+$1,$6,$7*
1,1,$1+$1,$8,$9*
0 Add four rect primitives between the rounded corners*
20,1,$1+$1,$2,$3,$4,$5,0*
20,1,$1+$1,$4,$5,$6,$7,0*
20,1,$1+$1,$6,$7,$8,$9,0*
20,1,$1+$1,$8,$9,$2,$3,0*%
G04 Aperture macros list end*
%TA.AperFunction,SMDPad,CuDef*%
%ADD10RoundRect,0.190500X0.444500X-0.825500X0.444500X0.825500X-0.444500X0.825500X-0.444500X-0.825500X0*%
%TD*%
%TA.AperFunction,SMDPad,CuDef*%
%ADD11RoundRect,0.190500X-0.825500X-0.444500X0.825500X-0.444500X0.825500X0.444500X-0.825500X0.444500X0*%
%TD*%
%TA.AperFunction,SMDPad,CuDef*%
%ADD12RoundRect,0.100000X-0.100000X0.637500X-0.100000X-0.637500X0.100000X-0.637500X0.100000X0.637500X0*%
%TD*%
%TA.AperFunction,SMDPad,CuDef*%
%ADD13RoundRect,0.250000X0.250000X0.475000X-0.250000X0.475000X-0.250000X-0.475000X0.250000X-0.475000X0*%
%TD*%
%TA.AperFunction,SMDPad,CuDef*%
%ADD14RoundRect,0.250000X0.475000X-0.250000X0.475000X0.250000X-0.475000X0.250000X-0.475000X-0.250000X0*%
%TD*%
%TA.AperFunction,SMDPad,CuDef*%
%ADD15R,1.200000X3.500000*%
%TD*%
%TA.AperFunction,SMDPad,CuDef*%
%ADD16RoundRect,0.250000X-0.475000X0.250000X-0.475000X-0.250000X0.475000X-0.250000X0.475000X0.250000X0*%
%TD*%
%TA.AperFunction,SMDPad,CuDef*%
%ADD17RoundRect,0.250000X-0.250000X-0.475000X0.250000X-0.475000X0.250000X0.475000X-0.250000X0.475000X0*%
%TD*%
%TA.AperFunction,SMDPad,CuDef*%
%ADD18RoundRect,0.250000X-1.250000X-0.550000X1.250000X-0.550000X1.250000X0.550000X-1.250000X0.550000X0*%
%TD*%
%TA.AperFunction,SMDPad,CuDef*%
%ADD19RoundRect,0.112500X0.112500X-0.350000X0.112500X0.350000X-0.112500X0.350000X-0.112500X-0.350000X0*%
%TD*%
%TA.AperFunction,ComponentPad*%
%ADD20O,2.500000X1.600000*%
%TD*%
%TA.AperFunction,ComponentPad*%
%ADD21O,7.000000X3.500000*%
%TD*%
%TA.AperFunction,SMDPad,CuDef*%
%ADD22RoundRect,0.250000X-0.350000X0.850000X-0.350000X-0.850000X0.350000X-0.850000X0.350000X0.850000X0*%
%TD*%
%TA.AperFunction,SMDPad,CuDef*%
%ADD23RoundRect,0.249997X-2.650003X2.950003X-2.650003X-2.950003X2.650003X-2.950003X2.650003X2.950003X0*%
%TD*%
%TA.AperFunction,SMDPad,CuDef*%
%ADD24RoundRect,0.250000X-0.550000X1.250000X-0.550000X-1.250000X0.550000X-1.250000X0.550000X1.250000X0*%
%TD*%
%TA.AperFunction,SMDPad,CuDef*%
%ADD25RoundRect,0.250000X1.250000X0.550000X-1.250000X0.550000X-1.250000X-0.550000X1.250000X-0.550000X0*%
%TD*%
%TA.AperFunction,ComponentPad*%
%ADD26C,2.600000*%
%TD*%
%TA.AperFunction,ComponentPad*%
%ADD27RoundRect,0.250000X1.050000X-1.050000X1.050000X1.050000X-1.050000X1.050000X-1.050000X-1.050000X0*%
%TD*%
%TA.AperFunction,ComponentPad*%
%ADD28O,4.200000X2.000000*%
%TD*%
%TA.AperFunction,ComponentPad*%
%ADD29O,2.000000X4.200000*%
%TD*%
%TA.AperFunction,ComponentPad*%
%ADD30R,2.000000X4.600000*%
%TD*%
%TA.AperFunction,SMDPad,CuDef*%
%ADD31RoundRect,0.190500X-0.444500X0.825500X-0.444500X-0.825500X0.444500X-0.825500X0.444500X0.825500X0*%
%TD*%
%TA.AperFunction,SMDPad,CuDef*%
%ADD32RoundRect,0.250000X0.262500X0.450000X-0.262500X0.450000X-0.262500X-0.450000X0.262500X-0.450000X0*%
%TD*%
%TA.AperFunction,SMDPad,CuDef*%
%ADD33RoundRect,0.250000X0.450000X-0.262500X0.450000X0.262500X-0.450000X0.262500X-0.450000X-0.262500X0*%
%TD*%
%TA.AperFunction,SMDPad,CuDef*%
%ADD34R,1.500000X0.750000*%
%TD*%
%TA.AperFunction,SMDPad,CuDef*%
%ADD35R,1.500000X0.250000*%
%TD*%
%TA.AperFunction,SMDPad,CuDef*%
%ADD36RoundRect,0.150000X-0.150000X0.825000X-0.150000X-0.825000X0.150000X-0.825000X0.150000X0.825000X0*%
%TD*%
%TA.AperFunction,SMDPad,CuDef*%
%ADD37RoundRect,0.250000X-0.450000X0.262500X-0.450000X-0.262500X0.450000X-0.262500X0.450000X0.262500X0*%
%TD*%
%TA.AperFunction,SMDPad,CuDef*%
%ADD38RoundRect,0.112500X-0.112500X0.350000X-0.112500X-0.350000X0.112500X-0.350000X0.112500X0.350000X0*%
%TD*%
%TA.AperFunction,SMDPad,CuDef*%
%ADD39RoundRect,0.250000X-0.375000X-0.625000X0.375000X-0.625000X0.375000X0.625000X-0.375000X0.625000X0*%
%TD*%
%TA.AperFunction,SMDPad,CuDef*%
%ADD40RoundRect,0.150000X0.512500X0.150000X-0.512500X0.150000X-0.512500X-0.150000X0.512500X-0.150000X0*%
%TD*%
%TA.AperFunction,SMDPad,CuDef*%
%ADD41RoundRect,0.250000X-0.262500X-0.450000X0.262500X-0.450000X0.262500X0.450000X-0.262500X0.450000X0*%
%TD*%
%TA.AperFunction,SMDPad,CuDef*%
%ADD42RoundRect,0.150000X0.825000X0.150000X-0.825000X0.150000X-0.825000X-0.150000X0.825000X-0.150000X0*%
%TD*%
%TA.AperFunction,SMDPad,CuDef*%
%ADD43R,1.100000X0.400000*%
%TD*%
%TA.AperFunction,SMDPad,CuDef*%
%ADD44RoundRect,0.100000X-0.637500X-0.100000X0.637500X-0.100000X0.637500X0.100000X-0.637500X0.100000X0*%
%TD*%
%TA.AperFunction,SMDPad,CuDef*%
%ADD45RoundRect,0.150000X0.150000X-0.512500X0.150000X0.512500X-0.150000X0.512500X-0.150000X-0.512500X0*%
%TD*%
%TA.AperFunction,ComponentPad*%
%ADD46C,1.700000*%
%TD*%
%TA.AperFunction,ComponentPad*%
%ADD47R,1.700000X1.700000*%
%TD*%
%TA.AperFunction,SMDPad,CuDef*%
%ADD48RoundRect,0.250000X-0.625000X0.375000X-0.625000X-0.375000X0.625000X-0.375000X0.625000X0.375000X0*%
%TD*%
%TA.AperFunction,SMDPad,CuDef*%
%ADD49RoundRect,0.250000X0.625000X-0.375000X0.625000X0.375000X-0.625000X0.375000X-0.625000X-0.375000X0*%
%TD*%
%TA.AperFunction,ConnectorPad*%
%ADD50C,5.500000*%
%TD*%
%TA.AperFunction,ComponentPad*%
%ADD51C,3.600000*%
%TD*%
%TA.AperFunction,ComponentPad*%
%ADD52R,1.300000X1.300000*%
%TD*%
%TA.AperFunction,ComponentPad*%
%ADD53C,1.300000*%
%TD*%
%TA.AperFunction,ViaPad*%
%ADD54C,0.600000*%
%TD*%
%TA.AperFunction,Conductor*%
%ADD55C,0.254000*%
%TD*%
%TA.AperFunction,Conductor*%
%ADD56C,0.381000*%
%TD*%
%TA.AperFunction,Conductor*%
%ADD57C,0.762000*%
%TD*%
%TA.AperFunction,Conductor*%
%ADD58C,1.270000*%
%TD*%
%TA.AperFunction,Conductor*%
%ADD59C,0.508000*%
%TD*%
G04 APERTURE END LIST*
D10*
%TO.P,TP11,1,1_1*%
%TO.N,Net-(U14-X0)*%
X144200000Y-112400000D03*
%TD*%
D11*
%TO.P,TP10,1,1_1*%
%TO.N,Net-(U14-Y0)*%
X130600000Y-112200000D03*
%TD*%
D10*
%TO.P,TP9,1,1_1*%
%TO.N,Net-(U4-Y0)*%
X155200000Y-111200000D03*
%TD*%
%TO.P,TP8,1,1_1*%
%TO.N,Net-(U4-X0)*%
X165700000Y-111900000D03*
%TD*%
D12*
%TO.P,U3,28,~{BMUTEC}_28*%
%TO.N,unconnected-(U3-~{BMUTEC}-Pad28)*%
X151550000Y-92100000D03*
%TO.P,U3,27,AOUTB-_27*%
%TO.N,unconnected-(U3-AOUTB--Pad27)*%
X150900000Y-92100000D03*
%TO.P,U3,26,AOUTB+_26*%
%TO.N,unconnected-(U3-AOUTB+-Pad26)*%
X150250000Y-92100000D03*
%TO.P,U3,25,AOUTA+_25*%
%TO.N,Net-(U3-AOUTA+)*%
X149600000Y-92100000D03*
%TO.P,U3,24,AOUTA-_24*%
%TO.N,Net-(U3-AOUTA-)*%
X148950000Y-92100000D03*
%TO.P,U3,23,~{AMUTEC}_23*%
%TO.N,unconnected-(U3-~{AMUTEC}-Pad23)*%
X148300000Y-92100000D03*
%TO.P,U3,22,FILT+_22*%
%TO.N,Net-(U3-FILT+)*%
X147650000Y-92100000D03*
%TO.P,U3,21,AGND_21*%
%TO.N,GND*%
X147000000Y-92100000D03*
%TO.P,U3,20,VA_20*%
%TO.N,+5VA*%
X146350000Y-92100000D03*
%TO.P,U3,19,AINB-_19*%
%TO.N,ISNS_N*%
X145700000Y-92100000D03*
%TO.P,U3,18,AINB+_18*%
%TO.N,ISNS_P*%
X145050000Y-92100000D03*
%TO.P,U3,17,AINA+_17*%
%TO.N,VSNS_N*%
X144400000Y-92100000D03*
%TO.P,U3,16,AINA-_16*%
%TO.N,VSNS_P*%
X143750000Y-92100000D03*
%TO.P,U3,15,VCOM_15*%
%TO.N,VCOM*%
X143100000Y-92100000D03*
%TO.P,U3,14,~{RST}_14*%
%TO.N,CODEC_RST*%
X143100000Y-86375000D03*
%TO.P,U3,13,AD0/~{CS}(I2S/~{LJ})_13*%
%TO.N,GND*%
X143750000Y-86375000D03*
%TO.P,U3,12,SDA/CDIN(M1)_12*%
%TO.N,SDA*%
X144400000Y-86375000D03*
%TO.P,U3,11,SCL/CCLK(M0)_11*%
%TO.N,SCL*%
X145050000Y-86375000D03*
%TO.P,U3,10,VL_10*%
%TO.N,+3.3V*%
X145700000Y-86375000D03*
%TO.P,U3,9,VD_9*%
X146350000Y-86375000D03*
%TO.P,U3,8,DGND_8*%
%TO.N,GND*%
X147000000Y-86375000D03*
%TO.P,U3,7,SDIN_7*%
%TO.N,SDOUT*%
X147650000Y-86375000D03*
%TO.P,U3,6,SDOUT(M/~{S})_6*%
%TO.N,SDIN*%
X148300000Y-86375000D03*
%TO.P,U3,5,SCLK_5*%
%TO.N,BCLK*%
X148950000Y-86375000D03*
%TO.P,U3,4,LRCK_4*%
%TO.N,LRCLK*%
X149600000Y-86375000D03*
%TO.P,U3,3,MCLK_3*%
%TO.N,MCLK*%
X150250000Y-86375000D03*
%TO.P,U3,2,XTI_2*%
%TO.N,Net-(U3-XTI)*%
X150900000Y-86375000D03*
%TO.P,U3,1,XT0_1*%
%TO.N,Net-(U3-XT0)*%
X151550000Y-86375000D03*
%TD*%
D13*
%TO.P,C30,2*%
%TO.N,VSNS_P*%
X140000000Y-97900000D03*
%TO.P,C30,1*%
%TO.N,VSNS_N*%
X141900000Y-97900000D03*
%TD*%
D14*
%TO.P,C15,2*%
%TO.N,GND*%
X159400000Y-88200000D03*
%TO.P,C15,1*%
%TO.N,Net-(U3-XTI)*%
X159400000Y-90100000D03*
%TD*%
D13*
%TO.P,C6,2*%
%TO.N,Net-(U3-FILT+)*%
X150900000Y-97900000D03*
%TO.P,C6,1*%
%TO.N,GND*%
X152800000Y-97900000D03*
%TD*%
D15*
%TO.P,Y1,2,2_2*%
%TO.N,Net-(U3-XT0)*%
X155730000Y-84650000D03*
%TO.P,Y1,1,1_1*%
%TO.N,Net-(U3-XTI)*%
X155730000Y-90150000D03*
%TD*%
D13*
%TO.P,C5,2*%
%TO.N,ISNS_P*%
X143600000Y-97900000D03*
%TO.P,C5,1*%
%TO.N,ISNS_N*%
X145500000Y-97900000D03*
%TD*%
%TO.P,C49,2*%
%TO.N,+5VA*%
X147300000Y-97900000D03*
%TO.P,C49,1*%
%TO.N,GND*%
X149200000Y-97900000D03*
%TD*%
D16*
%TO.P,C14,2*%
%TO.N,GND*%
X159400000Y-86600000D03*
%TO.P,C14,1*%
%TO.N,Net-(U3-XT0)*%
X159400000Y-84700000D03*
%TD*%
D13*
%TO.P,C47,2*%
%TO.N,+3.3V*%
X145400000Y-81000000D03*
%TO.P,C47,1*%
%TO.N,GND*%
X147300000Y-81000000D03*
%TD*%
%TO.P,C48,1*%
%TO.N,GND*%
X149200000Y-95800000D03*
%TO.P,C48,2*%
%TO.N,+5VA*%
X147300000Y-95800000D03*
%TD*%
D17*
%TO.P,C8,2*%
%TO.N,VCOM*%
X141075000Y-92337500D03*
%TO.P,C8,1*%
%TO.N,GND*%
X139175000Y-92337500D03*
%TD*%
D13*
%TO.P,C46,2*%
%TO.N,+3.3V*%
X145400000Y-83100000D03*
%TO.P,C46,1*%
%TO.N,GND*%
X147300000Y-83100000D03*
%TD*%
D17*
%TO.P,C9,2*%
%TO.N,VCOM*%
X141075000Y-94437500D03*
%TO.P,C9,1*%
%TO.N,GND*%
X139175000Y-94437500D03*
%TD*%
D13*
%TO.P,C7,1*%
%TO.N,GND*%
X152800000Y-95800000D03*
%TO.P,C7,2*%
%TO.N,Net-(U3-FILT+)*%
X150900000Y-95800000D03*
%TD*%
D18*
%TO.P,C44,2*%
%TO.N,GND*%
X160750000Y-95800000D03*
%TO.P,C44,1*%
%TO.N,Net-(U3-FILT+)*%
X156350000Y-95800000D03*
%TD*%
D11*
%TO.P,TP7,1,1_1*%
%TO.N,SIG_OUT*%
X136300000Y-80600000D03*
%TD*%
D19*
%TO.P,D9,1,K_1*%
%TO.N,Net-(D9-K-Pad1)*%
X118450000Y-104587500D03*
%TO.P,D9,2,K_2*%
%TO.N,GND*%
X119750000Y-104587500D03*
%TO.P,D9,3,A_3*%
X119100000Y-102812500D03*
%TD*%
D20*
%TO.P,J3,1,In_1*%
%TO.N,Net-(J3-In)*%
X113080000Y-111400000D03*
D21*
%TO.P,J3,2,Ext_2*%
%TO.N,GND*%
X108000000Y-116480000D03*
D20*
X113080000Y-113940000D03*
D21*
X108000000Y-106320000D03*
%TD*%
D16*
%TO.P,C24,2*%
%TO.N,GND*%
X186100000Y-83190000D03*
%TO.P,C24,1*%
%TO.N,+5VD*%
X186100000Y-81290000D03*
%TD*%
D22*
%TO.P,U10,1,IN_1*%
%TO.N,+12V*%
X193280000Y-94400000D03*
D23*
%TO.P,U10,2,GND_2*%
%TO.N,GND*%
X191000000Y-100700000D03*
D22*
%TO.P,U10,3,OUT_3*%
%TO.N,+5VA*%
X188720000Y-94400000D03*
%TD*%
%TO.P,U11,3,OUT_3*%
%TO.N,+5VD*%
X188720000Y-81300000D03*
D23*
%TO.P,U11,2,GND_2*%
%TO.N,GND*%
X191000000Y-87600000D03*
D22*
%TO.P,U11,1,IN_1*%
%TO.N,+12V*%
X193280000Y-81300000D03*
%TD*%
D16*
%TO.P,C21,1*%
%TO.N,+5VA*%
X186072500Y-94350000D03*
%TO.P,C21,2*%
%TO.N,GND*%
X186072500Y-96250000D03*
%TD*%
D24*
%TO.P,C19,1*%
%TO.N,+5VA*%
X181725000Y-94425000D03*
%TO.P,C19,2*%
%TO.N,GND*%
X181725000Y-98825000D03*
%TD*%
D25*
%TO.P,C18,1*%
%TO.N,+12V*%
X193175000Y-108725000D03*
%TO.P,C18,2*%
%TO.N,GND*%
X188775000Y-108725000D03*
%TD*%
D24*
%TO.P,C23,2*%
%TO.N,GND*%
X181777500Y-85650000D03*
%TO.P,C23,1*%
%TO.N,+5VD*%
X181777500Y-81250000D03*
%TD*%
D16*
%TO.P,C20,1*%
%TO.N,+12V*%
X195972500Y-94400000D03*
%TO.P,C20,2*%
%TO.N,GND*%
X195972500Y-96300000D03*
%TD*%
%TO.P,C22,1*%
%TO.N,+12V*%
X196000000Y-81290000D03*
%TO.P,C22,2*%
%TO.N,GND*%
X196000000Y-83190000D03*
%TD*%
D26*
%TO.P,J6,2,Pin_2_2*%
%TO.N,GND*%
X194372500Y-117965000D03*
D27*
%TO.P,J6,1,Pin_1_1*%
%TO.N,Net-(J6-Pin_1)*%
X194372500Y-123045000D03*
%TD*%
D28*
%TO.P,J7,3*%
%TO.N,GND*%
X188150000Y-129850000D03*
D29*
%TO.P,J7,2*%
X191550000Y-134650000D03*
D30*
%TO.P,J7,1*%
%TO.N,Net-(J6-Pin_1)*%
X185250000Y-134650000D03*
%TD*%
D10*
%TO.P,TP6,1,1_1*%
%TO.N,Net-(U3-AOUTA-)*%
X125600000Y-84700000D03*
%TD*%
D31*
%TO.P,TP5,1,1_1*%
%TO.N,Net-(U3-AOUTA+)*%
X133500000Y-84700000D03*
%TD*%
D10*
%TO.P,TP4,1,1_1*%
%TO.N,VSNS_N*%
X144231250Y-103900000D03*
%TD*%
%TO.P,TP3,1,1_1*%
%TO.N,VSNS_P*%
X126431250Y-104100000D03*
%TD*%
%TO.P,TP2,1,1_1*%
%TO.N,ISNS_N*%
X169231250Y-103800000D03*
%TD*%
%TO.P,TP1,1,1_1*%
%TO.N,ISNS_P*%
X151531250Y-104000000D03*
%TD*%
D16*
%TO.P,C40,1*%
%TO.N,GND*%
X126675000Y-69175000D03*
%TO.P,C40,2*%
%TO.N,+5VA*%
X126675000Y-71075000D03*
%TD*%
D17*
%TO.P,C41,2*%
%TO.N,+5VA*%
X130275000Y-65400000D03*
%TO.P,C41,1*%
%TO.N,GND*%
X128375000Y-65400000D03*
%TD*%
D16*
%TO.P,C11,1*%
%TO.N,SIG_OUT*%
X132725000Y-76543750D03*
%TO.P,C11,2*%
%TO.N,Net-(U17B--)*%
X132725000Y-78443750D03*
%TD*%
D14*
%TO.P,C13,1*%
%TO.N,Net-(U17B-+)*%
X126425000Y-78443750D03*
%TO.P,C13,2*%
%TO.N,VMID*%
X126425000Y-76543750D03*
%TD*%
D32*
%TO.P,R36,2*%
%TO.N,/sig_conn*%
X121300000Y-59000000D03*
%TO.P,R36,1*%
%TO.N,Net-(U12-S2)*%
X123125000Y-59000000D03*
%TD*%
D33*
%TO.P,R23,1*%
%TO.N,Net-(U3-AOUTA-)*%
X128525000Y-84106250D03*
%TO.P,R23,2*%
%TO.N,Net-(C12-Pad2)*%
X128525000Y-82281250D03*
%TD*%
D32*
%TO.P,R35,2*%
%TO.N,/sig_conn*%
X121287500Y-63000000D03*
%TO.P,R35,1*%
%TO.N,Net-(U12-S1)*%
X123112500Y-63000000D03*
%TD*%
%TO.P,R38,2*%
%TO.N,/sig_conn*%
X121287500Y-61000000D03*
%TO.P,R38,1*%
%TO.N,Net-(U12-S4)*%
X123112500Y-61000000D03*
%TD*%
D33*
%TO.P,R19,1*%
%TO.N,Net-(C12-Pad2)*%
X128525000Y-78406250D03*
%TO.P,R19,2*%
%TO.N,Net-(U17B-+)*%
X128525000Y-76581250D03*
%TD*%
%TO.P,R20,1*%
%TO.N,Net-(C12-Pad1)*%
X130625000Y-78406250D03*
%TO.P,R20,2*%
%TO.N,Net-(U17B--)*%
X130625000Y-76581250D03*
%TD*%
D13*
%TO.P,C12,1*%
%TO.N,Net-(C12-Pad1)*%
X130475000Y-80393750D03*
%TO.P,C12,2*%
%TO.N,Net-(C12-Pad2)*%
X128575000Y-80393750D03*
%TD*%
D34*
%TO.P,U12,10,A1_10*%
%TO.N,RSEL_1*%
X130251700Y-61117700D03*
D35*
%TO.P,U12,9,S2_9*%
%TO.N,Net-(U12-S2)*%
X130251700Y-61867700D03*
%TO.P,U12,8,COM_8*%
%TO.N,/sig_buf*%
X130251700Y-62367700D03*
%TO.P,U12,7,S4_7*%
%TO.N,Net-(U12-S4)*%
X130251700Y-62867700D03*
D34*
%TO.P,U12,6,V+_6*%
%TO.N,+5VA*%
X130251700Y-63617700D03*
%TO.P,U12,5,EN_5*%
X125751700Y-63617700D03*
D35*
%TO.P,U12,4,S3_4*%
%TO.N,Net-(U12-S3)*%
X125751700Y-62867700D03*
%TO.P,U12,3,V-_3*%
%TO.N,GND*%
X125751700Y-62367700D03*
%TO.P,U12,2,S1_2*%
%TO.N,Net-(U12-S1)*%
X125751700Y-61867700D03*
D34*
%TO.P,U12,1,A0_1*%
%TO.N,RSEL_0*%
X125751700Y-61117700D03*
%TD*%
D33*
%TO.P,R22,1*%
%TO.N,Net-(U3-AOUTA+)*%
X130625000Y-84106250D03*
%TO.P,R22,2*%
%TO.N,Net-(C12-Pad1)*%
X130625000Y-82281250D03*
%TD*%
D36*
%TO.P,U17,1*%
%TO.N,/sig_buf*%
X132840000Y-69043750D03*
%TO.P,U17,2,-_2*%
X131570000Y-69043750D03*
%TO.P,U17,3,+_3*%
%TO.N,SIG_OUT*%
X130300000Y-69043750D03*
%TO.P,U17,4,V-_4*%
%TO.N,GND*%
X129030000Y-69043750D03*
%TO.P,U17,5,+_5*%
%TO.N,Net-(U17B-+)*%
X129030000Y-73993750D03*
%TO.P,U17,6,-_6*%
%TO.N,Net-(U17B--)*%
X130300000Y-73993750D03*
%TO.P,U17,7*%
%TO.N,SIG_OUT*%
X131570000Y-73993750D03*
%TO.P,U17,8,V+_8*%
%TO.N,+5VA*%
X132840000Y-73993750D03*
%TD*%
D37*
%TO.P,R24,1*%
%TO.N,VMID*%
X126425000Y-80181250D03*
%TO.P,R24,2*%
%TO.N,Net-(C12-Pad2)*%
X126425000Y-82006250D03*
%TD*%
D33*
%TO.P,R21,1*%
%TO.N,Net-(C12-Pad1)*%
X132725000Y-82006250D03*
%TO.P,R21,2*%
%TO.N,SIG_OUT*%
X132725000Y-80181250D03*
%TD*%
D32*
%TO.P,R37,2*%
%TO.N,/sig_conn*%
X121275000Y-65000000D03*
%TO.P,R37,1*%
%TO.N,Net-(U12-S3)*%
X123100000Y-65000000D03*
%TD*%
D37*
%TO.P,R59,1*%
%TO.N,Net-(D9-K-Pad1)*%
X120200000Y-122787500D03*
%TO.P,R59,2*%
%TO.N,/TIA_FB*%
X120200000Y-124612500D03*
%TD*%
D13*
%TO.P,C43,1*%
%TO.N,GND*%
X137218750Y-139395000D03*
%TO.P,C43,2*%
%TO.N,+5VA*%
X135318750Y-139395000D03*
%TD*%
D38*
%TO.P,D8,1,K_1*%
%TO.N,/TIA_FB*%
X121230000Y-135200000D03*
%TO.P,D8,2,K_2*%
%TO.N,GND*%
X119930000Y-135200000D03*
%TO.P,D8,3,A_3*%
X120580000Y-136975000D03*
%TD*%
D39*
%TO.P,F4,1*%
%TO.N,Net-(J4-In)*%
X118530000Y-133020000D03*
%TO.P,F4,2*%
%TO.N,/TIA_FB*%
X121330000Y-133020000D03*
%TD*%
D33*
%TO.P,R31,1*%
%TO.N,Net-(U9-S1)*%
X129718750Y-143625000D03*
%TO.P,R31,2*%
%TO.N,/TIA_FB*%
X129718750Y-141800000D03*
%TD*%
D17*
%TO.P,C42,1*%
%TO.N,GND*%
X135168750Y-145300000D03*
%TO.P,C42,2*%
%TO.N,+5VA*%
X137068750Y-145300000D03*
%TD*%
D33*
%TO.P,R29,2*%
%TO.N,/TIA_FB*%
X127718750Y-141800000D03*
%TO.P,R29,1*%
%TO.N,Net-(U9-S3)*%
X127718750Y-143625000D03*
%TD*%
D16*
%TO.P,C17,1*%
%TO.N,/TIA_FB*%
X125718750Y-141762500D03*
%TO.P,C17,2*%
%TO.N,Net-(U9-S3)*%
X125718750Y-143662500D03*
%TD*%
D37*
%TO.P,R28,1*%
%TO.N,Net-(U9-S4)*%
X127718750Y-138325000D03*
%TO.P,R28,2*%
%TO.N,/TIA_FB*%
X127718750Y-140150000D03*
%TD*%
D14*
%TO.P,C16,1*%
%TO.N,/TIA_FB*%
X125718750Y-140187500D03*
%TO.P,C16,2*%
%TO.N,Net-(U9-S4)*%
X125718750Y-138287500D03*
%TD*%
D34*
%TO.P,U9,1,A0_1*%
%TO.N,RSEL_0*%
X132545450Y-141242700D03*
D35*
%TO.P,U9,2,S1_2*%
%TO.N,Net-(U9-S1)*%
X132545450Y-141992700D03*
%TO.P,U9,3,V-_3*%
%TO.N,GND*%
X132545450Y-142492700D03*
%TO.P,U9,4,S3_4*%
%TO.N,Net-(U9-S3)*%
X132545450Y-142992700D03*
D34*
%TO.P,U9,5,EN_5*%
%TO.N,+5VA*%
X132545450Y-143742700D03*
%TO.P,U9,6,V+_6*%
X137045450Y-143742700D03*
D35*
%TO.P,U9,7,S4_7*%
%TO.N,Net-(U9-S4)*%
X137045450Y-142992700D03*
%TO.P,U9,8,COM_8*%
%TO.N,/TIA_OUT*%
X137045450Y-142492700D03*
%TO.P,U9,9,S2_9*%
%TO.N,Net-(U9-S2)*%
X137045450Y-141992700D03*
D34*
%TO.P,U9,10,A1_10*%
%TO.N,RSEL_1*%
X137045450Y-141242700D03*
%TD*%
D37*
%TO.P,R30,1*%
%TO.N,Net-(U9-S2)*%
X129718750Y-138337500D03*
%TO.P,R30,2*%
%TO.N,/TIA_FB*%
X129718750Y-140162500D03*
%TD*%
D40*
%TO.P,U7,5,V+_5*%
%TO.N,+5VA*%
X134856250Y-137550000D03*
%TO.P,U7,4,-_4*%
%TO.N,/TIA_FB*%
X134856250Y-135650000D03*
%TO.P,U7,3,+_3*%
%TO.N,Net-(U7-+)*%
X137131250Y-135650000D03*
%TO.P,U7,2,V-_2*%
%TO.N,GND*%
X137131250Y-136600000D03*
%TO.P,U7,1*%
%TO.N,/TIA_OUT*%
X137131250Y-137550000D03*
%TD*%
D37*
%TO.P,R27,1*%
%TO.N,Net-(U7-+)*%
X143093750Y-135687500D03*
%TO.P,R27,2*%
%TO.N,VMID*%
X143093750Y-137512500D03*
%TD*%
D14*
%TO.P,C51,1*%
%TO.N,GND*%
X140993750Y-137550000D03*
%TO.P,C51,2*%
%TO.N,Net-(U7-+)*%
X140993750Y-135650000D03*
%TD*%
%TO.P,C27,1*%
%TO.N,GND*%
X139906250Y-109250000D03*
%TO.P,C27,2*%
%TO.N,VCOM*%
X139906250Y-107350000D03*
%TD*%
D41*
%TO.P,R47,1*%
%TO.N,Net-(U14-Y3)*%
X128481250Y-129500000D03*
%TO.P,R47,2*%
%TO.N,Net-(R42-Pad2)*%
X130306250Y-129500000D03*
%TD*%
D33*
%TO.P,R49,1*%
%TO.N,Net-(U14-X1)*%
X141693750Y-124312500D03*
%TO.P,R49,2*%
%TO.N,Net-(U14-X2)*%
X141693750Y-122487500D03*
%TD*%
%TO.P,R17,1*%
%TO.N,Net-(U14-X0)*%
X142406250Y-118912500D03*
%TO.P,R17,2*%
%TO.N,Net-(U13A--)*%
X142406250Y-117087500D03*
%TD*%
D37*
%TO.P,R46,1*%
%TO.N,Net-(U14-Y2)*%
X128493750Y-125775000D03*
%TO.P,R46,2*%
%TO.N,Net-(U14-Y3)*%
X128493750Y-127600000D03*
%TD*%
D41*
%TO.P,R45,1*%
%TO.N,Net-(U14-Y1)*%
X128281250Y-123900000D03*
%TO.P,R45,2*%
%TO.N,Net-(U14-Y2)*%
X130106250Y-123900000D03*
%TD*%
D37*
%TO.P,R55,1*%
%TO.N,VSNS_N*%
X144206250Y-106400000D03*
%TO.P,R55,2*%
%TO.N,Net-(U15--)*%
X144206250Y-108225000D03*
%TD*%
%TO.P,R50,1*%
%TO.N,Net-(U14-X2)*%
X141693750Y-125987500D03*
%TO.P,R50,2*%
%TO.N,Net-(U14-X3)*%
X141693750Y-127812500D03*
%TD*%
%TO.P,R54,1*%
%TO.N,VSNS_P*%
X128506250Y-106387500D03*
%TO.P,R54,2*%
%TO.N,Net-(U15-+)*%
X128506250Y-108212500D03*
%TD*%
D17*
%TO.P,C38,1*%
%TO.N,GND*%
X134256250Y-104200000D03*
%TO.P,C38,2*%
%TO.N,+5VA*%
X136156250Y-104200000D03*
%TD*%
D37*
%TO.P,R48,1*%
%TO.N,Net-(U14-X0)*%
X143693750Y-122487500D03*
%TO.P,R48,2*%
%TO.N,Net-(U14-X1)*%
X143693750Y-124312500D03*
%TD*%
D33*
%TO.P,R41,1*%
%TO.N,Net-(U14-Y0)*%
X128106250Y-117943750D03*
%TO.P,R41,2*%
%TO.N,Net-(U13B--)*%
X128106250Y-116118750D03*
%TD*%
D37*
%TO.P,R53,1*%
%TO.N,Net-(U15--)*%
X134206250Y-110462500D03*
%TO.P,R53,2*%
%TO.N,Net-(U14-Y0)*%
X134206250Y-112287500D03*
%TD*%
D32*
%TO.P,R44,1*%
%TO.N,Net-(U14-Y0)*%
X130106250Y-121800000D03*
%TO.P,R44,2*%
%TO.N,Net-(U14-Y1)*%
X128281250Y-121800000D03*
%TD*%
%TO.P,R43,1*%
%TO.N,Net-(R42-Pad2)*%
X134506250Y-122200000D03*
%TO.P,R43,2*%
%TO.N,Net-(U14-Y0)*%
X132681250Y-122200000D03*
%TD*%
D33*
%TO.P,R39,1*%
%TO.N,Net-(U13A-+)*%
X140300000Y-115412500D03*
%TO.P,R39,2*%
%TO.N,Net-(D10-K-Pad1)*%
X140300000Y-113587500D03*
%TD*%
D17*
%TO.P,C37,1*%
%TO.N,GND*%
X133543750Y-130905000D03*
%TO.P,C37,2*%
%TO.N,+5VA*%
X135443750Y-130905000D03*
%TD*%
D42*
%TO.P,U13,1*%
%TO.N,Net-(U14-X0)*%
X137781250Y-118305000D03*
%TO.P,U13,2,-_2*%
%TO.N,Net-(U13A--)*%
X137781250Y-117035000D03*
%TO.P,U13,3,+_3*%
%TO.N,Net-(U13A-+)*%
X137781250Y-115765000D03*
%TO.P,U13,4,V-_4*%
%TO.N,GND*%
X137781250Y-114495000D03*
%TO.P,U13,5,+_5*%
%TO.N,Net-(U13B-+)*%
X132831250Y-114495000D03*
%TO.P,U13,6,-_6*%
%TO.N,Net-(U13B--)*%
X132831250Y-115765000D03*
%TO.P,U13,7*%
%TO.N,Net-(U14-Y0)*%
X132831250Y-117035000D03*
%TO.P,U13,8,V+_8*%
%TO.N,+5VA*%
X132831250Y-118305000D03*
%TD*%
D32*
%TO.P,R40,1*%
%TO.N,Net-(U13B-+)*%
X130041250Y-114127500D03*
%TO.P,R40,2*%
%TO.N,Net-(D9-K-Pad1)*%
X128216250Y-114127500D03*
%TD*%
D37*
%TO.P,R52,1*%
%TO.N,Net-(U15-+)*%
X136206250Y-110462500D03*
%TO.P,R52,2*%
%TO.N,Net-(U14-X0)*%
X136206250Y-112287500D03*
%TD*%
D41*
%TO.P,R56,1*%
%TO.N,VSNS_P*%
X130493750Y-104181250D03*
%TO.P,R56,2*%
%TO.N,Net-(C28-Pad2)*%
X132318750Y-104181250D03*
%TD*%
D13*
%TO.P,C39,1*%
%TO.N,GND*%
X134531250Y-120095000D03*
%TO.P,C39,2*%
%TO.N,+5VA*%
X132631250Y-120095000D03*
%TD*%
D43*
%TO.P,U15,1,-_1*%
%TO.N,Net-(U15--)*%
X137356250Y-108275000D03*
%TO.P,U15,2,V_{OCM}_2*%
%TO.N,VCOM*%
X137356250Y-107625000D03*
%TO.P,U15,3,V_{S+}_3*%
%TO.N,+5VA*%
X137356250Y-106975000D03*
%TO.P,U15,4*%
%TO.N,Net-(C29-Pad2)*%
X137356250Y-106325000D03*
%TO.P,U15,5*%
%TO.N,Net-(C28-Pad2)*%
X133056250Y-106325000D03*
%TO.P,U15,6,V_{S-}_6*%
%TO.N,GND*%
X133056250Y-106975000D03*
%TO.P,U15,7,~{PD}_7*%
%TO.N,+5VA*%
X133056250Y-107625000D03*
%TO.P,U15,8,+_8*%
%TO.N,Net-(U15-+)*%
X133056250Y-108275000D03*
%TD*%
D14*
%TO.P,C29,1*%
%TO.N,Net-(U15--)*%
X142106250Y-108250000D03*
%TO.P,C29,2*%
%TO.N,Net-(C29-Pad2)*%
X142106250Y-106350000D03*
%TD*%
D32*
%TO.P,R51,1*%
%TO.N,Net-(U14-X3)*%
X143506250Y-129700000D03*
%TO.P,R51,2*%
%TO.N,Net-(R42-Pad2)*%
X141681250Y-129700000D03*
%TD*%
%TO.P,R42,1*%
%TO.N,Net-(U14-X0)*%
X138006250Y-122200000D03*
%TO.P,R42,2*%
%TO.N,Net-(R42-Pad2)*%
X136181250Y-122200000D03*
%TD*%
%TO.P,R57,1*%
%TO.N,VSNS_N*%
X139931250Y-104181250D03*
%TO.P,R57,2*%
%TO.N,Net-(C29-Pad2)*%
X138106250Y-104181250D03*
%TD*%
D14*
%TO.P,C28,1*%
%TO.N,Net-(U15-+)*%
X130606250Y-108250000D03*
%TO.P,C28,2*%
%TO.N,Net-(C28-Pad2)*%
X130606250Y-106350000D03*
%TD*%
D44*
%TO.P,U14,1,Y0_1*%
%TO.N,Net-(U14-Y0)*%
X132731250Y-124125000D03*
%TO.P,U14,2,Y2_2*%
%TO.N,Net-(U14-Y2)*%
X132731250Y-124775000D03*
%TO.P,U14,3,Y_3*%
%TO.N,Net-(U13B--)*%
X132731250Y-125425000D03*
%TO.P,U14,4,Y3_4*%
%TO.N,Net-(U14-Y3)*%
X132731250Y-126075000D03*
%TO.P,U14,5,Y1_5*%
%TO.N,Net-(U14-Y1)*%
X132731250Y-126725000D03*
%TO.P,U14,6,EN_6*%
%TO.N,GND*%
X132731250Y-127375000D03*
%TO.P,U14,7,V-_7*%
X132731250Y-128025000D03*
%TO.P,U14,8,GND_8*%
X132731250Y-128675000D03*
%TO.P,U14,9,B_9*%
%TO.N,PGA_V_1*%
X138456250Y-128675000D03*
%TO.P,U14,10,A_10*%
%TO.N,PGA_V_0*%
X138456250Y-128025000D03*
%TO.P,U14,11,X3_11*%
%TO.N,Net-(U14-X3)*%
X138456250Y-127375000D03*
%TO.P,U14,12,X0_12*%
%TO.N,Net-(U14-X0)*%
X138456250Y-126725000D03*
%TO.P,U14,13,X_13*%
%TO.N,Net-(U13A--)*%
X138456250Y-126075000D03*
%TO.P,U14,14,X1_14*%
%TO.N,Net-(U14-X1)*%
X138456250Y-125425000D03*
%TO.P,U14,15,X2_15*%
%TO.N,Net-(U14-X2)*%
X138456250Y-124775000D03*
%TO.P,U14,16,V+_16*%
%TO.N,+5VA*%
X138456250Y-124125000D03*
%TD*%
D16*
%TO.P,C26,1*%
%TO.N,Net-(U13B--)*%
X130306250Y-116081250D03*
%TO.P,C26,2*%
%TO.N,Net-(U14-Y0)*%
X130306250Y-117981250D03*
%TD*%
%TO.P,C25,1*%
%TO.N,Net-(U13A--)*%
X140306250Y-117050000D03*
%TO.P,C25,2*%
%TO.N,Net-(U14-X0)*%
X140306250Y-118950000D03*
%TD*%
D37*
%TO.P,R6,1*%
%TO.N,Net-(U4-X2)*%
X166743750Y-125887500D03*
%TO.P,R6,2*%
%TO.N,Net-(U4-X3)*%
X166743750Y-127712500D03*
%TD*%
D14*
%TO.P,C3,1*%
%TO.N,Net-(U2-+)*%
X155656250Y-108150000D03*
%TO.P,C3,2*%
%TO.N,Net-(C3-Pad2)*%
X155656250Y-106250000D03*
%TD*%
D43*
%TO.P,U2,1,-_1*%
%TO.N,Net-(U2--)*%
X162406250Y-108175000D03*
%TO.P,U2,2,V_{OCM}_2*%
%TO.N,VCOM*%
X162406250Y-107525000D03*
%TO.P,U2,3,V_{S+}_3*%
%TO.N,+5VA*%
X162406250Y-106875000D03*
%TO.P,U2,4*%
%TO.N,Net-(C4-Pad2)*%
X162406250Y-106225000D03*
%TO.P,U2,5*%
%TO.N,Net-(C3-Pad2)*%
X158106250Y-106225000D03*
%TO.P,U2,6,V_{S-}_6*%
%TO.N,GND*%
X158106250Y-106875000D03*
%TO.P,U2,7,~{PD}_7*%
%TO.N,+5VA*%
X158106250Y-107525000D03*
%TO.P,U2,8,+_8*%
%TO.N,Net-(U2-+)*%
X158106250Y-108175000D03*
%TD*%
D33*
%TO.P,R10,1*%
%TO.N,Net-(U4-Y0)*%
X153156250Y-117843750D03*
%TO.P,R10,2*%
%TO.N,Net-(U1B--)*%
X153156250Y-116018750D03*
%TD*%
D32*
%TO.P,R33,1*%
%TO.N,Net-(U1B-+)*%
X155443750Y-114000000D03*
%TO.P,R33,2*%
%TO.N,/TIA_FB*%
X153618750Y-114000000D03*
%TD*%
%TO.P,R18,1*%
%TO.N,ISNS_N*%
X164981250Y-104081250D03*
%TO.P,R18,2*%
%TO.N,Net-(C4-Pad2)*%
X163156250Y-104081250D03*
%TD*%
D37*
%TO.P,R8,1*%
%TO.N,Net-(U4-X0)*%
X168743750Y-122387500D03*
%TO.P,R8,2*%
%TO.N,Net-(U4-X1)*%
X168743750Y-124212500D03*
%TD*%
D17*
%TO.P,C35,1*%
%TO.N,GND*%
X158593750Y-130805000D03*
%TO.P,C35,2*%
%TO.N,+5VA*%
X160493750Y-130805000D03*
%TD*%
D37*
%TO.P,R13,1*%
%TO.N,Net-(U2-+)*%
X161256250Y-110362500D03*
%TO.P,R13,2*%
%TO.N,Net-(U4-X0)*%
X161256250Y-112187500D03*
%TD*%
D32*
%TO.P,R12,1*%
%TO.N,Net-(R11-Pad2)*%
X159556250Y-122100000D03*
%TO.P,R12,2*%
%TO.N,Net-(U4-Y0)*%
X157731250Y-122100000D03*
%TD*%
D37*
%TO.P,R14,1*%
%TO.N,Net-(U2--)*%
X159256250Y-110362500D03*
%TO.P,R14,2*%
%TO.N,Net-(U4-Y0)*%
X159256250Y-112187500D03*
%TD*%
D41*
%TO.P,R2,1*%
%TO.N,Net-(U4-Y1)*%
X153331250Y-123800000D03*
%TO.P,R2,2*%
%TO.N,Net-(U4-Y2)*%
X155156250Y-123800000D03*
%TD*%
D42*
%TO.P,U1,1*%
%TO.N,Net-(U4-X0)*%
X162831250Y-118205000D03*
%TO.P,U1,2,-_2*%
%TO.N,Net-(U1A--)*%
X162831250Y-116935000D03*
%TO.P,U1,3,+_3*%
%TO.N,Net-(U1A-+)*%
X162831250Y-115665000D03*
%TO.P,U1,4,V-_4*%
%TO.N,GND*%
X162831250Y-114395000D03*
%TO.P,U1,5,+_5*%
%TO.N,Net-(U1B-+)*%
X157881250Y-114395000D03*
%TO.P,U1,6,-_6*%
%TO.N,Net-(U1B--)*%
X157881250Y-115665000D03*
%TO.P,U1,7*%
%TO.N,Net-(U4-Y0)*%
X157881250Y-116935000D03*
%TO.P,U1,8,V+_8*%
%TO.N,+5VA*%
X157881250Y-118205000D03*
%TD*%
D33*
%TO.P,R7,1*%
%TO.N,Net-(U4-X1)*%
X166743750Y-124212500D03*
%TO.P,R7,2*%
%TO.N,Net-(U4-X2)*%
X166743750Y-122387500D03*
%TD*%
D13*
%TO.P,C36,1*%
%TO.N,GND*%
X159581250Y-119995000D03*
%TO.P,C36,2*%
%TO.N,+5VA*%
X157681250Y-119995000D03*
%TD*%
D37*
%TO.P,R15,1*%
%TO.N,ISNS_P*%
X153556250Y-106287500D03*
%TO.P,R15,2*%
%TO.N,Net-(U2-+)*%
X153556250Y-108112500D03*
%TD*%
D14*
%TO.P,C4,1*%
%TO.N,Net-(U2--)*%
X167156250Y-108150000D03*
%TO.P,C4,2*%
%TO.N,Net-(C4-Pad2)*%
X167156250Y-106250000D03*
%TD*%
D41*
%TO.P,R4,1*%
%TO.N,Net-(U4-Y3)*%
X153531250Y-129400000D03*
%TO.P,R4,2*%
%TO.N,Net-(R11-Pad2)*%
X155356250Y-129400000D03*
%TD*%
D32*
%TO.P,R1,1*%
%TO.N,Net-(U4-Y0)*%
X155156250Y-121700000D03*
%TO.P,R1,2*%
%TO.N,Net-(U4-Y1)*%
X153331250Y-121700000D03*
%TD*%
D33*
%TO.P,R9,1*%
%TO.N,Net-(U4-X0)*%
X167456250Y-118812500D03*
%TO.P,R9,2*%
%TO.N,Net-(U1A--)*%
X167456250Y-116987500D03*
%TD*%
D16*
%TO.P,C1,1*%
%TO.N,Net-(U1A--)*%
X165356250Y-116950000D03*
%TO.P,C1,2*%
%TO.N,Net-(U4-X0)*%
X165356250Y-118850000D03*
%TD*%
D41*
%TO.P,R16,1*%
%TO.N,ISNS_P*%
X155543750Y-104081250D03*
%TO.P,R16,2*%
%TO.N,Net-(C3-Pad2)*%
X157368750Y-104081250D03*
%TD*%
D32*
%TO.P,R5,1*%
%TO.N,Net-(U4-X3)*%
X168556250Y-129600000D03*
%TO.P,R5,2*%
%TO.N,Net-(R11-Pad2)*%
X166731250Y-129600000D03*
%TD*%
%TO.P,R11,1*%
%TO.N,Net-(U4-X0)*%
X163056250Y-122100000D03*
%TO.P,R11,2*%
%TO.N,Net-(R11-Pad2)*%
X161231250Y-122100000D03*
%TD*%
D44*
%TO.P,U4,1,Y0_1*%
%TO.N,Net-(U4-Y0)*%
X157781250Y-124025000D03*
%TO.P,U4,2,Y2_2*%
%TO.N,Net-(U4-Y2)*%
X157781250Y-124675000D03*
%TO.P,U4,3,Y_3*%
%TO.N,Net-(U1B--)*%
X157781250Y-125325000D03*
%TO.P,U4,4,Y3_4*%
%TO.N,Net-(U4-Y3)*%
X157781250Y-125975000D03*
%TO.P,U4,5,Y1_5*%
%TO.N,Net-(U4-Y1)*%
X157781250Y-126625000D03*
%TO.P,U4,6,EN_6*%
%TO.N,GND*%
X157781250Y-127275000D03*
%TO.P,U4,7,V-_7*%
X157781250Y-127925000D03*
%TO.P,U4,8,GND_8*%
X157781250Y-128575000D03*
%TO.P,U4,9,B_9*%
%TO.N,PGA_I_1*%
X163506250Y-128575000D03*
%TO.P,U4,10,A_10*%
%TO.N,PGA_I_0*%
X163506250Y-127925000D03*
%TO.P,U4,11,X3_11*%
%TO.N,Net-(U4-X3)*%
X163506250Y-127275000D03*
%TO.P,U4,12,X0_12*%
%TO.N,Net-(U4-X0)*%
X163506250Y-126625000D03*
%TO.P,U4,13,X_13*%
%TO.N,Net-(U1A--)*%
X163506250Y-125975000D03*
%TO.P,U4,14,X1_14*%
%TO.N,Net-(U4-X1)*%
X163506250Y-125325000D03*
%TO.P,U4,15,X2_15*%
%TO.N,Net-(U4-X2)*%
X163506250Y-124675000D03*
%TO.P,U4,16,V+_16*%
%TO.N,+5VA*%
X163506250Y-124025000D03*
%TD*%
D14*
%TO.P,C10,1*%
%TO.N,GND*%
X164956250Y-109150000D03*
%TO.P,C10,2*%
%TO.N,VCOM*%
X164956250Y-107250000D03*
%TD*%
D37*
%TO.P,R34,1*%
%TO.N,ISNS_N*%
X169256250Y-106300000D03*
%TO.P,R34,2*%
%TO.N,Net-(U2--)*%
X169256250Y-108125000D03*
%TD*%
D41*
%TO.P,R32,1*%
%TO.N,Net-(U1A-+)*%
X165418750Y-115100000D03*
%TO.P,R32,2*%
%TO.N,/TIA_OUT*%
X167243750Y-115100000D03*
%TD*%
D37*
%TO.P,R3,1*%
%TO.N,Net-(U4-Y2)*%
X153543750Y-125675000D03*
%TO.P,R3,2*%
%TO.N,Net-(U4-Y3)*%
X153543750Y-127500000D03*
%TD*%
D17*
%TO.P,C34,1*%
%TO.N,GND*%
X159306250Y-104100000D03*
%TO.P,C34,2*%
%TO.N,+5VA*%
X161206250Y-104100000D03*
%TD*%
D16*
%TO.P,C2,1*%
%TO.N,Net-(U1B--)*%
X155356250Y-115981250D03*
%TO.P,C2,2*%
%TO.N,Net-(U4-Y0)*%
X155356250Y-117881250D03*
%TD*%
D32*
%TO.P,R62,2*%
%TO.N,GND*%
X129887500Y-94812500D03*
%TO.P,R62,1*%
%TO.N,Net-(U16-+)*%
X131712500Y-94812500D03*
%TD*%
D41*
%TO.P,R61,2*%
%TO.N,Net-(U16-+)*%
X131712500Y-99012500D03*
%TO.P,R61,1*%
%TO.N,+5VA*%
X129887500Y-99012500D03*
%TD*%
D13*
%TO.P,C33,2*%
%TO.N,GND*%
X129850000Y-96912500D03*
%TO.P,C33,1*%
%TO.N,Net-(U16-+)*%
X131750000Y-96912500D03*
%TD*%
D14*
%TO.P,C45,2*%
%TO.N,+5VA*%
X127905000Y-90537500D03*
%TO.P,C45,1*%
%TO.N,GND*%
X127905000Y-92437500D03*
%TD*%
D45*
%TO.P,U16,5,V+_5*%
%TO.N,+5VA*%
X129850000Y-90375000D03*
%TO.P,U16,4,-_4*%
%TO.N,VMID*%
X131750000Y-90375000D03*
%TO.P,U16,3,+_3*%
%TO.N,Net-(U16-+)*%
X131750000Y-92650000D03*
%TO.P,U16,2,V-_2*%
%TO.N,GND*%
X130800000Y-92650000D03*
%TO.P,U16,1*%
%TO.N,VMID*%
X129850000Y-92650000D03*
%TD*%
D46*
%TO.P,JP1,2,B_2*%
%TO.N,/sig_buf*%
X178800000Y-136560000D03*
D47*
%TO.P,JP1,1,A_1*%
%TO.N,/sig_conn*%
X178800000Y-134020000D03*
%TD*%
D38*
%TO.P,D10,3,A_3*%
%TO.N,GND*%
X119100000Y-100980833D03*
%TO.P,D10,2,K_2*%
X118450000Y-99205833D03*
%TO.P,D10,1,K_1*%
%TO.N,Net-(D10-K-Pad1)*%
X119750000Y-99205833D03*
%TD*%
D21*
%TO.P,J4,2,Ext_2*%
%TO.N,GND*%
X108000000Y-127920000D03*
D20*
X113080000Y-135540000D03*
D21*
X108000000Y-138080000D03*
D20*
%TO.P,J4,1,In_1*%
%TO.N,Net-(J4-In)*%
X113080000Y-133000000D03*
%TD*%
D21*
%TO.P,J1,2,Ext_2*%
%TO.N,GND*%
X108000000Y-63120000D03*
D20*
X113080000Y-70740000D03*
D21*
X108000000Y-73280000D03*
D20*
%TO.P,J1,1,In_1*%
%TO.N,Net-(J1-In)*%
X113080000Y-68200000D03*
%TD*%
D33*
%TO.P,R58,2*%
%TO.N,Net-(D10-K-Pad1)*%
X119600000Y-78487500D03*
%TO.P,R58,1*%
%TO.N,/sig_conn*%
X119600000Y-80312500D03*
%TD*%
D41*
%TO.P,R25,2*%
%TO.N,SDA*%
X175212500Y-133200000D03*
%TO.P,R25,1*%
%TO.N,+3.3V*%
X173387500Y-133200000D03*
%TD*%
D21*
%TO.P,J2,2,Ext_2*%
%TO.N,GND*%
X108000000Y-84720000D03*
D20*
X113080000Y-92340000D03*
D21*
X108000000Y-94880000D03*
D20*
%TO.P,J2,1,In_1*%
%TO.N,Net-(J2-In)*%
X113080000Y-89800000D03*
%TD*%
D41*
%TO.P,R26,2*%
%TO.N,SCL*%
X175212500Y-136150000D03*
%TO.P,R26,1*%
%TO.N,+3.3V*%
X173387500Y-136150000D03*
%TD*%
D48*
%TO.P,F2,2*%
%TO.N,Net-(D10-K-Pad1)*%
X119700000Y-97000000D03*
%TO.P,F2,1*%
%TO.N,Net-(J2-In)*%
X119700000Y-94200000D03*
%TD*%
D49*
%TO.P,F3,2*%
%TO.N,Net-(D9-K-Pad1)*%
X119600000Y-106800000D03*
%TO.P,F3,1*%
%TO.N,Net-(J3-In)*%
X119600000Y-109600000D03*
%TD*%
D39*
%TO.P,F1,2*%
%TO.N,/sig_conn*%
X121330000Y-68200000D03*
%TO.P,F1,1*%
%TO.N,Net-(J1-In)*%
X118530000Y-68200000D03*
%TD*%
D38*
%TO.P,D11,3,A_3*%
%TO.N,GND*%
X120730000Y-72287500D03*
%TO.P,D11,2,K_2*%
X120080000Y-70512500D03*
%TO.P,D11,1,K_1*%
%TO.N,/sig_conn*%
X121380000Y-70512500D03*
%TD*%
D50*
%TO.P,H3,1,1_1*%
%TO.N,unconnected-(H3-Pad1)_1*%
X104000000Y-146000000D03*
D51*
%TO.N,unconnected-(H3-Pad1)_2*%
X104000000Y-146000000D03*
%TD*%
D50*
%TO.P,H2,1,1_1*%
%TO.N,unconnected-(H2-Pad1)*%
X196000000Y-54000000D03*
D51*
%TO.N,unconnected-(H2-Pad1)_2*%
X196000000Y-54000000D03*
%TD*%
D50*
%TO.P,H1,1,1_1*%
%TO.N,unconnected-(H1-Pad1)_2*%
X104000000Y-54000000D03*
D51*
%TO.N,unconnected-(H1-Pad1)_1*%
X104000000Y-54000000D03*
%TD*%
D50*
%TO.P,H4,1,1_1*%
%TO.N,unconnected-(H4-Pad1)*%
X196000000Y-146000000D03*
D51*
%TO.N,unconnected-(H4-Pad1)_1*%
X196000000Y-146000000D03*
%TD*%
D41*
%TO.P,R63,1*%
%TO.N,+5VD*%
X161900000Y-144720000D03*
%TO.P,R63,2*%
%TO.N,Net-(J9-Pin_8)*%
X163725000Y-144720000D03*
%TD*%
D47*
%TO.P,J8,1,Pin_1_1*%
%TO.N,/BTN1*%
X151340000Y-54400000D03*
D46*
%TO.P,J8,2,Pin_2_2*%
%TO.N,/BTN2*%
X148800000Y-54400000D03*
%TO.P,J8,3,Pin_3_3*%
%TO.N,/BTN3*%
X146260000Y-54400000D03*
%TO.P,J8,4,Pin_4_4*%
%TO.N,/BTN4*%
X143720000Y-54400000D03*
%TO.P,J8,5,Pin_5_5*%
%TO.N,/BTN5*%
X141180000Y-54400000D03*
%TO.P,J8,6,Pin_6_6*%
%TO.N,/BTN6*%
X138640000Y-54400000D03*
%TO.P,J8,7,Pin_7_7*%
%TO.N,/BTN7*%
X136100000Y-54400000D03*
%TO.P,J8,8,Pin_8_8*%
%TO.N,/BTN8*%
X133560000Y-54400000D03*
%TO.P,J8,9,Pin_9_9*%
%TO.N,GND*%
X131020000Y-54400000D03*
%TD*%
D47*
%TO.P,J9,1,Pin_1_1*%
%TO.N,+5VD*%
X189820000Y-54400000D03*
D46*
%TO.P,J9,2,Pin_2_2*%
%TO.N,GND*%
X187280000Y-54400000D03*
%TO.P,J9,3,Pin_3_3*%
%TO.N,/DISP_CS*%
X184740000Y-54400000D03*
%TO.P,J9,4,Pin_4_4*%
%TO.N,/DISP_RESET*%
X182200000Y-54400000D03*
%TO.P,J9,5,Pin_5_5*%
%TO.N,/DISP_DC*%
X179660000Y-54400000D03*
%TO.P,J9,6,Pin_6_6*%
%TO.N,/DISP_MOSI*%
X177120000Y-54400000D03*
%TO.P,J9,7,Pin_7_7*%
%TO.N,/DISP_SCK*%
X174580000Y-54400000D03*
%TO.P,J9,8,Pin_8_8*%
%TO.N,Net-(J9-Pin_8)*%
X172040000Y-54400000D03*
%TO.P,J9,9,Pin_9_9*%
%TO.N,/DISP_MISO*%
X169500000Y-54400000D03*
%TO.P,J9,10,Pin_10_10*%
%TO.N,/DISP_SCK*%
X166960000Y-54400000D03*
%TO.P,J9,11,Pin_11_11*%
%TO.N,/DISP_T_CS*%
X164420000Y-54400000D03*
%TO.P,J9,12,Pin_12_12*%
%TO.N,/DISP_MOSI*%
X161880000Y-54400000D03*
%TO.P,J9,13,Pin_13_13*%
%TO.N,/DISP_MISO*%
X159340000Y-54400000D03*
%TO.P,J9,14,Pin_14_14*%
%TO.N,/DISP_T_IRQ*%
X156800000Y-54400000D03*
%TD*%
D47*
%TO.P,U6,1,GND_1*%
%TO.N,GND*%
X197675000Y-60780000D03*
D46*
%TO.P,U6,2,0_RX1_CRX2_CS1_2*%
%TO.N,unconnected-(U6-0_RX1_CRX2_CS1-Pad2)*%
X195135000Y-60780000D03*
%TO.P,U6,3,1_TX1_CTX2_MISO1_3*%
%TO.N,unconnected-(U6-1_TX1_CTX2_MISO1-Pad3)*%
X192595000Y-60780000D03*
%TO.P,U6,4,2_OUT2_4*%
%TO.N,CODEC_RST*%
X190055000Y-60780000D03*
%TO.P,U6,5,3_LRCLK2_5*%
%TO.N,/DISP_T_IRQ*%
X187515000Y-60780000D03*
%TO.P,U6,6,4_BCLK2_6*%
%TO.N,/DISP_T_CS*%
X184975000Y-60780000D03*
%TO.P,U6,7,5_IN2_7*%
%TO.N,/DISP_RESET*%
X182435000Y-60780000D03*
%TO.P,U6,8,6_OUT1D_8*%
%TO.N,unconnected-(U6-6_OUT1D-Pad8)*%
X179895000Y-60780000D03*
%TO.P,U6,9,7_RX2_OUT1A_9*%
%TO.N,SDOUT*%
X177355000Y-60780000D03*
%TO.P,U6,10,8_TX2_IN1_10*%
%TO.N,SDIN*%
X174815000Y-60780000D03*
%TO.P,U6,11,9_OUT1C_11*%
%TO.N,/DISP_DC*%
X172275000Y-60780000D03*
%TO.P,U6,12,10_CS_MQSR_12*%
%TO.N,/DISP_CS*%
X169735000Y-60780000D03*
%TO.P,U6,13,11_MOSI_CTX1_13*%
%TO.N,/DISP_MOSI*%
X167195000Y-60780000D03*
%TO.P,U6,14,12_MISO_MQSL_14*%
%TO.N,/DISP_MISO*%
X164655000Y-60780000D03*
%TO.P,U6,15,3V3_15*%
%TO.N,+3.3V*%
X162115000Y-60780000D03*
%TO.P,U6,16,24_A10_TX6_SCL2_16*%
%TO.N,unconnected-(U6-24_A10_TX6_SCL2-Pad16)*%
X159575000Y-60780000D03*
%TO.P,U6,17,25_A11_RX6_SDA2_17*%
%TO.N,unconnected-(U6-25_A11_RX6_SDA2-Pad17)*%
X157035000Y-60780000D03*
%TO.P,U6,18,26_A12_MOSI1_18*%
%TO.N,RSEL_0*%
X154495000Y-60780000D03*
%TO.P,U6,19,27_A13_SCK1_19*%
%TO.N,RSEL_1*%
X151955000Y-60780000D03*
%TO.P,U6,20,28_RX7_20*%
%TO.N,PGA_I_0*%
X149415000Y-60780000D03*
%TO.P,U6,21,29_TX7_21*%
%TO.N,PGA_I_1*%
X146875000Y-60780000D03*
%TO.P,U6,22,30_CRX3_22*%
%TO.N,PGA_V_0*%
X144335000Y-60780000D03*
%TO.P,U6,23,31_CTX3_23*%
%TO.N,PGA_V_1*%
X141795000Y-60780000D03*
%TO.P,U6,24,32_OUT1B_24*%
%TO.N,unconnected-(U6-32_OUT1B-Pad24)*%
X139255000Y-60780000D03*
%TO.P,U6,25,33_MCLK2_25*%
%TO.N,/BTN8*%
X139255000Y-76020000D03*
%TO.P,U6,26,34_RX8_26*%
%TO.N,/BTN7*%
X141795000Y-76020000D03*
%TO.P,U6,27,35_TX8_27*%
%TO.N,/BTN6*%
X144335000Y-76020000D03*
%TO.P,U6,28,36_CS_28*%
%TO.N,/BTN5*%
X146875000Y-76020000D03*
%TO.P,U6,29,37_CS_29*%
%TO.N,/BTN4*%
X149415000Y-76020000D03*
%TO.P,U6,30,38_CS1_IN1_30*%
%TO.N,/BTN3*%
X151955000Y-76020000D03*
%TO.P,U6,31,39_MISO1_OUT1A_31*%
%TO.N,/BTN2*%
X154495000Y-76020000D03*
%TO.P,U6,32,40_A16_32*%
%TO.N,/BTN1*%
X157035000Y-76020000D03*
%TO.P,U6,33,41_A17_33*%
%TO.N,unconnected-(U6-41_A17-Pad33)*%
X159575000Y-76020000D03*
%TO.P,U6,34,GND_34*%
%TO.N,GND*%
X162115000Y-76020000D03*
%TO.P,U6,35,13_SCK_LED_35*%
%TO.N,/DISP_SCK*%
X164655000Y-76020000D03*
%TO.P,U6,36,14_A0_TX3_SPDIF_OUT_36*%
%TO.N,unconnected-(U6-14_A0_TX3_SPDIF_OUT-Pad36)*%
X167195000Y-76020000D03*
%TO.P,U6,37,15_A1_RX3_SPDIF_IN_37*%
%TO.N,unconnected-(U6-15_A1_RX3_SPDIF_IN-Pad37)*%
X169735000Y-76020000D03*
%TO.P,U6,38,16_A2_RX4_SCL1_38*%
%TO.N,unconnected-(U6-16_A2_RX4_SCL1-Pad38)*%
X172275000Y-76020000D03*
%TO.P,U6,39,17_A3_TX4_SDA1_39*%
%TO.N,unconnected-(U6-17_A3_TX4_SDA1-Pad39)*%
X174815000Y-76020000D03*
%TO.P,U6,40,18_A4_SDA_40*%
%TO.N,SDA*%
X177355000Y-76020000D03*
%TO.P,U6,41,19_A5_SCL_41*%
%TO.N,SCL*%
X179895000Y-76020000D03*
%TO.P,U6,42,20_A6_TX5_LRCLK1_42*%
%TO.N,LRCLK*%
X182435000Y-76020000D03*
%TO.P,U6,43,21_A7_RX5_BCLK1_43*%
%TO.N,BCLK*%
X184975000Y-76020000D03*
%TO.P,U6,44,22_A8_CTX1_44*%
%TO.N,unconnected-(U6-22_A8_CTX1-Pad44)*%
X187515000Y-76020000D03*
%TO.P,U6,45,23_A9_CRX1_MCLK1_45*%
%TO.N,MCLK*%
X190055000Y-76020000D03*
%TO.P,U6,46,3V3_46*%
%TO.N,+3.3V*%
X192595000Y-76020000D03*
%TO.P,U6,47,GND_47*%
%TO.N,GND*%
X195135000Y-76020000D03*
%TO.P,U6,48,VIN_48*%
%TO.N,+5VD*%
X197675000Y-76020000D03*
%TO.P,U6,49,VUSB_49*%
%TO.N,unconnected-(U6-VUSB-Pad49)*%
X195135000Y-73480000D03*
%TO.P,U6,50,VBAT_50*%
%TO.N,unconnected-(U6-VBAT-Pad50)*%
X151955000Y-63320000D03*
%TO.P,U6,51,3V3_51*%
%TO.N,unconnected-(U6-3V3-Pad51)*%
X151955000Y-65860000D03*
%TO.P,U6,52,GND_52*%
%TO.N,unconnected-(U6-GND-Pad52)*%
X151955000Y-68400000D03*
%TO.P,U6,53,PROGRAM_53*%
%TO.N,unconnected-(U6-PROGRAM-Pad53)*%
X151955000Y-70940000D03*
%TO.P,U6,54,ON_OFF_54*%
%TO.N,unconnected-(U6-ON_OFF-Pad54)*%
X151955000Y-73480000D03*
D47*
%TO.P,U6,55,5V_55*%
%TO.N,unconnected-(U6-5V-Pad55)*%
X191375800Y-63830800D03*
D46*
%TO.P,U6,56,D-_56*%
%TO.N,unconnected-(U6-D--Pad56)*%
X188835800Y-63830800D03*
%TO.P,U6,57,D+_57*%
%TO.N,unconnected-(U6-D+-Pad57)*%
X186295800Y-63830800D03*
%TO.P,U6,58,GND_58*%
%TO.N,unconnected-(U6-GND-Pad58)*%
X183755800Y-63830800D03*
%TO.P,U6,59,GND_59*%
%TO.N,unconnected-(U6-GND-Pad59)*%
X181215800Y-63830800D03*
D52*
%TO.P,U6,60,R+_60*%
%TO.N,unconnected-(U6-R+-Pad60)*%
X184705000Y-73581600D03*
D53*
%TO.P,U6,61,LED_61*%
%TO.N,unconnected-(U6-LED-Pad61)*%
X184705000Y-71581600D03*
%TO.P,U6,62,T-_62*%
%TO.N,unconnected-(U6-T--Pad62)*%
X184705000Y-69581600D03*
%TO.P,U6,63,T+_63*%
%TO.N,unconnected-(U6-T+-Pad63)*%
X182705000Y-69581600D03*
%TO.P,U6,64,GND_64*%
%TO.N,unconnected-(U6-GND-Pad64)*%
X182705000Y-71581600D03*
%TO.P,U6,65,R-_65*%
%TO.N,unconnected-(U6-R--Pad65)*%
X182705000Y-73581600D03*
%TO.P,U6,66,D-_66*%
%TO.N,unconnected-(U6-D--Pad66)*%
X196945000Y-69670000D03*
%TO.P,U6,67,D+_67*%
%TO.N,unconnected-(U6-D+-Pad67)*%
X196945000Y-67130000D03*
%TD*%
D54*
%TO.N,Net-(D9-K-Pad1)*%
X121100000Y-105300000D03*
X128200000Y-112600000D03*
%TO.N,Net-(D10-K-Pad1)*%
X120700000Y-100200000D03*
X140300000Y-112300000D03*
%TO.N,SCL*%
X144825000Y-84737500D03*
%TO.N,SDA*%
X143925000Y-84737500D03*
%TO.N,CODEC_RST*%
X143025000Y-84737500D03*
%TO.N,SDOUT*%
X147950000Y-84800000D03*
%TO.N,/TIA_FB*%
X134931250Y-134600000D03*
%TO.N,/TIA_OUT*%
X138443750Y-137550000D03*
%TO.N,/TIA_FB*%
X152131250Y-114000000D03*
%TO.N,/TIA_OUT*%
X168731250Y-115100000D03*
%TO.N,+5VA*%
X126675000Y-72225000D03*
%TO.N,GND*%
X127325000Y-62375000D03*
%TO.N,RSEL_0*%
X127300000Y-61100000D03*
%TO.N,GND*%
X134118750Y-142500000D03*
%TO.N,RSEL_0*%
X132018750Y-140200000D03*
%TO.N,RSEL_1*%
X138518750Y-141300000D03*
%TO.N,VMID*%
X143093750Y-138512500D03*
%TO.N,+5VA*%
X136693750Y-130900000D03*
%TO.N,GND*%
X134293750Y-128025000D03*
X138106250Y-109500000D03*
X132193750Y-130900000D03*
X134606250Y-106200000D03*
%TO.N,Net-(U14-Y1)*%
X130593750Y-127500000D03*
%TO.N,Net-(U15-+)*%
X133406250Y-109100000D03*
%TO.N,PGA_V_0*%
X140093750Y-128600000D03*
%TO.N,+5VA*%
X134706250Y-118300000D03*
X135556250Y-107150000D03*
%TO.N,GND*%
X138306250Y-113300000D03*
%TO.N,Net-(U14-Y1)*%
X126993750Y-123900000D03*
%TO.N,GND*%
X135806250Y-120100000D03*
%TO.N,Net-(U15-+)*%
X136018750Y-109387500D03*
%TO.N,+5VA*%
X139793750Y-122800000D03*
%TO.N,PGA_V_1*%
X136993750Y-128300000D03*
%TO.N,GND*%
X157243750Y-130800000D03*
X159656250Y-106100000D03*
X163156250Y-109400000D03*
%TO.N,+5VA*%
X160606250Y-107050000D03*
%TO.N,GND*%
X159343750Y-127925000D03*
%TO.N,Net-(U4-Y1)*%
X152043750Y-123800000D03*
%TO.N,PGA_I_0*%
X165087500Y-128443750D03*
%TO.N,Net-(U4-Y1)*%
X155643750Y-127400000D03*
%TO.N,+5VA*%
X161743750Y-130800000D03*
X159756250Y-118200000D03*
%TO.N,Net-(U2-+)*%
X158456250Y-109000000D03*
X161068750Y-109287500D03*
%TO.N,GND*%
X163356250Y-113200000D03*
X160856250Y-120000000D03*
%TO.N,+5VA*%
X164843750Y-122700000D03*
%TO.N,PGA_I_1*%
X162043750Y-128200000D03*
%TO.N,+5VA*%
X128700000Y-99012500D03*
X127900000Y-89312500D03*
%TD*%
%TO.N,Net-(D9-K-Pad1)*%
D55*
X121100000Y-105300000D02*
X119600000Y-106800000D01*
%TO.N,Net-(D10-K-Pad1)*%
X120700000Y-100200000D02*
X119944167Y-99444167D01*
X119944167Y-99444167D02*
X119944167Y-99400000D01*
X119944167Y-99400000D02*
X119750000Y-99205833D01*
%TO.N,Net-(D9-K-Pad1)*%
X128216250Y-112616250D02*
X128200000Y-112600000D01*
X128216250Y-114127500D02*
X128216250Y-112616250D01*
%TO.N,Net-(D10-K-Pad1)*%
X140300000Y-113587500D02*
X140300000Y-112300000D01*
%TO.N,Net-(U13B--)*%
D56*
X130468750Y-125425000D02*
X132731250Y-125425000D01*
X126006250Y-125412500D02*
X127284250Y-126690500D01*
X129203250Y-126690500D02*
X130468750Y-125425000D01*
X127818750Y-115987500D02*
X126006250Y-117800000D01*
X126006250Y-117800000D02*
X126006250Y-125412500D01*
X127975000Y-115987500D02*
X127818750Y-115987500D01*
X127284250Y-126690500D02*
X129203250Y-126690500D01*
X128106250Y-116118750D02*
X127975000Y-115987500D01*
%TO.N,Net-(U4-X0)*%
X163900000Y-111900000D02*
X165700000Y-111900000D01*
X163612500Y-112187500D02*
X163900000Y-111900000D01*
X161256250Y-112187500D02*
X163612500Y-112187500D01*
%TO.N,Net-(U4-Y0)*%
X155200000Y-111200000D02*
X154900000Y-111500000D01*
X156500000Y-111200000D02*
X155200000Y-111200000D01*
X157500000Y-112200000D02*
X156500000Y-111200000D01*
X159243750Y-112200000D02*
X157500000Y-112200000D01*
X154900000Y-111500000D02*
X154900000Y-111700000D01*
X159256250Y-112187500D02*
X159243750Y-112200000D01*
%TO.N,GND*%
X147000000Y-86375000D02*
X147000000Y-84362500D01*
X147000000Y-84362500D02*
X147300000Y-84062500D01*
X147300000Y-84062500D02*
X147300000Y-83100000D01*
%TO.N,VCOM*%
X141075000Y-92337500D02*
X141075000Y-94437500D01*
%TO.N,+3.3V*%
X145700000Y-84412500D02*
X145700000Y-86375000D01*
X145425000Y-83125000D02*
X145425000Y-84137500D01*
X145400000Y-83100000D02*
X145425000Y-83125000D01*
X145425000Y-84137500D02*
X145700000Y-84412500D01*
%TO.N,GND*%
X147300000Y-81000000D02*
X147300000Y-83100000D01*
X159400000Y-86500000D02*
X159400000Y-88100000D01*
X139175000Y-94437500D02*
X139175000Y-92337500D01*
%TO.N,+3.3V*%
X145400000Y-81000000D02*
X145400000Y-83100000D01*
X145700000Y-86375000D02*
X146350000Y-86375000D01*
%TO.N,SDA*%
X144400000Y-86375000D02*
X144400000Y-85289015D01*
X144400000Y-85289015D02*
X143925000Y-84814015D01*
X143925000Y-84814015D02*
X143925000Y-84737500D01*
%TO.N,SCL*%
X145050000Y-84962500D02*
X144825000Y-84737500D01*
X145050000Y-86375000D02*
X145050000Y-84962500D01*
%TO.N,Net-(U3-FILT+)*%
X150750000Y-93600000D02*
X155350000Y-93600000D01*
X156350000Y-94600000D02*
X156350000Y-95800000D01*
X155350000Y-93600000D02*
X156350000Y-94600000D01*
%TO.N,+5VA*%
X146350000Y-94000000D02*
X147300000Y-94950000D01*
X147300000Y-94950000D02*
X147300000Y-95800000D01*
X146350000Y-92100000D02*
X146350000Y-94000000D01*
%TO.N,Net-(U3-XT0)*%
X151550000Y-86375000D02*
X153275000Y-84650000D01*
X153275000Y-84650000D02*
X155730000Y-84650000D01*
%TO.N,Net-(U3-XTI)*%
X153891056Y-90150000D02*
X155730000Y-90150000D01*
X150900000Y-87158944D02*
X153891056Y-90150000D01*
X150900000Y-86375000D02*
X150900000Y-87158944D01*
%TO.N,GND*%
X147000000Y-92100000D02*
X147000000Y-93500000D01*
X146625000Y-87837500D02*
X147000000Y-87462500D01*
X143750000Y-86375000D02*
X143750000Y-87462500D01*
X147000000Y-87462500D02*
X147000000Y-86375000D01*
X143750000Y-87462500D02*
X144125000Y-87837500D01*
X144125000Y-87837500D02*
X146625000Y-87837500D01*
%TO.N,VSNS_N*%
D55*
X144400000Y-94350000D02*
X141900000Y-96850000D01*
X144400000Y-92100000D02*
X144400000Y-94350000D01*
X141900000Y-96850000D02*
X141900000Y-97800000D01*
%TO.N,Net-(U3-AOUTA+)*%
X149600000Y-92100000D02*
X149600000Y-90750000D01*
X148100000Y-89250000D02*
X140800000Y-89250000D01*
X149600000Y-90750000D02*
X148100000Y-89250000D01*
%TO.N,Net-(U3-FILT+)*%
D56*
X148100000Y-93600000D02*
X150750000Y-93600000D01*
X147650000Y-92100000D02*
X147650000Y-93150000D01*
X150750000Y-93600000D02*
X150900000Y-93750000D01*
X150900000Y-93750000D02*
X150900000Y-95800000D01*
X147650000Y-93150000D02*
X148100000Y-93600000D01*
%TO.N,SDOUT*%
D55*
X147650000Y-85100000D02*
X147950000Y-84800000D01*
X147650000Y-86375000D02*
X147650000Y-85100000D01*
%TO.N,Net-(U3-AOUTA-)*%
X148950000Y-92100000D02*
X148950000Y-90800000D01*
X147900000Y-89750000D02*
X141400000Y-89750000D01*
X148950000Y-90800000D02*
X147900000Y-89750000D01*
%TO.N,VSNS_P*%
X143750000Y-92100000D02*
X143750000Y-94050000D01*
X143750000Y-94050000D02*
X140000000Y-97800000D01*
%TO.N,Net-(U3-XT0)*%
D56*
X159400000Y-84700000D02*
X155780000Y-84700000D01*
%TO.N,Net-(U3-XTI)*%
X159400000Y-90100000D02*
X155780000Y-90100000D01*
%TO.N,+5VA*%
X147300000Y-95800000D02*
X147300000Y-97900000D01*
%TO.N,ISNS_P*%
D55*
X145050000Y-92100000D02*
X145050000Y-96450000D01*
X145050000Y-96450000D02*
X143600000Y-97900000D01*
%TO.N,ISNS_N*%
X145700000Y-92100000D02*
X145700000Y-97700000D01*
X145700000Y-97700000D02*
X145500000Y-97900000D01*
%TO.N,GND*%
D56*
X152400000Y-95500000D02*
X152400000Y-95700000D01*
%TO.N,CODEC_RST*%
X143100000Y-86375000D02*
X143100000Y-84812500D01*
X143100000Y-84812500D02*
X143025000Y-84737500D01*
%TO.N,SIG_OUT*%
D55*
X135200000Y-79500000D02*
X133927500Y-79500000D01*
X136300000Y-80600000D02*
X135200000Y-79500000D01*
%TO.N,Net-(J3-In)*%
D57*
X117800000Y-111400000D02*
X119600000Y-109600000D01*
X113080000Y-111400000D02*
X117800000Y-111400000D01*
%TO.N,Net-(J2-In)*%
X119700000Y-93000000D02*
X119700000Y-94200000D01*
X116500000Y-89800000D02*
X119700000Y-93000000D01*
X113080000Y-89800000D02*
X116500000Y-89800000D01*
%TO.N,Net-(D9-K-Pad1)*%
X118450000Y-105650000D02*
X118450000Y-104587500D01*
X119600000Y-106800000D02*
X118450000Y-105650000D01*
%TO.N,GND*%
X119750000Y-103462500D02*
X119100000Y-102812500D01*
X119750000Y-104587500D02*
X119750000Y-103462500D01*
%TO.N,Net-(J3-In)*%
X113180000Y-111300000D02*
X113080000Y-111400000D01*
%TO.N,+5VA*%
D58*
X188720000Y-94400000D02*
X186122500Y-94400000D01*
X186122500Y-94400000D02*
X186072500Y-94350000D01*
%TO.N,+5VD*%
X186100000Y-81290000D02*
X188710000Y-81290000D01*
X188710000Y-81290000D02*
X188720000Y-81300000D01*
%TO.N,+12V*%
X195972500Y-94400000D02*
X193280000Y-94400000D01*
X193290000Y-81290000D02*
X193280000Y-81300000D01*
X196000000Y-81290000D02*
X193290000Y-81290000D01*
%TO.N,+5VD*%
X186100000Y-81290000D02*
X181817500Y-81290000D01*
X181817500Y-81290000D02*
X181777500Y-81250000D01*
%TO.N,+5VA*%
X186072500Y-94350000D02*
X181800000Y-94350000D01*
X181800000Y-94350000D02*
X181725000Y-94425000D01*
%TO.N,/TIA_FB*%
D56*
X124018750Y-137450000D02*
X124018750Y-139000000D01*
X124768750Y-136700000D02*
X124018750Y-137450000D01*
X125206250Y-140187500D02*
X125718750Y-140187500D01*
X133193750Y-136700000D02*
X124768750Y-136700000D01*
X134243750Y-135650000D02*
X133193750Y-136700000D01*
X134856250Y-135650000D02*
X134243750Y-135650000D01*
X124018750Y-139000000D02*
X125206250Y-140187500D01*
D55*
X134931250Y-135575000D02*
X134856250Y-135650000D01*
X134931250Y-134600000D02*
X134931250Y-135575000D01*
X153618750Y-114000000D02*
X152131250Y-114000000D01*
%TO.N,/TIA_OUT*%
X167243750Y-115100000D02*
X168731250Y-115100000D01*
%TO.N,Net-(U1B-+)*%
X155838750Y-114395000D02*
X155443750Y-114000000D01*
X157881250Y-114395000D02*
X155838750Y-114395000D01*
%TO.N,PGA_I_0*%
D56*
X165087500Y-128443750D02*
X164568750Y-127925000D01*
X164568750Y-127925000D02*
X163506250Y-127925000D01*
%TO.N,SIG_OUT*%
X133927500Y-79500000D02*
X133246250Y-80181250D01*
%TO.N,Net-(U3-AOUTA-)*%
D55*
X126193750Y-84106250D02*
X125600000Y-84700000D01*
X128525000Y-84106250D02*
X126193750Y-84106250D01*
%TO.N,Net-(U3-AOUTA+)*%
X132906250Y-84106250D02*
X133500000Y-84700000D01*
X130625000Y-84106250D02*
X132906250Y-84106250D01*
%TO.N,VSNS_P*%
D56*
X126431250Y-104100000D02*
X130412500Y-104100000D01*
X130412500Y-104100000D02*
X130493750Y-104181250D01*
X128506250Y-106168750D02*
X130493750Y-104181250D01*
X128506250Y-106387500D02*
X128506250Y-106168750D01*
%TO.N,VSNS_N*%
X144206250Y-103925000D02*
X144231250Y-103900000D01*
X144206250Y-106400000D02*
X144206250Y-103925000D01*
X141987500Y-104181250D02*
X144206250Y-106400000D01*
X139931250Y-104181250D02*
X141987500Y-104181250D01*
%TO.N,ISNS_P*%
X151531250Y-104000000D02*
X155462500Y-104000000D01*
%TO.N,ISNS_N*%
X169256250Y-103825000D02*
X169231250Y-103800000D01*
X169256250Y-106300000D02*
X169256250Y-103825000D01*
X167037500Y-104081250D02*
X167056250Y-104100000D01*
X167037500Y-104081250D02*
X164981250Y-104081250D01*
%TO.N,ISNS_P*%
X155462500Y-104000000D02*
X155543750Y-104081250D01*
X153556250Y-106068750D02*
X155543750Y-104081250D01*
X153556250Y-106287500D02*
X153556250Y-106068750D01*
%TO.N,+5VA*%
D59*
X126675000Y-72225000D02*
X126675000Y-71075000D01*
X126525000Y-70925000D02*
X126675000Y-71075000D01*
X125975000Y-70925000D02*
X126525000Y-70925000D01*
%TO.N,GND*%
X126825000Y-69025000D02*
X129011250Y-69025000D01*
%TO.N,+5VA*%
X125475000Y-66625000D02*
X125475000Y-70425000D01*
%TO.N,GND*%
X126675000Y-69175000D02*
X126825000Y-69025000D01*
X129011250Y-69025000D02*
X129030000Y-69043750D01*
%TO.N,+5VA*%
X125475000Y-70425000D02*
X125975000Y-70925000D01*
X125575000Y-66925000D02*
X125551700Y-66901700D01*
X129175000Y-66925000D02*
X125575000Y-66925000D01*
X125475000Y-66901700D02*
X125475000Y-66625000D01*
X130275000Y-65825000D02*
X129175000Y-66925000D01*
X130275000Y-65400000D02*
X130275000Y-65825000D01*
X125551700Y-66901700D02*
X125475000Y-66901700D01*
X125475000Y-63894400D02*
X125751700Y-63617700D01*
X125475000Y-66625000D02*
X125475000Y-63894400D01*
%TO.N,SIG_OUT*%
D56*
X131570000Y-73993750D02*
X131570000Y-72173750D01*
X132725000Y-76543750D02*
X133155000Y-76543750D01*
X131570000Y-72173750D02*
X130300000Y-70903750D01*
X131570000Y-75388750D02*
X132725000Y-76543750D01*
X133246250Y-80181250D02*
X132725000Y-80181250D01*
%TO.N,Net-(U17B--)*%
X130300000Y-73993750D02*
X130300000Y-76256250D01*
X132725000Y-78443750D02*
X132487500Y-78443750D01*
%TO.N,SIG_OUT*%
X133930000Y-77318750D02*
X133930000Y-79497500D01*
%TO.N,VMID*%
X126425000Y-76543750D02*
X125905000Y-76543750D01*
X125230000Y-79518750D02*
X125892500Y-80181250D01*
%TO.N,SIG_OUT*%
X130300000Y-70903750D02*
X130300000Y-69043750D01*
%TO.N,GND*%
D55*
X127325000Y-62375000D02*
X125759000Y-62375000D01*
%TO.N,Net-(U17B--)*%
D56*
X130300000Y-76256250D02*
X130625000Y-76581250D01*
%TO.N,VMID*%
X125905000Y-76543750D02*
X125230000Y-77218750D01*
X125230000Y-77218750D02*
X125230000Y-79518750D01*
%TO.N,SIG_OUT*%
X133155000Y-76543750D02*
X133930000Y-77318750D01*
%TO.N,GND*%
D55*
X125759000Y-62375000D02*
X125751700Y-62367700D01*
%TO.N,Net-(U17B--)*%
D56*
X132487500Y-78443750D02*
X130625000Y-76581250D01*
%TO.N,VMID*%
X125892500Y-80181250D02*
X126425000Y-80181250D01*
%TO.N,SIG_OUT*%
X131570000Y-73993750D02*
X131570000Y-75388750D01*
%TO.N,GND*%
D59*
X128375000Y-63425000D02*
X127325000Y-62375000D01*
X128375000Y-65400000D02*
X128375000Y-63425000D01*
%TO.N,+5VA*%
X130275000Y-65075000D02*
X130275000Y-65400000D01*
X130251700Y-65051700D02*
X130275000Y-65075000D01*
X130251700Y-63617700D02*
X130251700Y-65051700D01*
%TO.N,/sig_conn*%
X121275000Y-59025000D02*
X121300000Y-59000000D01*
X121275000Y-65000000D02*
X121275000Y-59025000D01*
%TO.N,/sig_buf*%
D55*
X130264000Y-62380000D02*
X130251700Y-62367700D01*
X131547300Y-69021050D02*
X131570000Y-69043750D01*
X130251700Y-62367700D02*
X131280700Y-62367700D01*
D56*
X131570000Y-69043750D02*
X132840000Y-69043750D01*
%TO.N,Net-(U12-S1)*%
D55*
X125751700Y-61867700D02*
X124732300Y-61867700D01*
X124732300Y-61867700D02*
X123600000Y-63000000D01*
%TO.N,RSEL_0*%
D56*
X125769400Y-61100000D02*
X125751700Y-61117700D01*
X127300000Y-61100000D02*
X125769400Y-61100000D01*
%TO.N,Net-(U12-S1)*%
D55*
X123600000Y-63000000D02*
X123112500Y-63000000D01*
%TO.N,Net-(U17B-+)*%
D56*
X129030000Y-73993750D02*
X129030000Y-76076250D01*
X129030000Y-76076250D02*
X128525000Y-76581250D01*
%TO.N,Net-(C12-Pad2)*%
X128525000Y-82281250D02*
X128337500Y-82093750D01*
X128575000Y-80393750D02*
X128575000Y-78456250D01*
%TO.N,Net-(U12-S4)*%
D55*
X123600000Y-61000000D02*
X124400000Y-60200000D01*
X128025000Y-61875000D02*
X129017700Y-62867700D01*
%TO.N,Net-(C12-Pad2)*%
D56*
X128337500Y-82093750D02*
X126512500Y-82093750D01*
%TO.N,Net-(U12-S4)*%
D55*
X123112500Y-61000000D02*
X123600000Y-61000000D01*
%TO.N,Net-(C12-Pad2)*%
D56*
X128525000Y-80443750D02*
X128575000Y-80393750D01*
X128575000Y-78456250D02*
X128525000Y-78406250D01*
X128525000Y-82281250D02*
X128525000Y-80443750D01*
X126512500Y-82093750D02*
X126425000Y-82006250D01*
%TO.N,Net-(U12-S4)*%
D55*
X129017700Y-62867700D02*
X130251700Y-62867700D01*
%TO.N,Net-(U17B-+)*%
D56*
X128525000Y-76581250D02*
X128287500Y-76581250D01*
%TO.N,Net-(U12-S4)*%
D55*
X124400000Y-60200000D02*
X127450000Y-60200000D01*
X128025000Y-60775000D02*
X128025000Y-61875000D01*
X127450000Y-60200000D02*
X128025000Y-60775000D01*
%TO.N,Net-(U12-S3)*%
X124722700Y-62867700D02*
X125751700Y-62867700D01*
X124300000Y-63300000D02*
X124674700Y-62925300D01*
%TO.N,Net-(U12-S2)*%
X123125000Y-59000000D02*
X127150000Y-59000000D01*
%TO.N,Net-(C12-Pad1)*%
D56*
X130475000Y-80393750D02*
X130475000Y-82131250D01*
%TO.N,Net-(U12-S2)*%
D55*
X128917700Y-61867700D02*
X130251700Y-61867700D01*
X127150000Y-59000000D02*
X128625000Y-60475000D01*
%TO.N,Net-(C12-Pad1)*%
D56*
X130475000Y-80393750D02*
X130475000Y-78556250D01*
X130900000Y-82006250D02*
X130625000Y-82281250D01*
%TO.N,Net-(U12-S2)*%
D55*
X128625000Y-60475000D02*
X128625000Y-61575000D01*
%TO.N,Net-(U12-S3)*%
X124674700Y-62925300D02*
X124674700Y-62915700D01*
X124674700Y-62915700D02*
X124722700Y-62867700D01*
%TO.N,Net-(U12-S2)*%
X128625000Y-61575000D02*
X128917700Y-61867700D01*
%TO.N,Net-(U12-S3)*%
X123100000Y-65000000D02*
X123600000Y-65000000D01*
%TO.N,Net-(C12-Pad1)*%
D56*
X130475000Y-78556250D02*
X130625000Y-78406250D01*
%TO.N,Net-(U12-S3)*%
D55*
X123600000Y-65000000D02*
X124300000Y-64300000D01*
X124300000Y-64300000D02*
X124300000Y-63300000D01*
%TO.N,Net-(C12-Pad1)*%
D56*
X130475000Y-82131250D02*
X130625000Y-82281250D01*
X132725000Y-82006250D02*
X130900000Y-82006250D01*
%TO.N,Net-(U17B-+)*%
X128287500Y-76581250D02*
X126425000Y-78443750D01*
%TO.N,/sig_buf*%
D55*
X131280700Y-62367700D02*
X131570000Y-62657000D01*
X131570000Y-62657000D02*
X131570000Y-69043750D01*
%TO.N,Net-(U7-+)*%
D56*
X143093750Y-135687500D02*
X141031250Y-135687500D01*
X141031250Y-135687500D02*
X140993750Y-135650000D01*
%TO.N,GND*%
X139793750Y-137500000D02*
X138893750Y-136600000D01*
X140943750Y-137500000D02*
X139793750Y-137500000D01*
X140993750Y-137550000D02*
X140943750Y-137500000D01*
X138893750Y-136600000D02*
X137131250Y-136600000D01*
%TO.N,Net-(U7-+)*%
X140993750Y-135650000D02*
X137131250Y-135650000D01*
%TO.N,/TIA_FB*%
D55*
X129718750Y-141800000D02*
X125756250Y-141800000D01*
X129718750Y-140162500D02*
X125743750Y-140162500D01*
%TO.N,GND*%
D59*
X136468751Y-136600000D02*
X137131250Y-136600000D01*
X136014750Y-138191000D02*
X136014750Y-137054001D01*
X136014750Y-137054001D02*
X136468751Y-136600000D01*
X137218750Y-139395000D02*
X136014750Y-138191000D01*
%TO.N,+5VA*%
X134856250Y-137550000D02*
X134856250Y-138932500D01*
X134856250Y-138932500D02*
X135318750Y-139395000D01*
%TO.N,/TIA_OUT*%
D55*
X138443750Y-137550000D02*
X137131250Y-137550000D01*
X139393750Y-141700000D02*
X139393750Y-138500000D01*
X138601050Y-142492700D02*
X139393750Y-141700000D01*
X139393750Y-138500000D02*
X138443750Y-137550000D01*
X137045450Y-142492700D02*
X138601050Y-142492700D01*
%TO.N,GND*%
D57*
X119930000Y-135200000D02*
X119930000Y-136325000D01*
X119930000Y-136325000D02*
X120580000Y-136975000D01*
%TO.N,RSEL_1*%
D56*
X138461450Y-141242700D02*
X138518750Y-141300000D01*
%TO.N,+5VA*%
D59*
X133897750Y-146479000D02*
X136239750Y-146479000D01*
%TO.N,/TIA_FB*%
D55*
X125756250Y-141800000D02*
X125718750Y-141762500D01*
%TO.N,GND*%
X132552750Y-142500000D02*
X132545450Y-142492700D01*
%TO.N,Net-(U9-S3)*%
X130518750Y-144700000D02*
X131118750Y-144100000D01*
%TO.N,Net-(U9-S4)*%
X128570750Y-139177000D02*
X132200750Y-139177000D01*
%TO.N,/TIA_FB*%
X129756250Y-140200000D02*
X129718750Y-140162500D01*
%TO.N,GND*%
D59*
X135168750Y-145300000D02*
X135168750Y-143550000D01*
%TO.N,+5VA*%
X137045450Y-145276700D02*
X137068750Y-145300000D01*
X132545450Y-143742700D02*
X132545450Y-145126700D01*
%TO.N,GND*%
D55*
X134118750Y-142500000D02*
X132552750Y-142500000D01*
%TO.N,Net-(U9-S4)*%
X127681250Y-138287500D02*
X127718750Y-138325000D01*
%TO.N,GND*%
D59*
X135168750Y-143550000D02*
X134118750Y-142500000D01*
%TO.N,Net-(U9-S3)*%
D55*
X131118750Y-144100000D02*
X131118750Y-143390400D01*
X127718750Y-143625000D02*
X127718750Y-144000000D01*
X128418750Y-144700000D02*
X130518750Y-144700000D01*
%TO.N,/TIA_FB*%
X125743750Y-140162500D02*
X125718750Y-140187500D01*
X125718750Y-141762500D02*
X125718750Y-140025000D01*
%TO.N,Net-(U9-S3)*%
X127718750Y-143625000D02*
X125756250Y-143625000D01*
%TO.N,+5VA*%
D59*
X137068750Y-145650000D02*
X137068750Y-145300000D01*
%TO.N,Net-(U9-S4)*%
D55*
X132200750Y-139177000D02*
X136016450Y-142992700D01*
X125718750Y-138287500D02*
X127681250Y-138287500D01*
%TO.N,+5VA*%
D59*
X137045450Y-143742700D02*
X137045450Y-145276700D01*
%TO.N,RSEL_0*%
D56*
X132545450Y-140726700D02*
X132018750Y-140200000D01*
%TO.N,Net-(U9-S4)*%
D55*
X136016450Y-142992700D02*
X137045450Y-142992700D01*
X127718750Y-138325000D02*
X128570750Y-139177000D01*
%TO.N,+5VA*%
D59*
X136239750Y-146479000D02*
X137068750Y-145650000D01*
X132545450Y-145126700D02*
X133897750Y-146479000D01*
%TO.N,Net-(U9-S2)*%
D55*
X135816450Y-141992700D02*
X137045450Y-141992700D01*
%TO.N,Net-(U9-S3)*%
X131516450Y-142992700D02*
X132545450Y-142992700D01*
X127718750Y-144000000D02*
X128418750Y-144700000D01*
X131118750Y-143390400D02*
X131516450Y-142992700D01*
X125756250Y-143625000D02*
X125718750Y-143662500D01*
%TO.N,Net-(U9-S1)*%
X131351050Y-141992700D02*
X132545450Y-141992700D01*
X129718750Y-143625000D02*
X131351050Y-141992700D01*
%TO.N,RSEL_0*%
D56*
X132545450Y-141242700D02*
X132545450Y-140726700D01*
%TO.N,Net-(U9-S2)*%
D55*
X129718750Y-138337500D02*
X132161250Y-138337500D01*
%TO.N,RSEL_1*%
D56*
X137045450Y-141242700D02*
X138461450Y-141242700D01*
%TO.N,Net-(U9-S2)*%
D55*
X132161250Y-138337500D02*
X135816450Y-141992700D01*
%TO.N,VMID*%
D56*
X143093750Y-137512500D02*
X143093750Y-138512500D01*
%TO.N,GND*%
X134331250Y-106975000D02*
X133106250Y-106975000D01*
%TO.N,+5VA*%
X136206250Y-104250000D02*
X136206250Y-105300000D01*
%TO.N,PGA_V_0*%
X138456250Y-128025000D02*
X139518750Y-128025000D01*
%TO.N,Net-(C28-Pad2)*%
X130606250Y-106350000D02*
X130631250Y-106325000D01*
%TO.N,Net-(U15-+)*%
X130606250Y-108250000D02*
X128543750Y-108250000D01*
%TO.N,PGA_V_1*%
X138456250Y-128675000D02*
X137368750Y-128675000D01*
%TO.N,Net-(U14-Y0)*%
X133806249Y-117035000D02*
X134406250Y-116434999D01*
%TO.N,+5VA*%
X134701250Y-118305000D02*
X134706250Y-118300000D01*
%TO.N,Net-(U14-Y0)*%
X132681250Y-122200000D02*
X130506250Y-122200000D01*
%TO.N,Net-(U14-X0)*%
X140306250Y-118950000D02*
X139851250Y-118950000D01*
%TO.N,+5VA*%
X135556250Y-107150000D02*
X135731250Y-106975000D01*
%TO.N,Net-(U14-Y0)*%
X134406250Y-112487500D02*
X134206250Y-112287500D01*
X134106250Y-112212500D02*
X134406250Y-112512500D01*
%TO.N,Net-(U13B--)*%
X130306250Y-116050000D02*
X130306250Y-116081250D01*
%TO.N,PGA_V_1*%
X137368750Y-128675000D02*
X136993750Y-128300000D01*
%TO.N,Net-(U14-X3)*%
X143506250Y-129700000D02*
X143506250Y-128912500D01*
%TO.N,+5VA*%
X132831250Y-118305000D02*
X134701250Y-118305000D01*
%TO.N,PGA_V_0*%
X139518750Y-128025000D02*
X140093750Y-128600000D01*
%TO.N,Net-(R42-Pad2)*%
X130306250Y-129500000D02*
X141481250Y-129500000D01*
X141481250Y-129500000D02*
X141681250Y-129700000D01*
X135893750Y-122487500D02*
X136181250Y-122200000D01*
%TO.N,Net-(U14-X0)*%
X143693750Y-120200000D02*
X142406250Y-118912500D01*
%TO.N,GND*%
X132198750Y-130905000D02*
X132193750Y-130900000D01*
%TO.N,Net-(U14-Y0)*%
X134406250Y-116434999D02*
X134406250Y-112487500D01*
%TO.N,+5VA*%
X138456250Y-124125000D02*
X138468750Y-124125000D01*
%TO.N,GND*%
X139906250Y-109250000D02*
X139856250Y-109250000D01*
%TO.N,Net-(U14-X0)*%
X137781250Y-118305000D02*
X137781250Y-120262500D01*
%TO.N,Net-(U14-Y0)*%
X130506250Y-122200000D02*
X130106250Y-121800000D01*
X130268750Y-117943750D02*
X130306250Y-117981250D01*
%TO.N,Net-(U15--)*%
X134206250Y-109700000D02*
X134206250Y-110462500D01*
%TO.N,Net-(U14-Y0)*%
X130106250Y-118050000D02*
X130175000Y-117981250D01*
%TO.N,Net-(U14-X2)*%
X139406250Y-124775000D02*
X138456250Y-124775000D01*
%TO.N,GND*%
X139856250Y-109250000D02*
X139606250Y-109500000D01*
%TO.N,Net-(R42-Pad2)*%
X136181250Y-122200000D02*
X134506250Y-122200000D01*
X135893750Y-129500000D02*
X135893750Y-122487500D01*
%TO.N,Net-(U13B--)*%
X130356250Y-116000000D02*
X130306250Y-116050000D01*
%TO.N,Net-(U14-Y0)*%
X130306250Y-117850000D02*
X130306250Y-117981250D01*
X128106250Y-117943750D02*
X130268750Y-117943750D01*
X132831250Y-117035000D02*
X133806249Y-117035000D01*
X132731250Y-122250000D02*
X132681250Y-122200000D01*
X131121250Y-117035000D02*
X130306250Y-117850000D01*
X132831250Y-117035000D02*
X131121250Y-117035000D01*
X130106250Y-121800000D02*
X130106250Y-118050000D01*
X132731250Y-124125000D02*
X132731250Y-122250000D01*
X130175000Y-117981250D02*
X130306250Y-117981250D01*
%TO.N,Net-(U14-X0)*%
X138006250Y-120487500D02*
X138006250Y-122200000D01*
%TO.N,+5VA*%
X136156250Y-104200000D02*
X136206250Y-104250000D01*
%TO.N,GND*%
X134206250Y-105300000D02*
X134206250Y-104250000D01*
X139606250Y-109500000D02*
X138106250Y-109500000D01*
%TO.N,Net-(U14-X0)*%
X136893750Y-123712500D02*
X136893750Y-125946444D01*
%TO.N,GND*%
X134606250Y-106200000D02*
X134606250Y-106700000D01*
X137781250Y-113825000D02*
X138306250Y-113300000D01*
%TO.N,+5VA*%
X135443750Y-130905000D02*
X136688750Y-130905000D01*
%TO.N,GND*%
X133543750Y-130905000D02*
X132198750Y-130905000D01*
X132731250Y-127375000D02*
X132731250Y-128675000D01*
X134206250Y-104250000D02*
X134256250Y-104200000D01*
X134531250Y-120095000D02*
X135801250Y-120095000D01*
%TO.N,+5VA*%
X132631250Y-118505000D02*
X132831250Y-118305000D01*
%TO.N,GND*%
X134606250Y-106200000D02*
X134606250Y-105700000D01*
X137781250Y-114495000D02*
X137781250Y-113825000D01*
X135801250Y-120095000D02*
X135806250Y-120100000D01*
%TO.N,Net-(C28-Pad2)*%
X133106250Y-105287500D02*
X132318750Y-104500000D01*
%TO.N,Net-(U13A--)*%
X144303250Y-126890500D02*
X145693750Y-125500000D01*
%TO.N,+5VA*%
X138468750Y-124125000D02*
X139793750Y-122800000D01*
X135556250Y-105950000D02*
X135556250Y-107150000D01*
%TO.N,GND*%
X134606250Y-105700000D02*
X134206250Y-105300000D01*
%TO.N,Net-(U14-Y2)*%
X130106250Y-123900000D02*
X130981250Y-124775000D01*
%TO.N,GND*%
X134293750Y-128025000D02*
X132731250Y-128025000D01*
X134606250Y-106700000D02*
X134331250Y-106975000D01*
%TO.N,+5VA*%
X135081250Y-107625000D02*
X133106250Y-107625000D01*
%TO.N,Net-(U14-Y1)*%
X130593750Y-127500000D02*
X131368750Y-126725000D01*
%TO.N,Net-(U14-X3)*%
X142406250Y-127812500D02*
X141693750Y-127812500D01*
%TO.N,Net-(U14-Y1)*%
X128281250Y-123900000D02*
X126993750Y-123900000D01*
X131368750Y-126725000D02*
X132731250Y-126725000D01*
%TO.N,Net-(U13B--)*%
X130306250Y-116081250D02*
X128143750Y-116081250D01*
%TO.N,Net-(U14-Y1)*%
X128281250Y-121800000D02*
X128281250Y-123900000D01*
%TO.N,+5VA*%
X132631250Y-120095000D02*
X132631250Y-118505000D01*
%TO.N,VCOM*%
X139631250Y-107625000D02*
X137331250Y-107625000D01*
%TO.N,+5VA*%
X136688750Y-130905000D02*
X136693750Y-130900000D01*
X135556250Y-107150000D02*
X135081250Y-107625000D01*
X136206250Y-105300000D02*
X135556250Y-105950000D01*
%TO.N,Net-(U15-+)*%
X128543750Y-108250000D02*
X128506250Y-108212500D01*
%TO.N,+5VA*%
X135731250Y-106975000D02*
X137331250Y-106975000D01*
%TO.N,Net-(U15--)*%
X142106250Y-108250000D02*
X141318750Y-108250000D01*
%TO.N,Net-(U13A--)*%
X145693750Y-120375000D02*
X142406250Y-117087500D01*
%TO.N,Net-(U15-+)*%
X133106250Y-108275000D02*
X130631250Y-108275000D01*
%TO.N,Net-(C29-Pad2)*%
X138106250Y-104500000D02*
X138106250Y-104181250D01*
%TO.N,Net-(U15-+)*%
X136018750Y-109387500D02*
X136206250Y-109575000D01*
%TO.N,Net-(U13A--)*%
X140971518Y-126890500D02*
X144303250Y-126890500D01*
%TO.N,Net-(U14-Y2)*%
X130106250Y-124462500D02*
X128793750Y-125775000D01*
%TO.N,Net-(U15-+)*%
X136206250Y-109575000D02*
X136206250Y-110462500D01*
X133106250Y-108800000D02*
X133106250Y-108275000D01*
X130631250Y-108275000D02*
X130606250Y-108250000D01*
X133406250Y-109100000D02*
X133106250Y-108800000D01*
%TO.N,Net-(U14-X1)*%
X141693750Y-124312500D02*
X141681250Y-124300000D01*
%TO.N,Net-(U14-X3)*%
X143506250Y-128912500D02*
X142406250Y-127812500D01*
%TO.N,Net-(U14-X1)*%
X143693750Y-124312500D02*
X141693750Y-124312500D01*
%TO.N,Net-(U14-Y2)*%
X130981250Y-124775000D02*
X132731250Y-124775000D01*
%TO.N,Net-(U14-Y3)*%
X129393750Y-127600000D02*
X130918750Y-126075000D01*
%TO.N,Net-(C29-Pad2)*%
X137331250Y-106325000D02*
X137331250Y-105275000D01*
%TO.N,Net-(U14-X2)*%
X142596750Y-123390500D02*
X144584250Y-123390500D01*
X144584250Y-123390500D02*
X144993750Y-123800000D01*
X144206250Y-125987500D02*
X141693750Y-125987500D01*
%TO.N,Net-(U14-X1)*%
X140893750Y-124300000D02*
X139768750Y-125425000D01*
%TO.N,Net-(U14-X2)*%
X141693750Y-122487500D02*
X139406250Y-124775000D01*
%TO.N,Net-(U14-X0)*%
X142368750Y-118950000D02*
X142406250Y-118912500D01*
%TO.N,Net-(U14-X2)*%
X141693750Y-122487500D02*
X142596750Y-123390500D01*
%TO.N,Net-(U14-Y3)*%
X128493750Y-127600000D02*
X128493750Y-129487500D01*
%TO.N,Net-(U14-X0)*%
X139851250Y-118950000D02*
X139206250Y-118305000D01*
%TO.N,Net-(U14-Y2)*%
X130106250Y-123900000D02*
X130106250Y-124462500D01*
%TO.N,Net-(U14-Y3)*%
X130918750Y-126075000D02*
X132731250Y-126075000D01*
%TO.N,Net-(U14-X1)*%
X139768750Y-125425000D02*
X138456250Y-125425000D01*
X141681250Y-124300000D02*
X140893750Y-124300000D01*
%TO.N,Net-(U13B-+)*%
X131128750Y-114127500D02*
X130041250Y-114127500D01*
%TO.N,Net-(U14-X2)*%
X144993750Y-125200000D02*
X144206250Y-125987500D01*
%TO.N,Net-(U14-Y3)*%
X128493750Y-129487500D02*
X128481250Y-129500000D01*
X128793750Y-127600000D02*
X129393750Y-127600000D01*
%TO.N,Net-(U13A--)*%
X137796250Y-117050000D02*
X137781250Y-117035000D01*
%TO.N,Net-(U14-X2)*%
X144993750Y-123800000D02*
X144993750Y-125200000D01*
%TO.N,Net-(U14-X0)*%
X137307710Y-118305000D02*
X137781250Y-118305000D01*
X136006250Y-112487500D02*
X136006250Y-117003540D01*
X143693750Y-122487500D02*
X143693750Y-120200000D01*
X136006250Y-117003540D02*
X137307710Y-118305000D01*
X136206250Y-112287500D02*
X136006250Y-112487500D01*
X138006250Y-122600000D02*
X136893750Y-123712500D01*
%TO.N,Net-(U14-X3)*%
X140606250Y-127812500D02*
X140168750Y-127375000D01*
%TO.N,Net-(U14-X0)*%
X136893750Y-125946444D02*
X137672306Y-126725000D01*
X137672306Y-126725000D02*
X138456250Y-126725000D01*
X138006250Y-122200000D02*
X138006250Y-122600000D01*
X139206250Y-118305000D02*
X137781250Y-118305000D01*
%TO.N,VCOM*%
X139906250Y-107350000D02*
X139631250Y-107625000D01*
%TO.N,Net-(U13A--)*%
X145693750Y-125500000D02*
X145693750Y-120375000D01*
X140156018Y-126075000D02*
X140971518Y-126890500D01*
X140306250Y-117050000D02*
X137796250Y-117050000D01*
%TO.N,Net-(U14-X0)*%
X140306250Y-118950000D02*
X142368750Y-118950000D01*
%TO.N,Net-(U13A--)*%
X140306250Y-117050000D02*
X142368750Y-117050000D01*
X142368750Y-117050000D02*
X142406250Y-117087500D01*
X138456250Y-126075000D02*
X140156018Y-126075000D01*
%TO.N,Net-(U14-X0)*%
X137781250Y-120262500D02*
X138006250Y-120487500D01*
X137868750Y-122062500D02*
X138006250Y-122200000D01*
%TO.N,Net-(U13B--)*%
X131541250Y-115765000D02*
X131306250Y-116000000D01*
X131306250Y-116000000D02*
X130356250Y-116000000D01*
X128143750Y-116081250D02*
X128106250Y-116118750D01*
X132831250Y-115765000D02*
X131541250Y-115765000D01*
%TO.N,Net-(C29-Pad2)*%
X137331250Y-105275000D02*
X138106250Y-104500000D01*
%TO.N,Net-(U14-X3)*%
X140168750Y-127375000D02*
X138456250Y-127375000D01*
%TO.N,Net-(C28-Pad2)*%
X133106250Y-106325000D02*
X133106250Y-105287500D01*
%TO.N,Net-(U15--)*%
X141293750Y-108275000D02*
X137331250Y-108275000D01*
X141318750Y-108250000D02*
X141293750Y-108275000D01*
X142106250Y-108250000D02*
X144181250Y-108250000D01*
%TO.N,Net-(U14-X3)*%
X141693750Y-127812500D02*
X140606250Y-127812500D01*
%TO.N,Net-(U15--)*%
X135631250Y-108275000D02*
X134206250Y-109700000D01*
%TO.N,Net-(C28-Pad2)*%
X130631250Y-106325000D02*
X133106250Y-106325000D01*
X132318750Y-104500000D02*
X132318750Y-104181250D01*
%TO.N,Net-(C29-Pad2)*%
X142106250Y-106350000D02*
X141318750Y-106350000D01*
X141293750Y-106325000D02*
X137331250Y-106325000D01*
%TO.N,Net-(U15--)*%
X144181250Y-108250000D02*
X144206250Y-108225000D01*
X137331250Y-108275000D02*
X135631250Y-108275000D01*
%TO.N,Net-(C29-Pad2)*%
X141318750Y-106350000D02*
X141293750Y-106325000D01*
%TO.N,Net-(U13A-+)*%
X137781250Y-115765000D02*
X138991250Y-115765000D01*
X138991250Y-115765000D02*
X139416250Y-115340000D01*
X139416250Y-115340000D02*
X140328750Y-115340000D01*
%TO.N,Net-(U13B-+)*%
X132831250Y-114495000D02*
X131496250Y-114495000D01*
X131496250Y-114495000D02*
X131128750Y-114127500D01*
%TO.N,Net-(U4-X2)*%
X169634250Y-123290500D02*
X170043750Y-123700000D01*
%TO.N,+5VA*%
X161738750Y-130805000D02*
X161743750Y-130800000D01*
X160493750Y-130805000D02*
X161738750Y-130805000D01*
%TO.N,GND*%
X159256250Y-105200000D02*
X159256250Y-104150000D01*
%TO.N,Net-(R11-Pad2)*%
X160943750Y-129400000D02*
X160943750Y-122387500D01*
%TO.N,Net-(U4-X1)*%
X164818750Y-125325000D02*
X163506250Y-125325000D01*
%TO.N,Net-(U4-Y3)*%
X154443750Y-127500000D02*
X155968750Y-125975000D01*
X153543750Y-127500000D02*
X153543750Y-129387500D01*
%TO.N,Net-(U4-X2)*%
X166743750Y-122387500D02*
X167646750Y-123290500D01*
%TO.N,Net-(U1B--)*%
X155356250Y-115981250D02*
X153193750Y-115981250D01*
%TO.N,Net-(U4-Y0)*%
X159456250Y-116334999D02*
X159456250Y-112387500D01*
%TO.N,PGA_I_1*%
X162418750Y-128575000D02*
X162043750Y-128200000D01*
%TO.N,Net-(U1A--)*%
X165206018Y-125975000D02*
X166021518Y-126790500D01*
%TO.N,GND*%
X157781250Y-127275000D02*
X157781250Y-128575000D01*
%TO.N,Net-(U4-Y0)*%
X156171250Y-116935000D02*
X155356250Y-117750000D01*
%TO.N,GND*%
X159581250Y-119995000D02*
X160851250Y-119995000D01*
%TO.N,Net-(U4-X0)*%
X161943750Y-125846444D02*
X162722306Y-126625000D01*
%TO.N,VCOM*%
X164681250Y-107525000D02*
X162381250Y-107525000D01*
%TO.N,Net-(U4-Y3)*%
X155968750Y-125975000D02*
X157781250Y-125975000D01*
X153543750Y-129387500D02*
X153531250Y-129400000D01*
%TO.N,GND*%
X159656250Y-106100000D02*
X159656250Y-106600000D01*
%TO.N,Net-(U4-Y3)*%
X153843750Y-127500000D02*
X154443750Y-127500000D01*
%TO.N,Net-(U4-X3)*%
X168556250Y-129600000D02*
X168556250Y-128812500D01*
%TO.N,PGA_I_1*%
X163506250Y-128575000D02*
X162418750Y-128575000D01*
%TO.N,+5VA*%
X161256250Y-105200000D02*
X160606250Y-105850000D01*
%TO.N,Net-(U4-X2)*%
X164456250Y-124675000D02*
X163506250Y-124675000D01*
%TO.N,Net-(U4-X1)*%
X168743750Y-124212500D02*
X166743750Y-124212500D01*
%TO.N,Net-(U4-X2)*%
X170043750Y-123700000D02*
X170043750Y-125100000D01*
%TO.N,Net-(U4-X1)*%
X166743750Y-124212500D02*
X166731250Y-124200000D01*
%TO.N,GND*%
X157248750Y-130805000D02*
X157243750Y-130800000D01*
%TO.N,Net-(U4-X2)*%
X169256250Y-125887500D02*
X166743750Y-125887500D01*
X166743750Y-122387500D02*
X164456250Y-124675000D01*
%TO.N,+5VA*%
X157881250Y-118205000D02*
X159751250Y-118205000D01*
%TO.N,Net-(U4-X2)*%
X167646750Y-123290500D02*
X169634250Y-123290500D01*
%TO.N,GND*%
X159656250Y-105600000D02*
X159256250Y-105200000D01*
%TO.N,Net-(C4-Pad2)*%
X166368750Y-106250000D02*
X166343750Y-106225000D01*
%TO.N,Net-(U4-X2)*%
X170043750Y-125100000D02*
X169256250Y-125887500D01*
%TO.N,Net-(U4-X1)*%
X166731250Y-124200000D02*
X165943750Y-124200000D01*
%TO.N,+5VA*%
X157681250Y-119995000D02*
X157681250Y-118405000D01*
%TO.N,Net-(U4-X1)*%
X165943750Y-124200000D02*
X164818750Y-125325000D01*
%TO.N,+5VA*%
X160131250Y-107525000D02*
X158156250Y-107525000D01*
%TO.N,GND*%
X162831250Y-113725000D02*
X163356250Y-113200000D01*
%TO.N,Net-(U4-X0)*%
X162831250Y-120162500D02*
X163056250Y-120387500D01*
%TO.N,GND*%
X164656250Y-109400000D02*
X163156250Y-109400000D01*
X164956250Y-109150000D02*
X164906250Y-109150000D01*
X159343750Y-127925000D02*
X157781250Y-127925000D01*
%TO.N,Net-(U4-Y1)*%
X153331250Y-121700000D02*
X153331250Y-123800000D01*
%TO.N,GND*%
X159656250Y-106100000D02*
X159656250Y-105600000D01*
%TO.N,Net-(U1B--)*%
X152868750Y-115887500D02*
X151656250Y-117100000D01*
%TO.N,GND*%
X159656250Y-106600000D02*
X159381250Y-106875000D01*
X164906250Y-109150000D02*
X164656250Y-109400000D01*
X162831250Y-114395000D02*
X162831250Y-113725000D01*
X159381250Y-106875000D02*
X158156250Y-106875000D01*
X159256250Y-104150000D02*
X159306250Y-104100000D01*
X160851250Y-119995000D02*
X160856250Y-120000000D01*
%TO.N,+5VA*%
X160606250Y-105850000D02*
X160606250Y-107050000D01*
X161206250Y-104100000D02*
X161256250Y-104150000D01*
X163518750Y-124025000D02*
X164843750Y-122700000D01*
%TO.N,GND*%
X158593750Y-130805000D02*
X157248750Y-130805000D01*
%TO.N,+5VA*%
X157681250Y-118405000D02*
X157881250Y-118205000D01*
X161256250Y-104150000D02*
X161256250Y-105200000D01*
X160781250Y-106875000D02*
X162381250Y-106875000D01*
%TO.N,Net-(U1B--)*%
X151656250Y-122400000D02*
X151056250Y-123000000D01*
%TO.N,+5VA*%
X160606250Y-107050000D02*
X160131250Y-107525000D01*
X159751250Y-118205000D02*
X159756250Y-118200000D01*
X160606250Y-107050000D02*
X160781250Y-106875000D01*
X163506250Y-124025000D02*
X163518750Y-124025000D01*
%TO.N,Net-(C3-Pad2)*%
X157368750Y-104400000D02*
X157368750Y-104081250D01*
%TO.N,Net-(U2-+)*%
X158456250Y-109000000D02*
X158156250Y-108700000D01*
%TO.N,Net-(U4-Y0)*%
X159456250Y-112387500D02*
X159256250Y-112187500D01*
%TO.N,Net-(U2-+)*%
X161256250Y-109475000D02*
X161256250Y-110362500D01*
X153593750Y-108150000D02*
X153556250Y-108112500D01*
X158156250Y-108175000D02*
X155681250Y-108175000D01*
X158156250Y-108700000D02*
X158156250Y-108175000D01*
%TO.N,Net-(U4-X0)*%
X162722306Y-126625000D02*
X163506250Y-126625000D01*
%TO.N,Net-(U2-+)*%
X155656250Y-108150000D02*
X153593750Y-108150000D01*
X161068750Y-109287500D02*
X161256250Y-109475000D01*
X155681250Y-108175000D02*
X155656250Y-108150000D01*
%TO.N,Net-(C4-Pad2)*%
X162381250Y-106225000D02*
X162381250Y-105175000D01*
%TO.N,Net-(U4-Y0)*%
X153156250Y-117843750D02*
X155318750Y-117843750D01*
X157781250Y-122150000D02*
X157731250Y-122100000D01*
X155156250Y-121700000D02*
X155156250Y-117950000D01*
X155356250Y-117750000D02*
X155356250Y-117881250D01*
%TO.N,Net-(C3-Pad2)*%
X158156250Y-105187500D02*
X157368750Y-104400000D01*
%TO.N,Net-(U4-X3)*%
X165218750Y-127275000D02*
X163506250Y-127275000D01*
%TO.N,Net-(U4-Y0)*%
X155556250Y-122100000D02*
X155156250Y-121700000D01*
%TO.N,Net-(U4-X3)*%
X166743750Y-127712500D02*
X165656250Y-127712500D01*
%TO.N,Net-(U4-Y0)*%
X157881250Y-116935000D02*
X156171250Y-116935000D01*
X155156250Y-117950000D02*
X155225000Y-117881250D01*
X157881250Y-116935000D02*
X158856249Y-116935000D01*
X155318750Y-117843750D02*
X155356250Y-117881250D01*
X155225000Y-117881250D02*
X155356250Y-117881250D01*
%TO.N,Net-(C3-Pad2)*%
X155656250Y-106250000D02*
X155681250Y-106225000D01*
%TO.N,Net-(U4-Y0)*%
X157731250Y-122100000D02*
X155556250Y-122100000D01*
%TO.N,Net-(C3-Pad2)*%
X158156250Y-106225000D02*
X158156250Y-105187500D01*
%TO.N,Net-(U4-X3)*%
X165656250Y-127712500D02*
X165218750Y-127275000D01*
%TO.N,Net-(U4-Y0)*%
X158856249Y-116935000D02*
X159456250Y-116334999D01*
X157781250Y-124025000D02*
X157781250Y-122150000D01*
X159156250Y-112112500D02*
X159456250Y-112412500D01*
%TO.N,Net-(U1B--)*%
X154253250Y-126590500D02*
X155518750Y-125325000D01*
%TO.N,Net-(U4-X3)*%
X167456250Y-127712500D02*
X166743750Y-127712500D01*
X168556250Y-128812500D02*
X167456250Y-127712500D01*
%TO.N,Net-(C3-Pad2)*%
X155681250Y-106225000D02*
X158156250Y-106225000D01*
%TO.N,Net-(U1B--)*%
X151056250Y-123000000D02*
X151056250Y-125312500D01*
%TO.N,Net-(U4-X0)*%
X168743750Y-122387500D02*
X168743750Y-120100000D01*
%TO.N,Net-(U1B--)*%
X155356250Y-115950000D02*
X155356250Y-115981250D01*
X156591250Y-115665000D02*
X156356250Y-115900000D01*
X153025000Y-115887500D02*
X152868750Y-115887500D01*
X151656250Y-117100000D02*
X151656250Y-122400000D01*
%TO.N,VCOM*%
X164956250Y-107250000D02*
X164681250Y-107525000D01*
%TO.N,Net-(U4-X0)*%
X167418750Y-118850000D02*
X167456250Y-118812500D01*
%TO.N,Net-(U1B--)*%
X155518750Y-125325000D02*
X157781250Y-125325000D01*
X153156250Y-116018750D02*
X153025000Y-115887500D01*
X156356250Y-115900000D02*
X155406250Y-115900000D01*
X152334250Y-126590500D02*
X154253250Y-126590500D01*
X155406250Y-115900000D02*
X155356250Y-115950000D01*
X157881250Y-115665000D02*
X156591250Y-115665000D01*
X153193750Y-115981250D02*
X153156250Y-116018750D01*
X151056250Y-125312500D02*
X152334250Y-126590500D01*
%TO.N,Net-(U4-X0)*%
X164256250Y-118205000D02*
X162831250Y-118205000D01*
X161943750Y-123612500D02*
X161943750Y-125846444D01*
X161056250Y-112387500D02*
X161056250Y-116903540D01*
X161056250Y-116903540D02*
X162357710Y-118205000D01*
%TO.N,Net-(U4-Y1)*%
X155643750Y-127400000D02*
X156418750Y-126625000D01*
%TO.N,Net-(U4-X0)*%
X165356250Y-118850000D02*
X164901250Y-118850000D01*
X163056250Y-120387500D02*
X163056250Y-122100000D01*
X168743750Y-120100000D02*
X167456250Y-118812500D01*
X163056250Y-122500000D02*
X161943750Y-123612500D01*
%TO.N,Net-(U1A--)*%
X170743750Y-120275000D02*
X167456250Y-116987500D01*
X170743750Y-125400000D02*
X170743750Y-120275000D01*
X165356250Y-116950000D02*
X162846250Y-116950000D01*
%TO.N,Net-(U4-X0)*%
X165356250Y-118850000D02*
X167418750Y-118850000D01*
%TO.N,Net-(U1A--)*%
X167418750Y-116950000D02*
X167456250Y-116987500D01*
X163506250Y-125975000D02*
X165206018Y-125975000D01*
X166021518Y-126790500D02*
X169353250Y-126790500D01*
X162846250Y-116950000D02*
X162831250Y-116935000D01*
%TO.N,Net-(U4-X0)*%
X161256250Y-112187500D02*
X161056250Y-112387500D01*
%TO.N,Net-(U1A-+)*%
X164056250Y-115635000D02*
X162861250Y-115635000D01*
%TO.N,Net-(U2--)*%
X167156250Y-108150000D02*
X169231250Y-108150000D01*
%TO.N,Net-(U1A--)*%
X169353250Y-126790500D02*
X170743750Y-125400000D01*
X165356250Y-116950000D02*
X167418750Y-116950000D01*
%TO.N,Net-(U4-X0)*%
X162357710Y-118205000D02*
X162831250Y-118205000D01*
%TO.N,Net-(U4-Y1)*%
X156418750Y-126625000D02*
X157781250Y-126625000D01*
%TO.N,Net-(U4-X0)*%
X162918750Y-121962500D02*
X163056250Y-122100000D01*
X163056250Y-122100000D02*
X163056250Y-122500000D01*
X164901250Y-118850000D02*
X164256250Y-118205000D01*
X162831250Y-118205000D02*
X162831250Y-120162500D01*
%TO.N,Net-(U4-Y1)*%
X153331250Y-123800000D02*
X152043750Y-123800000D01*
%TO.N,Net-(C4-Pad2)*%
X163156250Y-104400000D02*
X163156250Y-104081250D01*
X162381250Y-105175000D02*
X163156250Y-104400000D01*
X167156250Y-106250000D02*
X166368750Y-106250000D01*
X166343750Y-106225000D02*
X162381250Y-106225000D01*
%TO.N,Net-(U2--)*%
X169231250Y-108150000D02*
X169256250Y-108125000D01*
X159256250Y-109600000D02*
X159256250Y-110362500D01*
X166368750Y-108150000D02*
X166343750Y-108175000D01*
X160681250Y-108175000D02*
X159256250Y-109600000D01*
%TO.N,Net-(U4-Y2)*%
X155156250Y-123800000D02*
X155156250Y-124362500D01*
%TO.N,Net-(U2--)*%
X162381250Y-108175000D02*
X160681250Y-108175000D01*
%TO.N,Net-(U4-Y2)*%
X155156250Y-123800000D02*
X156031250Y-124675000D01*
X156031250Y-124675000D02*
X157781250Y-124675000D01*
X155156250Y-124362500D02*
X153843750Y-125675000D01*
%TO.N,Net-(R11-Pad2)*%
X160943750Y-122387500D02*
X161231250Y-122100000D01*
X155356250Y-129400000D02*
X166531250Y-129400000D01*
X166531250Y-129400000D02*
X166731250Y-129600000D01*
X161231250Y-122100000D02*
X159556250Y-122100000D01*
%TO.N,Net-(U2--)*%
X166343750Y-108175000D02*
X162381250Y-108175000D01*
X167156250Y-108150000D02*
X166368750Y-108150000D01*
%TO.N,Net-(U1A-+)*%
X165356250Y-115147500D02*
X164543750Y-115147500D01*
X162861250Y-115635000D02*
X162831250Y-115665000D01*
X164543750Y-115147500D02*
X164056250Y-115635000D01*
%TO.N,+5VA*%
X129887500Y-99012500D02*
X128700000Y-99012500D01*
D59*
X127905000Y-90537500D02*
X127905000Y-89317500D01*
X127905000Y-89317500D02*
X127900000Y-89312500D01*
%TO.N,GND*%
X129887500Y-94812500D02*
X129887500Y-96875000D01*
%TO.N,+5VA*%
X129687500Y-90537500D02*
X129850000Y-90375000D01*
X127905000Y-90537500D02*
X129687500Y-90537500D01*
%TO.N,GND*%
X130800000Y-93900000D02*
X130800000Y-92650000D01*
%TO.N,Net-(U16-+)*%
D56*
X131750000Y-96912500D02*
X131750000Y-92650000D01*
X131712500Y-99012500D02*
X131712500Y-96950000D01*
X131712500Y-96950000D02*
X131750000Y-96912500D01*
%TO.N,GND*%
D59*
X129800000Y-94812500D02*
X127905000Y-92917500D01*
X127905000Y-92917500D02*
X127905000Y-92437500D01*
%TO.N,VMID*%
D56*
X129850000Y-92162500D02*
X131637500Y-90375000D01*
%TO.N,GND*%
D59*
X129887500Y-94812500D02*
X129800000Y-94812500D01*
%TO.N,VMID*%
D56*
X131637500Y-90375000D02*
X131750000Y-90375000D01*
X129850000Y-92650000D02*
X129850000Y-92162500D01*
%TO.N,GND*%
D59*
X129887500Y-96875000D02*
X129850000Y-96912500D01*
X129887500Y-94812500D02*
X130800000Y-93900000D01*
D57*
X118450000Y-100330833D02*
X118450000Y-99205833D01*
X120080000Y-71637500D02*
X120080000Y-70512500D01*
X120730000Y-72287500D02*
X120080000Y-71637500D01*
X119100000Y-100980833D02*
X118450000Y-100330833D01*
%TO.N,/TIA_FB*%
X121342500Y-133032500D02*
X121330000Y-133020000D01*
X121230000Y-133120000D02*
X121330000Y-133020000D01*
%TO.N,Net-(D10-K-Pad1)*%
X119750000Y-99205833D02*
X119750000Y-96950000D01*
X119812500Y-97012500D02*
X119700000Y-96900000D01*
%TO.N,/sig_conn*%
X121380000Y-70512500D02*
X121380000Y-68250000D01*
X121442500Y-68312500D02*
X121330000Y-68200000D01*
%TO.N,Net-(D10-K-Pad1)*%
X119750000Y-96950000D02*
X119700000Y-96900000D01*
%TO.N,/sig_conn*%
X121380000Y-68250000D02*
X121330000Y-68200000D01*
%TO.N,Net-(D9-K-Pad1)*%
X119712500Y-106687500D02*
X119600000Y-106800000D01*
%TO.N,Net-(J1-In)*%
X118530000Y-68200000D02*
X113080000Y-68200000D01*
%TO.N,Net-(J4-In)*%
X118510000Y-133000000D02*
X118530000Y-133020000D01*
X113080000Y-133000000D02*
X118510000Y-133000000D01*
%TO.N,Net-(J2-In)*%
X113086667Y-89806667D02*
X113080000Y-89800000D01*
%TO.N,/TIA_FB*%
X121230000Y-135200000D02*
X121230000Y-133120000D01*
%TO.N,ISNS_N*%
D56*
X169256250Y-106300000D02*
X167037500Y-104081250D01*
%TO.N,SIG_OUT*%
X133930000Y-79497500D02*
X133927500Y-79500000D01*
%TD*%
M02*
