%TF.GenerationSoftware,KiCad,Pcbnew,10.0.0*%
%TF.CreationDate,2026-04-19T17:23:21-04:00*%
%TF.ProjectId,lcr,6c63722e-6b69-4636-9164-5f7063625858,rev?*%
%TF.SameCoordinates,Original*%
%TF.FileFunction,Soldermask,Top*%
%TF.FilePolarity,Negative*%
%FSLAX46Y46*%
G04 Gerber Fmt 4.6, Leading zero omitted, Abs format (unit mm)*
G04 Created by KiCad (PCBNEW 10.0.0) date 2026-04-19 17:23:21*
%MOMM*%
%LPD*%
G01*
G04 APERTURE LIST*
G04 Aperture macros list*
%AMRoundRect*
0 Rectangle with rounded corners*
0 $1 Rounding radius*
0 $2 $3 $4 $5 $6 $7 $8 $9 X,Y pos of 4 corners*
0 Add a 4 corners polygon primitive as box body*
4,1,4,$2,$3,$4,$5,$6,$7,$8,$9,$2,$3,0*
0 Add four circle primitives for the rounded corners*
1,1,$1+$1,$2,$3*
1,1,$1+$1,$4,$5*
1,1,$1+$1,$6,$7*
1,1,$1+$1,$8,$9*
0 Add four rect primitives between the rounded corners*
20,1,$1+$1,$2,$3,$4,$5,0*
20,1,$1+$1,$4,$5,$6,$7,0*
20,1,$1+$1,$6,$7,$8,$9,0*
20,1,$1+$1,$8,$9,$2,$3,0*%
G04 Aperture macros list end*
%ADD10O,4.200000X2.000000*%
%ADD11O,2.000000X4.200000*%
%ADD12R,2.000000X4.600000*%
%ADD13RoundRect,0.250000X-0.262500X-0.450000X0.262500X-0.450000X0.262500X0.450000X-0.262500X0.450000X0*%
%ADD14RoundRect,0.250000X0.250000X0.475000X-0.250000X0.475000X-0.250000X-0.475000X0.250000X-0.475000X0*%
%ADD15RoundRect,0.250000X0.262500X0.450000X-0.262500X0.450000X-0.262500X-0.450000X0.262500X-0.450000X0*%
%ADD16RoundRect,0.250000X-0.250000X-0.475000X0.250000X-0.475000X0.250000X0.475000X-0.250000X0.475000X0*%
%ADD17RoundRect,0.150000X-0.150000X0.512500X-0.150000X-0.512500X0.150000X-0.512500X0.150000X0.512500X0*%
%ADD18RoundRect,0.250000X1.050000X-1.050000X1.050000X1.050000X-1.050000X1.050000X-1.050000X-1.050000X0*%
%ADD19C,2.600000*%
%ADD20R,0.400000X1.100000*%
%ADD21RoundRect,0.250000X-0.475000X0.250000X-0.475000X-0.250000X0.475000X-0.250000X0.475000X0.250000X0*%
%ADD22RoundRect,0.250000X-0.450000X0.262500X-0.450000X-0.262500X0.450000X-0.262500X0.450000X0.262500X0*%
%ADD23RoundRect,0.190500X0.825500X0.444500X-0.825500X0.444500X-0.825500X-0.444500X0.825500X-0.444500X0*%
%ADD24RoundRect,0.250000X0.475000X-0.250000X0.475000X0.250000X-0.475000X0.250000X-0.475000X-0.250000X0*%
%ADD25R,1.700000X1.700000*%
%ADD26C,1.700000*%
%ADD27RoundRect,0.250000X0.850000X0.350000X-0.850000X0.350000X-0.850000X-0.350000X0.850000X-0.350000X0*%
%ADD28RoundRect,0.249997X2.950003X2.650003X-2.950003X2.650003X-2.950003X-2.650003X2.950003X-2.650003X0*%
%ADD29O,2.500000X1.600000*%
%ADD30O,7.000000X3.500000*%
%ADD31RoundRect,0.190500X-0.825500X-0.444500X0.825500X-0.444500X0.825500X0.444500X-0.825500X0.444500X0*%
%ADD32RoundRect,0.112500X-0.112500X0.350000X-0.112500X-0.350000X0.112500X-0.350000X0.112500X0.350000X0*%
%ADD33RoundRect,0.100000X0.637500X0.100000X-0.637500X0.100000X-0.637500X-0.100000X0.637500X-0.100000X0*%
%ADD34R,1.200000X1.200000*%
%ADD35RoundRect,0.250000X0.550000X-1.250000X0.550000X1.250000X-0.550000X1.250000X-0.550000X-1.250000X0*%
%ADD36RoundRect,0.250000X0.450000X-0.262500X0.450000X0.262500X-0.450000X0.262500X-0.450000X-0.262500X0*%
%ADD37RoundRect,0.112500X0.112500X-0.350000X0.112500X0.350000X-0.112500X0.350000X-0.112500X-0.350000X0*%
%ADD38RoundRect,0.190500X0.444500X-0.825500X0.444500X0.825500X-0.444500X0.825500X-0.444500X-0.825500X0*%
%ADD39RoundRect,0.250000X1.250000X0.550000X-1.250000X0.550000X-1.250000X-0.550000X1.250000X-0.550000X0*%
%ADD40R,1.500000X0.750000*%
%ADD41R,1.500000X0.250000*%
%ADD42RoundRect,0.100000X0.100000X-0.637500X0.100000X0.637500X-0.100000X0.637500X-0.100000X-0.637500X0*%
%ADD43C,3.600000*%
%ADD44C,5.500000*%
%ADD45RoundRect,0.150000X0.587500X0.150000X-0.587500X0.150000X-0.587500X-0.150000X0.587500X-0.150000X0*%
%ADD46RoundRect,0.150000X0.512500X0.150000X-0.512500X0.150000X-0.512500X-0.150000X0.512500X-0.150000X0*%
%ADD47RoundRect,0.150000X-0.825000X-0.150000X0.825000X-0.150000X0.825000X0.150000X-0.825000X0.150000X0*%
%ADD48RoundRect,0.243750X0.243750X0.456250X-0.243750X0.456250X-0.243750X-0.456250X0.243750X-0.456250X0*%
%ADD49RoundRect,0.250000X-0.625000X0.375000X-0.625000X-0.375000X0.625000X-0.375000X0.625000X0.375000X0*%
%ADD50RoundRect,0.250000X0.625000X-0.375000X0.625000X0.375000X-0.625000X0.375000X-0.625000X-0.375000X0*%
%ADD51RoundRect,0.150000X-0.150000X0.825000X-0.150000X-0.825000X0.150000X-0.825000X0.150000X0.825000X0*%
%ADD52R,2.000000X2.000000*%
%ADD53C,2.000000*%
%ADD54R,3.500000X1.200000*%
%ADD55RoundRect,0.190500X-0.444500X0.825500X-0.444500X-0.825500X0.444500X-0.825500X0.444500X0.825500X0*%
%ADD56RoundRect,0.150000X-0.512500X-0.150000X0.512500X-0.150000X0.512500X0.150000X-0.512500X0.150000X0*%
%ADD57RoundRect,0.250000X-0.375000X-0.625000X0.375000X-0.625000X0.375000X0.625000X-0.375000X0.625000X0*%
G04 APERTURE END LIST*
D10*
%TO.C,J7*%
X188550000Y-131750000D03*
D11*
X191950000Y-136550000D03*
D12*
X185650000Y-136550000D03*
%TD*%
D13*
%TO.C,R7*%
X135175000Y-117987500D03*
X137000000Y-117987500D03*
%TD*%
D14*
%TO.C,C51*%
X127000000Y-135100000D03*
X125100000Y-135100000D03*
%TD*%
D15*
%TO.C,R56*%
X152725000Y-99987500D03*
X150900000Y-99987500D03*
%TD*%
D16*
%TO.C,C11*%
X146737500Y-83800000D03*
X148637500Y-83800000D03*
%TD*%
D17*
%TO.C,U16*%
X164162500Y-90462500D03*
X163212500Y-90462500D03*
X162262500Y-90462500D03*
X162262500Y-92737500D03*
X164162500Y-92737500D03*
%TD*%
D14*
%TO.C,C22*%
X192475000Y-94055000D03*
X190575000Y-94055000D03*
%TD*%
D18*
%TO.C,J6*%
X194772500Y-125245000D03*
D19*
X194772500Y-120165000D03*
%TD*%
D20*
%TO.C,U15*%
X147037500Y-105293750D03*
X147687500Y-105293750D03*
X148337500Y-105293750D03*
X148987500Y-105293750D03*
X148987500Y-100993750D03*
X148337500Y-100993750D03*
X147687500Y-100993750D03*
X147037500Y-100993750D03*
%TD*%
D21*
%TO.C,C37*%
X151112500Y-102193750D03*
X151112500Y-104093750D03*
%TD*%
D22*
%TO.C,R58*%
X125300000Y-94587500D03*
X125300000Y-96412500D03*
%TD*%
D23*
%TO.C,TP11*%
X144250000Y-97987500D03*
%TD*%
D13*
%TO.C,R15*%
X147200000Y-116787500D03*
X149025000Y-116787500D03*
%TD*%
D23*
%TO.C,TP9*%
X144400000Y-128487500D03*
%TD*%
D22*
%TO.C,R42*%
X177100000Y-138387500D03*
X177100000Y-140212500D03*
%TD*%
D13*
%TO.C,R45*%
X135062500Y-108787500D03*
X136887500Y-108787500D03*
%TD*%
D22*
%TO.C,R29*%
X134237500Y-141500000D03*
X134237500Y-143325000D03*
%TD*%
D24*
%TO.C,C36*%
X135100000Y-122737500D03*
X135100000Y-120837500D03*
%TD*%
%TO.C,C6*%
X159700000Y-114600000D03*
X159700000Y-112700000D03*
%TD*%
D16*
%TO.C,C15*%
X169750000Y-121320000D03*
X171650000Y-121320000D03*
%TD*%
D15*
%TO.C,R66*%
X179112500Y-128100000D03*
X177287500Y-128100000D03*
%TD*%
D25*
%TO.C,J5*%
X149980000Y-79200000D03*
D26*
X152520000Y-79200000D03*
X155060000Y-79200000D03*
X157600000Y-79200000D03*
X160140000Y-79200000D03*
X162680000Y-79200000D03*
%TD*%
D27*
%TO.C,U11*%
X192425000Y-91355000D03*
D28*
X186125000Y-89075000D03*
D27*
X192425000Y-86795000D03*
%TD*%
D29*
%TO.C,J1*%
X113150000Y-70000000D03*
D30*
X108070000Y-75080000D03*
D29*
X113150000Y-72540000D03*
D30*
X108070000Y-64920000D03*
%TD*%
D13*
%TO.C,R6*%
X139100000Y-115887500D03*
X140925000Y-115887500D03*
%TD*%
D15*
%TO.C,R39*%
X127137500Y-102287500D03*
X125312500Y-102287500D03*
%TD*%
D16*
%TO.C,C41*%
X134287500Y-89825000D03*
X136187500Y-89825000D03*
%TD*%
D14*
%TO.C,C40*%
X140450000Y-89800000D03*
X138550000Y-89800000D03*
%TD*%
D16*
%TO.C,C3*%
X147162500Y-118887500D03*
X149062500Y-118887500D03*
%TD*%
D14*
%TO.C,C31*%
X144950000Y-90100000D03*
X143050000Y-90100000D03*
%TD*%
D22*
%TO.C,R59*%
X125300000Y-113187500D03*
X125300000Y-115012500D03*
%TD*%
D15*
%TO.C,R55*%
X148912500Y-109787500D03*
X147087500Y-109787500D03*
%TD*%
D31*
%TO.C,TP5*%
X154893750Y-83025000D03*
%TD*%
D32*
%TO.C,D10*%
X120050000Y-99012500D03*
X118750000Y-99012500D03*
X119400000Y-100787500D03*
%TD*%
D25*
%TO.C,JP1*%
X132625000Y-81500000D03*
D26*
X135165000Y-81500000D03*
%TD*%
D15*
%TO.C,R10*%
X132112500Y-129087500D03*
X130287500Y-129087500D03*
%TD*%
D33*
%TO.C,U3*%
X171225000Y-113350000D03*
X171225000Y-112700000D03*
X171225000Y-112050000D03*
X171225000Y-111400000D03*
X171225000Y-110750000D03*
X171225000Y-110100000D03*
X171225000Y-109450000D03*
X171225000Y-108800000D03*
X171225000Y-108150000D03*
X171225000Y-107500000D03*
X171225000Y-106850000D03*
X171225000Y-106200000D03*
X171225000Y-105550000D03*
X171225000Y-104900000D03*
X165500000Y-104900000D03*
X165500000Y-105550000D03*
X165500000Y-106200000D03*
X165500000Y-106850000D03*
X165500000Y-107500000D03*
X165500000Y-108150000D03*
X165500000Y-108800000D03*
X165500000Y-109450000D03*
X165500000Y-110100000D03*
X165500000Y-110750000D03*
X165500000Y-111400000D03*
X165500000Y-112050000D03*
X165500000Y-112700000D03*
X165500000Y-113350000D03*
%TD*%
D34*
%TO.C,D3*%
X195525000Y-90555000D03*
X195525000Y-87755000D03*
%TD*%
D15*
%TO.C,R33*%
X127187500Y-124587500D03*
X125362500Y-124587500D03*
%TD*%
D14*
%TO.C,C24*%
X192475000Y-84155000D03*
X190575000Y-84155000D03*
%TD*%
D15*
%TO.C,R60*%
X164825000Y-126500000D03*
X163000000Y-126500000D03*
%TD*%
D21*
%TO.C,C43*%
X120000000Y-137050000D03*
X120000000Y-138950000D03*
%TD*%
D29*
%TO.C,J4*%
X113150000Y-130000000D03*
D30*
X108070000Y-135080000D03*
D29*
X113150000Y-132540000D03*
D30*
X108070000Y-124920000D03*
%TD*%
D13*
%TO.C,R1*%
X135100000Y-131125000D03*
X136925000Y-131125000D03*
%TD*%
D35*
%TO.C,C18*%
X185900000Y-113800000D03*
X185900000Y-109400000D03*
%TD*%
D24*
%TO.C,C49*%
X159700000Y-111000000D03*
X159700000Y-109100000D03*
%TD*%
D36*
%TO.C,R25*%
X173600000Y-81012500D03*
X173600000Y-79187500D03*
%TD*%
D24*
%TO.C,C5*%
X159650000Y-107500000D03*
X159650000Y-105600000D03*
%TD*%
D15*
%TO.C,R53*%
X145175000Y-104143750D03*
X143350000Y-104143750D03*
%TD*%
D34*
%TO.C,D4*%
X195425000Y-105005000D03*
X195425000Y-102205000D03*
%TD*%
D16*
%TO.C,C32*%
X122650000Y-132700000D03*
X124550000Y-132700000D03*
%TD*%
D15*
%TO.C,R35*%
X129025000Y-87425000D03*
X127200000Y-87425000D03*
%TD*%
D21*
%TO.C,C35*%
X135100000Y-124337500D03*
X135100000Y-126237500D03*
%TD*%
D15*
%TO.C,R9*%
X132062500Y-117987500D03*
X130237500Y-117987500D03*
%TD*%
D37*
%TO.C,D9*%
X118700000Y-105000000D03*
X120000000Y-105000000D03*
X119350000Y-103225000D03*
%TD*%
D24*
%TO.C,C17*%
X132237500Y-143362500D03*
X132237500Y-141462500D03*
%TD*%
%TO.C,C39*%
X135050000Y-102437500D03*
X135050000Y-100537500D03*
%TD*%
D15*
%TO.C,R18*%
X152775000Y-126587500D03*
X150950000Y-126587500D03*
%TD*%
%TO.C,R23*%
X154300000Y-88000000D03*
X152475000Y-88000000D03*
%TD*%
D14*
%TO.C,C14*%
X175150000Y-121320000D03*
X173250000Y-121320000D03*
%TD*%
D15*
%TO.C,R38*%
X129025000Y-85425000D03*
X127200000Y-85425000D03*
%TD*%
D16*
%TO.C,C1*%
X130200000Y-115887500D03*
X132100000Y-115887500D03*
%TD*%
D34*
%TO.C,D1*%
X187500000Y-117750000D03*
X187500000Y-120550000D03*
%TD*%
D24*
%TO.C,C16*%
X125537500Y-143362500D03*
X125537500Y-141462500D03*
%TD*%
D38*
%TO.C,TP1*%
X152662500Y-116987500D03*
%TD*%
D25*
%TO.C,U5*%
X195660000Y-59960000D03*
D26*
X193120000Y-59960000D03*
X190580000Y-59960000D03*
X188040000Y-59960000D03*
X185500000Y-59960000D03*
X182960000Y-59960000D03*
X180420000Y-59960000D03*
X177880000Y-59960000D03*
X175340000Y-59960000D03*
X172800000Y-59960000D03*
X170260000Y-59960000D03*
X167720000Y-59960000D03*
X165180000Y-59960000D03*
X162640000Y-59960000D03*
X160100000Y-59960000D03*
X157560000Y-59960000D03*
X155020000Y-59960000D03*
X152480000Y-59960000D03*
X149940000Y-59960000D03*
X147400000Y-59960000D03*
X144860000Y-59960000D03*
X142320000Y-59960000D03*
X139780000Y-59960000D03*
X137240000Y-59960000D03*
X137240000Y-75200000D03*
X139780000Y-75200000D03*
X142320000Y-75200000D03*
X144860000Y-75200000D03*
X147400000Y-75200000D03*
X149940000Y-75200000D03*
X152480000Y-75200000D03*
X155020000Y-75200000D03*
X157560000Y-75200000D03*
X160100000Y-75200000D03*
X162640000Y-75200000D03*
X165180000Y-75200000D03*
X167720000Y-75200000D03*
X170260000Y-75200000D03*
X172800000Y-75200000D03*
X175340000Y-75200000D03*
X177880000Y-75200000D03*
X180420000Y-75200000D03*
X182960000Y-75200000D03*
X185500000Y-75200000D03*
X188040000Y-75200000D03*
X190580000Y-75200000D03*
X193120000Y-75200000D03*
X195660000Y-75200000D03*
X193120000Y-72660000D03*
%TD*%
D22*
%TO.C,R30*%
X123437500Y-141500000D03*
X123437500Y-143325000D03*
%TD*%
D29*
%TO.C,J2*%
X113150000Y-90000000D03*
D30*
X108070000Y-95080000D03*
D29*
X113150000Y-92540000D03*
D30*
X108070000Y-84920000D03*
%TD*%
D15*
%TO.C,R19*%
X148600000Y-88000000D03*
X146775000Y-88000000D03*
%TD*%
D39*
%TO.C,C23*%
X188000000Y-81850000D03*
X183600000Y-81850000D03*
%TD*%
D15*
%TO.C,R20*%
X148600000Y-85900000D03*
X146775000Y-85900000D03*
%TD*%
D13*
%TO.C,R64*%
X169687500Y-126500000D03*
X171512500Y-126500000D03*
%TD*%
D32*
%TO.C,Q2*%
X171250000Y-130712500D03*
X169950000Y-130712500D03*
X170600000Y-132487500D03*
%TD*%
D21*
%TO.C,C12*%
X150587500Y-86050000D03*
X150587500Y-87950000D03*
%TD*%
D40*
%TO.C,U12*%
X131664200Y-85542700D03*
D41*
X131664200Y-86292700D03*
X131664200Y-86792700D03*
X131664200Y-87292700D03*
D40*
X131664200Y-88042700D03*
X136164200Y-88042700D03*
D41*
X136164200Y-87292700D03*
X136164200Y-86792700D03*
X136164200Y-86292700D03*
D40*
X136164200Y-85542700D03*
%TD*%
D15*
%TO.C,R16*%
X152775000Y-120287500D03*
X150950000Y-120287500D03*
%TD*%
D36*
%TO.C,R26*%
X175600000Y-81012500D03*
X175600000Y-79187500D03*
%TD*%
D20*
%TO.C,U2*%
X147087500Y-125593750D03*
X147737500Y-125593750D03*
X148387500Y-125593750D03*
X149037500Y-125593750D03*
X149037500Y-121293750D03*
X148387500Y-121293750D03*
X147737500Y-121293750D03*
X147087500Y-121293750D03*
%TD*%
D24*
%TO.C,C42*%
X136250000Y-138950000D03*
X136250000Y-137050000D03*
%TD*%
%TO.C,C47*%
X176600000Y-108950000D03*
X176600000Y-107050000D03*
%TD*%
D13*
%TO.C,R8*%
X135175000Y-115887500D03*
X137000000Y-115887500D03*
%TD*%
%TO.C,R51*%
X139050000Y-97687500D03*
X140875000Y-97687500D03*
%TD*%
D31*
%TO.C,TP16*%
X126500000Y-130000000D03*
%TD*%
D42*
%TO.C,U14*%
X136800000Y-106112500D03*
X137450000Y-106112500D03*
X138100000Y-106112500D03*
X138750000Y-106112500D03*
X139400000Y-106112500D03*
X140050000Y-106112500D03*
X140700000Y-106112500D03*
X141350000Y-106112500D03*
X141350000Y-100387500D03*
X140700000Y-100387500D03*
X140050000Y-100387500D03*
X139400000Y-100387500D03*
X138750000Y-100387500D03*
X138100000Y-100387500D03*
X137450000Y-100387500D03*
X136800000Y-100387500D03*
%TD*%
D43*
%TO.C,H2*%
X196000000Y-54000000D03*
D44*
X196000000Y-54000000D03*
%TD*%
D15*
%TO.C,R22*%
X154300000Y-85900000D03*
X152475000Y-85900000D03*
%TD*%
%TO.C,R65*%
X171512500Y-128600000D03*
X169687500Y-128600000D03*
%TD*%
%TO.C,R52*%
X145175000Y-102087500D03*
X143350000Y-102087500D03*
%TD*%
D45*
%TO.C,Q3*%
X184950000Y-120500000D03*
X184950000Y-118600000D03*
X183075000Y-119550000D03*
%TD*%
D25*
%TO.C,J10*%
X176875000Y-131200000D03*
D26*
X174335000Y-131200000D03*
%TD*%
D46*
%TO.C,U7*%
X125137500Y-139012500D03*
X125137500Y-138062500D03*
X125137500Y-137112500D03*
X122862500Y-137112500D03*
X122862500Y-139012500D03*
%TD*%
D47*
%TO.C,U17*%
X139237500Y-83685000D03*
X139237500Y-84955000D03*
X139237500Y-86225000D03*
X139237500Y-87495000D03*
X144187500Y-87495000D03*
X144187500Y-86225000D03*
X144187500Y-84955000D03*
X144187500Y-83685000D03*
%TD*%
D13*
%TO.C,R49*%
X135125000Y-97687500D03*
X136950000Y-97687500D03*
%TD*%
D48*
%TO.C,D6*%
X175437500Y-128100000D03*
X173562500Y-128100000D03*
%TD*%
D24*
%TO.C,C48*%
X161800000Y-111000000D03*
X161800000Y-109100000D03*
%TD*%
D15*
%TO.C,R21*%
X152200000Y-83800000D03*
X150375000Y-83800000D03*
%TD*%
%TO.C,R43*%
X164825000Y-128600000D03*
X163000000Y-128600000D03*
%TD*%
D13*
%TO.C,R44*%
X135050000Y-110825000D03*
X136875000Y-110825000D03*
%TD*%
%TO.C,R24*%
X150375000Y-90100000D03*
X152200000Y-90100000D03*
%TD*%
D36*
%TO.C,R63*%
X190900000Y-54712500D03*
X190900000Y-52887500D03*
%TD*%
D49*
%TO.C,F2*%
X119500000Y-94000000D03*
X119500000Y-96800000D03*
%TD*%
D50*
%TO.C,F3*%
X119400000Y-110000000D03*
X119400000Y-107200000D03*
%TD*%
D13*
%TO.C,R2*%
X135112500Y-129087500D03*
X136937500Y-129087500D03*
%TD*%
%TO.C,R48*%
X135125000Y-95587500D03*
X136950000Y-95587500D03*
%TD*%
D23*
%TO.C,TP8*%
X144300000Y-118287500D03*
%TD*%
D16*
%TO.C,C26*%
X130200000Y-110887500D03*
X132100000Y-110887500D03*
%TD*%
D25*
%TO.C,SW1*%
X184600000Y-126375000D03*
D26*
X184600000Y-123835000D03*
%TD*%
D39*
%TO.C,C19*%
X188000000Y-96300000D03*
X183600000Y-96300000D03*
%TD*%
D15*
%TO.C,R14*%
X145225000Y-124443750D03*
X143400000Y-124443750D03*
%TD*%
D13*
%TO.C,R5*%
X139100000Y-117987500D03*
X140925000Y-117987500D03*
%TD*%
D43*
%TO.C,H4*%
X196000000Y-146000000D03*
D44*
X196000000Y-146000000D03*
%TD*%
D40*
%TO.C,U9*%
X133110800Y-139469800D03*
D41*
X133110800Y-138719800D03*
X133110800Y-138219800D03*
X133110800Y-137719800D03*
D40*
X133110800Y-136969800D03*
X128610800Y-136969800D03*
D41*
X128610800Y-137719800D03*
X128610800Y-138219800D03*
X128610800Y-138719800D03*
D40*
X128610800Y-139469800D03*
%TD*%
D13*
%TO.C,R46*%
X139150000Y-110887500D03*
X140975000Y-110887500D03*
%TD*%
D51*
%TO.C,U1*%
X133005000Y-121112500D03*
X131735000Y-121112500D03*
X130465000Y-121112500D03*
X129195000Y-121112500D03*
X129195000Y-126062500D03*
X130465000Y-126062500D03*
X131735000Y-126062500D03*
X133005000Y-126062500D03*
%TD*%
D16*
%TO.C,C10*%
X147112500Y-132287500D03*
X149012500Y-132287500D03*
%TD*%
D15*
%TO.C,R32*%
X127187500Y-122587500D03*
X125362500Y-122587500D03*
%TD*%
D49*
%TO.C,F1*%
X119200000Y-72100000D03*
X119200000Y-74900000D03*
%TD*%
D15*
%TO.C,R41*%
X132062500Y-108787500D03*
X130237500Y-108787500D03*
%TD*%
D21*
%TO.C,C8*%
X164900000Y-100900000D03*
X164900000Y-102800000D03*
%TD*%
D32*
%TO.C,D8*%
X120900000Y-132537500D03*
X119600000Y-132537500D03*
X120250000Y-134312500D03*
%TD*%
D13*
%TO.C,R27*%
X128837500Y-135100000D03*
X130662500Y-135100000D03*
%TD*%
D52*
%TO.C,BZ1*%
X173300000Y-140200000D03*
D53*
X165700000Y-140200000D03*
%TD*%
D23*
%TO.C,TP15*%
X171200000Y-79200000D03*
%TD*%
D42*
%TO.C,U4*%
X136850000Y-126412500D03*
X137500000Y-126412500D03*
X138150000Y-126412500D03*
X138800000Y-126412500D03*
X139450000Y-126412500D03*
X140100000Y-126412500D03*
X140750000Y-126412500D03*
X141400000Y-126412500D03*
X141400000Y-120687500D03*
X140750000Y-120687500D03*
X140100000Y-120687500D03*
X139450000Y-120687500D03*
X138800000Y-120687500D03*
X138150000Y-120687500D03*
X137500000Y-120687500D03*
X136850000Y-120687500D03*
%TD*%
D25*
%TO.C,J8*%
X129580000Y-54800000D03*
D26*
X132120000Y-54800000D03*
X134660000Y-54800000D03*
X137200000Y-54800000D03*
X139740000Y-54800000D03*
X142280000Y-54800000D03*
X144820000Y-54800000D03*
X147360000Y-54800000D03*
X149900000Y-54800000D03*
%TD*%
D32*
%TO.C,D11*%
X119900000Y-77300000D03*
X118600000Y-77300000D03*
X119250000Y-79075000D03*
%TD*%
D15*
%TO.C,R61*%
X164125000Y-84100000D03*
X162300000Y-84100000D03*
%TD*%
D22*
%TO.C,R28*%
X127637500Y-141500000D03*
X127637500Y-143325000D03*
%TD*%
D24*
%TO.C,C46*%
X174500000Y-108950000D03*
X174500000Y-107050000D03*
%TD*%
D16*
%TO.C,C27*%
X147062500Y-111987500D03*
X148962500Y-111987500D03*
%TD*%
D32*
%TO.C,Q1*%
X164562500Y-130512500D03*
X163262500Y-130512500D03*
X163912500Y-132287500D03*
%TD*%
D43*
%TO.C,H1*%
X104000000Y-54000000D03*
D44*
X104000000Y-54000000D03*
%TD*%
D15*
%TO.C,R40*%
X127137500Y-104287500D03*
X125312500Y-104287500D03*
%TD*%
D21*
%TO.C,C9*%
X162800000Y-100900000D03*
X162800000Y-102800000D03*
%TD*%
D13*
%TO.C,R3*%
X139200000Y-131187500D03*
X141025000Y-131187500D03*
%TD*%
D54*
%TO.C,Y1*%
X169700000Y-117650000D03*
X175200000Y-117650000D03*
%TD*%
D38*
%TO.C,TP3*%
X152612500Y-96687500D03*
%TD*%
D43*
%TO.C,H3*%
X104000000Y-146000000D03*
D44*
X104000000Y-146000000D03*
%TD*%
D31*
%TO.C,TP12*%
X194600000Y-96600000D03*
%TD*%
D55*
%TO.C,TP2*%
X152662500Y-129887500D03*
%TD*%
D21*
%TO.C,C45*%
X166107500Y-90675000D03*
X166107500Y-92575000D03*
%TD*%
D31*
%TO.C,TP13*%
X195900000Y-81800000D03*
%TD*%
D14*
%TO.C,C20*%
X192475000Y-108605000D03*
X190575000Y-108605000D03*
%TD*%
D29*
%TO.C,J3*%
X113150000Y-110000000D03*
D30*
X108070000Y-115080000D03*
D29*
X113150000Y-112540000D03*
D30*
X108070000Y-104920000D03*
%TD*%
D14*
%TO.C,C13*%
X148637500Y-90100000D03*
X146737500Y-90100000D03*
%TD*%
D16*
%TO.C,C28*%
X147112500Y-98587500D03*
X149012500Y-98587500D03*
%TD*%
%TO.C,C4*%
X147112500Y-127987500D03*
X149012500Y-127987500D03*
%TD*%
D56*
%TO.C,U6*%
X173000000Y-99150000D03*
X173000000Y-100100000D03*
X173000000Y-101050000D03*
X175275000Y-101050000D03*
X175275000Y-99150000D03*
%TD*%
D15*
%TO.C,R54*%
X148975000Y-96487500D03*
X147150000Y-96487500D03*
%TD*%
D13*
%TO.C,R4*%
X139200000Y-129087500D03*
X141025000Y-129087500D03*
%TD*%
D15*
%TO.C,R17*%
X132012500Y-97687500D03*
X130187500Y-97687500D03*
%TD*%
D13*
%TO.C,R47*%
X139150000Y-108787500D03*
X140975000Y-108787500D03*
%TD*%
D23*
%TO.C,TP6*%
X154893750Y-90925000D03*
%TD*%
D13*
%TO.C,R50*%
X139050000Y-95587500D03*
X140875000Y-95587500D03*
%TD*%
D22*
%TO.C,R67*%
X187500000Y-122487500D03*
X187500000Y-124312500D03*
%TD*%
D16*
%TO.C,C33*%
X162262500Y-86200000D03*
X164162500Y-86200000D03*
%TD*%
D15*
%TO.C,R36*%
X129037500Y-83425000D03*
X127212500Y-83425000D03*
%TD*%
D51*
%TO.C,U13*%
X132955000Y-100812500D03*
X131685000Y-100812500D03*
X130415000Y-100812500D03*
X129145000Y-100812500D03*
X129145000Y-105762500D03*
X130415000Y-105762500D03*
X131685000Y-105762500D03*
X132955000Y-105762500D03*
%TD*%
D25*
%TO.C,J9*%
X188040000Y-54800000D03*
D26*
X185500000Y-54800000D03*
X182960000Y-54800000D03*
X180420000Y-54800000D03*
X177880000Y-54800000D03*
X175340000Y-54800000D03*
X172800000Y-54800000D03*
X170260000Y-54800000D03*
X167720000Y-54800000D03*
X165180000Y-54800000D03*
X162640000Y-54800000D03*
X160100000Y-54800000D03*
X157560000Y-54800000D03*
X155020000Y-54800000D03*
%TD*%
D24*
%TO.C,C30*%
X159650000Y-103900000D03*
X159650000Y-102000000D03*
%TD*%
D21*
%TO.C,C34*%
X151162500Y-122493750D03*
X151162500Y-124393750D03*
%TD*%
D16*
%TO.C,C29*%
X147062500Y-107687500D03*
X148962500Y-107687500D03*
%TD*%
D24*
%TO.C,C7*%
X161800000Y-114600000D03*
X161800000Y-112700000D03*
%TD*%
%TO.C,C50*%
X170780000Y-101075000D03*
X170780000Y-99175000D03*
%TD*%
D55*
%TO.C,TP4*%
X152612500Y-109587500D03*
%TD*%
D14*
%TO.C,C21*%
X192475000Y-98805000D03*
X190575000Y-98805000D03*
%TD*%
D27*
%TO.C,U10*%
X192425000Y-105912500D03*
D28*
X186125000Y-103632500D03*
D27*
X192425000Y-101352500D03*
%TD*%
D16*
%TO.C,C25*%
X130150000Y-95587500D03*
X132050000Y-95587500D03*
%TD*%
D15*
%TO.C,R34*%
X148962500Y-130087500D03*
X147137500Y-130087500D03*
%TD*%
D31*
%TO.C,TP14*%
X178000000Y-79200000D03*
%TD*%
D21*
%TO.C,C38*%
X135050000Y-104037500D03*
X135050000Y-105937500D03*
%TD*%
D31*
%TO.C,TP17*%
X162300000Y-94700000D03*
%TD*%
D15*
%TO.C,R57*%
X152725000Y-106287500D03*
X150900000Y-106287500D03*
%TD*%
%TO.C,R13*%
X145225000Y-122387500D03*
X143400000Y-122387500D03*
%TD*%
D57*
%TO.C,F4*%
X118100000Y-130000000D03*
X120900000Y-130000000D03*
%TD*%
D23*
%TO.C,TP10*%
X144350000Y-108187500D03*
%TD*%
D16*
%TO.C,C2*%
X130250000Y-131187500D03*
X132150000Y-131187500D03*
%TD*%
D15*
%TO.C,R37*%
X129012500Y-89425000D03*
X127187500Y-89425000D03*
%TD*%
D22*
%TO.C,R31*%
X130237500Y-141500000D03*
X130237500Y-143325000D03*
%TD*%
D31*
%TO.C,TP7*%
X141600000Y-81225000D03*
%TD*%
D13*
%TO.C,R62*%
X162300000Y-88300000D03*
X164125000Y-88300000D03*
%TD*%
D39*
%TO.C,C44*%
X164650000Y-119050000D03*
X160250000Y-119050000D03*
%TD*%
M02*
