M48
; DRILL file KiCad 10.0.0 date 2026-04-10T00:53:27
; FORMAT={-:-/ absolute / metric / decimal}
; #@! TF.CreationDate,2026-04-10T00:53:27-04:00
; #@! TF.GenerationSoftware,Kicad,Pcbnew,10.0.0
; #@! TF.FileFunction,Plated,1,4,PTH
FMAT,2
METRIC
; #@! TA.AperFunction,Plated,PTH,ViaDrill
T1C0.300
; #@! TA.AperFunction,Plated,PTH,ComponentDrill
T2C0.800
; #@! TA.AperFunction,Plated,PTH,ComponentDrill
T3C0.890
; #@! TA.AperFunction,Plated,PTH,ComponentDrill
T4C1.000
; #@! TA.AperFunction,Plated,PTH,ComponentDrill
T5C1.300
; #@! TA.AperFunction,Plated,PTH,ComponentDrill
T6C2.010
; #@! TA.AperFunction,Plated,PTH,ComponentDrill
T7C3.200
%
G90
G05
T1
X120.7Y-100.2
X121.1Y-105.3
X126.675Y-72.225
X126.994Y-123.9
X127.3Y-61.1
X127.325Y-62.375
X127.9Y-89.312
X128.2Y-112.6
X128.7Y-99.012
X130.594Y-127.5
X132.019Y-140.2
X132.194Y-130.9
X133.406Y-109.1
X134.119Y-142.5
X134.294Y-128.025
X134.606Y-106.2
X134.706Y-118.3
X134.931Y-134.6
X135.556Y-107.15
X135.806Y-120.1
X136.019Y-109.387
X136.694Y-130.9
X136.994Y-128.3
X138.106Y-109.5
X138.306Y-113.3
X138.444Y-137.55
X138.519Y-141.3
X139.794Y-122.8
X140.094Y-128.6
X140.3Y-112.3
X143.025Y-84.737
X143.094Y-138.512
X143.925Y-84.737
X144.825Y-84.737
X147.95Y-84.8
X152.044Y-123.8
X152.131Y-114.0
X155.644Y-127.4
X157.244Y-130.8
X158.456Y-109.0
X159.344Y-127.925
X159.656Y-106.1
X159.756Y-118.2
X160.606Y-107.05
X160.856Y-120.0
X161.069Y-109.287
X161.744Y-130.8
X162.044Y-128.2
X163.156Y-109.4
X163.356Y-113.2
X164.844Y-122.7
X165.088Y-128.444
X168.731Y-115.1
T2
X182.705Y-69.582
X182.705Y-71.582
X182.705Y-73.582
X184.705Y-69.582
X184.705Y-71.582
X184.705Y-73.582
X196.945Y-67.13
X196.945Y-69.67
T3
X113.08Y-68.2
X113.08Y-70.74
X113.08Y-89.8
X113.08Y-92.34
X113.08Y-111.4
X113.08Y-113.94
X113.08Y-133.0
X113.08Y-135.54
T4
X131.02Y-54.4
X133.56Y-54.4
X136.1Y-54.4
X138.64Y-54.4
X139.255Y-60.78
X139.255Y-76.02
X141.18Y-54.4
X141.795Y-60.78
X141.795Y-76.02
X143.72Y-54.4
X144.335Y-60.78
X144.335Y-76.02
X146.26Y-54.4
X146.875Y-60.78
X146.875Y-76.02
X148.8Y-54.4
X149.415Y-60.78
X149.415Y-76.02
X151.34Y-54.4
X151.955Y-60.78
X151.955Y-63.32
X151.955Y-65.86
X151.955Y-68.4
X151.955Y-70.94
X151.955Y-73.48
X151.955Y-76.02
X154.495Y-60.78
X154.495Y-76.02
X156.8Y-54.4
X157.035Y-60.78
X157.035Y-76.02
X159.34Y-54.4
X159.575Y-60.78
X159.575Y-76.02
X161.88Y-54.4
X162.115Y-60.78
X162.115Y-76.02
X164.42Y-54.4
X164.655Y-60.78
X164.655Y-76.02
X166.96Y-54.4
X167.195Y-60.78
X167.195Y-76.02
X169.5Y-54.4
X169.735Y-60.78
X169.735Y-76.02
X172.04Y-54.4
X172.275Y-60.78
X172.275Y-76.02
X174.58Y-54.4
X174.815Y-60.78
X174.815Y-76.02
X177.12Y-54.4
X177.355Y-60.78
X177.355Y-76.02
X178.8Y-134.02
X178.8Y-136.56
X179.66Y-54.4
X179.895Y-60.78
X179.895Y-76.02
X181.216Y-63.831
X182.2Y-54.4
X182.435Y-60.78
X182.435Y-76.02
X183.756Y-63.831
X184.74Y-54.4
X184.975Y-60.78
X184.975Y-76.02
X186.296Y-63.831
X187.28Y-54.4
X187.515Y-60.78
X187.515Y-76.02
X188.836Y-63.831
X189.82Y-54.4
X190.055Y-60.78
X190.055Y-76.02
X191.376Y-63.831
X192.595Y-60.78
X192.595Y-76.02
X195.135Y-60.78
X195.135Y-73.48
X195.135Y-76.02
X197.675Y-60.78
X197.675Y-76.02
T5
X194.373Y-117.965
X194.373Y-123.045
T6
X108.0Y-63.12
X108.0Y-73.28
X108.0Y-84.72
X108.0Y-94.88
X108.0Y-106.32
X108.0Y-116.48
X108.0Y-127.92
X108.0Y-138.08
T7
X104.0Y-54.0
X104.0Y-146.0
X196.0Y-54.0
X196.0Y-146.0
T4
G00X185.25Y-135.95
M15
G01X185.25Y-133.35
M16
G05
G00X187.05Y-129.85
M15
G01X189.25Y-129.85
M16
G05
G00X191.55Y-135.75
M15
G01X191.55Y-133.55
M16
G05
M30
