%TF.GenerationSoftware,KiCad,Pcbnew,10.0.0*%
%TF.CreationDate,2026-04-19T17:23:21-04:00*%
%TF.ProjectId,lcr,6c63722e-6b69-4636-9164-5f7063625858,rev?*%
%TF.SameCoordinates,Original*%
%TF.FileFunction,Soldermask,Bot*%
%TF.FilePolarity,Negative*%
%FSLAX46Y46*%
G04 Gerber Fmt 4.6, Leading zero omitted, Abs format (unit mm)*
G04 Created by KiCad (PCBNEW 10.0.0) date 2026-04-19 17:23:21*
%MOMM*%
%LPD*%
G01*
G04 APERTURE LIST*
G04 Aperture macros list*
%AMRoundRect*
0 Rectangle with rounded corners*
0 $1 Rounding radius*
0 $2 $3 $4 $5 $6 $7 $8 $9 X,Y pos of 4 corners*
0 Add a 4 corners polygon primitive as box body*
4,1,4,$2,$3,$4,$5,$6,$7,$8,$9,$2,$3,0*
0 Add four circle primitives for the rounded corners*
1,1,$1+$1,$2,$3*
1,1,$1+$1,$4,$5*
1,1,$1+$1,$6,$7*
1,1,$1+$1,$8,$9*
0 Add four rect primitives between the rounded corners*
20,1,$1+$1,$2,$3,$4,$5,0*
20,1,$1+$1,$4,$5,$6,$7,0*
20,1,$1+$1,$6,$7,$8,$9,0*
20,1,$1+$1,$8,$9,$2,$3,0*%
G04 Aperture macros list end*
%ADD10O,4.200000X2.000000*%
%ADD11O,2.000000X4.200000*%
%ADD12R,2.000000X4.600000*%
%ADD13RoundRect,0.250000X1.050000X-1.050000X1.050000X1.050000X-1.050000X1.050000X-1.050000X-1.050000X0*%
%ADD14C,2.600000*%
%ADD15R,1.700000X1.700000*%
%ADD16C,1.700000*%
%ADD17O,2.500000X1.600000*%
%ADD18O,7.000000X3.500000*%
%ADD19C,3.600000*%
%ADD20C,5.500000*%
%ADD21R,2.000000X2.000000*%
%ADD22C,2.000000*%
G04 APERTURE END LIST*
D10*
%TO.C,J7*%
X188550000Y-131750000D03*
D11*
X191950000Y-136550000D03*
D12*
X185650000Y-136550000D03*
%TD*%
D13*
%TO.C,J6*%
X194772500Y-125245000D03*
D14*
X194772500Y-120165000D03*
%TD*%
D15*
%TO.C,J5*%
X149980000Y-79200000D03*
D16*
X152520000Y-79200000D03*
X155060000Y-79200000D03*
X157600000Y-79200000D03*
X160140000Y-79200000D03*
X162680000Y-79200000D03*
%TD*%
D17*
%TO.C,J1*%
X113150000Y-70000000D03*
D18*
X108070000Y-75080000D03*
D17*
X113150000Y-72540000D03*
D18*
X108070000Y-64920000D03*
%TD*%
D15*
%TO.C,JP1*%
X132625000Y-81500000D03*
D16*
X135165000Y-81500000D03*
%TD*%
D17*
%TO.C,J4*%
X113150000Y-130000000D03*
D18*
X108070000Y-135080000D03*
D17*
X113150000Y-132540000D03*
D18*
X108070000Y-124920000D03*
%TD*%
D15*
%TO.C,U5*%
X195660000Y-59960000D03*
D16*
X193120000Y-59960000D03*
X190580000Y-59960000D03*
X188040000Y-59960000D03*
X185500000Y-59960000D03*
X182960000Y-59960000D03*
X180420000Y-59960000D03*
X177880000Y-59960000D03*
X175340000Y-59960000D03*
X172800000Y-59960000D03*
X170260000Y-59960000D03*
X167720000Y-59960000D03*
X165180000Y-59960000D03*
X162640000Y-59960000D03*
X160100000Y-59960000D03*
X157560000Y-59960000D03*
X155020000Y-59960000D03*
X152480000Y-59960000D03*
X149940000Y-59960000D03*
X147400000Y-59960000D03*
X144860000Y-59960000D03*
X142320000Y-59960000D03*
X139780000Y-59960000D03*
X137240000Y-59960000D03*
X137240000Y-75200000D03*
X139780000Y-75200000D03*
X142320000Y-75200000D03*
X144860000Y-75200000D03*
X147400000Y-75200000D03*
X149940000Y-75200000D03*
X152480000Y-75200000D03*
X155020000Y-75200000D03*
X157560000Y-75200000D03*
X160100000Y-75200000D03*
X162640000Y-75200000D03*
X165180000Y-75200000D03*
X167720000Y-75200000D03*
X170260000Y-75200000D03*
X172800000Y-75200000D03*
X175340000Y-75200000D03*
X177880000Y-75200000D03*
X180420000Y-75200000D03*
X182960000Y-75200000D03*
X185500000Y-75200000D03*
X188040000Y-75200000D03*
X190580000Y-75200000D03*
X193120000Y-75200000D03*
X195660000Y-75200000D03*
X193120000Y-72660000D03*
%TD*%
D17*
%TO.C,J2*%
X113150000Y-90000000D03*
D18*
X108070000Y-95080000D03*
D17*
X113150000Y-92540000D03*
D18*
X108070000Y-84920000D03*
%TD*%
D19*
%TO.C,H2*%
X196000000Y-54000000D03*
D20*
X196000000Y-54000000D03*
%TD*%
D15*
%TO.C,J10*%
X176875000Y-131200000D03*
D16*
X174335000Y-131200000D03*
%TD*%
D15*
%TO.C,SW1*%
X184600000Y-126375000D03*
D16*
X184600000Y-123835000D03*
%TD*%
D19*
%TO.C,H4*%
X196000000Y-146000000D03*
D20*
X196000000Y-146000000D03*
%TD*%
D21*
%TO.C,BZ1*%
X173300000Y-140200000D03*
D22*
X165700000Y-140200000D03*
%TD*%
D15*
%TO.C,J8*%
X129580000Y-54800000D03*
D16*
X132120000Y-54800000D03*
X134660000Y-54800000D03*
X137200000Y-54800000D03*
X139740000Y-54800000D03*
X142280000Y-54800000D03*
X144820000Y-54800000D03*
X147360000Y-54800000D03*
X149900000Y-54800000D03*
%TD*%
D19*
%TO.C,H1*%
X104000000Y-54000000D03*
D20*
X104000000Y-54000000D03*
%TD*%
D19*
%TO.C,H3*%
X104000000Y-146000000D03*
D20*
X104000000Y-146000000D03*
%TD*%
D17*
%TO.C,J3*%
X113150000Y-110000000D03*
D18*
X108070000Y-115080000D03*
D17*
X113150000Y-112540000D03*
D18*
X108070000Y-104920000D03*
%TD*%
D15*
%TO.C,J9*%
X188040000Y-54800000D03*
D16*
X185500000Y-54800000D03*
X182960000Y-54800000D03*
X180420000Y-54800000D03*
X177880000Y-54800000D03*
X175340000Y-54800000D03*
X172800000Y-54800000D03*
X170260000Y-54800000D03*
X167720000Y-54800000D03*
X165180000Y-54800000D03*
X162640000Y-54800000D03*
X160100000Y-54800000D03*
X157560000Y-54800000D03*
X155020000Y-54800000D03*
%TD*%
M02*
