  0
SECTION
  2
HEADER
  9
$ANGBASE
  50
0.0
  9
$ANGDIR
  70
1
  9
$MEASUREMENT
  70
0
  9
$INSUNITS
  70
1
  0
ENDSEC
  0
SECTION
  2
TABLES
  0
TABLE
  2
LTYPE
  70
4
  0
LTYPE
  5
40F
  2
CONTINUOUS
  70
0
  3
Solid line
  72
65
  73
0
  40
0.0
  0
LTYPE
  5
410
  2
DASHDOT
 70
0
  3
Dash Dot ____ _ ____ _
 72
65
 73
4
 40
2.0
 49
1.25
 49
-0.25
 49
0.25
 49
-0.25
  0
LTYPE
  5
411
  2
DASHED
 70
0
  3
Dashed __ __ __ __ __
 72
65
 73
2
 40
0.75
 49
0.5
 49
-0.25
  0
LTYPE
  5
43B
  2
DOTTED
 70
0
  3
Dotted .  .  .  .
 72
65
 73
2
 40
0.2
 49
0.0
 49
-0.2
  0
ENDTAB
  0
TABLE
  2
STYLE
  70
4
  0
STYLE
  2
KICAD
  70
0
  40
0
  41
1
  42
1
  50
0
  71
0
  3
isocp.shx
  0
STYLE
  2
KICADB
  70
0
  40
0
  41
1
  42
1
  50
0
  71
0
  3
isocp.shx
  0
STYLE
  2
KICADI
  70
0
  40
0
  41
1
  42
1
  50
15
  71
0
  3
isocp.shx
  0
STYLE
  2
KICADBI
  70
0
  40
0
  41
1
  42
1
  50
15
  71
0
  3
isocp.shx
  0
ENDTAB
  0
TABLE
  2
LAYER
  70
1
  0
LAYER
  2
F.Cu
  70
0
  62
13
  420
13120564
  6
CONTINUOUS
  0
ENDTAB
  0
ENDSEC
  0
SECTION
  2
ENTITIES
0
LINE
8
F.Cu
6
CONTINUOUS
10
6.1507720472440948
20
-4.1907744881889766
11
6.1561124803149605
21
-4.1938577952755907
0
LINE
8
F.Cu
6
CONTINUOUS
10
6.1561124803149605
20
-4.1938577952755907
11
6.1604729133858269
21
-4.1982182283464562
0
LINE
8
F.Cu
6
CONTINUOUS
10
6.1604729133858269
20
-4.1982182283464562
11
6.163556220472441
21
-4.2035586614173228
0
LINE
8
F.Cu
6
CONTINUOUS
10
6.163556220472441
20
-4.2035586614173228
11
6.1651522440944877
21
-4.2095151181102359
0
LINE
8
F.Cu
6
CONTINUOUS
10
6.1651522440944877
20
-4.2095151181102359
11
6.1651522440944877
21
-4.2156817322834641
0
LINE
8
F.Cu
6
CONTINUOUS
10
6.1651522440944877
20
-4.2156817322834641
11
6.163556220472441
21
-4.2216381889763781
0
LINE
8
F.Cu
6
CONTINUOUS
10
6.163556220472441
20
-4.2216381889763781
11
6.1604729133858269
21
-4.2269786220472438
0
LINE
8
F.Cu
6
CONTINUOUS
10
6.1604729133858269
20
-4.2269786220472438
11
6.1561124803149605
21
-4.2313390551181103
0
LINE
8
F.Cu
6
CONTINUOUS
10
6.1561124803149605
20
-4.2313390551181103
11
6.1507720472440948
21
-4.2344223622047243
0
LINE
8
F.Cu
6
CONTINUOUS
10
6.1507720472440948
20
-4.2344223622047243
11
6.1448155905511808
21
-4.2360183858267719
0
LINE
8
F.Cu
6
CONTINUOUS
10
6.1448155905511808
20
-4.2360183858267719
11
6.1386489763779526
21
-4.2360183858267719
0
LINE
8
F.Cu
6
CONTINUOUS
10
6.1386489763779526
20
-4.2360183858267719
11
6.1326925196850395
21
-4.2344223622047243
0
LINE
8
F.Cu
6
CONTINUOUS
10
6.1326925196850395
20
-4.2344223622047243
11
6.1273520866141729
21
-4.2313390551181103
0
LINE
8
F.Cu
6
CONTINUOUS
10
6.1273520866141729
20
-4.2313390551181103
11
6.1229916535433073
21
-4.2269786220472438
0
LINE
8
F.Cu
6
CONTINUOUS
10
6.1229916535433073
20
-4.2269786220472438
11
6.1199083464566923
21
-4.2216381889763781
0
LINE
8
F.Cu
6
CONTINUOUS
10
6.1199083464566923
20
-4.2216381889763781
11
6.1183123228346457
21
-4.2156817322834641
0
LINE
8
F.Cu
6
CONTINUOUS
10
6.1183123228346457
20
-4.2156817322834641
11
6.1183123228346457
21
-4.2095151181102359
0
LINE
8
F.Cu
6
CONTINUOUS
10
6.1183123228346457
20
-4.2095151181102359
11
6.1199083464566923
21
-4.2035586614173228
0
LINE
8
F.Cu
6
CONTINUOUS
10
6.1199083464566923
20
-4.2035586614173228
11
6.1229916535433073
21
-4.1982182283464562
0
LINE
8
F.Cu
6
CONTINUOUS
10
6.1229916535433073
20
-4.1982182283464562
11
6.1273520866141729
21
-4.1938577952755907
0
LINE
8
F.Cu
6
CONTINUOUS
10
6.1273520866141729
20
-4.1938577952755907
11
6.1326925196850395
21
-4.1907744881889766
0
LINE
8
F.Cu
6
CONTINUOUS
10
6.1326925196850395
20
-4.1907744881889766
11
6.1386489763779526
21
-4.189178464566929
0
LINE
8
F.Cu
6
CONTINUOUS
10
6.1386489763779526
20
-4.189178464566929
11
6.1448155905511808
21
-4.189178464566929
0
LINE
8
F.Cu
6
CONTINUOUS
10
6.1448155905511808
20
-4.189178464566929
11
6.1507720472440948
21
-4.1907744881889766
0
LINE
8
F.Cu
6
CONTINUOUS
10
6.6435725196850388
20
-2.3447480708661419
11
6.6496333464566924
21
-2.3472585433070865
0
LINE
8
F.Cu
6
CONTINUOUS
10
6.6496333464566924
20
-2.3472585433070865
11
6.6550879527559053
21
-2.3509031889763778
0
LINE
8
F.Cu
6
CONTINUOUS
10
6.6550879527559053
20
-2.3509031889763778
11
6.6597267322834641
21
-2.3555419685039372
0
LINE
8
F.Cu
6
CONTINUOUS
10
6.6597267322834641
20
-2.3555419685039372
11
6.6633713779527559
21
-2.3609965748031496
0
LINE
8
F.Cu
6
CONTINUOUS
10
6.6633713779527559
20
-2.3609965748031496
11
6.665881850393701
21
-2.3670574015748032
0
LINE
8
F.Cu
6
CONTINUOUS
10
6.665881850393701
20
-2.3670574015748032
11
6.6671616929133855
21
-2.3734915354330708
0
LINE
8
F.Cu
6
CONTINUOUS
10
6.6671616929133855
20
-2.3734915354330708
11
6.6671616929133855
21
-2.3800517716535432
0
LINE
8
F.Cu
6
CONTINUOUS
10
6.6671616929133855
20
-2.3800517716535432
11
6.665881850393701
21
-2.3864859055118108
0
LINE
8
F.Cu
6
CONTINUOUS
10
6.665881850393701
20
-2.3864859055118108
11
6.6633713779527559
21
-2.3925467322834644
0
LINE
8
F.Cu
6
CONTINUOUS
10
6.6633713779527559
20
-2.3925467322834644
11
6.6597267322834641
21
-2.3980013385826773
0
LINE
8
F.Cu
6
CONTINUOUS
10
6.6597267322834641
20
-2.3980013385826773
11
6.6550879527559053
21
-2.4026401181102361
0
LINE
8
F.Cu
6
CONTINUOUS
10
6.6550879527559053
20
-2.4026401181102361
11
6.6496333464566924
21
-2.4062847637795275
0
LINE
8
F.Cu
6
CONTINUOUS
10
6.6496333464566924
20
-2.4062847637795275
11
6.6435725196850388
21
-2.4087952362204725
0
LINE
8
F.Cu
6
CONTINUOUS
10
6.6435725196850388
20
-2.4087952362204725
11
6.6371383858267716
21
-2.4100750787401575
0
LINE
8
F.Cu
6
CONTINUOUS
10
6.6371383858267716
20
-2.4100750787401575
11
6.6305781496062988
21
-2.4100750787401575
0
LINE
8
F.Cu
6
CONTINUOUS
10
6.6305781496062988
20
-2.4100750787401575
11
6.6241440157480316
21
-2.4087952362204725
0
LINE
8
F.Cu
6
CONTINUOUS
10
6.6241440157480316
20
-2.4087952362204725
11
6.618083188976378
21
-2.4062847637795275
0
LINE
8
F.Cu
6
CONTINUOUS
10
6.618083188976378
20
-2.4062847637795275
11
6.6126285826771651
21
-2.4026401181102361
0
LINE
8
F.Cu
6
CONTINUOUS
10
6.6126285826771651
20
-2.4026401181102361
11
6.6079898031496063
21
-2.3980013385826773
0
LINE
8
F.Cu
6
CONTINUOUS
10
6.6079898031496063
20
-2.3980013385826773
11
6.6069577165354332
21
-2.3964566929133859
0
LINE
8
F.Cu
6
CONTINUOUS
10
6.6069577165354332
20
-2.3964566929133859
11
6.514256181102362
21
-2.3964566929133859
0
LINE
8
F.Cu
6
CONTINUOUS
10
6.514256181102362
20
-2.3964566929133859
11
6.4960629921259843
21
-2.414649842519685
0
LINE
8
F.Cu
6
CONTINUOUS
10
6.4960629921259843
20
-2.414649842519685
11
6.4960629921259843
21
-3.4153543307086611
0
LINE
8
F.Cu
6
CONTINUOUS
10
6.4960629921259843
20
-3.4153543307086611
11
6.4958946062992124
21
-3.4179231102362202
0
LINE
8
F.Cu
6
CONTINUOUS
10
6.4958946062992124
20
-3.4179231102362202
11
6.4958946062992124
21
-3.4179237401574802
0
LINE
8
F.Cu
6
CONTINUOUS
10
6.4958946062992124
20
-3.4179237401574802
11
6.4946161811023622
21
-3.4226948031496063
0
LINE
8
F.Cu
6
CONTINUOUS
10
6.4946161811023622
20
-3.4226948031496063
11
6.4945645669291334
21
-3.4228874803149605
0
LINE
8
F.Cu
6
CONTINUOUS
10
6.4945645669291334
20
-3.4228874803149605
11
6.4919951574803152
21
-3.4273378346456691
0
LINE
8
F.Cu
6
CONTINUOUS
10
6.4919951574803152
20
-3.4273378346456691
11
6.4919948031496064
21
-3.4273381496062991
0
LINE
8
F.Cu
6
CONTINUOUS
10
6.4919948031496064
20
-3.4273381496062991
11
6.490297362204724
21
-3.4292737795275592
0
LINE
8
F.Cu
6
CONTINUOUS
10
6.490297362204724
20
-3.4292737795275592
11
6.3330138976377954
21
-3.5865572047244094
0
LINE
8
F.Cu
6
CONTINUOUS
10
6.3330138976377954
20
-3.5865572047244094
11
6.3310785826771649
21
-3.5882543700787402
0
LINE
8
F.Cu
6
CONTINUOUS
10
6.3310785826771649
20
-3.5882543700787402
11
6.3310779921259845
21
-3.5882549999999998
0
LINE
8
F.Cu
6
CONTINUOUS
10
6.3310779921259845
20
-3.5882549999999998
11
6.3266276377952755
21
-3.5908244094488189
0
LINE
8
F.Cu
6
CONTINUOUS
10
6.3266276377952755
20
-3.5908244094488189
11
6.3216638976377952
21
-3.5921544488188974
0
LINE
8
F.Cu
6
CONTINUOUS
10
6.3216638976377952
20
-3.5921544488188974
11
6.3216633070866139
21
-3.5921544488188974
0
LINE
8
F.Cu
6
CONTINUOUS
10
6.3216633070866139
20
-3.5921544488188974
11
6.3190944881889761
21
-3.5923228346456693
0
LINE
8
F.Cu
6
CONTINUOUS
10
6.3190944881889761
20
-3.5923228346456693
11
6.2732824015748028
21
-3.5923228346456693
0
LINE
8
F.Cu
6
CONTINUOUS
10
6.2732824015748028
20
-3.5923228346456693
11
6.2692661417322837
21
-3.5983336220472442
0
LINE
8
F.Cu
6
CONTINUOUS
10
6.2692661417322837
20
-3.5983336220472442
11
6.2640816535433066
21
-3.6035181102362204
0
LINE
8
F.Cu
6
CONTINUOUS
10
6.2640816535433066
20
-3.6035181102362204
11
6.26003937007874
21
-3.6062190551181104
0
LINE
8
F.Cu
6
CONTINUOUS
10
6.26003937007874
20
-3.6062190551181104
11
6.26003937007874
21
-4.0311824803149605
0
LINE
8
F.Cu
6
CONTINUOUS
10
6.26003937007874
20
-4.0311824803149605
11
6.2640816535433066
21
-4.0338834645669293
0
LINE
8
F.Cu
6
CONTINUOUS
10
6.2640816535433066
20
-4.0338834645669293
11
6.2692661417322837
21
-4.0390679527559055
0
LINE
8
F.Cu
6
CONTINUOUS
10
6.2692661417322837
20
-4.0390679527559055
11
6.2733395669291339
21
-4.0451642913385824
0
LINE
8
F.Cu
6
CONTINUOUS
10
6.2733395669291339
20
-4.0451642913385824
11
6.2761453937007872
21
-4.0519381889763775
0
LINE
8
F.Cu
6
CONTINUOUS
10
6.2761453937007872
20
-4.0519381889763775
11
6.2775757874015747
21
-4.059129291338583
0
LINE
8
F.Cu
6
CONTINUOUS
10
6.2775757874015747
20
-4.059129291338583
11
6.2777559055118113
21
-4.0627952755905508
0
LINE
8
F.Cu
6
CONTINUOUS
10
6.2777559055118113
20
-4.0627952755905508
11
6.2777559055118113
21
-4.0667322834645665
0
LINE
8
F.Cu
6
CONTINUOUS
10
6.2777559055118113
20
-4.0667322834645665
11
6.2775757874015747
21
-4.0703982677165351
0
LINE
8
F.Cu
6
CONTINUOUS
10
6.2775757874015747
20
-4.0703982677165351
11
6.2761453937007872
21
-4.0775893700787398
0
LINE
8
F.Cu
6
CONTINUOUS
10
6.2761453937007872
20
-4.0775893700787398
11
6.2733395669291339
21
-4.0843632677165349
0
LINE
8
F.Cu
6
CONTINUOUS
10
6.2733395669291339
20
-4.0843632677165349
11
6.2692661417322837
21
-4.0904596062992127
0
LINE
8
F.Cu
6
CONTINUOUS
10
6.2692661417322837
20
-4.0904596062992127
11
6.2640816535433066
21
-4.0956440944881889
0
LINE
8
F.Cu
6
CONTINUOUS
10
6.2640816535433066
20
-4.0956440944881889
11
6.2579853149606297
21
-4.0997175196850391
0
LINE
8
F.Cu
6
CONTINUOUS
10
6.2579853149606297
20
-4.0997175196850391
11
6.2512114173228346
21
-4.1025233464566933
0
LINE
8
F.Cu
6
CONTINUOUS
10
6.2512114173228346
20
-4.1025233464566933
11
6.2440203149606299
21
-4.1039537401574799
0
LINE
8
F.Cu
6
CONTINUOUS
10
6.2440203149606299
20
-4.1039537401574799
11
6.2366883464566927
21
-4.1039537401574799
0
LINE
8
F.Cu
6
CONTINUOUS
10
6.2366883464566927
20
-4.1039537401574799
11
6.229497244094488
21
-4.1025233464566933
0
LINE
8
F.Cu
6
CONTINUOUS
10
6.229497244094488
20
-4.1025233464566933
11
6.2227233464566929
21
-4.0997175196850391
0
LINE
8
F.Cu
6
CONTINUOUS
10
6.2227233464566929
20
-4.0997175196850391
11
6.216627007874016
21
-4.0956440944881889
0
LINE
8
F.Cu
6
CONTINUOUS
10
6.216627007874016
20
-4.0956440944881889
11
6.2114425196850389
21
-4.0904596062992127
0
LINE
8
F.Cu
6
CONTINUOUS
10
6.2114425196850389
20
-4.0904596062992127
11
6.2073690944881887
21
-4.0843632677165349
0
LINE
8
F.Cu
6
CONTINUOUS
10
6.2073690944881887
20
-4.0843632677165349
11
6.2045632677165354
21
-4.0775893700787398
0
LINE
8
F.Cu
6
CONTINUOUS
10
6.2045632677165354
20
-4.0775893700787398
11
6.2031328740157479
21
-4.0703982677165351
0
LINE
8
F.Cu
6
CONTINUOUS
10
6.2031328740157479
20
-4.0703982677165351
11
6.2029527559055113
21
-4.0667322834645665
0
LINE
8
F.Cu
6
CONTINUOUS
10
6.2029527559055113
20
-4.0667322834645665
11
6.2029527559055113
21
-4.0627952755905508
0
LINE
8
F.Cu
6
CONTINUOUS
10
6.2029527559055113
20
-4.0627952755905508
11
6.2031328740157479
21
-4.059129291338583
0
LINE
8
F.Cu
6
CONTINUOUS
10
6.2031328740157479
20
-4.059129291338583
11
6.2045632677165354
21
-4.0519381889763775
0
LINE
8
F.Cu
6
CONTINUOUS
10
6.2045632677165354
20
-4.0519381889763775
11
6.2073690944881887
21
-4.0451642913385824
0
LINE
8
F.Cu
6
CONTINUOUS
10
6.2073690944881887
20
-4.0451642913385824
11
6.2114425196850389
21
-4.0390679527559055
0
LINE
8
F.Cu
6
CONTINUOUS
10
6.2114425196850389
20
-4.0390679527559055
11
6.216627007874016
21
-4.0338834645669293
0
LINE
8
F.Cu
6
CONTINUOUS
10
6.216627007874016
20
-4.0338834645669293
11
6.2206692913385826
21
-4.0311824803149605
0
LINE
8
F.Cu
6
CONTINUOUS
10
6.2206692913385826
20
-4.0311824803149605
11
6.2206692913385826
21
-3.6062190551181104
0
LINE
8
F.Cu
6
CONTINUOUS
10
6.2206692913385826
20
-3.6062190551181104
11
6.216627007874016
21
-3.6035181102362204
0
LINE
8
F.Cu
6
CONTINUOUS
10
6.216627007874016
20
-3.6035181102362204
11
6.2114425196850389
21
-3.5983336220472442
0
LINE
8
F.Cu
6
CONTINUOUS
10
6.2114425196850389
20
-3.5983336220472442
11
6.2073690944881887
21
-3.5922372834645668
0
LINE
8
F.Cu
6
CONTINUOUS
10
6.2073690944881887
20
-3.5922372834645668
11
6.2045632677165354
21
-3.5854633858267717
0
LINE
8
F.Cu
6
CONTINUOUS
10
6.2045632677165354
20
-3.5854633858267717
11
6.2031328740157479
21
-3.578272283464567
0
LINE
8
F.Cu
6
CONTINUOUS
10
6.2031328740157479
20
-3.578272283464567
11
6.2029527559055113
21
-3.5746062992125984
0
LINE
8
F.Cu
6
CONTINUOUS
10
6.2029527559055113
20
-3.5746062992125984
11
6.2029527559055113
21
-3.5706692913385827
0
LINE
8
F.Cu
6
CONTINUOUS
10
6.2029527559055113
20
-3.5706692913385827
11
6.2031328740157479
21
-3.5670033070866141
0
LINE
8
F.Cu
6
CONTINUOUS
10
6.2031328740157479
20
-3.5670033070866141
11
6.2045632677165354
21
-3.5598122047244094
0
LINE
8
F.Cu
6
CONTINUOUS
10
6.2045632677165354
20
-3.5598122047244094
11
6.2073690944881887
21
-3.5530383070866143
0
LINE
8
F.Cu
6
CONTINUOUS
10
6.2073690944881887
20
-3.5530383070866143
11
6.2114425196850389
21
-3.5469419685039369
0
LINE
8
F.Cu
6
CONTINUOUS
10
6.2114425196850389
20
-3.5469419685039369
11
6.216627007874016
21
-3.5417574803149607
0
LINE
8
F.Cu
6
CONTINUOUS
10
6.216627007874016
20
-3.5417574803149607
11
6.2227233464566929
21
-3.5376840551181101
0
LINE
8
F.Cu
6
CONTINUOUS
10
6.2227233464566929
20
-3.5376840551181101
11
6.229497244094488
21
-3.5348782283464568
0
LINE
8
F.Cu
6
CONTINUOUS
10
6.229497244094488
20
-3.5348782283464568
11
6.2366883464566927
21
-3.5334478346456692
0
LINE
8
F.Cu
6
CONTINUOUS
10
6.2366883464566927
20
-3.5334478346456692
11
6.2440203149606299
21
-3.5334478346456692
0
LINE
8
F.Cu
6
CONTINUOUS
10
6.2440203149606299
20
-3.5334478346456692
11
6.2512114173228346
21
-3.5348782283464568
0
LINE
8
F.Cu
6
CONTINUOUS
10
6.2512114173228346
20
-3.5348782283464568
11
6.2579853149606297
21
-3.5376840551181101
0
LINE
8
F.Cu
6
CONTINUOUS
10
6.2579853149606297
20
-3.5376840551181101
11
6.2640816535433066
21
-3.5417574803149607
0
LINE
8
F.Cu
6
CONTINUOUS
10
6.2640816535433066
20
-3.5417574803149607
11
6.2692661417322837
21
-3.5469419685039369
0
LINE
8
F.Cu
6
CONTINUOUS
10
6.2692661417322837
20
-3.5469419685039369
11
6.2732824015748028
21
-3.5529527559055119
0
LINE
8
F.Cu
6
CONTINUOUS
10
6.2732824015748028
20
-3.5529527559055119
11
6.3109407086614171
21
-3.5529527559055119
0
LINE
8
F.Cu
6
CONTINUOUS
10
6.3109407086614171
20
-3.5529527559055119
11
6.4566929133858268
21
-3.4072005118110233
0
LINE
8
F.Cu
6
CONTINUOUS
10
6.4566929133858268
20
-3.4072005118110233
11
6.4566929133858268
21
-2.4064960629921259
0
LINE
8
F.Cu
6
CONTINUOUS
10
6.4566929133858268
20
-2.4064960629921259
11
6.4568612992125987
21
-2.4039272440944881
0
LINE
8
F.Cu
6
CONTINUOUS
10
6.4568612992125987
20
-2.4039272440944881
11
6.4568612992125987
21
-2.4039266535433068
0
LINE
8
F.Cu
6
CONTINUOUS
10
6.4568612992125987
20
-2.4039266535433068
11
6.4581913385826768
21
-2.3989629133858266
0
LINE
8
F.Cu
6
CONTINUOUS
10
6.4581913385826768
20
-2.3989629133858266
11
6.4607607480314959
21
-2.394512559055118
0
LINE
8
F.Cu
6
CONTINUOUS
10
6.4607607480314959
20
-2.394512559055118
11
6.4607613385826772
21
-2.3945119291338584
0
LINE
8
F.Cu
6
CONTINUOUS
10
6.4607613385826772
20
-2.3945119291338584
11
6.4624585433070862
21
-2.3925766535433071
0
LINE
8
F.Cu
6
CONTINUOUS
10
6.4624585433070862
20
-2.3925766535433071
11
6.4921829133858262
21
-2.3628522440944884
0
LINE
8
F.Cu
6
CONTINUOUS
10
6.4921829133858262
20
-2.3628522440944884
11
6.494118503937008
21
-2.3611547637795276
0
LINE
8
F.Cu
6
CONTINUOUS
10
6.494118503937008
20
-2.3611547637795276
11
6.4941188582677167
21
-2.3611544488188976
0
LINE
8
F.Cu
6
CONTINUOUS
10
6.4941188582677167
20
-2.3611544488188976
11
6.4985692125984249
21
-2.3585850393700789
0
LINE
8
F.Cu
6
CONTINUOUS
10
6.4985692125984249
20
-2.3585850393700789
11
6.5035329527559051
21
-2.3572549999999999
0
LINE
8
F.Cu
6
CONTINUOUS
10
6.5035329527559051
20
-2.3572549999999999
11
6.5035335433070864
21
-2.3572549999999999
0
LINE
8
F.Cu
6
CONTINUOUS
10
6.5035335433070864
20
-2.3572549999999999
11
6.5061023622047243
21
-2.3570866141732285
0
LINE
8
F.Cu
6
CONTINUOUS
10
6.5061023622047243
20
-2.3570866141732285
11
6.6069577165354332
21
-2.3570866141732285
0
LINE
8
F.Cu
6
CONTINUOUS
10
6.6069577165354332
20
-2.3570866141732285
11
6.6079898031496063
21
-2.3555419685039372
0
LINE
8
F.Cu
6
CONTINUOUS
10
6.6079898031496063
20
-2.3555419685039372
11
6.6126285826771651
21
-2.3509031889763778
0
LINE
8
F.Cu
6
CONTINUOUS
10
6.6126285826771651
20
-2.3509031889763778
11
6.618083188976378
21
-2.3472585433070865
0
LINE
8
F.Cu
6
CONTINUOUS
10
6.618083188976378
20
-2.3472585433070865
11
6.6241440157480316
21
-2.3447480708661419
0
LINE
8
F.Cu
6
CONTINUOUS
10
6.6241440157480316
20
-2.3447480708661419
11
6.6305781496062988
21
-2.3434682283464565
0
LINE
8
F.Cu
6
CONTINUOUS
10
6.6305781496062988
20
-2.3434682283464565
11
6.6371383858267716
21
-2.3434682283464565
0
LINE
8
F.Cu
6
CONTINUOUS
10
6.6371383858267716
20
-2.3434682283464565
11
6.6435725196850388
21
-2.3447480708661419
0
LINE
8
F.Cu
6
CONTINUOUS
10
6.6435725196850388
20
-2.2447480708661418
11
6.6496333464566924
21
-2.2472585433070864
0
LINE
8
F.Cu
6
CONTINUOUS
10
6.6496333464566924
20
-2.2472585433070864
11
6.6550879527559053
21
-2.2509031889763778
0
LINE
8
F.Cu
6
CONTINUOUS
10
6.6550879527559053
20
-2.2509031889763778
11
6.6597267322834641
21
-2.2555419685039371
0
LINE
8
F.Cu
6
CONTINUOUS
10
6.6597267322834641
20
-2.2555419685039371
11
6.6633713779527559
21
-2.2609965748031495
0
LINE
8
F.Cu
6
CONTINUOUS
10
6.6633713779527559
20
-2.2609965748031495
11
6.665881850393701
21
-2.2670574015748031
0
LINE
8
F.Cu
6
CONTINUOUS
10
6.665881850393701
20
-2.2670574015748031
11
6.6671616929133855
21
-2.2734915354330707
0
LINE
8
F.Cu
6
CONTINUOUS
10
6.6671616929133855
20
-2.2734915354330707
11
6.6671616929133855
21
-2.2800517716535431
0
LINE
8
F.Cu
6
CONTINUOUS
10
6.6671616929133855
20
-2.2800517716535431
11
6.665881850393701
21
-2.2864859055118112
0
LINE
8
F.Cu
6
CONTINUOUS
10
6.665881850393701
20
-2.2864859055118112
11
6.6633713779527559
21
-2.2925467322834647
0
LINE
8
F.Cu
6
CONTINUOUS
10
6.6633713779527559
20
-2.2925467322834647
11
6.6597267322834641
21
-2.2980013385826772
0
LINE
8
F.Cu
6
CONTINUOUS
10
6.6597267322834641
20
-2.2980013385826772
11
6.6550879527559053
21
-2.3026401181102361
0
LINE
8
F.Cu
6
CONTINUOUS
10
6.6550879527559053
20
-2.3026401181102361
11
6.6496333464566924
21
-2.3062847637795274
0
LINE
8
F.Cu
6
CONTINUOUS
10
6.6496333464566924
20
-2.3062847637795274
11
6.6435725196850388
21
-2.3087952362204724
0
LINE
8
F.Cu
6
CONTINUOUS
10
6.6435725196850388
20
-2.3087952362204724
11
6.6371383858267716
21
-2.3100750787401574
0
LINE
8
F.Cu
6
CONTINUOUS
10
6.6371383858267716
20
-2.3100750787401574
11
6.6305781496062988
21
-2.3100750787401574
0
LINE
8
F.Cu
6
CONTINUOUS
10
6.6305781496062988
20
-2.3100750787401574
11
6.6241440157480316
21
-2.3087952362204724
0
LINE
8
F.Cu
6
CONTINUOUS
10
6.6241440157480316
20
-2.3087952362204724
11
6.618083188976378
21
-2.3062847637795274
0
LINE
8
F.Cu
6
CONTINUOUS
10
6.618083188976378
20
-2.3062847637795274
11
6.6126285826771651
21
-2.3026401181102361
0
LINE
8
F.Cu
6
CONTINUOUS
10
6.6126285826771651
20
-2.3026401181102361
11
6.6079898031496063
21
-2.2980013385826772
0
LINE
8
F.Cu
6
CONTINUOUS
10
6.6079898031496063
20
-2.2980013385826772
11
6.6069577165354332
21
-2.2964566929133858
0
LINE
8
F.Cu
6
CONTINUOUS
10
6.6069577165354332
20
-2.2964566929133858
11
6.442012047244094
21
-2.2964566929133858
0
LINE
8
F.Cu
6
CONTINUOUS
10
6.442012047244094
20
-2.2964566929133858
11
6.377952755905512
21
-2.3605159842519683
0
LINE
8
F.Cu
6
CONTINUOUS
10
6.377952755905512
20
-2.3605159842519683
11
6.377952755905512
21
-2.9429133858267718
0
LINE
8
F.Cu
6
CONTINUOUS
10
6.377952755905512
20
-2.9429133858267718
11
6.3777843700787402
21
-2.9454821653543308
0
LINE
8
F.Cu
6
CONTINUOUS
10
6.3777843700787402
20
-2.9454821653543308
11
6.3777843700787402
21
-2.9454827952755904
0
LINE
8
F.Cu
6
CONTINUOUS
10
6.3777843700787402
20
-2.9454827952755904
11
6.3764543307086612
21
-2.9504465354330707
0
LINE
8
F.Cu
6
CONTINUOUS
10
6.3764543307086612
20
-2.9504465354330707
11
6.3738849212598421
21
-2.9548968897637793
0
LINE
8
F.Cu
6
CONTINUOUS
10
6.3738849212598421
20
-2.9548968897637793
11
6.3738845669291333
21
-2.9548972047244093
0
LINE
8
F.Cu
6
CONTINUOUS
10
6.3738845669291333
20
-2.9548972047244093
11
6.3721871259842517
21
-2.9568328346456694
0
LINE
8
F.Cu
6
CONTINUOUS
10
6.3721871259842517
20
-2.9568328346456694
11
6.3330138976377954
21
-2.9960060236220474
0
LINE
8
F.Cu
6
CONTINUOUS
10
6.3330138976377954
20
-2.9960060236220474
11
6.3310785826771649
21
-2.9977031889763777
0
LINE
8
F.Cu
6
CONTINUOUS
10
6.3310785826771649
20
-2.9977031889763777
11
6.3310779921259845
21
-2.9977038188976377
0
LINE
8
F.Cu
6
CONTINUOUS
10
6.3310779921259845
20
-2.9977038188976377
11
6.3266276377952755
21
-3.0002732283464568
0
LINE
8
F.Cu
6
CONTINUOUS
10
6.3266276377952755
20
-3.0002732283464568
11
6.3216638976377952
21
-3.0016032677165354
0
LINE
8
F.Cu
6
CONTINUOUS
10
6.3216638976377952
20
-3.0016032677165354
11
6.3216633070866139
21
-3.0016032677165354
0
LINE
8
F.Cu
6
CONTINUOUS
10
6.3216633070866139
20
-3.0016032677165354
11
6.3190944881889761
21
-3.0017716535433072
0
LINE
8
F.Cu
6
CONTINUOUS
10
6.3190944881889761
20
-3.0017716535433072
11
6.2732824015748028
21
-3.0017716535433072
0
LINE
8
F.Cu
6
CONTINUOUS
10
6.2732824015748028
20
-3.0017716535433072
11
6.2692661417322837
21
-3.0077824409448817
0
LINE
8
F.Cu
6
CONTINUOUS
10
6.2692661417322837
20
-3.0077824409448817
11
6.2640816535433066
21
-3.0129669291338583
0
LINE
8
F.Cu
6
CONTINUOUS
10
6.2640816535433066
20
-3.0129669291338583
11
6.26003937007874
21
-3.0156678740157479
0
LINE
8
F.Cu
6
CONTINUOUS
10
6.26003937007874
20
-3.0156678740157479
11
6.26003937007874
21
-3.4406312992125985
0
LINE
8
F.Cu
6
CONTINUOUS
10
6.26003937007874
20
-3.4406312992125985
11
6.2640816535433066
21
-3.4433322834645668
0
LINE
8
F.Cu
6
CONTINUOUS
10
6.2640816535433066
20
-3.4433322834645668
11
6.2692661417322837
21
-3.4485167716535434
0
LINE
8
F.Cu
6
CONTINUOUS
10
6.2692661417322837
20
-3.4485167716535434
11
6.2733395669291339
21
-3.4546131102362203
0
LINE
8
F.Cu
6
CONTINUOUS
10
6.2733395669291339
20
-3.4546131102362203
11
6.2761453937007872
21
-3.4613870078740159
0
LINE
8
F.Cu
6
CONTINUOUS
10
6.2761453937007872
20
-3.4613870078740159
11
6.2775757874015747
21
-3.4685781102362205
0
LINE
8
F.Cu
6
CONTINUOUS
10
6.2775757874015747
20
-3.4685781102362205
11
6.2777559055118113
21
-3.4722440944881887
0
LINE
8
F.Cu
6
CONTINUOUS
10
6.2777559055118113
20
-3.4722440944881887
11
6.2777559055118113
21
-3.4761811023622045
0
LINE
8
F.Cu
6
CONTINUOUS
10
6.2777559055118113
20
-3.4761811023622045
11
6.2775757874015747
21
-3.4798470866141731
0
LINE
8
F.Cu
6
CONTINUOUS
10
6.2775757874015747
20
-3.4798470866141731
11
6.2761453937007872
21
-3.4870381889763777
0
LINE
8
F.Cu
6
CONTINUOUS
10
6.2761453937007872
20
-3.4870381889763777
11
6.2733395669291339
21
-3.4938120866141733
0
LINE
8
F.Cu
6
CONTINUOUS
10
6.2733395669291339
20
-3.4938120866141733
11
6.2692661417322837
21
-3.4999084251968502
0
LINE
8
F.Cu
6
CONTINUOUS
10
6.2692661417322837
20
-3.4999084251968502
11
6.2640816535433066
21
-3.5050929133858268
0
LINE
8
F.Cu
6
CONTINUOUS
10
6.2640816535433066
20
-3.5050929133858268
11
6.2579853149606297
21
-3.509166338582677
0
LINE
8
F.Cu
6
CONTINUOUS
10
6.2579853149606297
20
-3.509166338582677
11
6.2512114173228346
21
-3.5119721653543308
0
LINE
8
F.Cu
6
CONTINUOUS
10
6.2512114173228346
20
-3.5119721653543308
11
6.2440203149606299
21
-3.5134025590551179
0
LINE
8
F.Cu
6
CONTINUOUS
10
6.2440203149606299
20
-3.5134025590551179
11
6.2366883464566927
21
-3.5134025590551179
0
LINE
8
F.Cu
6
CONTINUOUS
10
6.2366883464566927
20
-3.5134025590551179
11
6.229497244094488
21
-3.5119721653543308
0
LINE
8
F.Cu
6
CONTINUOUS
10
6.229497244094488
20
-3.5119721653543308
11
6.2227233464566929
21
-3.509166338582677
0
LINE
8
F.Cu
6
CONTINUOUS
10
6.2227233464566929
20
-3.509166338582677
11
6.216627007874016
21
-3.5050929133858268
0
LINE
8
F.Cu
6
CONTINUOUS
10
6.216627007874016
20
-3.5050929133858268
11
6.2114425196850389
21
-3.4999084251968502
0
LINE
8
F.Cu
6
CONTINUOUS
10
6.2114425196850389
20
-3.4999084251968502
11
6.2073690944881887
21
-3.4938120866141733
0
LINE
8
F.Cu
6
CONTINUOUS
10
6.2073690944881887
20
-3.4938120866141733
11
6.2045632677165354
21
-3.4870381889763777
0
LINE
8
F.Cu
6
CONTINUOUS
10
6.2045632677165354
20
-3.4870381889763777
11
6.2031328740157479
21
-3.4798470866141731
0
LINE
8
F.Cu
6
CONTINUOUS
10
6.2031328740157479
20
-3.4798470866141731
11
6.2029527559055113
21
-3.4761811023622045
0
LINE
8
F.Cu
6
CONTINUOUS
10
6.2029527559055113
20
-3.4761811023622045
11
6.2029527559055113
21
-3.4722440944881887
0
LINE
8
F.Cu
6
CONTINUOUS
10
6.2029527559055113
20
-3.4722440944881887
11
6.2031328740157479
21
-3.4685781102362205
0
LINE
8
F.Cu
6
CONTINUOUS
10
6.2031328740157479
20
-3.4685781102362205
11
6.2045632677165354
21
-3.4613870078740159
0
LINE
8
F.Cu
6
CONTINUOUS
10
6.2045632677165354
20
-3.4613870078740159
11
6.2073690944881887
21
-3.4546131102362203
0
LINE
8
F.Cu
6
CONTINUOUS
10
6.2073690944881887
20
-3.4546131102362203
11
6.2114425196850389
21
-3.4485167716535434
0
LINE
8
F.Cu
6
CONTINUOUS
10
6.2114425196850389
20
-3.4485167716535434
11
6.216627007874016
21
-3.4433322834645668
0
LINE
8
F.Cu
6
CONTINUOUS
10
6.216627007874016
20
-3.4433322834645668
11
6.2206692913385826
21
-3.4406312992125985
0
LINE
8
F.Cu
6
CONTINUOUS
10
6.2206692913385826
20
-3.4406312992125985
11
6.2206692913385826
21
-3.0156678740157479
0
LINE
8
F.Cu
6
CONTINUOUS
10
6.2206692913385826
20
-3.0156678740157479
11
6.216627007874016
21
-3.0129669291338583
0
LINE
8
F.Cu
6
CONTINUOUS
10
6.216627007874016
20
-3.0129669291338583
11
6.2114425196850389
21
-3.0077824409448817
0
LINE
8
F.Cu
6
CONTINUOUS
10
6.2114425196850389
20
-3.0077824409448817
11
6.2073690944881887
21
-3.0016861023622048
0
LINE
8
F.Cu
6
CONTINUOUS
10
6.2073690944881887
20
-3.0016861023622048
11
6.2045632677165354
21
-2.9949122047244092
0
LINE
8
F.Cu
6
CONTINUOUS
10
6.2045632677165354
20
-2.9949122047244092
11
6.2031328740157479
21
-2.9877211023622046
0
LINE
8
F.Cu
6
CONTINUOUS
10
6.2031328740157479
20
-2.9877211023622046
11
6.2029527559055113
21
-2.9840551181102359
0
LINE
8
F.Cu
6
CONTINUOUS
10
6.2029527559055113
20
-2.9840551181102359
11
6.2029527559055113
21
-2.9801181102362202
0
LINE
8
F.Cu
6
CONTINUOUS
10
6.2029527559055113
20
-2.9801181102362202
11
6.2031328740157479
21
-2.976452125984252
0
LINE
8
F.Cu
6
CONTINUOUS
10
6.2031328740157479
20
-2.976452125984252
11
6.2045632677165354
21
-2.9692610236220474
0
LINE
8
F.Cu
6
CONTINUOUS
10
6.2045632677165354
20
-2.9692610236220474
11
6.2073690944881887
21
-2.9624871259842518
0
LINE
8
F.Cu
6
CONTINUOUS
10
6.2073690944881887
20
-2.9624871259842518
11
6.2114425196850389
21
-2.9563907874015749
0
LINE
8
F.Cu
6
CONTINUOUS
10
6.2114425196850389
20
-2.9563907874015749
11
6.216627007874016
21
-2.9512062992125982
0
LINE
8
F.Cu
6
CONTINUOUS
10
6.216627007874016
20
-2.9512062992125982
11
6.2227233464566929
21
-2.9471328740157481
0
LINE
8
F.Cu
6
CONTINUOUS
10
6.2227233464566929
20
-2.9471328740157481
11
6.229497244094488
21
-2.9443270472440943
0
LINE
8
F.Cu
6
CONTINUOUS
10
6.229497244094488
20
-2.9443270472440943
11
6.2366883464566927
21
-2.9428966535433072
0
LINE
8
F.Cu
6
CONTINUOUS
10
6.2366883464566927
20
-2.9428966535433072
11
6.2440203149606299
21
-2.9428966535433072
0
LINE
8
F.Cu
6
CONTINUOUS
10
6.2440203149606299
20
-2.9428966535433072
11
6.2512114173228346
21
-2.9443270472440943
0
LINE
8
F.Cu
6
CONTINUOUS
10
6.2512114173228346
20
-2.9443270472440943
11
6.2579853149606297
21
-2.9471328740157481
0
LINE
8
F.Cu
6
CONTINUOUS
10
6.2579853149606297
20
-2.9471328740157481
11
6.2640816535433066
21
-2.9512062992125982
0
LINE
8
F.Cu
6
CONTINUOUS
10
6.2640816535433066
20
-2.9512062992125982
11
6.2692661417322837
21
-2.9563907874015749
0
LINE
8
F.Cu
6
CONTINUOUS
10
6.2692661417322837
20
-2.9563907874015749
11
6.2732824015748028
21
-2.9624015748031494
0
LINE
8
F.Cu
6
CONTINUOUS
10
6.2732824015748028
20
-2.9624015748031494
11
6.3109407086614171
21
-2.9624015748031494
0
LINE
8
F.Cu
6
CONTINUOUS
10
6.3109407086614171
20
-2.9624015748031494
11
6.3385826771653546
21
-2.934759566929134
0
LINE
8
F.Cu
6
CONTINUOUS
10
6.3385826771653546
20
-2.934759566929134
11
6.3385826771653546
21
-2.3523622047244093
0
LINE
8
F.Cu
6
CONTINUOUS
10
6.3385826771653546
20
-2.3523622047244093
11
6.3387510629921255
21
-2.3497933858267714
0
LINE
8
F.Cu
6
CONTINUOUS
10
6.3387510629921255
20
-2.3497933858267714
11
6.3387510629921255
21
-2.3497927952755906
0
LINE
8
F.Cu
6
CONTINUOUS
10
6.3387510629921255
20
-2.3497927952755906
11
6.3400811023622046
21
-2.3448290551181104
0
LINE
8
F.Cu
6
CONTINUOUS
10
6.3400811023622046
20
-2.3448290551181104
11
6.3402731889763775
21
-2.3444963385826769
0
LINE
8
F.Cu
6
CONTINUOUS
10
6.3402731889763775
20
-2.3444963385826769
11
6.3426505118110237
21
-2.3403787007874017
0
LINE
8
F.Cu
6
CONTINUOUS
10
6.3426505118110237
20
-2.3403787007874017
11
6.342651102362205
21
-2.3403780708661417
0
LINE
8
F.Cu
6
CONTINUOUS
10
6.342651102362205
20
-2.3403780708661417
11
6.344348307086614
21
-2.3384427952755904
0
LINE
8
F.Cu
6
CONTINUOUS
10
6.344348307086614
20
-2.3384427952755904
11
6.4199388582677166
21
-2.2628522440944883
0
LINE
8
F.Cu
6
CONTINUOUS
10
6.4199388582677166
20
-2.2628522440944883
11
6.4218744094488187
21
-2.2611547637795275
0
LINE
8
F.Cu
6
CONTINUOUS
10
6.4218744094488187
20
-2.2611547637795275
11
6.4218747637795275
21
-2.2611544488188975
0
LINE
8
F.Cu
6
CONTINUOUS
10
6.4218747637795275
20
-2.2611544488188975
11
6.4263251181102357
21
-2.2585850393700788
0
LINE
8
F.Cu
6
CONTINUOUS
10
6.4263251181102357
20
-2.2585850393700788
11
6.4312888582677168
21
-2.2572549999999998
0
LINE
8
F.Cu
6
CONTINUOUS
10
6.4312888582677168
20
-2.2572549999999998
11
6.4312894488188972
21
-2.2572549999999998
0
LINE
8
F.Cu
6
CONTINUOUS
10
6.4312894488188972
20
-2.2572549999999998
11
6.433858267716535
21
-2.2570866141732284
0
LINE
8
F.Cu
6
CONTINUOUS
10
6.433858267716535
20
-2.2570866141732284
11
6.6069577165354332
21
-2.2570866141732284
0
LINE
8
F.Cu
6
CONTINUOUS
10
6.6069577165354332
20
-2.2570866141732284
11
6.6079898031496063
21
-2.2555419685039371
0
LINE
8
F.Cu
6
CONTINUOUS
10
6.6079898031496063
20
-2.2555419685039371
11
6.6126285826771651
21
-2.2509031889763778
0
LINE
8
F.Cu
6
CONTINUOUS
10
6.6126285826771651
20
-2.2509031889763778
11
6.618083188976378
21
-2.2472585433070864
0
LINE
8
F.Cu
6
CONTINUOUS
10
6.618083188976378
20
-2.2472585433070864
11
6.6241440157480316
21
-2.2447480708661418
0
LINE
8
F.Cu
6
CONTINUOUS
10
6.6241440157480316
20
-2.2447480708661418
11
6.6305781496062988
21
-2.2434682283464564
0
LINE
8
F.Cu
6
CONTINUOUS
10
6.6305781496062988
20
-2.2434682283464564
11
6.6371383858267716
21
-2.2434682283464564
0
LINE
8
F.Cu
6
CONTINUOUS
10
6.6371383858267716
20
-2.2434682283464564
11
6.6435725196850388
21
-2.2447480708661418
0
LINE
8
F.Cu
6
CONTINUOUS
10
6.6435725196850388
20
-2.1447480708661417
11
6.6496333464566924
21
-2.1472585433070868
0
LINE
8
F.Cu
6
CONTINUOUS
10
6.6496333464566924
20
-2.1472585433070868
11
6.6550879527559053
21
-2.1509031889763781
0
LINE
8
F.Cu
6
CONTINUOUS
10
6.6550879527559053
20
-2.1509031889763781
11
6.6597267322834641
21
-2.155541968503937
0
LINE
8
F.Cu
6
CONTINUOUS
10
6.6597267322834641
20
-2.155541968503937
11
6.6633713779527559
21
-2.1609965748031494
0
LINE
8
F.Cu
6
CONTINUOUS
10
6.6633713779527559
20
-2.1609965748031494
11
6.665881850393701
21
-2.167057401574803
0
LINE
8
F.Cu
6
CONTINUOUS
10
6.665881850393701
20
-2.167057401574803
11
6.6671616929133855
21
-2.1734915354330706
0
LINE
8
F.Cu
6
CONTINUOUS
10
6.6671616929133855
20
-2.1734915354330706
11
6.6671616929133855
21
-2.1800517716535435
0
LINE
8
F.Cu
6
CONTINUOUS
10
6.6671616929133855
20
-2.1800517716535435
11
6.665881850393701
21
-2.1864859055118111
0
LINE
8
F.Cu
6
CONTINUOUS
10
6.665881850393701
20
-2.1864859055118111
11
6.6633713779527559
21
-2.1925467322834646
0
LINE
8
F.Cu
6
CONTINUOUS
10
6.6633713779527559
20
-2.1925467322834646
11
6.6597267322834641
21
-2.1980013385826771
0
LINE
8
F.Cu
6
CONTINUOUS
10
6.6597267322834641
20
-2.1980013385826771
11
6.6550879527559053
21
-2.202640118110236
0
LINE
8
F.Cu
6
CONTINUOUS
10
6.6550879527559053
20
-2.202640118110236
11
6.6496333464566924
21
-2.2062847637795273
0
LINE
8
F.Cu
6
CONTINUOUS
10
6.6496333464566924
20
-2.2062847637795273
11
6.6435725196850388
21
-2.2087952362204724
0
LINE
8
F.Cu
6
CONTINUOUS
10
6.6435725196850388
20
-2.2087952362204724
11
6.6371383858267716
21
-2.2100750787401573
0
LINE
8
F.Cu
6
CONTINUOUS
10
6.6371383858267716
20
-2.2100750787401573
11
6.6305781496062988
21
-2.2100750787401573
0
LINE
8
F.Cu
6
CONTINUOUS
10
6.6305781496062988
20
-2.2100750787401573
11
6.6241440157480316
21
-2.2087952362204724
0
LINE
8
F.Cu
6
CONTINUOUS
10
6.6241440157480316
20
-2.2087952362204724
11
6.618083188976378
21
-2.2062847637795273
0
LINE
8
F.Cu
6
CONTINUOUS
10
6.618083188976378
20
-2.2062847637795273
11
6.6126285826771651
21
-2.202640118110236
0
LINE
8
F.Cu
6
CONTINUOUS
10
6.6126285826771651
20
-2.202640118110236
11
6.6079898031496063
21
-2.1980013385826771
0
LINE
8
F.Cu
6
CONTINUOUS
10
6.6079898031496063
20
-2.1980013385826771
11
6.6069577165354332
21
-2.1964566929133857
0
LINE
8
F.Cu
6
CONTINUOUS
10
6.6069577165354332
20
-2.1964566929133857
11
6.384531732283464
21
-2.1964566929133857
0
LINE
8
F.Cu
6
CONTINUOUS
10
6.384531732283464
20
-2.1964566929133857
11
6.26003937007874
21
-2.3209490551181102
0
LINE
8
F.Cu
6
CONTINUOUS
10
6.26003937007874
20
-2.3209490551181102
11
6.26003937007874
21
-2.3579541338582675
0
LINE
8
F.Cu
6
CONTINUOUS
10
6.26003937007874
20
-2.3579541338582675
11
6.2640816535433066
21
-2.3606551181102362
0
LINE
8
F.Cu
6
CONTINUOUS
10
6.2640816535433066
20
-2.3606551181102362
11
6.2692661417322837
21
-2.3658396062992124
0
LINE
8
F.Cu
6
CONTINUOUS
10
6.2692661417322837
20
-2.3658396062992124
11
6.2733395669291339
21
-2.3719359448818897
0
LINE
8
F.Cu
6
CONTINUOUS
10
6.2733395669291339
20
-2.3719359448818897
11
6.2761453937007872
21
-2.3787098425196849
0
LINE
8
F.Cu
6
CONTINUOUS
10
6.2761453937007872
20
-2.3787098425196849
11
6.2775757874015747
21
-2.3859009448818895
0
LINE
8
F.Cu
6
CONTINUOUS
10
6.2775757874015747
20
-2.3859009448818895
11
6.2777559055118113
21
-2.3895669291338582
0
LINE
8
F.Cu
6
CONTINUOUS
10
6.2777559055118113
20
-2.3895669291338582
11
6.2777559055118113
21
-2.3935039370078739
0
LINE
8
F.Cu
6
CONTINUOUS
10
6.2777559055118113
20
-2.3935039370078739
11
6.2775757874015747
21
-2.3971699212598425
0
LINE
8
F.Cu
6
CONTINUOUS
10
6.2775757874015747
20
-2.3971699212598425
11
6.2761453937007872
21
-2.4043610236220472
0
LINE
8
F.Cu
6
CONTINUOUS
10
6.2761453937007872
20
-2.4043610236220472
11
6.2733395669291339
21
-2.4111349212598423
0
LINE
8
F.Cu
6
CONTINUOUS
10
6.2733395669291339
20
-2.4111349212598423
11
6.2692661417322837
21
-2.4172312598425196
0
LINE
8
F.Cu
6
CONTINUOUS
10
6.2692661417322837
20
-2.4172312598425196
11
6.2640816535433066
21
-2.4224157480314958
0
LINE
8
F.Cu
6
CONTINUOUS
10
6.2640816535433066
20
-2.4224157480314958
11
6.26003937007874
21
-2.4251166929133858
0
LINE
8
F.Cu
6
CONTINUOUS
10
6.26003937007874
20
-2.4251166929133858
11
6.26003937007874
21
-2.850080118110236
0
LINE
8
F.Cu
6
CONTINUOUS
10
6.26003937007874
20
-2.850080118110236
11
6.2640816535433066
21
-2.8527811023622047
0
LINE
8
F.Cu
6
CONTINUOUS
10
6.2640816535433066
20
-2.8527811023622047
11
6.2692661417322837
21
-2.8579655905511809
0
LINE
8
F.Cu
6
CONTINUOUS
10
6.2692661417322837
20
-2.8579655905511809
11
6.2733395669291339
21
-2.8640619291338583
0
LINE
8
F.Cu
6
CONTINUOUS
10
6.2733395669291339
20
-2.8640619291338583
11
6.2761453937007872
21
-2.8708358267716534
0
LINE
8
F.Cu
6
CONTINUOUS
10
6.2761453937007872
20
-2.8708358267716534
11
6.2775757874015747
21
-2.878026929133858
0
LINE
8
F.Cu
6
CONTINUOUS
10
6.2775757874015747
20
-2.878026929133858
11
6.2777559055118113
21
-2.8816929133858267
0
LINE
8
F.Cu
6
CONTINUOUS
10
6.2777559055118113
20
-2.8816929133858267
11
6.2777559055118113
21
-2.8856299212598424
0
LINE
8
F.Cu
6
CONTINUOUS
10
6.2777559055118113
20
-2.8856299212598424
11
6.2775757874015747
21
-2.889295905511811
0
LINE
8
F.Cu
6
CONTINUOUS
10
6.2775757874015747
20
-2.889295905511811
11
6.2761453937007872
21
-2.8964870078740157
0
LINE
8
F.Cu
6
CONTINUOUS
10
6.2761453937007872
20
-2.8964870078740157
11
6.2733395669291339
21
-2.9032609055118108
0
LINE
8
F.Cu
6
CONTINUOUS
10
6.2733395669291339
20
-2.9032609055118108
11
6.2692661417322837
21
-2.9093572440944881
0
LINE
8
F.Cu
6
CONTINUOUS
10
6.2692661417322837
20
-2.9093572440944881
11
6.2640816535433066
21
-2.9145417322834644
0
LINE
8
F.Cu
6
CONTINUOUS
10
6.2640816535433066
20
-2.9145417322834644
11
6.2579853149606297
21
-2.918615157480315
0
LINE
8
F.Cu
6
CONTINUOUS
10
6.2579853149606297
20
-2.918615157480315
11
6.2512114173228346
21
-2.9214209842519683
0
LINE
8
F.Cu
6
CONTINUOUS
10
6.2512114173228346
20
-2.9214209842519683
11
6.2440203149606299
21
-2.9228513779527558
0
LINE
8
F.Cu
6
CONTINUOUS
10
6.2440203149606299
20
-2.9228513779527558
11
6.2366883464566927
21
-2.9228513779527558
0
LINE
8
F.Cu
6
CONTINUOUS
10
6.2366883464566927
20
-2.9228513779527558
11
6.229497244094488
21
-2.9214209842519683
0
LINE
8
F.Cu
6
CONTINUOUS
10
6.229497244094488
20
-2.9214209842519683
11
6.2227233464566929
21
-2.918615157480315
0
LINE
8
F.Cu
6
CONTINUOUS
10
6.2227233464566929
20
-2.918615157480315
11
6.216627007874016
21
-2.9145417322834644
0
LINE
8
F.Cu
6
CONTINUOUS
10
6.216627007874016
20
-2.9145417322834644
11
6.2114425196850389
21
-2.9093572440944881
0
LINE
8
F.Cu
6
CONTINUOUS
10
6.2114425196850389
20
-2.9093572440944881
11
6.2073690944881887
21
-2.9032609055118108
0
LINE
8
F.Cu
6
CONTINUOUS
10
6.2073690944881887
20
-2.9032609055118108
11
6.2045632677165354
21
-2.8964870078740157
0
LINE
8
F.Cu
6
CONTINUOUS
10
6.2045632677165354
20
-2.8964870078740157
11
6.2031328740157479
21
-2.889295905511811
0
LINE
8
F.Cu
6
CONTINUOUS
10
6.2031328740157479
20
-2.889295905511811
11
6.2029527559055113
21
-2.8856299212598424
0
LINE
8
F.Cu
6
CONTINUOUS
10
6.2029527559055113
20
-2.8856299212598424
11
6.2029527559055113
21
-2.8816929133858267
0
LINE
8
F.Cu
6
CONTINUOUS
10
6.2029527559055113
20
-2.8816929133858267
11
6.2031328740157479
21
-2.878026929133858
0
LINE
8
F.Cu
6
CONTINUOUS
10
6.2031328740157479
20
-2.878026929133858
11
6.2045632677165354
21
-2.8708358267716534
0
LINE
8
F.Cu
6
CONTINUOUS
10
6.2045632677165354
20
-2.8708358267716534
11
6.2073690944881887
21
-2.8640619291338583
0
LINE
8
F.Cu
6
CONTINUOUS
10
6.2073690944881887
20
-2.8640619291338583
11
6.2114425196850389
21
-2.8579655905511809
0
LINE
8
F.Cu
6
CONTINUOUS
10
6.2114425196850389
20
-2.8579655905511809
11
6.216627007874016
21
-2.8527811023622047
0
LINE
8
F.Cu
6
CONTINUOUS
10
6.216627007874016
20
-2.8527811023622047
11
6.2206692913385826
21
-2.850080118110236
0
LINE
8
F.Cu
6
CONTINUOUS
10
6.2206692913385826
20
-2.850080118110236
11
6.2206692913385826
21
-2.4251166929133858
0
LINE
8
F.Cu
6
CONTINUOUS
10
6.2206692913385826
20
-2.4251166929133858
11
6.216627007874016
21
-2.4224157480314958
0
LINE
8
F.Cu
6
CONTINUOUS
10
6.216627007874016
20
-2.4224157480314958
11
6.2114425196850389
21
-2.4172312598425196
0
LINE
8
F.Cu
6
CONTINUOUS
10
6.2114425196850389
20
-2.4172312598425196
11
6.2073690944881887
21
-2.4111349212598423
0
LINE
8
F.Cu
6
CONTINUOUS
10
6.2073690944881887
20
-2.4111349212598423
11
6.2045632677165354
21
-2.4043610236220472
0
LINE
8
F.Cu
6
CONTINUOUS
10
6.2045632677165354
20
-2.4043610236220472
11
6.2031328740157479
21
-2.3971699212598425
0
LINE
8
F.Cu
6
CONTINUOUS
10
6.2031328740157479
20
-2.3971699212598425
11
6.2029527559055113
21
-2.3935039370078739
0
LINE
8
F.Cu
6
CONTINUOUS
10
6.2029527559055113
20
-2.3935039370078739
11
6.2029527559055113
21
-2.3895669291338582
0
LINE
8
F.Cu
6
CONTINUOUS
10
6.2029527559055113
20
-2.3895669291338582
11
6.2031328740157479
21
-2.3859009448818895
0
LINE
8
F.Cu
6
CONTINUOUS
10
6.2031328740157479
20
-2.3859009448818895
11
6.2045632677165354
21
-2.3787098425196849
0
LINE
8
F.Cu
6
CONTINUOUS
10
6.2045632677165354
20
-2.3787098425196849
11
6.2073690944881887
21
-2.3719359448818897
0
LINE
8
F.Cu
6
CONTINUOUS
10
6.2073690944881887
20
-2.3719359448818897
11
6.2114425196850389
21
-2.3658396062992124
0
LINE
8
F.Cu
6
CONTINUOUS
10
6.2114425196850389
20
-2.3658396062992124
11
6.216627007874016
21
-2.3606551181102362
0
LINE
8
F.Cu
6
CONTINUOUS
10
6.216627007874016
20
-2.3606551181102362
11
6.2206692913385826
21
-2.3579541338582675
0
LINE
8
F.Cu
6
CONTINUOUS
10
6.2206692913385826
20
-2.3579541338582675
11
6.2206692913385826
21
-2.3127952755905512
0
LINE
8
F.Cu
6
CONTINUOUS
10
6.2206692913385826
20
-2.3127952755905512
11
6.2208376771653544
21
-2.3102264566929134
0
LINE
8
F.Cu
6
CONTINUOUS
10
6.2208376771653544
20
-2.3102264566929134
11
6.2208376771653544
21
-2.3102258661417321
0
LINE
8
F.Cu
6
CONTINUOUS
10
6.2208376771653544
20
-2.3102258661417321
11
6.2221677165354325
21
-2.3052621259842518
0
LINE
8
F.Cu
6
CONTINUOUS
10
6.2221677165354325
20
-2.3052621259842518
11
6.2247371259842517
21
-2.3008117716535432
0
LINE
8
F.Cu
6
CONTINUOUS
10
6.2247371259842517
20
-2.3008117716535432
11
6.224737716535433
21
-2.3008111417322836
0
LINE
8
F.Cu
6
CONTINUOUS
10
6.224737716535433
20
-2.3008111417322836
11
6.226434921259842
21
-2.2988758661417323
0
LINE
8
F.Cu
6
CONTINUOUS
10
6.226434921259842
20
-2.2988758661417323
11
6.3624585433070866
21
-2.1628522440944882
0
LINE
8
F.Cu
6
CONTINUOUS
10
6.3624585433070866
20
-2.1628522440944882
11
6.3643938188976374
21
-2.1611550393700787
0
LINE
8
F.Cu
6
CONTINUOUS
10
6.3643938188976374
20
-2.1611550393700787
11
6.3643944488188975
21
-2.1611544488188974
0
LINE
8
F.Cu
6
CONTINUOUS
10
6.3643944488188975
20
-2.1611544488188974
11
6.3688448031496065
21
-2.1585850393700787
0
LINE
8
F.Cu
6
CONTINUOUS
10
6.3688448031496065
20
-2.1585850393700787
11
6.3738085433070868
21
-2.1572550000000001
0
LINE
8
F.Cu
6
CONTINUOUS
10
6.3738085433070868
20
-2.1572550000000001
11
6.3738091338582672
21
-2.1572550000000001
0
LINE
8
F.Cu
6
CONTINUOUS
10
6.3738091338582672
20
-2.1572550000000001
11
6.376377952755905
21
-2.1570866141732283
0
LINE
8
F.Cu
6
CONTINUOUS
10
6.376377952755905
20
-2.1570866141732283
11
6.6069577165354332
21
-2.1570866141732283
0
LINE
8
F.Cu
6
CONTINUOUS
10
6.6069577165354332
20
-2.1570866141732283
11
6.6079898031496063
21
-2.155541968503937
0
LINE
8
F.Cu
6
CONTINUOUS
10
6.6079898031496063
20
-2.155541968503937
11
6.6126285826771651
21
-2.1509031889763781
0
LINE
8
F.Cu
6
CONTINUOUS
10
6.6126285826771651
20
-2.1509031889763781
11
6.618083188976378
21
-2.1472585433070868
0
LINE
8
F.Cu
6
CONTINUOUS
10
6.618083188976378
20
-2.1472585433070868
11
6.6241440157480316
21
-2.1447480708661417
0
LINE
8
F.Cu
6
CONTINUOUS
10
6.6241440157480316
20
-2.1447480708661417
11
6.6305781496062988
21
-2.1434682283464568
0
LINE
8
F.Cu
6
CONTINUOUS
10
6.6305781496062988
20
-2.1434682283464568
11
6.6371383858267716
21
-2.1434682283464568
0
LINE
8
F.Cu
6
CONTINUOUS
10
6.6371383858267716
20
-2.1434682283464568
11
6.6435725196850388
21
-2.1447480708661417
0
LINE
8
F.Cu
6
CONTINUOUS
10
6.1507720472440948
20
-2.0647902362204724
11
6.1561124803149605
21
-2.0678735433070865
0
LINE
8
F.Cu
6
CONTINUOUS
10
6.1561124803149605
20
-2.0678735433070865
11
6.1604729133858269
21
-2.0722339763779529
0
LINE
8
F.Cu
6
CONTINUOUS
10
6.1604729133858269
20
-2.0722339763779529
11
6.163556220472441
21
-2.0775744094488187
0
LINE
8
F.Cu
6
CONTINUOUS
10
6.163556220472441
20
-2.0775744094488187
11
6.1651522440944877
21
-2.0835308661417322
0
LINE
8
F.Cu
6
CONTINUOUS
10
6.1651522440944877
20
-2.0835308661417322
11
6.1651522440944877
21
-2.0896974803149604
0
LINE
8
F.Cu
6
CONTINUOUS
10
6.1651522440944877
20
-2.0896974803149604
11
6.163556220472441
21
-2.0956539370078739
0
LINE
8
F.Cu
6
CONTINUOUS
10
6.163556220472441
20
-2.0956539370078739
11
6.1604729133858269
21
-2.1009943700787401
0
LINE
8
F.Cu
6
CONTINUOUS
10
6.1604729133858269
20
-2.1009943700787401
11
6.1561124803149605
21
-2.1053548031496061
0
LINE
8
F.Cu
6
CONTINUOUS
10
6.1561124803149605
20
-2.1053548031496061
11
6.1507720472440948
21
-2.1084381102362206
0
LINE
8
F.Cu
6
CONTINUOUS
10
6.1507720472440948
20
-2.1084381102362206
11
6.1448155905511808
21
-2.1100341338582678
0
LINE
8
F.Cu
6
CONTINUOUS
10
6.1448155905511808
20
-2.1100341338582678
11
6.1386489763779526
21
-2.1100341338582678
0
LINE
8
F.Cu
6
CONTINUOUS
10
6.1386489763779526
20
-2.1100341338582678
11
6.1326925196850395
21
-2.1084381102362206
0
LINE
8
F.Cu
6
CONTINUOUS
10
6.1326925196850395
20
-2.1084381102362206
11
6.1273520866141729
21
-2.1053548031496061
0
LINE
8
F.Cu
6
CONTINUOUS
10
6.1273520866141729
20
-2.1053548031496061
11
6.1229916535433073
21
-2.1009943700787401
0
LINE
8
F.Cu
6
CONTINUOUS
10
6.1229916535433073
20
-2.1009943700787401
11
6.1199083464566923
21
-2.0956539370078739
0
LINE
8
F.Cu
6
CONTINUOUS
10
6.1199083464566923
20
-2.0956539370078739
11
6.1183123228346457
21
-2.0896974803149604
0
LINE
8
F.Cu
6
CONTINUOUS
10
6.1183123228346457
20
-2.0896974803149604
11
6.1183123228346457
21
-2.0835308661417322
0
LINE
8
F.Cu
6
CONTINUOUS
10
6.1183123228346457
20
-2.0835308661417322
11
6.1199083464566923
21
-2.0775744094488187
0
LINE
8
F.Cu
6
CONTINUOUS
10
6.1199083464566923
20
-2.0775744094488187
11
6.1229916535433073
21
-2.0722339763779529
0
LINE
8
F.Cu
6
CONTINUOUS
10
6.1229916535433073
20
-2.0722339763779529
11
6.1273520866141729
21
-2.0678735433070865
0
LINE
8
F.Cu
6
CONTINUOUS
10
6.1273520866141729
20
-2.0678735433070865
11
6.1326925196850395
21
-2.0647902362204724
0
LINE
8
F.Cu
6
CONTINUOUS
10
6.1326925196850395
20
-2.0647902362204724
11
6.1386489763779526
21
-2.0631942125984253
0
LINE
8
F.Cu
6
CONTINUOUS
10
6.1386489763779526
20
-2.0631942125984253
11
6.1448155905511808
21
-2.0631942125984253
0
LINE
8
F.Cu
6
CONTINUOUS
10
6.1448155905511808
20
-2.0631942125984253
11
6.1507720472440948
21
-2.0647902362204724
0
LINE
8
F.Cu
6
CONTINUOUS
10
6.6932900393700789
20
-1.9675946062992125
11
6.6938227165354327
21
-1.9681272834645669
0
LINE
8
F.Cu
6
CONTINUOUS
10
6.6938227165354327
20
-1.9681272834645669
11
6.693897637795275
21
-1.9685039370078741
0
LINE
8
F.Cu
6
CONTINUOUS
10
6.693897637795275
20
-1.9685039370078741
11
6.693897637795275
21
-4.3307086614173231
0
LINE
8
F.Cu
6
CONTINUOUS
10
6.693897637795275
20
-4.3307086614173231
11
6.6938227165354327
21
-4.3310853149606299
0
LINE
8
F.Cu
6
CONTINUOUS
10
6.6938227165354327
20
-4.3310853149606299
11
6.6932900393700789
21
-4.3316179921259845
0
LINE
8
F.Cu
6
CONTINUOUS
10
6.6932900393700789
20
-4.3316179921259845
11
6.6929133858267713
21
-4.3316929133858268
0
LINE
8
F.Cu
6
CONTINUOUS
10
6.6929133858267713
20
-4.3316929133858268
11
5.9055118110236222
21
-4.3316929133858268
0
LINE
8
F.Cu
6
CONTINUOUS
10
5.9055118110236222
20
-4.3316929133858268
11
5.9051351574803146
21
-4.3316179921259845
0
LINE
8
F.Cu
6
CONTINUOUS
10
5.9051351574803146
20
-4.3316179921259845
11
5.9046024803149608
21
-4.3310853149606299
0
LINE
8
F.Cu
6
CONTINUOUS
10
5.9046024803149608
20
-4.3310853149606299
11
5.9045275590551176
21
-4.3307086614173231
0
LINE
8
F.Cu
6
CONTINUOUS
10
5.9045275590551176
20
-4.3307086614173231
11
5.9045275590551176
21
-1.9685039370078741
0
LINE
8
F.Cu
6
CONTINUOUS
10
5.9045275590551176
20
-1.9685039370078741
11
5.9046024803149608
21
-1.9681272834645669
0
LINE
8
F.Cu
6
CONTINUOUS
10
5.9046024803149608
20
-1.9681272834645669
11
5.9051351574803146
21
-1.9675946062992125
0
LINE
8
F.Cu
6
CONTINUOUS
10
5.9051351574803146
20
-1.9675946062992125
11
5.9055118110236222
21
-1.9675196850393701
0
LINE
8
F.Cu
6
CONTINUOUS
10
5.9055118110236222
20
-1.9675196850393701
11
6.6929133858267713
21
-1.9675196850393701
0
LINE
8
F.Cu
6
CONTINUOUS
10
6.6929133858267713
20
-1.9675196850393701
11
6.6932900393700789
21
-1.9675946062992125
0
LINE
8
F.Cu
6
CONTINUOUS
10
5.9064960629921259
20
-4.3297244094488185
11
5.9127252755905513
21
-4.3297244094488185
0
LINE
8
F.Cu
6
CONTINUOUS
10
5.9127252755905513
20
-4.3297244094488185
11
5.9093529527559054
21
-4.3276363779527562
0
LINE
8
F.Cu
6
CONTINUOUS
10
5.9093529527559054
20
-4.3276363779527562
11
5.9067459055118112
21
-4.3241840944881886
0
LINE
8
F.Cu
6
CONTINUOUS
10
5.9067459055118112
20
-4.3241840944881886
11
5.9064960629921259
21
-4.3233059842519683
0
LINE
8
F.Cu
6
CONTINUOUS
10
5.9064960629921259
20
-4.3233059842519683
11
5.9064960629921259
21
-4.3297244094488185
0
LINE
8
F.Cu
6
CONTINUOUS
10
6.6898411023622044
20
-4.326867519685039
11
6.6863888188976377
21
-4.3294745669291341
0
LINE
8
F.Cu
6
CONTINUOUS
10
6.6863888188976377
20
-4.3294745669291341
11
6.6855107086614174
21
-4.3297244094488185
0
LINE
8
F.Cu
6
CONTINUOUS
10
6.6855107086614174
20
-4.3297244094488185
11
6.6919291338582676
21
-4.3297244094488185
0
LINE
8
F.Cu
6
CONTINUOUS
10
6.6919291338582676
20
-4.3297244094488185
11
6.6919291338582676
21
-4.3234951574803144
0
LINE
8
F.Cu
6
CONTINUOUS
10
6.6919291338582676
20
-4.3234951574803144
11
6.6898411023622044
21
-4.326867519685039
0
LINE
8
F.Cu
6
CONTINUOUS
10
6.1297426771653543
20
-4.1626583858267718
11
6.122078149606299
21
-4.1651487401574805
0
LINE
8
F.Cu
6
CONTINUOUS
10
6.122078149606299
20
-4.1651487401574805
11
6.122077992125984
21
-4.1651487795275592
0
LINE
8
F.Cu
6
CONTINUOUS
10
6.122077992125984
20
-4.1651487795275592
11
6.1148973228346453
21
-4.1688075196850392
0
LINE
8
F.Cu
6
CONTINUOUS
10
6.1148973228346453
20
-4.1688075196850392
11
6.1148971259842515
21
-4.1688076377952754
0
LINE
8
F.Cu
6
CONTINUOUS
10
6.1148971259842515
20
-4.1688076377952754
11
6.1083772440944877
21
-4.1735446062992123
0
LINE
8
F.Cu
6
CONTINUOUS
10
6.1083772440944877
20
-4.1735446062992123
11
6.1083769685039373
21
-4.1735448425196848
0
LINE
8
F.Cu
6
CONTINUOUS
10
6.1083769685039373
20
-4.1735448425196848
11
6.1026787007874015
21
-4.1792431102362206
0
LINE
8
F.Cu
6
CONTINUOUS
10
6.1026787007874015
20
-4.1792431102362206
11
6.102678464566929
21
-4.1792433858267719
0
LINE
8
F.Cu
6
CONTINUOUS
10
6.102678464566929
20
-4.1792433858267719
11
6.0979414960629921
21
-4.1857632677165357
0
LINE
8
F.Cu
6
CONTINUOUS
10
6.0979414960629921
20
-4.1857632677165357
11
6.0979413779527558
21
-4.1857634645669286
0
LINE
8
F.Cu
6
CONTINUOUS
10
6.0979413779527558
20
-4.1857634645669286
11
6.094282637795275
21
-4.1929441338582674
0
LINE
8
F.Cu
6
CONTINUOUS
10
6.094282637795275
20
-4.1929441338582674
11
6.0942825984251972
21
-4.1929442913385824
0
LINE
8
F.Cu
6
CONTINUOUS
10
6.0942825984251972
20
-4.1929442913385824
11
6.0917922440944876
21
-4.2006088188976376
0
LINE
8
F.Cu
6
CONTINUOUS
10
6.0917922440944876
20
-4.2006088188976376
11
6.0905314960629919
21
-4.2085687401574798
0
LINE
8
F.Cu
6
CONTINUOUS
10
6.0905314960629919
20
-4.2085687401574798
11
6.0905314960629919
21
-4.2166280708661414
0
LINE
8
F.Cu
6
CONTINUOUS
10
6.0905314960629919
20
-4.2166280708661414
11
6.0917922440944876
21
-4.2245879921259846
0
LINE
8
F.Cu
6
CONTINUOUS
10
6.0917922440944876
20
-4.2245879921259846
11
6.0942825984251972
21
-4.2322525196850389
0
LINE
8
F.Cu
6
CONTINUOUS
10
6.0942825984251972
20
-4.2322525196850389
11
6.094282637795275
21
-4.2322526771653539
0
LINE
8
F.Cu
6
CONTINUOUS
10
6.094282637795275
20
-4.2322526771653539
11
6.0942826771653538
21
-4.2322527165354327
0
LINE
8
F.Cu
6
CONTINUOUS
10
6.0942826771653538
20
-4.2322527165354327
11
6.0979414566929133
21
-4.2394334645669289
0
LINE
8
F.Cu
6
CONTINUOUS
10
6.0979414566929133
20
-4.2394334645669289
11
6.1026785039370077
21
-4.2459535039370078
0
LINE
8
F.Cu
6
CONTINUOUS
10
6.1026785039370077
20
-4.2459535039370078
11
6.1083772047244089
21
-4.251652204724409
0
LINE
8
F.Cu
6
CONTINUOUS
10
6.1083772047244089
20
-4.251652204724409
11
6.1148972440944878
21
-4.2563892519685043
0
LINE
8
F.Cu
6
CONTINUOUS
10
6.1148972440944878
20
-4.2563892519685043
11
6.122077992125984
21
-4.2600480314960629
0
LINE
8
F.Cu
6
CONTINUOUS
10
6.122077992125984
20
-4.2600480314960629
11
6.1297427559055118
21
-4.2625384645669291
0
LINE
8
F.Cu
6
CONTINUOUS
10
6.1297427559055118
20
-4.2625384645669291
11
6.137702677165354
21
-4.2637992125984248
0
LINE
8
F.Cu
6
CONTINUOUS
10
6.137702677165354
20
-4.2637992125984248
11
6.1377027165354328
21
-4.2637992125984248
0
LINE
8
F.Cu
6
CONTINUOUS
10
6.1377027165354328
20
-4.2637992125984248
11
6.1457618503937006
21
-4.2637992125984248
0
LINE
8
F.Cu
6
CONTINUOUS
10
6.1457618503937006
20
-4.2637992125984248
11
6.1457618897637794
21
-4.2637992125984248
0
LINE
8
F.Cu
6
CONTINUOUS
10
6.1457618897637794
20
-4.2637992125984248
11
6.1537218110236216
21
-4.2625384645669291
0
LINE
8
F.Cu
6
CONTINUOUS
10
6.1537218110236216
20
-4.2625384645669291
11
6.1613865748031493
21
-4.2600480314960629
0
LINE
8
F.Cu
6
CONTINUOUS
10
6.1613865748031493
20
-4.2600480314960629
11
6.1685673228346456
21
-4.2563892519685043
0
LINE
8
F.Cu
6
CONTINUOUS
10
6.1685673228346456
20
-4.2563892519685043
11
6.1750873622047244
21
-4.251652204724409
0
LINE
8
F.Cu
6
CONTINUOUS
10
6.1750873622047244
20
-4.251652204724409
11
6.1807860629921256
21
-4.2459535039370078
0
LINE
8
F.Cu
6
CONTINUOUS
10
6.1807860629921256
20
-4.2459535039370078
11
6.18552311023622
21
-4.2394334645669289
0
LINE
8
F.Cu
6
CONTINUOUS
10
6.18552311023622
20
-4.2394334645669289
11
6.1891818897637796
21
-4.2322527165354327
0
LINE
8
F.Cu
6
CONTINUOUS
10
6.1891818897637796
20
-4.2322527165354327
11
6.1916723228346457
21
-4.2245879527559058
0
LINE
8
F.Cu
6
CONTINUOUS
10
6.1916723228346457
20
-4.2245879527559058
11
6.1929330708661414
21
-4.2166280314960627
0
LINE
8
F.Cu
6
CONTINUOUS
10
6.1929330708661414
20
-4.2166280314960627
11
6.1929330708661414
21
-4.2085688188976373
0
LINE
8
F.Cu
6
CONTINUOUS
10
6.1929330708661414
20
-4.2085688188976373
11
6.1916723228346457
21
-4.2006088976377951
0
LINE
8
F.Cu
6
CONTINUOUS
10
6.1916723228346457
20
-4.2006088976377951
11
6.1891818897637796
21
-4.1929441338582674
0
LINE
8
F.Cu
6
CONTINUOUS
10
6.1891818897637796
20
-4.1929441338582674
11
6.18552311023622
21
-4.185763385826772
0
LINE
8
F.Cu
6
CONTINUOUS
10
6.18552311023622
20
-4.185763385826772
11
6.1807860629921256
21
-4.1792433464566932
0
LINE
8
F.Cu
6
CONTINUOUS
10
6.1807860629921256
20
-4.1792433464566932
11
6.1750873622047244
21
-4.1735446456692911
0
LINE
8
F.Cu
6
CONTINUOUS
10
6.1750873622047244
20
-4.1735446456692911
11
6.1718273228346456
21
-4.1711761023622049
0
LINE
8
F.Cu
6
CONTINUOUS
10
6.1718273228346456
20
-4.1711761023622049
11
6.1685674015748031
21
-4.1688076377952754
0
LINE
8
F.Cu
6
CONTINUOUS
10
6.1685674015748031
20
-4.1688076377952754
11
6.1685672047244093
21
-4.1688075196850392
0
LINE
8
F.Cu
6
CONTINUOUS
10
6.1685672047244093
20
-4.1688075196850392
11
6.1613865354330706
21
-4.1651487795275592
0
LINE
8
F.Cu
6
CONTINUOUS
10
6.1613865354330706
20
-4.1651487795275592
11
6.1613863779527556
21
-4.1651487401574805
0
LINE
8
F.Cu
6
CONTINUOUS
10
6.1613863779527556
20
-4.1651487401574805
11
6.1537218503937003
21
-4.1626583858267718
0
LINE
8
F.Cu
6
CONTINUOUS
10
6.1537218503937003
20
-4.1626583858267718
11
6.1457619291338581
21
-4.1613976377952753
0
LINE
8
F.Cu
6
CONTINUOUS
10
6.1457619291338581
20
-4.1613976377952753
11
6.1457618897637794
21
-4.1613976377952753
0
LINE
8
F.Cu
6
CONTINUOUS
10
6.1457618897637794
20
-4.1613976377952753
11
6.137702677165354
21
-4.1613976377952753
0
LINE
8
F.Cu
6
CONTINUOUS
10
6.137702677165354
20
-4.1613976377952753
11
6.1377025984251965
21
-4.1613976377952753
0
LINE
8
F.Cu
6
CONTINUOUS
10
6.1377025984251965
20
-4.1613976377952753
11
6.1297426771653543
21
-4.1626583858267718
0
LINE
8
F.Cu
6
CONTINUOUS
10
6.6898411023622044
20
-2.0143476771653543
11
6.6863888188976377
21
-2.0169547244094486
0
LINE
8
F.Cu
6
CONTINUOUS
10
6.6863888188976377
20
-2.0169547244094486
11
6.6822278740157479
21
-2.0181386220472439
0
LINE
8
F.Cu
6
CONTINUOUS
10
6.6822278740157479
20
-2.0181386220472439
11
6.6779202755905507
21
-2.0177394488188978
0
LINE
8
F.Cu
6
CONTINUOUS
10
6.6779202755905507
20
-2.0177394488188978
11
6.677639724409449
21
-2.0176558267716533
0
LINE
8
F.Cu
6
CONTINUOUS
10
6.677639724409449
20
-2.0176558267716533
11
6.6723271653543303
21
-2.0160003937007875
0
LINE
8
F.Cu
6
CONTINUOUS
10
6.6723271653543303
20
-2.0160003937007875
11
6.6723268503937003
21
-2.0160003543307088
0
LINE
8
F.Cu
6
CONTINUOUS
10
6.6723268503937003
20
-2.0160003543307088
11
6.6695502362204726
21
-2.015748031496063
0
LINE
8
F.Cu
6
CONTINUOUS
10
6.6695502362204726
20
-2.015748031496063
11
6.6496062992125982
21
-2.015748031496063
0
LINE
8
F.Cu
6
CONTINUOUS
10
6.6496062992125982
20
-2.015748031496063
11
6.6496062992125982
21
-2.0433070866141732
0
LINE
8
F.Cu
6
CONTINUOUS
10
6.6496062992125982
20
-2.0433070866141732
11
6.6673228346456694
21
-2.0433070866141732
0
LINE
8
F.Cu
6
CONTINUOUS
10
6.6673228346456694
20
-2.0433070866141732
11
6.6673228346456694
21
-2.1102362204724407
0
LINE
8
F.Cu
6
CONTINUOUS
10
6.6673228346456694
20
-2.1102362204724407
11
6.6003937007874018
21
-2.1102362204724407
0
LINE
8
F.Cu
6
CONTINUOUS
10
6.6003937007874018
20
-2.1102362204724407
11
6.6003937007874018
21
-2.0925196850393699
0
LINE
8
F.Cu
6
CONTINUOUS
10
6.6003937007874018
20
-2.0925196850393699
11
6.5728346850393695
21
-2.0925196850393699
0
LINE
8
F.Cu
6
CONTINUOUS
10
6.5728346850393695
20
-2.0925196850393699
11
6.5728346850393695
21
-2.1124633070866143
0
LINE
8
F.Cu
6
CONTINUOUS
10
6.5728346850393695
20
-2.1124633070866143
11
6.5730869685039366
21
-2.1152405118110238
0
LINE
8
F.Cu
6
CONTINUOUS
10
6.5730869685039366
20
-2.1152405118110238
11
6.5731266535433068
21
-2.1154399212598425
0
LINE
8
F.Cu
6
CONTINUOUS
10
6.5731266535433068
20
-2.1154399212598425
11
6.5731297637795274
21
-2.1157114960629921
0
LINE
8
F.Cu
6
CONTINUOUS
10
6.5731297637795274
20
-2.1157114960629921
11
6.5731433464566926
21
-2.1158607874015747
0
LINE
8
F.Cu
6
CONTINUOUS
10
6.5731433464566926
20
-2.1158607874015747
11
6.5731314960629916
21
-2.1158618503937006
0
LINE
8
F.Cu
6
CONTINUOUS
10
6.5731314960629916
20
-2.1158618503937006
11
6.5731765354330705
21
-2.1197657086614172
0
LINE
8
F.Cu
6
CONTINUOUS
10
6.5731765354330705
20
-2.1197657086614172
11
6.5716603937007871
21
-2.123817401574803
0
LINE
8
F.Cu
6
CONTINUOUS
10
6.5716603937007871
20
-2.123817401574803
11
6.5687829921259837
21
-2.1270477952755904
0
LINE
8
F.Cu
6
CONTINUOUS
10
6.5687829921259837
20
-2.1270477952755904
11
6.564932952755905
21
-2.129020590551181
0
LINE
8
F.Cu
6
CONTINUOUS
10
6.564932952755905
20
-2.129020590551181
11
6.5615811417322831
21
-2.129507874015748
0
LINE
8
F.Cu
6
CONTINUOUS
10
6.5615811417322831
20
-2.129507874015748
11
6.3726580708661418
21
-2.129507874015748
0
LINE
8
F.Cu
6
CONTINUOUS
10
6.3726580708661418
20
-2.129507874015748
11
6.3653102362204725
21
-2.130671653543307
0
LINE
8
F.Cu
6
CONTINUOUS
10
6.3653102362204725
20
-2.130671653543307
11
6.3582351181102359
21
-2.1329705118110236
0
LINE
8
F.Cu
6
CONTINUOUS
10
6.3582351181102359
20
-2.1329705118110236
11
6.3582347637795271
21
-2.1329706692913386
0
LINE
8
F.Cu
6
CONTINUOUS
10
6.3582347637795271
20
-2.1329706692913386
11
6.3516066141732281
21
-2.1363478346456692
0
LINE
8
F.Cu
6
CONTINUOUS
10
6.3516066141732281
20
-2.1363478346456692
11
6.3516062992125981
21
-2.136348031496063
0
LINE
8
F.Cu
6
CONTINUOUS
10
6.3516062992125981
20
-2.136348031496063
11
6.3455876771653541
21
-2.1407208267716533
0
LINE
8
F.Cu
6
CONTINUOUS
10
6.3455876771653541
20
-2.1407208267716533
11
6.204303503937008
21
-2.2820049606299211
0
LINE
8
F.Cu
6
CONTINUOUS
10
6.204303503937008
20
-2.2820049606299211
11
6.2000648425196845
21
-2.2878389370078738
0
LINE
8
F.Cu
6
CONTINUOUS
10
6.2000648425196845
20
-2.2878389370078738
11
6.2000648818897632
21
-2.2878389763779525
0
LINE
8
F.Cu
6
CONTINUOUS
10
6.2000648818897632
20
-2.2878389763779525
11
6.1999306692913381
21
-2.2880237007874014
0
LINE
8
F.Cu
6
CONTINUOUS
10
6.1999306692913381
20
-2.2880237007874014
11
6.1965531496062987
21
-2.2946524803149604
0
LINE
8
F.Cu
6
CONTINUOUS
10
6.1965531496062987
20
-2.2946524803149604
11
6.1942543307086613
21
-2.3017275590551183
0
LINE
8
F.Cu
6
CONTINUOUS
10
6.1942543307086613
20
-2.3017275590551183
11
6.1930905511811023
21
-2.3090753937007875
0
LINE
8
F.Cu
6
CONTINUOUS
10
6.1930905511811023
20
-2.3090753937007875
11
6.1930905511811023
21
-2.340243937007874
0
LINE
8
F.Cu
6
CONTINUOUS
10
6.1930905511811023
20
-2.340243937007874
11
6.1922956299212597
21
-2.3444963385826769
0
LINE
8
F.Cu
6
CONTINUOUS
10
6.1922956299212597
20
-2.3444963385826769
11
6.1908423622047239
21
-2.3471631102362203
0
LINE
8
F.Cu
6
CONTINUOUS
10
6.1908423622047239
20
-2.3471631102362203
11
6.1847784251968498
21
-2.3555093700787402
0
LINE
8
F.Cu
6
CONTINUOUS
10
6.1847784251968498
20
-2.3555093700787402
11
6.1847782677165357
21
-2.3555096850393702
0
LINE
8
F.Cu
6
CONTINUOUS
10
6.1847782677165357
20
-2.3555096850393702
11
6.1801345669291337
21
-2.364623346456693
0
LINE
8
F.Cu
6
CONTINUOUS
10
6.1801345669291337
20
-2.364623346456693
11
6.1769740157480317
21
-2.3743506299212598
0
LINE
8
F.Cu
6
CONTINUOUS
10
6.1769740157480317
20
-2.3743506299212598
11
6.175374015748031
21
-2.3844527165354332
0
LINE
8
F.Cu
6
CONTINUOUS
10
6.175374015748031
20
-2.3844527165354332
11
6.175374015748031
21
-2.3986181102362205
0
LINE
8
F.Cu
6
CONTINUOUS
10
6.175374015748031
20
-2.3986181102362205
11
6.1769740157480317
21
-2.4087201968503935
0
LINE
8
F.Cu
6
CONTINUOUS
10
6.1769740157480317
20
-2.4087201968503935
11
6.1801345669291337
21
-2.4184474803149607
0
LINE
8
F.Cu
6
CONTINUOUS
10
6.1801345669291337
20
-2.4184474803149607
11
6.1801346456692912
21
-2.4184476771653545
0
LINE
8
F.Cu
6
CONTINUOUS
10
6.1801346456692912
20
-2.4184476771653545
11
6.1801346850393699
21
-2.4184477165354332
0
LINE
8
F.Cu
6
CONTINUOUS
10
6.1801346850393699
20
-2.4184477165354332
11
6.1847781889763782
21
-2.427561062992126
0
LINE
8
F.Cu
6
CONTINUOUS
10
6.1847781889763782
20
-2.427561062992126
11
6.1847782677165357
21
-2.4275611417322835
0
LINE
8
F.Cu
6
CONTINUOUS
10
6.1847782677165357
20
-2.4275611417322835
11
6.1847782677165357
21
-2.4275611811023623
0
LINE
8
F.Cu
6
CONTINUOUS
10
6.1847782677165357
20
-2.4275611811023623
11
6.1858094881889762
21
-2.4289805118110235
0
LINE
8
F.Cu
6
CONTINUOUS
10
6.1858094881889762
20
-2.4289805118110235
11
6.1907692519685034
21
-2.4358070866141732
0
LINE
8
F.Cu
6
CONTINUOUS
10
6.1907692519685034
20
-2.4358070866141732
11
6.1908423622047239
21
-2.4359076771653543
0
LINE
8
F.Cu
6
CONTINUOUS
10
6.1908423622047239
20
-2.4359076771653543
11
6.192698779527559
21
-2.4398151968503936
0
LINE
8
F.Cu
6
CONTINUOUS
10
6.192698779527559
20
-2.4398151968503936
11
6.1930905511811023
21
-2.4428268897637793
0
LINE
8
F.Cu
6
CONTINUOUS
10
6.1930905511811023
20
-2.4428268897637793
11
6.1930905511811023
21
-2.8323699212598425
0
LINE
8
F.Cu
6
CONTINUOUS
10
6.1930905511811023
20
-2.8323699212598425
11
6.1922956299212597
21
-2.8366223228346454
0
LINE
8
F.Cu
6
CONTINUOUS
10
6.1922956299212597
20
-2.8366223228346454
11
6.1908423622047239
21
-2.8392890944881888
0
LINE
8
F.Cu
6
CONTINUOUS
10
6.1908423622047239
20
-2.8392890944881888
11
6.1847784251968498
21
-2.8476353543307087
0
LINE
8
F.Cu
6
CONTINUOUS
10
6.1847784251968498
20
-2.8476353543307087
11
6.1847782677165357
21
-2.8476356692913387
0
LINE
8
F.Cu
6
CONTINUOUS
10
6.1847782677165357
20
-2.8476356692913387
11
6.1801345669291337
21
-2.8567493307086615
0
LINE
8
F.Cu
6
CONTINUOUS
10
6.1801345669291337
20
-2.8567493307086615
11
6.1769740157480317
21
-2.8664766141732283
0
LINE
8
F.Cu
6
CONTINUOUS
10
6.1769740157480317
20
-2.8664766141732283
11
6.175374015748031
21
-2.8765787007874013
0
LINE
8
F.Cu
6
CONTINUOUS
10
6.175374015748031
20
-2.8765787007874013
11
6.175374015748031
21
-2.890744094488189
0
LINE
8
F.Cu
6
CONTINUOUS
10
6.175374015748031
20
-2.890744094488189
11
6.1769740157480317
21
-2.900846181102362
0
LINE
8
F.Cu
6
CONTINUOUS
10
6.1769740157480317
20
-2.900846181102362
11
6.1801345669291337
21
-2.9105734645669292
0
LINE
8
F.Cu
6
CONTINUOUS
10
6.1801345669291337
20
-2.9105734645669292
11
6.1801346456692912
21
-2.910573661417323
0
LINE
8
F.Cu
6
CONTINUOUS
10
6.1801346456692912
20
-2.910573661417323
11
6.1801346850393699
21
-2.9105737007874013
0
LINE
8
F.Cu
6
CONTINUOUS
10
6.1801346850393699
20
-2.9105737007874013
11
6.1847781889763782
21
-2.9196870472440946
0
LINE
8
F.Cu
6
CONTINUOUS
10
6.1847781889763782
20
-2.9196870472440946
11
6.1847783070866145
21
-2.9196872047244096
0
LINE
8
F.Cu
6
CONTINUOUS
10
6.1847783070866145
20
-2.9196872047244096
11
6.1847784251968498
21
-2.9196874409448816
0
LINE
8
F.Cu
6
CONTINUOUS
10
6.1847784251968498
20
-2.9196874409448816
11
6.1893319685039367
21
-2.9259548425196851
0
LINE
8
F.Cu
6
CONTINUOUS
10
6.1893319685039367
20
-2.9259548425196851
11
6.1911883858267718
21
-2.9298623228346456
0
LINE
8
F.Cu
6
CONTINUOUS
10
6.1911883858267718
20
-2.9298623228346456
11
6.1915078740157483
21
-2.9341766141732282
0
LINE
8
F.Cu
6
CONTINUOUS
10
6.1915078740157483
20
-2.9341766141732282
11
6.1902472834645668
21
-2.9383149212598423
0
LINE
8
F.Cu
6
CONTINUOUS
10
6.1902472834645668
20
-2.9383149212598423
11
6.1893319685039367
21
-2.939793188976378
0
LINE
8
F.Cu
6
CONTINUOUS
10
6.1893319685039367
20
-2.939793188976378
11
6.1847784251968498
21
-2.9460605511811022
0
LINE
8
F.Cu
6
CONTINUOUS
10
6.1847784251968498
20
-2.9460605511811022
11
6.1847782677165357
21
-2.9460608661417322
0
LINE
8
F.Cu
6
CONTINUOUS
10
6.1847782677165357
20
-2.9460608661417322
11
6.1801345669291337
21
-2.9551745275590551
0
LINE
8
F.Cu
6
CONTINUOUS
10
6.1801345669291337
20
-2.9551745275590551
11
6.1769740157480317
21
-2.9649018110236218
0
LINE
8
F.Cu
6
CONTINUOUS
10
6.1769740157480317
20
-2.9649018110236218
11
6.175374015748031
21
-2.9750038976377953
0
LINE
8
F.Cu
6
CONTINUOUS
10
6.175374015748031
20
-2.9750038976377953
11
6.175374015748031
21
-2.9891692913385826
0
LINE
8
F.Cu
6
CONTINUOUS
10
6.175374015748031
20
-2.9891692913385826
11
6.1769740157480317
21
-2.999271377952756
0
LINE
8
F.Cu
6
CONTINUOUS
10
6.1769740157480317
20
-2.999271377952756
11
6.1801345669291337
21
-3.0089986614173228
0
LINE
8
F.Cu
6
CONTINUOUS
10
6.1801345669291337
20
-3.0089986614173228
11
6.1801346456692912
21
-3.0089988582677165
0
LINE
8
F.Cu
6
CONTINUOUS
10
6.1801346456692912
20
-3.0089988582677165
11
6.1801346850393699
21
-3.0089988976377953
0
LINE
8
F.Cu
6
CONTINUOUS
10
6.1801346850393699
20
-3.0089988976377953
11
6.1847781889763782
21
-3.0181122440944881
0
LINE
8
F.Cu
6
CONTINUOUS
10
6.1847781889763782
20
-3.0181122440944881
11
6.1847782677165357
21
-3.0181123228346456
0
LINE
8
F.Cu
6
CONTINUOUS
10
6.1847782677165357
20
-3.0181123228346456
11
6.1847782677165357
21
-3.0181123622047243
0
LINE
8
F.Cu
6
CONTINUOUS
10
6.1847782677165357
20
-3.0181123622047243
11
6.1908423622047239
21
-3.0264588582677163
0
LINE
8
F.Cu
6
CONTINUOUS
10
6.1908423622047239
20
-3.0264588582677163
11
6.192698779527559
21
-3.0303663779527557
0
LINE
8
F.Cu
6
CONTINUOUS
10
6.192698779527559
20
-3.0303663779527557
11
6.1930905511811023
21
-3.0333780708661418
0
LINE
8
F.Cu
6
CONTINUOUS
10
6.1930905511811023
20
-3.0333780708661418
11
6.1930905511811023
21
-3.4229211023622046
0
LINE
8
F.Cu
6
CONTINUOUS
10
6.1930905511811023
20
-3.4229211023622046
11
6.1922956299212597
21
-3.4271735039370079
0
LINE
8
F.Cu
6
CONTINUOUS
10
6.1922956299212597
20
-3.4271735039370079
11
6.1908423622047239
21
-3.4298402755905513
0
LINE
8
F.Cu
6
CONTINUOUS
10
6.1908423622047239
20
-3.4298402755905513
11
6.1847784251968498
21
-3.4381865354330707
0
LINE
8
F.Cu
6
CONTINUOUS
10
6.1847784251968498
20
-3.4381865354330707
11
6.1847782677165357
21
-3.4381868503937008
0
LINE
8
F.Cu
6
CONTINUOUS
10
6.1847782677165357
20
-3.4381868503937008
11
6.1801345669291337
21
-3.4473005118110236
0
LINE
8
F.Cu
6
CONTINUOUS
10
6.1801345669291337
20
-3.4473005118110236
11
6.1769740157480317
21
-3.4570277952755903
0
LINE
8
F.Cu
6
CONTINUOUS
10
6.1769740157480317
20
-3.4570277952755903
11
6.175374015748031
21
-3.4671298818897638
0
LINE
8
F.Cu
6
CONTINUOUS
10
6.175374015748031
20
-3.4671298818897638
11
6.175374015748031
21
-3.4812952755905511
0
LINE
8
F.Cu
6
CONTINUOUS
10
6.175374015748031
20
-3.4812952755905511
11
6.1769740157480317
21
-3.4913973622047245
0
LINE
8
F.Cu
6
CONTINUOUS
10
6.1769740157480317
20
-3.4913973622047245
11
6.1801345669291337
21
-3.5011246456692913
0
LINE
8
F.Cu
6
CONTINUOUS
10
6.1801345669291337
20
-3.5011246456692913
11
6.1801346456692912
21
-3.501124842519685
0
LINE
8
F.Cu
6
CONTINUOUS
10
6.1801346456692912
20
-3.501124842519685
11
6.1801346850393699
21
-3.5011248818897638
0
LINE
8
F.Cu
6
CONTINUOUS
10
6.1801346850393699
20
-3.5011248818897638
11
6.1847781889763782
21
-3.5102382283464566
0
LINE
8
F.Cu
6
CONTINUOUS
10
6.1847781889763782
20
-3.5102382283464566
11
6.1847783070866145
21
-3.5102383858267716
0
LINE
8
F.Cu
6
CONTINUOUS
10
6.1847783070866145
20
-3.5102383858267716
11
6.1847784251968498
21
-3.5102386220472441
0
LINE
8
F.Cu
6
CONTINUOUS
10
6.1847784251968498
20
-3.5102386220472441
11
6.1893319685039367
21
-3.5165060236220471
0
LINE
8
F.Cu
6
CONTINUOUS
10
6.1893319685039367
20
-3.5165060236220471
11
6.1911883858267718
21
-3.5204135039370077
0
LINE
8
F.Cu
6
CONTINUOUS
10
6.1911883858267718
20
-3.5204135039370077
11
6.1915078740157483
21
-3.5247277952755907
0
LINE
8
F.Cu
6
CONTINUOUS
10
6.1915078740157483
20
-3.5247277952755907
11
6.1902472834645668
21
-3.5288661023622048
0
LINE
8
F.Cu
6
CONTINUOUS
10
6.1902472834645668
20
-3.5288661023622048
11
6.1893319685039367
21
-3.53034437007874
0
LINE
8
F.Cu
6
CONTINUOUS
10
6.1893319685039367
20
-3.53034437007874
11
6.1847784251968498
21
-3.5366117322834647
0
LINE
8
F.Cu
6
CONTINUOUS
10
6.1847784251968498
20
-3.5366117322834647
11
6.1847782677165357
21
-3.5366120472440943
0
LINE
8
F.Cu
6
CONTINUOUS
10
6.1847782677165357
20
-3.5366120472440943
11
6.1801345669291337
21
-3.5457257086614171
0
LINE
8
F.Cu
6
CONTINUOUS
10
6.1801345669291337
20
-3.5457257086614171
11
6.1769740157480317
21
-3.5554529921259843
0
LINE
8
F.Cu
6
CONTINUOUS
10
6.1769740157480317
20
-3.5554529921259843
11
6.175374015748031
21
-3.5655550787401573
0
LINE
8
F.Cu
6
CONTINUOUS
10
6.175374015748031
20
-3.5655550787401573
11
6.175374015748031
21
-3.5797204724409446
0
LINE
8
F.Cu
6
CONTINUOUS
10
6.175374015748031
20
-3.5797204724409446
11
6.1769740157480317
21
-3.589822559055118
0
LINE
8
F.Cu
6
CONTINUOUS
10
6.1769740157480317
20
-3.589822559055118
11
6.1801345669291337
21
-3.5995498425196848
0
LINE
8
F.Cu
6
CONTINUOUS
10
6.1801345669291337
20
-3.5995498425196848
11
6.1801346456692912
21
-3.5995500393700786
0
LINE
8
F.Cu
6
CONTINUOUS
10
6.1801346456692912
20
-3.5995500393700786
11
6.1801346850393699
21
-3.5995500787401573
0
LINE
8
F.Cu
6
CONTINUOUS
10
6.1801346850393699
20
-3.5995500787401573
11
6.1847781889763782
21
-3.6086634251968501
0
LINE
8
F.Cu
6
CONTINUOUS
10
6.1847781889763782
20
-3.6086634251968501
11
6.1847782677165357
21
-3.6086635039370076
0
LINE
8
F.Cu
6
CONTINUOUS
10
6.1847782677165357
20
-3.6086635039370076
11
6.1847782677165357
21
-3.6086635433070864
0
LINE
8
F.Cu
6
CONTINUOUS
10
6.1847782677165357
20
-3.6086635433070864
11
6.1908423622047239
21
-3.6170100393700788
0
LINE
8
F.Cu
6
CONTINUOUS
10
6.1908423622047239
20
-3.6170100393700788
11
6.192698779527559
21
-3.6209175590551181
0
LINE
8
F.Cu
6
CONTINUOUS
10
6.192698779527559
20
-3.6209175590551181
11
6.1930905511811023
21
-3.6239292519685038
0
LINE
8
F.Cu
6
CONTINUOUS
10
6.1930905511811023
20
-3.6239292519685038
11
6.1930905511811023
21
-4.0134722834645666
0
LINE
8
F.Cu
6
CONTINUOUS
10
6.1930905511811023
20
-4.0134722834645666
11
6.1922956299212597
21
-4.0177246850393704
0
LINE
8
F.Cu
6
CONTINUOUS
10
6.1922956299212597
20
-4.0177246850393704
11
6.1908423622047239
21
-4.0203914566929129
0
LINE
8
F.Cu
6
CONTINUOUS
10
6.1908423622047239
20
-4.0203914566929129
11
6.1847784251968498
21
-4.0287377165354332
0
LINE
8
F.Cu
6
CONTINUOUS
10
6.1847784251968498
20
-4.0287377165354332
11
6.1847782677165357
21
-4.0287380314960632
0
LINE
8
F.Cu
6
CONTINUOUS
10
6.1847782677165357
20
-4.0287380314960632
11
6.1801345669291337
21
-4.0378516929133861
0
LINE
8
F.Cu
6
CONTINUOUS
10
6.1801345669291337
20
-4.0378516929133861
11
6.1769740157480317
21
-4.0475789763779524
0
LINE
8
F.Cu
6
CONTINUOUS
10
6.1769740157480317
20
-4.0475789763779524
11
6.175374015748031
21
-4.0576810629921258
0
LINE
8
F.Cu
6
CONTINUOUS
10
6.175374015748031
20
-4.0576810629921258
11
6.175374015748031
21
-4.0718464566929136
0
LINE
8
F.Cu
6
CONTINUOUS
10
6.175374015748031
20
-4.0718464566929136
11
6.1769740157480317
21
-4.0819485433070861
0
LINE
8
F.Cu
6
CONTINUOUS
10
6.1769740157480317
20
-4.0819485433070861
11
6.1801345669291337
21
-4.0916758267716533
0
LINE
8
F.Cu
6
CONTINUOUS
10
6.1801345669291337
20
-4.0916758267716533
11
6.1801346456692912
21
-4.0916760236220471
0
LINE
8
F.Cu
6
CONTINUOUS
10
6.1801346456692912
20
-4.0916760236220471
11
6.1801346850393699
21
-4.0916760629921258
0
LINE
8
F.Cu
6
CONTINUOUS
10
6.1801346850393699
20
-4.0916760629921258
11
6.1847781889763782
21
-4.1007894094488186
0
LINE
8
F.Cu
6
CONTINUOUS
10
6.1847781889763782
20
-4.1007894094488186
11
6.1907901181102361
21
-4.1090641338582676
0
LINE
8
F.Cu
6
CONTINUOUS
10
6.1907901181102361
20
-4.1090641338582676
11
6.1980224803149602
21
-4.1162964960629917
0
LINE
8
F.Cu
6
CONTINUOUS
10
6.1980224803149602
20
-4.1162964960629917
11
6.2062972047244092
21
-4.1223084251968505
0
LINE
8
F.Cu
6
CONTINUOUS
10
6.2062972047244092
20
-4.1223084251968505
11
6.215410551181102
21
-4.1269519291338579
0
LINE
8
F.Cu
6
CONTINUOUS
10
6.215410551181102
20
-4.1269519291338579
11
6.2154106299212595
21
-4.1269519291338579
0
LINE
8
F.Cu
6
CONTINUOUS
10
6.2154106299212595
20
-4.1269519291338579
11
6.2154107480314957
21
-4.1269520078740154
0
LINE
8
F.Cu
6
CONTINUOUS
10
6.2154107480314957
20
-4.1269520078740154
11
6.2188868503937007
21
-4.1280814566929136
0
LINE
8
F.Cu
6
CONTINUOUS
10
6.2188868503937007
20
-4.1280814566929136
11
6.2251380708661417
21
-4.130112598425197
0
LINE
8
F.Cu
6
CONTINUOUS
10
6.2251380708661417
20
-4.130112598425197
11
6.2352402755905514
21
-4.1317125984251968
0
LINE
8
F.Cu
6
CONTINUOUS
10
6.2352402755905514
20
-4.1317125984251968
11
6.2352403543307089
21
-4.1317125984251968
0
LINE
8
F.Cu
6
CONTINUOUS
10
6.2352403543307089
20
-4.1317125984251968
11
6.2454683070866137
21
-4.1317125984251968
0
LINE
8
F.Cu
6
CONTINUOUS
10
6.2454683070866137
20
-4.1317125984251968
11
6.2454683858267712
21
-4.1317125984251968
0
LINE
8
F.Cu
6
CONTINUOUS
10
6.2454683858267712
20
-4.1317125984251968
11
6.2555705905511809
21
-4.130112598425197
0
LINE
8
F.Cu
6
CONTINUOUS
10
6.2555705905511809
20
-4.130112598425197
11
6.2652981102362206
21
-4.1269519291338579
0
LINE
8
F.Cu
6
CONTINUOUS
10
6.2652981102362206
20
-4.1269519291338579
11
6.2744114566929134
21
-4.1223084251968505
0
LINE
8
F.Cu
6
CONTINUOUS
10
6.2744114566929134
20
-4.1223084251968505
11
6.2826861811023624
21
-4.1162964960629917
0
LINE
8
F.Cu
6
CONTINUOUS
10
6.2826861811023624
20
-4.1162964960629917
11
6.2899185433070866
21
-4.1090641338582676
0
LINE
8
F.Cu
6
CONTINUOUS
10
6.2899185433070866
20
-4.1090641338582676
11
6.2959304724409444
21
-4.1007894094488186
0
LINE
8
F.Cu
6
CONTINUOUS
10
6.2959304724409444
20
-4.1007894094488186
11
6.3005739763779527
21
-4.0916760629921258
0
LINE
8
F.Cu
6
CONTINUOUS
10
6.3005739763779527
20
-4.0916760629921258
11
6.3037346456692909
21
-4.0819485433070861
0
LINE
8
F.Cu
6
CONTINUOUS
10
6.3037346456692909
20
-4.0819485433070861
11
6.3053346456692916
21
-4.0718463385826773
0
LINE
8
F.Cu
6
CONTINUOUS
10
6.3053346456692916
20
-4.0718463385826773
11
6.3053346456692916
21
-4.0576812204724408
0
LINE
8
F.Cu
6
CONTINUOUS
10
6.3053346456692916
20
-4.0576812204724408
11
6.3037346456692909
21
-4.0475790157480311
0
LINE
8
F.Cu
6
CONTINUOUS
10
6.3037346456692909
20
-4.0475790157480311
11
6.3017035039370075
21
-4.0413277952755902
0
LINE
8
F.Cu
6
CONTINUOUS
10
6.3017035039370075
20
-4.0413277952755902
11
6.3005740551181102
21
-4.0378516929133861
0
LINE
8
F.Cu
6
CONTINUOUS
10
6.3005740551181102
20
-4.0378516929133861
11
6.3005739763779527
21
-4.0378515748031498
0
LINE
8
F.Cu
6
CONTINUOUS
10
6.3005739763779527
20
-4.0378515748031498
11
6.3005739763779527
21
-4.0378514960629923
0
LINE
8
F.Cu
6
CONTINUOUS
10
6.3005739763779527
20
-4.0378514960629923
11
6.2959304724409444
21
-4.0287381496062995
0
LINE
8
F.Cu
6
CONTINUOUS
10
6.2959304724409444
20
-4.0287381496062995
11
6.2959302755905506
21
-4.0287378740157482
0
LINE
8
F.Cu
6
CONTINUOUS
10
6.2959302755905506
20
-4.0287378740157482
11
6.2959301968503931
21
-4.0287377165354332
0
LINE
8
F.Cu
6
CONTINUOUS
10
6.2959301968503931
20
-4.0287377165354332
11
6.2898662992125987
21
-4.0203914566929129
0
LINE
8
F.Cu
6
CONTINUOUS
10
6.2898662992125987
20
-4.0203914566929129
11
6.2880098818897636
21
-4.016483937007874
0
LINE
8
F.Cu
6
CONTINUOUS
10
6.2880098818897636
20
-4.016483937007874
11
6.2876181102362203
21
-4.0134722834645666
0
LINE
8
F.Cu
6
CONTINUOUS
10
6.2876181102362203
20
-4.0134722834645666
11
6.2876181102362203
21
-3.6316732283464566
0
LINE
8
F.Cu
6
CONTINUOUS
10
6.2876181102362203
20
-3.6316732283464566
11
6.2884130314960629
21
-3.6274208267716537
0
LINE
8
F.Cu
6
CONTINUOUS
10
6.2884130314960629
20
-3.6274208267716537
11
6.2906903937007872
21
-3.6237427165354328
0
LINE
8
F.Cu
6
CONTINUOUS
10
6.2906903937007872
20
-3.6237427165354328
11
6.2941426771653539
21
-3.6211356692913386
0
LINE
8
F.Cu
6
CONTINUOUS
10
6.2941426771653539
20
-3.6211356692913386
11
6.2983036220472437
21
-3.6199517716535432
0
LINE
8
F.Cu
6
CONTINUOUS
10
6.2983036220472437
20
-3.6199517716535432
11
6.2993897637795273
21
-3.6199015748031496
0
LINE
8
F.Cu
6
CONTINUOUS
10
6.2993897637795273
20
-3.6199015748031496
11
6.3228141338582677
21
-3.6199015748031496
0
LINE
8
F.Cu
6
CONTINUOUS
10
6.3228141338582677
20
-3.6199015748031496
11
6.3228142125984252
21
-3.6199015748031496
0
LINE
8
F.Cu
6
CONTINUOUS
10
6.3228142125984252
20
-3.6199015748031496
11
6.330162125984252
21
-3.6187377952755906
0
LINE
8
F.Cu
6
CONTINUOUS
10
6.330162125984252
20
-3.6187377952755906
11
6.3372374803149603
21
-3.6164388582677165
0
LINE
8
F.Cu
6
CONTINUOUS
10
6.3372374803149603
20
-3.6164388582677165
11
6.3438661023622043
21
-3.6130614173228346
0
LINE
8
F.Cu
6
CONTINUOUS
10
6.3438661023622043
20
-3.6130614173228346
11
6.3498848031496058
21
-3.6086885826771651
0
LINE
8
F.Cu
6
CONTINUOUS
10
6.3498848031496058
20
-3.6086885826771651
11
6.5124287401574801
21
-3.4461446456692912
0
LINE
8
F.Cu
6
CONTINUOUS
10
6.5124287401574801
20
-3.4461446456692912
11
6.5168015748031491
21
-3.4401259448818897
0
LINE
8
F.Cu
6
CONTINUOUS
10
6.5168015748031491
20
-3.4401259448818897
11
6.520179015748031
21
-3.4334973228346457
0
LINE
8
F.Cu
6
CONTINUOUS
10
6.520179015748031
20
-3.4334973228346457
11
6.5224779527559056
21
-3.426421968503937
0
LINE
8
F.Cu
6
CONTINUOUS
10
6.5224779527559056
20
-3.426421968503937
11
6.5236417322834646
21
-3.419074094488189
0
LINE
8
F.Cu
6
CONTINUOUS
10
6.5236417322834646
20
-3.419074094488189
11
6.5236417322834646
21
-3.4116346062992124
0
LINE
8
F.Cu
6
CONTINUOUS
10
6.5236417322834646
20
-3.4116346062992124
11
6.5236417322834646
21
-2.4358070866141732
0
LINE
8
F.Cu
6
CONTINUOUS
10
6.5236417322834646
20
-2.4358070866141732
11
6.5244366535433072
21
-2.4315546850393699
0
LINE
8
F.Cu
6
CONTINUOUS
10
6.5244366535433072
20
-2.4315546850393699
11
6.5267140157480314
21
-2.4278765748031494
0
LINE
8
F.Cu
6
CONTINUOUS
10
6.5267140157480314
20
-2.4278765748031494
11
6.5301662992125982
21
-2.4252695275590552
0
LINE
8
F.Cu
6
CONTINUOUS
10
6.5301662992125982
20
-2.4252695275590552
11
6.534327244094488
21
-2.4240856299212599
0
LINE
8
F.Cu
6
CONTINUOUS
10
6.534327244094488
20
-2.4240856299212599
11
6.5354133858267716
21
-2.4240354330708662
0
LINE
8
F.Cu
6
CONTINUOUS
10
6.5354133858267716
20
-2.4240354330708662
11
6.5912333858267713
21
-2.4240354330708662
0
LINE
8
F.Cu
6
CONTINUOUS
10
6.5912333858267713
20
-2.4240354330708662
11
6.5954857874015751
21
-2.4248303543307088
0
LINE
8
F.Cu
6
CONTINUOUS
10
6.5954857874015751
20
-2.4248303543307088
11
6.5981525590551175
21
-2.4262835826771654
0
LINE
8
F.Cu
6
CONTINUOUS
10
6.5981525590551175
20
-2.4262835826771654
11
6.6018646062992126
21
-2.4289805511811022
0
LINE
8
F.Cu
6
CONTINUOUS
10
6.6018646062992126
20
-2.4289805511811022
11
6.6018647244094488
21
-2.428980590551181
0
LINE
8
F.Cu
6
CONTINUOUS
10
6.6018647244094488
20
-2.428980590551181
11
6.6018648818897638
21
-2.4289807086614172
0
LINE
8
F.Cu
6
CONTINUOUS
10
6.6018648818897638
20
-2.4289807086614172
11
6.6060531496062991
21
-2.4311147244094489
0
LINE
8
F.Cu
6
CONTINUOUS
10
6.6060531496062991
20
-2.4311147244094489
11
6.6104257874015744
21
-2.4333426771653541
0
LINE
8
F.Cu
6
CONTINUOUS
10
6.6104257874015744
20
-2.4333426771653541
11
6.6195639370078743
21
-2.4363118503937007
0
LINE
8
F.Cu
6
CONTINUOUS
10
6.6195639370078743
20
-2.4363118503937007
11
6.6290540551181101
21
-2.4378149606299213
0
LINE
8
F.Cu
6
CONTINUOUS
10
6.6290540551181101
20
-2.4378149606299213
11
6.6290540944881888
21
-2.4378149606299213
0
LINE
8
F.Cu
6
CONTINUOUS
10
6.6290540944881888
20
-2.4378149606299213
11
6.6386624409448816
21
-2.4378149606299213
0
LINE
8
F.Cu
6
CONTINUOUS
10
6.6386624409448816
20
-2.4378149606299213
11
6.6386624803149603
21
-2.4378149606299213
0
LINE
8
F.Cu
6
CONTINUOUS
10
6.6386624803149603
20
-2.4378149606299213
11
6.648152598425197
21
-2.4363118503937007
0
LINE
8
F.Cu
6
CONTINUOUS
10
6.648152598425197
20
-2.4363118503937007
11
6.657290748031496
21
-2.4333426771653541
0
LINE
8
F.Cu
6
CONTINUOUS
10
6.657290748031496
20
-2.4333426771653541
11
6.6658519291338578
21
-2.4289805511811022
0
LINE
8
F.Cu
6
CONTINUOUS
10
6.6658519291338578
20
-2.4289805511811022
11
6.6736253149606295
21
-2.423332874015748
0
LINE
8
F.Cu
6
CONTINUOUS
10
6.6736253149606295
20
-2.423332874015748
11
6.6736253543307082
21
-2.4233327952755905
0
LINE
8
F.Cu
6
CONTINUOUS
10
6.6736253543307082
20
-2.4233327952755905
11
6.6739995275590553
21
-2.4230609842519684
0
LINE
8
F.Cu
6
CONTINUOUS
10
6.6739995275590553
20
-2.4230609842519684
11
6.6740469291338584
21
-2.4231262204724411
0
LINE
8
F.Cu
6
CONTINUOUS
10
6.6740469291338584
20
-2.4231262204724411
11
6.6772457480314955
21
-2.421285748031496
0
LINE
8
F.Cu
6
CONTINUOUS
10
6.6772457480314955
20
-2.421285748031496
11
6.6815216141732279
21
-2.4206284645669291
0
LINE
8
F.Cu
6
CONTINUOUS
10
6.6815216141732279
20
-2.4206284645669291
11
6.6857461417322837
21
-2.4215601968503937
0
LINE
8
F.Cu
6
CONTINUOUS
10
6.6857461417322837
20
-2.4215601968503937
11
6.6893488582677163
21
-2.4239550787401574
0
LINE
8
F.Cu
6
CONTINUOUS
10
6.6893488582677163
20
-2.4239550787401574
11
6.6918431102362206
21
-2.4274896850393701
0
LINE
8
F.Cu
6
CONTINUOUS
10
6.6918431102362206
20
-2.4274896850393701
11
6.6919291338582676
21
-2.4278338188976378
0
LINE
8
F.Cu
6
CONTINUOUS
10
6.6919291338582676
20
-2.4278338188976378
11
6.6919291338582676
21
-2.0109753149606298
0
LINE
8
F.Cu
6
CONTINUOUS
10
6.6919291338582676
20
-2.0109753149606298
11
6.6898411023622044
21
-2.0143476771653543
0
LINE
8
F.Cu
6
CONTINUOUS
10
5.9799160236220468
20
-4.080511811023622
11
5.9801427559055114
21
-4.0819434645669288
0
LINE
8
F.Cu
6
CONTINUOUS
10
5.9801427559055114
20
-4.0819434645669288
11
5.9801428346456689
21
-4.0819437795275588
0
LINE
8
F.Cu
6
CONTINUOUS
10
5.9801428346456689
20
-4.0819437795275588
11
5.9833024015748029
21
-4.091668188976378
0
LINE
8
F.Cu
6
CONTINUOUS
10
5.9833024015748029
20
-4.091668188976378
11
5.9833024409448816
21
-4.0916682283464567
0
LINE
8
F.Cu
6
CONTINUOUS
10
5.9833024409448816
20
-4.0916682283464567
11
5.9879447244094486
21
-4.1007791338582678
0
LINE
8
F.Cu
6
CONTINUOUS
10
5.9879447244094486
20
-4.1007791338582678
11
5.9879448818897636
21
-4.1007794488188978
0
LINE
8
F.Cu
6
CONTINUOUS
10
5.9879448818897636
20
-4.1007794488188978
11
5.9939546456692909
21
-4.1090511811023624
0
LINE
8
F.Cu
6
CONTINUOUS
10
5.9939546456692909
20
-4.1090511811023624
11
6.0011849999999995
21
-4.1162815354330711
0
LINE
8
F.Cu
6
CONTINUOUS
10
6.0011849999999995
20
-4.1162815354330711
11
6.0094567322834642
21
-4.1222912992125984
0
LINE
8
F.Cu
6
CONTINUOUS
10
6.0094567322834642
20
-4.1222912992125984
11
6.0094570472440942
21
-4.1222914566929134
0
LINE
8
F.Cu
6
CONTINUOUS
10
6.0094570472440942
20
-4.1222914566929134
11
6.0185679133858265
21
-4.1269337007874016
0
LINE
8
F.Cu
6
CONTINUOUS
10
6.0185679133858265
20
-4.1269337007874016
11
6.0185679527559053
21
-4.1269337401574804
0
LINE
8
F.Cu
6
CONTINUOUS
10
6.0185679527559053
20
-4.1269337401574804
11
6.0277558661417325
21
-4.1299190551181102
0
LINE
8
F.Cu
6
CONTINUOUS
10
6.0277558661417325
20
-4.1299190551181102
11
6.0277559055118113
21
-4.1299190551181102
0
LINE
8
F.Cu
6
CONTINUOUS
10
6.0277559055118113
20
-4.1299190551181102
11
6.0277559055118113
21
-4.1004974409448822
0
LINE
8
F.Cu
6
CONTINUOUS
10
6.0277559055118113
20
-4.1004974409448822
11
6.025872952755905
21
-4.0997175196850391
0
LINE
8
F.Cu
6
CONTINUOUS
10
6.025872952755905
20
-4.0997175196850391
11
6.0197766141732281
21
-4.0956440944881889
0
LINE
8
F.Cu
6
CONTINUOUS
10
6.0197766141732281
20
-4.0956440944881889
11
6.0145921259842519
21
-4.0904596062992127
0
LINE
8
F.Cu
6
CONTINUOUS
10
6.0145921259842519
20
-4.0904596062992127
11
6.0105187007874017
21
-4.0843632677165349
0
LINE
8
F.Cu
6
CONTINUOUS
10
6.0105187007874017
20
-4.0843632677165349
11
6.0089233858267717
21
-4.080511811023622
0
LINE
8
F.Cu
6
CONTINUOUS
10
6.0089233858267717
20
-4.080511811023622
11
5.9799160236220468
21
-4.080511811023622
0
LINE
8
F.Cu
6
CONTINUOUS
10
6.0764891732283459
20
-4.0843632677165349
11
6.0724157480314958
21
-4.0904596062992127
0
LINE
8
F.Cu
6
CONTINUOUS
10
6.0724157480314958
20
-4.0904596062992127
11
6.0672312598425195
21
-4.0956440944881889
0
LINE
8
F.Cu
6
CONTINUOUS
10
6.0672312598425195
20
-4.0956440944881889
11
6.0611349212598427
21
-4.0997175196850391
0
LINE
8
F.Cu
6
CONTINUOUS
10
6.0611349212598427
20
-4.0997175196850391
11
6.0592519685039372
21
-4.1004974409448822
0
LINE
8
F.Cu
6
CONTINUOUS
10
6.0592519685039372
20
-4.1004974409448822
11
6.0592519685039372
21
-4.1299190551181102
0
LINE
8
F.Cu
6
CONTINUOUS
10
6.0592519685039372
20
-4.1299190551181102
11
6.0684398818897636
21
-4.1269337401574804
0
LINE
8
F.Cu
6
CONTINUOUS
10
6.0684398818897636
20
-4.1269337401574804
11
6.0684399212598423
21
-4.1269337007874016
0
LINE
8
F.Cu
6
CONTINUOUS
10
6.0684399212598423
20
-4.1269337007874016
11
6.0775507874015746
21
-4.1222914566929134
0
LINE
8
F.Cu
6
CONTINUOUS
10
6.0775507874015746
20
-4.1222914566929134
11
6.0775511023622046
21
-4.1222912992125984
0
LINE
8
F.Cu
6
CONTINUOUS
10
6.0775511023622046
20
-4.1222912992125984
11
6.0858228346456693
21
-4.1162815354330711
0
LINE
8
F.Cu
6
CONTINUOUS
10
6.0858228346456693
20
-4.1162815354330711
11
6.0930531889763779
21
-4.1090511811023624
0
LINE
8
F.Cu
6
CONTINUOUS
10
6.0930531889763779
20
-4.1090511811023624
11
6.0990629527559053
21
-4.1007794488188978
0
LINE
8
F.Cu
6
CONTINUOUS
10
6.0990629527559053
20
-4.1007794488188978
11
6.0990631102362203
21
-4.1007791338582678
0
LINE
8
F.Cu
6
CONTINUOUS
10
6.0990631102362203
20
-4.1007791338582678
11
6.1037053937007872
21
-4.0916682283464567
0
LINE
8
F.Cu
6
CONTINUOUS
10
6.1037053937007872
20
-4.0916682283464567
11
6.103705433070866
21
-4.091668188976378
0
LINE
8
F.Cu
6
CONTINUOUS
10
6.103705433070866
20
-4.091668188976378
11
6.106865
21
-4.0819437795275588
0
LINE
8
F.Cu
6
CONTINUOUS
10
6.106865
20
-4.0819437795275588
11
6.1068650787401575
21
-4.0819434645669288
0
LINE
8
F.Cu
6
CONTINUOUS
10
6.1068650787401575
20
-4.0819434645669288
11
6.1070918503937008
21
-4.080511811023622
0
LINE
8
F.Cu
6
CONTINUOUS
10
6.1070918503937008
20
-4.080511811023622
11
6.078084488188976
21
-4.080511811023622
0
LINE
8
F.Cu
6
CONTINUOUS
10
6.078084488188976
20
-4.080511811023622
11
6.0764891732283459
21
-4.0843632677165349
0
LINE
8
F.Cu
6
CONTINUOUS
10
6.0592519685039372
20
-4.0290300787401572
11
6.0611349212598427
21
-4.0298100393700791
0
LINE
8
F.Cu
6
CONTINUOUS
10
6.0611349212598427
20
-4.0298100393700791
11
6.0672312598425195
21
-4.0338834645669293
0
LINE
8
F.Cu
6
CONTINUOUS
10
6.0672312598425195
20
-4.0338834645669293
11
6.0724157480314958
21
-4.0390679527559055
0
LINE
8
F.Cu
6
CONTINUOUS
10
6.0724157480314958
20
-4.0390679527559055
11
6.0764891732283459
21
-4.0451642913385824
0
LINE
8
F.Cu
6
CONTINUOUS
10
6.0764891732283459
20
-4.0451642913385824
11
6.078084488188976
21
-4.0490157480314961
0
LINE
8
F.Cu
6
CONTINUOUS
10
6.078084488188976
20
-4.0490157480314961
11
6.1070918110236221
21
-4.0490157480314961
0
LINE
8
F.Cu
6
CONTINUOUS
10
6.1070918110236221
20
-4.0490157480314961
11
6.1070918110236221
21
-4.0490157086614174
0
LINE
8
F.Cu
6
CONTINUOUS
10
6.1070918110236221
20
-4.0490157086614174
11
6.1068650787401575
21
-4.0475840551181097
0
LINE
8
F.Cu
6
CONTINUOUS
10
6.1068650787401575
20
-4.0475840551181097
11
6.106865
21
-4.0475837401574806
0
LINE
8
F.Cu
6
CONTINUOUS
10
6.106865
20
-4.0475837401574806
11
6.103705433070866
21
-4.0378593307086614
0
LINE
8
F.Cu
6
CONTINUOUS
10
6.103705433070866
20
-4.0378593307086614
11
6.1037053937007872
21
-4.0378592913385827
0
LINE
8
F.Cu
6
CONTINUOUS
10
6.1037053937007872
20
-4.0378592913385827
11
6.0990631102362203
21
-4.0287483858267716
0
LINE
8
F.Cu
6
CONTINUOUS
10
6.0990631102362203
20
-4.0287483858267716
11
6.0990629527559053
21
-4.0287480708661416
0
LINE
8
F.Cu
6
CONTINUOUS
10
6.0990629527559053
20
-4.0287480708661416
11
6.0930531889763779
21
-4.0204763385826769
0
LINE
8
F.Cu
6
CONTINUOUS
10
6.0930531889763779
20
-4.0204763385826769
11
6.0858228346456693
21
-4.0132459842519683
0
LINE
8
F.Cu
6
CONTINUOUS
10
6.0858228346456693
20
-4.0132459842519683
11
6.0775511023622046
21
-4.007236220472441
0
LINE
8
F.Cu
6
CONTINUOUS
10
6.0775511023622046
20
-4.007236220472441
11
6.0775507874015746
21
-4.007236062992126
0
LINE
8
F.Cu
6
CONTINUOUS
10
6.0775507874015746
20
-4.007236062992126
11
6.0684399212598423
21
-4.002593779527559
0
LINE
8
F.Cu
6
CONTINUOUS
10
6.0684399212598423
20
-4.002593779527559
11
6.0592519685039372
21
-3.9996084645669292
0
LINE
8
F.Cu
6
CONTINUOUS
10
6.0592519685039372
20
-3.9996084645669292
11
6.0592519685039372
21
-4.0290300787401572
0
LINE
8
F.Cu
6
CONTINUOUS
10
6.0185679133858265
20
-4.002593779527559
11
6.0094570472440942
21
-4.007236062992126
0
LINE
8
F.Cu
6
CONTINUOUS
10
6.0094570472440942
20
-4.007236062992126
11
6.0094567322834642
21
-4.007236220472441
0
LINE
8
F.Cu
6
CONTINUOUS
10
6.0094567322834642
20
-4.007236220472441
11
6.0011849999999995
21
-4.0132459842519683
0
LINE
8
F.Cu
6
CONTINUOUS
10
6.0011849999999995
20
-4.0132459842519683
11
5.9939546456692909
21
-4.0204763385826769
0
LINE
8
F.Cu
6
CONTINUOUS
10
5.9939546456692909
20
-4.0204763385826769
11
5.9879448818897636
21
-4.0287480708661416
0
LINE
8
F.Cu
6
CONTINUOUS
10
5.9879448818897636
20
-4.0287480708661416
11
5.9879447244094486
21
-4.0287483858267716
0
LINE
8
F.Cu
6
CONTINUOUS
10
5.9879447244094486
20
-4.0287483858267716
11
5.9833024409448816
21
-4.0378592913385827
0
LINE
8
F.Cu
6
CONTINUOUS
10
5.9833024409448816
20
-4.0378592913385827
11
5.9833024015748029
21
-4.0378593307086614
0
LINE
8
F.Cu
6
CONTINUOUS
10
5.9833024015748029
20
-4.0378593307086614
11
5.9801428346456689
21
-4.0475837401574806
0
LINE
8
F.Cu
6
CONTINUOUS
10
5.9801428346456689
20
-4.0475837401574806
11
5.9801427559055114
21
-4.0475840551181097
0
LINE
8
F.Cu
6
CONTINUOUS
10
5.9801427559055114
20
-4.0475840551181097
11
5.9799160236220468
21
-4.0490157086614174
0
LINE
8
F.Cu
6
CONTINUOUS
10
5.9799160236220468
20
-4.0490157086614174
11
5.9799160629921255
21
-4.0490157480314961
0
LINE
8
F.Cu
6
CONTINUOUS
10
5.9799160629921255
20
-4.0490157480314961
11
6.0089233858267717
21
-4.0490157480314961
0
LINE
8
F.Cu
6
CONTINUOUS
10
6.0089233858267717
20
-4.0490157480314961
11
6.0105187007874017
21
-4.0451642913385824
0
LINE
8
F.Cu
6
CONTINUOUS
10
6.0105187007874017
20
-4.0451642913385824
11
6.0145921259842519
21
-4.0390679527559055
0
LINE
8
F.Cu
6
CONTINUOUS
10
6.0145921259842519
20
-4.0390679527559055
11
6.0197766141732281
21
-4.0338834645669293
0
LINE
8
F.Cu
6
CONTINUOUS
10
6.0197766141732281
20
-4.0338834645669293
11
6.025872952755905
21
-4.0298100393700791
0
LINE
8
F.Cu
6
CONTINUOUS
10
6.025872952755905
20
-4.0298100393700791
11
6.0277559055118113
21
-4.0290300787401572
0
LINE
8
F.Cu
6
CONTINUOUS
10
6.0277559055118113
20
-4.0290300787401572
11
6.0277559055118113
21
-3.9996084645669292
0
LINE
8
F.Cu
6
CONTINUOUS
10
6.0277559055118113
20
-3.9996084645669292
11
6.0277558661417325
21
-3.9996084645669292
0
LINE
8
F.Cu
6
CONTINUOUS
10
6.0277558661417325
20
-3.9996084645669292
11
6.0185679133858265
21
-4.002593779527559
0
LINE
8
F.Cu
6
CONTINUOUS
10
5.9799160236220468
20
-3.5883858267716535
11
5.9801427559055114
21
-3.5898174803149607
0
LINE
8
F.Cu
6
CONTINUOUS
10
5.9801427559055114
20
-3.5898174803149607
11
5.9801428346456689
21
-3.5898177952755903
0
LINE
8
F.Cu
6
CONTINUOUS
10
5.9801428346456689
20
-3.5898177952755903
11
5.9833024015748029
21
-3.5995422047244094
0
LINE
8
F.Cu
6
CONTINUOUS
10
5.9833024015748029
20
-3.5995422047244094
11
5.9833024409448816
21
-3.5995422440944882
0
LINE
8
F.Cu
6
CONTINUOUS
10
5.9833024409448816
20
-3.5995422440944882
11
5.9879447244094486
21
-3.6086531496062992
0
LINE
8
F.Cu
6
CONTINUOUS
10
5.9879447244094486
20
-3.6086531496062992
11
5.9879448818897636
21
-3.6086534645669293
0
LINE
8
F.Cu
6
CONTINUOUS
10
5.9879448818897636
20
-3.6086534645669293
11
5.9939546456692909
21
-3.6169251968503935
0
LINE
8
F.Cu
6
CONTINUOUS
10
5.9939546456692909
20
-3.6169251968503935
11
6.0011849999999995
21
-3.6241555511811021
0
LINE
8
F.Cu
6
CONTINUOUS
10
6.0011849999999995
20
-3.6241555511811021
11
6.0094567322834642
21
-3.6301653149606299
0
LINE
8
F.Cu
6
CONTINUOUS
10
6.0094567322834642
20
-3.6301653149606299
11
6.0094570472440942
21
-3.6301654724409449
0
LINE
8
F.Cu
6
CONTINUOUS
10
6.0094570472440942
20
-3.6301654724409449
11
6.0185679133858265
21
-3.6348077165354331
0
LINE
8
F.Cu
6
CONTINUOUS
10
6.0185679133858265
20
-3.6348077165354331
11
6.0185679527559053
21
-3.6348077559055119
0
LINE
8
F.Cu
6
CONTINUOUS
10
6.0185679527559053
20
-3.6348077559055119
11
6.0277558661417325
21
-3.6377930708661417
0
LINE
8
F.Cu
6
CONTINUOUS
10
6.0277558661417325
20
-3.6377930708661417
11
6.0277559055118113
21
-3.6377930708661417
0
LINE
8
F.Cu
6
CONTINUOUS
10
6.0277559055118113
20
-3.6377930708661417
11
6.0277559055118113
21
-3.6083714566929133
0
LINE
8
F.Cu
6
CONTINUOUS
10
6.0277559055118113
20
-3.6083714566929133
11
6.025872952755905
21
-3.607591535433071
0
LINE
8
F.Cu
6
CONTINUOUS
10
6.025872952755905
20
-3.607591535433071
11
6.0197766141732281
21
-3.6035181102362204
0
LINE
8
F.Cu
6
CONTINUOUS
10
6.0197766141732281
20
-3.6035181102362204
11
6.0145921259842519
21
-3.5983336220472442
0
LINE
8
F.Cu
6
CONTINUOUS
10
6.0145921259842519
20
-3.5983336220472442
11
6.0105187007874017
21
-3.5922372834645668
0
LINE
8
F.Cu
6
CONTINUOUS
10
6.0105187007874017
20
-3.5922372834645668
11
6.0089233858267717
21
-3.5883858267716535
0
LINE
8
F.Cu
6
CONTINUOUS
10
6.0089233858267717
20
-3.5883858267716535
11
5.9799160236220468
21
-3.5883858267716535
0
LINE
8
F.Cu
6
CONTINUOUS
10
6.0764891732283459
20
-3.5922372834645668
11
6.0724157480314958
21
-3.5983336220472442
0
LINE
8
F.Cu
6
CONTINUOUS
10
6.0724157480314958
20
-3.5983336220472442
11
6.0672312598425195
21
-3.6035181102362204
0
LINE
8
F.Cu
6
CONTINUOUS
10
6.0672312598425195
20
-3.6035181102362204
11
6.0611349212598427
21
-3.607591535433071
0
LINE
8
F.Cu
6
CONTINUOUS
10
6.0611349212598427
20
-3.607591535433071
11
6.0592519685039372
21
-3.6083714566929133
0
LINE
8
F.Cu
6
CONTINUOUS
10
6.0592519685039372
20
-3.6083714566929133
11
6.0592519685039372
21
-3.6377930708661417
0
LINE
8
F.Cu
6
CONTINUOUS
10
6.0592519685039372
20
-3.6377930708661417
11
6.0684398818897636
21
-3.6348077559055119
0
LINE
8
F.Cu
6
CONTINUOUS
10
6.0684398818897636
20
-3.6348077559055119
11
6.0684399212598423
21
-3.6348077165354331
0
LINE
8
F.Cu
6
CONTINUOUS
10
6.0684399212598423
20
-3.6348077165354331
11
6.0775507874015746
21
-3.6301654724409449
0
LINE
8
F.Cu
6
CONTINUOUS
10
6.0775507874015746
20
-3.6301654724409449
11
6.0775511023622046
21
-3.6301653149606299
0
LINE
8
F.Cu
6
CONTINUOUS
10
6.0775511023622046
20
-3.6301653149606299
11
6.0858228346456693
21
-3.6241555511811021
0
LINE
8
F.Cu
6
CONTINUOUS
10
6.0858228346456693
20
-3.6241555511811021
11
6.0930531889763779
21
-3.6169251968503935
0
LINE
8
F.Cu
6
CONTINUOUS
10
6.0930531889763779
20
-3.6169251968503935
11
6.0990629527559053
21
-3.6086534645669293
0
LINE
8
F.Cu
6
CONTINUOUS
10
6.0990629527559053
20
-3.6086534645669293
11
6.0990631102362203
21
-3.6086531496062992
0
LINE
8
F.Cu
6
CONTINUOUS
10
6.0990631102362203
20
-3.6086531496062992
11
6.1037053937007872
21
-3.5995422440944882
0
LINE
8
F.Cu
6
CONTINUOUS
10
6.1037053937007872
20
-3.5995422440944882
11
6.103705433070866
21
-3.5995422047244094
0
LINE
8
F.Cu
6
CONTINUOUS
10
6.103705433070866
20
-3.5995422047244094
11
6.106865
21
-3.5898177952755903
0
LINE
8
F.Cu
6
CONTINUOUS
10
6.106865
20
-3.5898177952755903
11
6.1068650787401575
21
-3.5898174803149607
0
LINE
8
F.Cu
6
CONTINUOUS
10
6.1068650787401575
20
-3.5898174803149607
11
6.1070918503937008
21
-3.5883858267716535
0
LINE
8
F.Cu
6
CONTINUOUS
10
6.1070918503937008
20
-3.5883858267716535
11
6.078084488188976
21
-3.5883858267716535
0
LINE
8
F.Cu
6
CONTINUOUS
10
6.078084488188976
20
-3.5883858267716535
11
6.0764891732283459
21
-3.5922372834645668
0
LINE
8
F.Cu
6
CONTINUOUS
10
6.0764891732283459
20
-3.4938120866141733
11
6.0724157480314958
21
-3.4999084251968502
0
LINE
8
F.Cu
6
CONTINUOUS
10
6.0724157480314958
20
-3.4999084251968502
11
6.0672312598425195
21
-3.5050929133858268
0
LINE
8
F.Cu
6
CONTINUOUS
10
6.0672312598425195
20
-3.5050929133858268
11
6.0611349212598427
21
-3.509166338582677
0
LINE
8
F.Cu
6
CONTINUOUS
10
6.0611349212598427
20
-3.509166338582677
11
6.0592519685039372
21
-3.5099462598425197
0
LINE
8
F.Cu
6
CONTINUOUS
10
6.0592519685039372
20
-3.5099462598425197
11
6.0592519685039372
21
-3.5369040944881891
0
LINE
8
F.Cu
6
CONTINUOUS
10
6.0592519685039372
20
-3.5369040944881891
11
6.0611349212598427
21
-3.5376840551181101
0
LINE
8
F.Cu
6
CONTINUOUS
10
6.0611349212598427
20
-3.5376840551181101
11
6.0672312598425195
21
-3.5417574803149607
0
LINE
8
F.Cu
6
CONTINUOUS
10
6.0672312598425195
20
-3.5417574803149607
11
6.0724157480314958
21
-3.5469419685039369
0
LINE
8
F.Cu
6
CONTINUOUS
10
6.0724157480314958
20
-3.5469419685039369
11
6.0764891732283459
21
-3.5530383070866143
0
LINE
8
F.Cu
6
CONTINUOUS
10
6.0764891732283459
20
-3.5530383070866143
11
6.078084488188976
21
-3.5568897637795276
0
LINE
8
F.Cu
6
CONTINUOUS
10
6.078084488188976
20
-3.5568897637795276
11
6.1070918110236221
21
-3.5568897637795276
0
LINE
8
F.Cu
6
CONTINUOUS
10
6.1070918110236221
20
-3.5568897637795276
11
6.1070918110236221
21
-3.5568897244094488
0
LINE
8
F.Cu
6
CONTINUOUS
10
6.1070918110236221
20
-3.5568897244094488
11
6.1068650787401575
21
-3.5554580708661416
0
LINE
8
F.Cu
6
CONTINUOUS
10
6.1068650787401575
20
-3.5554580708661416
11
6.106865
21
-3.5554577559055116
0
LINE
8
F.Cu
6
CONTINUOUS
10
6.106865
20
-3.5554577559055116
11
6.103705433070866
21
-3.5457333464566929
0
LINE
8
F.Cu
6
CONTINUOUS
10
6.103705433070866
20
-3.5457333464566929
11
6.1037053937007872
21
-3.5457333070866142
0
LINE
8
F.Cu
6
CONTINUOUS
10
6.1037053937007872
20
-3.5457333070866142
11
6.0990631102362203
21
-3.5366224015748031
0
LINE
8
F.Cu
6
CONTINUOUS
10
6.0990631102362203
20
-3.5366224015748031
11
6.0990629527559053
21
-3.5366220866141731
0
LINE
8
F.Cu
6
CONTINUOUS
10
6.0990629527559053
20
-3.5366220866141731
11
6.094501929133858
21
-3.53034437007874
0
LINE
8
F.Cu
6
CONTINUOUS
10
6.094501929133858
20
-3.53034437007874
11
6.0926455118110239
21
-3.5264368897637794
0
LINE
8
F.Cu
6
CONTINUOUS
10
6.0926455118110239
20
-3.5264368897637794
11
6.0923260236220473
21
-3.5221225984251969
0
LINE
8
F.Cu
6
CONTINUOUS
10
6.0923260236220473
20
-3.5221225984251969
11
6.093586614173228
21
-3.5179842913385828
0
LINE
8
F.Cu
6
CONTINUOUS
10
6.093586614173228
20
-3.5179842913385828
11
6.094501929133858
21
-3.5165060236220471
0
LINE
8
F.Cu
6
CONTINUOUS
10
6.094501929133858
20
-3.5165060236220471
11
6.0990629527559053
21
-3.5102282677165353
0
LINE
8
F.Cu
6
CONTINUOUS
10
6.0990629527559053
20
-3.5102282677165353
11
6.0990631102362203
21
-3.5102279527559053
0
LINE
8
F.Cu
6
CONTINUOUS
10
6.0990631102362203
20
-3.5102279527559053
11
6.1037053937007872
21
-3.5011170472440942
0
LINE
8
F.Cu
6
CONTINUOUS
10
6.1037053937007872
20
-3.5011170472440942
11
6.103705433070866
21
-3.5011170078740155
0
LINE
8
F.Cu
6
CONTINUOUS
10
6.103705433070866
20
-3.5011170078740155
11
6.106865
21
-3.4913925984251968
0
LINE
8
F.Cu
6
CONTINUOUS
10
6.106865
20
-3.4913925984251968
11
6.1068650787401575
21
-3.4913922834645668
0
LINE
8
F.Cu
6
CONTINUOUS
10
6.1068650787401575
20
-3.4913922834645668
11
6.1070918503937008
21
-3.4899606299212595
0
LINE
8
F.Cu
6
CONTINUOUS
10
6.1070918503937008
20
-3.4899606299212595
11
6.078084488188976
21
-3.4899606299212595
0
LINE
8
F.Cu
6
CONTINUOUS
10
6.078084488188976
20
-3.4899606299212595
11
6.0764891732283459
21
-3.4938120866141733
0
LINE
8
F.Cu
6
CONTINUOUS
10
5.9799160236220468
20
-3.4899606299212595
11
5.9801427559055114
21
-3.4913922834645668
0
LINE
8
F.Cu
6
CONTINUOUS
10
5.9801427559055114
20
-3.4913922834645668
11
5.9801428346456689
21
-3.4913925984251968
0
LINE
8
F.Cu
6
CONTINUOUS
10
5.9801428346456689
20
-3.4913925984251968
11
5.9833024015748029
21
-3.5011170078740155
0
LINE
8
F.Cu
6
CONTINUOUS
10
5.9833024015748029
20
-3.5011170078740155
11
5.9833024409448816
21
-3.5011170472440942
0
LINE
8
F.Cu
6
CONTINUOUS
10
5.9833024409448816
20
-3.5011170472440942
11
5.9879447244094486
21
-3.5102279527559053
0
LINE
8
F.Cu
6
CONTINUOUS
10
5.9879447244094486
20
-3.5102279527559053
11
5.9879448425196848
21
-3.5102281889763778
0
LINE
8
F.Cu
6
CONTINUOUS
10
5.9879448425196848
20
-3.5102281889763778
11
5.9925059448818896
21
-3.5165060629921259
0
LINE
8
F.Cu
6
CONTINUOUS
10
5.9925059448818896
20
-3.5165060629921259
11
5.9943623228346459
21
-3.5204135826771652
0
LINE
8
F.Cu
6
CONTINUOUS
10
5.9943623228346459
20
-3.5204135826771652
11
5.9946818110236215
21
-3.5247278346456694
0
LINE
8
F.Cu
6
CONTINUOUS
10
5.9946818110236215
20
-3.5247278346456694
11
5.9934212204724409
21
-3.5288661417322835
0
LINE
8
F.Cu
6
CONTINUOUS
10
5.9934212204724409
20
-3.5288661417322835
11
5.9925059448818896
21
-3.5303443307086613
0
LINE
8
F.Cu
6
CONTINUOUS
10
5.9925059448818896
20
-3.5303443307086613
11
5.9879448425196848
21
-3.5366221653543306
0
LINE
8
F.Cu
6
CONTINUOUS
10
5.9879448425196848
20
-3.5366221653543306
11
5.9879447244094486
21
-3.5366224015748031
0
LINE
8
F.Cu
6
CONTINUOUS
10
5.9879447244094486
20
-3.5366224015748031
11
5.9833024409448816
21
-3.5457333070866142
0
LINE
8
F.Cu
6
CONTINUOUS
10
5.9833024409448816
20
-3.5457333070866142
11
5.9833024015748029
21
-3.5457333464566929
0
LINE
8
F.Cu
6
CONTINUOUS
10
5.9833024015748029
20
-3.5457333464566929
11
5.9801428346456689
21
-3.5554577559055116
0
LINE
8
F.Cu
6
CONTINUOUS
10
5.9801428346456689
20
-3.5554577559055116
11
5.9801427559055114
21
-3.5554580708661416
0
LINE
8
F.Cu
6
CONTINUOUS
10
5.9801427559055114
20
-3.5554580708661416
11
5.9799160236220468
21
-3.5568897244094488
0
LINE
8
F.Cu
6
CONTINUOUS
10
5.9799160236220468
20
-3.5568897244094488
11
5.9799160629921255
21
-3.5568897637795276
0
LINE
8
F.Cu
6
CONTINUOUS
10
5.9799160629921255
20
-3.5568897637795276
11
6.0089233858267717
21
-3.5568897637795276
0
LINE
8
F.Cu
6
CONTINUOUS
10
6.0089233858267717
20
-3.5568897637795276
11
6.0105187007874017
21
-3.5530383070866143
0
LINE
8
F.Cu
6
CONTINUOUS
10
6.0105187007874017
20
-3.5530383070866143
11
6.0145921259842519
21
-3.5469419685039369
0
LINE
8
F.Cu
6
CONTINUOUS
10
6.0145921259842519
20
-3.5469419685039369
11
6.0197766141732281
21
-3.5417574803149607
0
LINE
8
F.Cu
6
CONTINUOUS
10
6.0197766141732281
20
-3.5417574803149607
11
6.025872952755905
21
-3.5376840551181101
0
LINE
8
F.Cu
6
CONTINUOUS
10
6.025872952755905
20
-3.5376840551181101
11
6.0277559055118113
21
-3.5369040944881891
0
LINE
8
F.Cu
6
CONTINUOUS
10
6.0277559055118113
20
-3.5369040944881891
11
6.0277559055118113
21
-3.5099462598425197
0
LINE
8
F.Cu
6
CONTINUOUS
10
6.0277559055118113
20
-3.5099462598425197
11
6.025872952755905
21
-3.509166338582677
0
LINE
8
F.Cu
6
CONTINUOUS
10
6.025872952755905
20
-3.509166338582677
11
6.0197766141732281
21
-3.5050929133858268
0
LINE
8
F.Cu
6
CONTINUOUS
10
6.0197766141732281
20
-3.5050929133858268
11
6.0145921259842519
21
-3.4999084251968502
0
LINE
8
F.Cu
6
CONTINUOUS
10
6.0145921259842519
20
-3.4999084251968502
11
6.0105187007874017
21
-3.4938120866141733
0
LINE
8
F.Cu
6
CONTINUOUS
10
6.0105187007874017
20
-3.4938120866141733
11
6.0089233858267717
21
-3.4899606299212595
0
LINE
8
F.Cu
6
CONTINUOUS
10
6.0089233858267717
20
-3.4899606299212595
11
5.9799160236220468
21
-3.4899606299212595
0
LINE
8
F.Cu
6
CONTINUOUS
10
6.0592519685039372
20
-3.4384788976377951
11
6.0611349212598427
21
-3.4392588582677166
0
LINE
8
F.Cu
6
CONTINUOUS
10
6.0611349212598427
20
-3.4392588582677166
11
6.0672312598425195
21
-3.4433322834645668
0
LINE
8
F.Cu
6
CONTINUOUS
10
6.0672312598425195
20
-3.4433322834645668
11
6.0724157480314958
21
-3.4485167716535434
0
LINE
8
F.Cu
6
CONTINUOUS
10
6.0724157480314958
20
-3.4485167716535434
11
6.0764891732283459
21
-3.4546131102362203
0
LINE
8
F.Cu
6
CONTINUOUS
10
6.0764891732283459
20
-3.4546131102362203
11
6.078084488188976
21
-3.4584645669291336
0
LINE
8
F.Cu
6
CONTINUOUS
10
6.078084488188976
20
-3.4584645669291336
11
6.1070918110236221
21
-3.4584645669291336
0
LINE
8
F.Cu
6
CONTINUOUS
10
6.1070918110236221
20
-3.4584645669291336
11
6.1070918110236221
21
-3.4584645275590549
0
LINE
8
F.Cu
6
CONTINUOUS
10
6.1070918110236221
20
-3.4584645275590549
11
6.1068650787401575
21
-3.4570328740157481
0
LINE
8
F.Cu
6
CONTINUOUS
10
6.1068650787401575
20
-3.4570328740157481
11
6.106865
21
-3.4570325590551181
0
LINE
8
F.Cu
6
CONTINUOUS
10
6.106865
20
-3.4570325590551181
11
6.103705433070866
21
-3.4473081496062989
0
LINE
8
F.Cu
6
CONTINUOUS
10
6.103705433070866
20
-3.4473081496062989
11
6.1037053937007872
21
-3.4473081102362202
0
LINE
8
F.Cu
6
CONTINUOUS
10
6.1037053937007872
20
-3.4473081102362202
11
6.0990631102362203
21
-3.4381972047244092
0
LINE
8
F.Cu
6
CONTINUOUS
10
6.0990631102362203
20
-3.4381972047244092
11
6.0990629527559053
21
-3.4381968897637796
0
LINE
8
F.Cu
6
CONTINUOUS
10
6.0990629527559053
20
-3.4381968897637796
11
6.0930531889763779
21
-3.4299251574803149
0
LINE
8
F.Cu
6
CONTINUOUS
10
6.0930531889763779
20
-3.4299251574803149
11
6.0858228346456693
21
-3.4226948031496063
0
LINE
8
F.Cu
6
CONTINUOUS
10
6.0858228346456693
20
-3.4226948031496063
11
6.0775511023622046
21
-3.4166850393700785
0
LINE
8
F.Cu
6
CONTINUOUS
10
6.0775511023622046
20
-3.4166850393700785
11
6.0775507874015746
21
-3.4166848818897635
0
LINE
8
F.Cu
6
CONTINUOUS
10
6.0775507874015746
20
-3.4166848818897635
11
6.0684399212598423
21
-3.412042598425197
0
LINE
8
F.Cu
6
CONTINUOUS
10
6.0684399212598423
20
-3.412042598425197
11
6.0592519685039372
21
-3.4090572834645667
0
LINE
8
F.Cu
6
CONTINUOUS
10
6.0592519685039372
20
-3.4090572834645667
11
6.0592519685039372
21
-3.4384788976377951
0
LINE
8
F.Cu
6
CONTINUOUS
10
6.0185679133858265
20
-3.412042598425197
11
6.0094570472440942
21
-3.4166848818897635
0
LINE
8
F.Cu
6
CONTINUOUS
10
6.0094570472440942
20
-3.4166848818897635
11
6.0094567322834642
21
-3.4166850393700785
0
LINE
8
F.Cu
6
CONTINUOUS
10
6.0094567322834642
20
-3.4166850393700785
11
6.0011849999999995
21
-3.4226948031496063
0
LINE
8
F.Cu
6
CONTINUOUS
10
6.0011849999999995
20
-3.4226948031496063
11
5.9939546456692909
21
-3.4299251574803149
0
LINE
8
F.Cu
6
CONTINUOUS
10
5.9939546456692909
20
-3.4299251574803149
11
5.9879448818897636
21
-3.4381968897637796
0
LINE
8
F.Cu
6
CONTINUOUS
10
5.9879448818897636
20
-3.4381968897637796
11
5.9879447244094486
21
-3.4381972047244092
0
LINE
8
F.Cu
6
CONTINUOUS
10
5.9879447244094486
20
-3.4381972047244092
11
5.9833024409448816
21
-3.4473081102362202
0
LINE
8
F.Cu
6
CONTINUOUS
10
5.9833024409448816
20
-3.4473081102362202
11
5.9833024015748029
21
-3.4473081496062989
0
LINE
8
F.Cu
6
CONTINUOUS
10
5.9833024015748029
20
-3.4473081496062989
11
5.9801428346456689
21
-3.4570325590551181
0
LINE
8
F.Cu
6
CONTINUOUS
10
5.9801428346456689
20
-3.4570325590551181
11
5.9801427559055114
21
-3.4570328740157481
0
LINE
8
F.Cu
6
CONTINUOUS
10
5.9801427559055114
20
-3.4570328740157481
11
5.9799160236220468
21
-3.4584645275590549
0
LINE
8
F.Cu
6
CONTINUOUS
10
5.9799160236220468
20
-3.4584645275590549
11
5.9799160629921255
21
-3.4584645669291336
0
LINE
8
F.Cu
6
CONTINUOUS
10
5.9799160629921255
20
-3.4584645669291336
11
6.0089233858267717
21
-3.4584645669291336
0
LINE
8
F.Cu
6
CONTINUOUS
10
6.0089233858267717
20
-3.4584645669291336
11
6.0105187007874017
21
-3.4546131102362203
0
LINE
8
F.Cu
6
CONTINUOUS
10
6.0105187007874017
20
-3.4546131102362203
11
6.0145921259842519
21
-3.4485167716535434
0
LINE
8
F.Cu
6
CONTINUOUS
10
6.0145921259842519
20
-3.4485167716535434
11
6.0197766141732281
21
-3.4433322834645668
0
LINE
8
F.Cu
6
CONTINUOUS
10
6.0197766141732281
20
-3.4433322834645668
11
6.025872952755905
21
-3.4392588582677166
0
LINE
8
F.Cu
6
CONTINUOUS
10
6.025872952755905
20
-3.4392588582677166
11
6.0277559055118113
21
-3.4384788976377951
0
LINE
8
F.Cu
6
CONTINUOUS
10
6.0277559055118113
20
-3.4384788976377951
11
6.0277559055118113
21
-3.4090572834645667
0
LINE
8
F.Cu
6
CONTINUOUS
10
6.0277559055118113
20
-3.4090572834645667
11
6.0277558661417325
21
-3.4090572834645667
0
LINE
8
F.Cu
6
CONTINUOUS
10
6.0277558661417325
20
-3.4090572834645667
11
6.0185679133858265
21
-3.412042598425197
0
LINE
8
F.Cu
6
CONTINUOUS
10
5.9799160236220468
20
-2.9978346456692915
11
5.9801427559055114
21
-2.9992662992125982
0
LINE
8
F.Cu
6
CONTINUOUS
10
5.9801427559055114
20
-2.9992662992125982
11
5.9801428346456689
21
-2.9992666141732283
0
LINE
8
F.Cu
6
CONTINUOUS
10
5.9801428346456689
20
-2.9992666141732283
11
5.9833024015748029
21
-3.008991023622047
0
LINE
8
F.Cu
6
CONTINUOUS
10
5.9833024015748029
20
-3.008991023622047
11
5.9833024409448816
21
-3.0089910629921257
0
LINE
8
F.Cu
6
CONTINUOUS
10
5.9833024409448816
20
-3.0089910629921257
11
5.9879447244094486
21
-3.0181019685039367
0
LINE
8
F.Cu
6
CONTINUOUS
10
5.9879447244094486
20
-3.0181019685039367
11
5.9879448818897636
21
-3.0181022834645668
0
LINE
8
F.Cu
6
CONTINUOUS
10
5.9879448818897636
20
-3.0181022834645668
11
5.9939546456692909
21
-3.0263740157480314
0
LINE
8
F.Cu
6
CONTINUOUS
10
5.9939546456692909
20
-3.0263740157480314
11
6.0011849999999995
21
-3.0336043700787401
0
LINE
8
F.Cu
6
CONTINUOUS
10
6.0011849999999995
20
-3.0336043700787401
11
6.0094567322834642
21
-3.0396141338582678
0
LINE
8
F.Cu
6
CONTINUOUS
10
6.0094567322834642
20
-3.0396141338582678
11
6.0094570472440942
21
-3.0396142913385824
0
LINE
8
F.Cu
6
CONTINUOUS
10
6.0094570472440942
20
-3.0396142913385824
11
6.0185679133858265
21
-3.0442565354330706
0
LINE
8
F.Cu
6
CONTINUOUS
10
6.0185679133858265
20
-3.0442565354330706
11
6.0185679527559053
21
-3.0442565748031494
0
LINE
8
F.Cu
6
CONTINUOUS
10
6.0185679527559053
20
-3.0442565748031494
11
6.0277558661417325
21
-3.0472418897637796
0
LINE
8
F.Cu
6
CONTINUOUS
10
6.0277558661417325
20
-3.0472418897637796
11
6.0277559055118113
21
-3.0472418897637796
0
LINE
8
F.Cu
6
CONTINUOUS
10
6.0277559055118113
20
-3.0472418897637796
11
6.0277559055118113
21
-3.0178202755905512
0
LINE
8
F.Cu
6
CONTINUOUS
10
6.0277559055118113
20
-3.0178202755905512
11
6.025872952755905
21
-3.0170403543307085
0
LINE
8
F.Cu
6
CONTINUOUS
10
6.025872952755905
20
-3.0170403543307085
11
6.0197766141732281
21
-3.0129669291338583
0
LINE
8
F.Cu
6
CONTINUOUS
10
6.0197766141732281
20
-3.0129669291338583
11
6.0145921259842519
21
-3.0077824409448817
0
LINE
8
F.Cu
6
CONTINUOUS
10
6.0145921259842519
20
-3.0077824409448817
11
6.0105187007874017
21
-3.0016861023622048
0
LINE
8
F.Cu
6
CONTINUOUS
10
6.0105187007874017
20
-3.0016861023622048
11
6.0089233858267717
21
-2.9978346456692915
0
LINE
8
F.Cu
6
CONTINUOUS
10
6.0089233858267717
20
-2.9978346456692915
11
5.9799160236220468
21
-2.9978346456692915
0
LINE
8
F.Cu
6
CONTINUOUS
10
6.0764891732283459
20
-3.0016861023622048
11
6.0724157480314958
21
-3.0077824409448817
0
LINE
8
F.Cu
6
CONTINUOUS
10
6.0724157480314958
20
-3.0077824409448817
11
6.0672312598425195
21
-3.0129669291338583
0
LINE
8
F.Cu
6
CONTINUOUS
10
6.0672312598425195
20
-3.0129669291338583
11
6.0611349212598427
21
-3.0170403543307085
0
LINE
8
F.Cu
6
CONTINUOUS
10
6.0611349212598427
20
-3.0170403543307085
11
6.0592519685039372
21
-3.0178202755905512
0
LINE
8
F.Cu
6
CONTINUOUS
10
6.0592519685039372
20
-3.0178202755905512
11
6.0592519685039372
21
-3.0472418897637796
0
LINE
8
F.Cu
6
CONTINUOUS
10
6.0592519685039372
20
-3.0472418897637796
11
6.0684398818897636
21
-3.0442565748031494
0
LINE
8
F.Cu
6
CONTINUOUS
10
6.0684398818897636
20
-3.0442565748031494
11
6.0684399212598423
21
-3.0442565354330706
0
LINE
8
F.Cu
6
CONTINUOUS
10
6.0684399212598423
20
-3.0442565354330706
11
6.0775507874015746
21
-3.0396142913385824
0
LINE
8
F.Cu
6
CONTINUOUS
10
6.0775507874015746
20
-3.0396142913385824
11
6.0775511023622046
21
-3.0396141338582678
0
LINE
8
F.Cu
6
CONTINUOUS
10
6.0775511023622046
20
-3.0396141338582678
11
6.0858228346456693
21
-3.0336043700787401
0
LINE
8
F.Cu
6
CONTINUOUS
10
6.0858228346456693
20
-3.0336043700787401
11
6.0930531889763779
21
-3.0263740157480314
0
LINE
8
F.Cu
6
CONTINUOUS
10
6.0930531889763779
20
-3.0263740157480314
11
6.0990629527559053
21
-3.0181022834645668
0
LINE
8
F.Cu
6
CONTINUOUS
10
6.0990629527559053
20
-3.0181022834645668
11
6.0990631102362203
21
-3.0181019685039367
0
LINE
8
F.Cu
6
CONTINUOUS
10
6.0990631102362203
20
-3.0181019685039367
11
6.1037053937007872
21
-3.0089910629921257
0
LINE
8
F.Cu
6
CONTINUOUS
10
6.1037053937007872
20
-3.0089910629921257
11
6.103705433070866
21
-3.008991023622047
0
LINE
8
F.Cu
6
CONTINUOUS
10
6.103705433070866
20
-3.008991023622047
11
6.106865
21
-2.9992666141732283
0
LINE
8
F.Cu
6
CONTINUOUS
10
6.106865
20
-2.9992666141732283
11
6.1068650787401575
21
-2.9992662992125982
0
LINE
8
F.Cu
6
CONTINUOUS
10
6.1068650787401575
20
-2.9992662992125982
11
6.1070918503937008
21
-2.9978346456692915
0
LINE
8
F.Cu
6
CONTINUOUS
10
6.1070918503937008
20
-2.9978346456692915
11
6.078084488188976
21
-2.9978346456692915
0
LINE
8
F.Cu
6
CONTINUOUS
10
6.078084488188976
20
-2.9978346456692915
11
6.0764891732283459
21
-3.0016861023622048
0
LINE
8
F.Cu
6
CONTINUOUS
10
6.0764891732283459
20
-2.9032609055118108
11
6.0724157480314958
21
-2.9093572440944881
0
LINE
8
F.Cu
6
CONTINUOUS
10
6.0724157480314958
20
-2.9093572440944881
11
6.0672312598425195
21
-2.9145417322834644
0
LINE
8
F.Cu
6
CONTINUOUS
10
6.0672312598425195
20
-2.9145417322834644
11
6.0611349212598427
21
-2.918615157480315
0
LINE
8
F.Cu
6
CONTINUOUS
10
6.0611349212598427
20
-2.918615157480315
11
6.0592519685039372
21
-2.9193950787401572
0
LINE
8
F.Cu
6
CONTINUOUS
10
6.0592519685039372
20
-2.9193950787401572
11
6.0592519685039372
21
-2.9463529133858266
0
LINE
8
F.Cu
6
CONTINUOUS
10
6.0592519685039372
20
-2.9463529133858266
11
6.0611349212598427
21
-2.9471328740157481
0
LINE
8
F.Cu
6
CONTINUOUS
10
6.0611349212598427
20
-2.9471328740157481
11
6.0672312598425195
21
-2.9512062992125982
0
LINE
8
F.Cu
6
CONTINUOUS
10
6.0672312598425195
20
-2.9512062992125982
11
6.0724157480314958
21
-2.9563907874015749
0
LINE
8
F.Cu
6
CONTINUOUS
10
6.0724157480314958
20
-2.9563907874015749
11
6.0764891732283459
21
-2.9624871259842518
0
LINE
8
F.Cu
6
CONTINUOUS
10
6.0764891732283459
20
-2.9624871259842518
11
6.078084488188976
21
-2.9663385826771651
0
LINE
8
F.Cu
6
CONTINUOUS
10
6.078084488188976
20
-2.9663385826771651
11
6.1070918110236221
21
-2.9663385826771651
0
LINE
8
F.Cu
6
CONTINUOUS
10
6.1070918110236221
20
-2.9663385826771651
11
6.1070918110236221
21
-2.9663385433070864
0
LINE
8
F.Cu
6
CONTINUOUS
10
6.1070918110236221
20
-2.9663385433070864
11
6.1068650787401575
21
-2.9649068897637796
0
LINE
8
F.Cu
6
CONTINUOUS
10
6.1068650787401575
20
-2.9649068897637796
11
6.106865
21
-2.9649065748031496
0
LINE
8
F.Cu
6
CONTINUOUS
10
6.106865
20
-2.9649065748031496
11
6.103705433070866
21
-2.9551821653543304
0
LINE
8
F.Cu
6
CONTINUOUS
10
6.103705433070866
20
-2.9551821653543304
11
6.1037053937007872
21
-2.9551821259842521
0
LINE
8
F.Cu
6
CONTINUOUS
10
6.1037053937007872
20
-2.9551821259842521
11
6.0990631102362203
21
-2.9460712204724411
0
LINE
8
F.Cu
6
CONTINUOUS
10
6.0990631102362203
20
-2.9460712204724411
11
6.0990629527559053
21
-2.9460709055118111
0
LINE
8
F.Cu
6
CONTINUOUS
10
6.0990629527559053
20
-2.9460709055118111
11
6.094501929133858
21
-2.939793188976378
0
LINE
8
F.Cu
6
CONTINUOUS
10
6.094501929133858
20
-2.939793188976378
11
6.0926455118110239
21
-2.9358857086614174
0
LINE
8
F.Cu
6
CONTINUOUS
10
6.0926455118110239
20
-2.9358857086614174
11
6.0923260236220473
21
-2.9315714173228344
0
LINE
8
F.Cu
6
CONTINUOUS
10
6.0923260236220473
20
-2.9315714173228344
11
6.093586614173228
21
-2.9274331102362203
0
LINE
8
F.Cu
6
CONTINUOUS
10
6.093586614173228
20
-2.9274331102362203
11
6.094501929133858
21
-2.9259548425196851
0
LINE
8
F.Cu
6
CONTINUOUS
10
6.094501929133858
20
-2.9259548425196851
11
6.0990629527559053
21
-2.9196770866141732
0
LINE
8
F.Cu
6
CONTINUOUS
10
6.0990629527559053
20
-2.9196770866141732
11
6.0990631102362203
21
-2.9196767716535432
0
LINE
8
F.Cu
6
CONTINUOUS
10
6.0990631102362203
20
-2.9196767716535432
11
6.1037053937007872
21
-2.9105658661417322
0
LINE
8
F.Cu
6
CONTINUOUS
10
6.1037053937007872
20
-2.9105658661417322
11
6.103705433070866
21
-2.9105658267716534
0
LINE
8
F.Cu
6
CONTINUOUS
10
6.103705433070866
20
-2.9105658267716534
11
6.106865
21
-2.9008414173228347
0
LINE
8
F.Cu
6
CONTINUOUS
10
6.106865
20
-2.9008414173228347
11
6.1068650787401575
21
-2.9008411023622047
0
LINE
8
F.Cu
6
CONTINUOUS
10
6.1068650787401575
20
-2.9008411023622047
11
6.1070918503937008
21
-2.8994094488188975
0
LINE
8
F.Cu
6
CONTINUOUS
10
6.1070918503937008
20
-2.8994094488188975
11
6.078084488188976
21
-2.8994094488188975
0
LINE
8
F.Cu
6
CONTINUOUS
10
6.078084488188976
20
-2.8994094488188975
11
6.0764891732283459
21
-2.9032609055118108
0
LINE
8
F.Cu
6
CONTINUOUS
10
5.9799160236220468
20
-2.8994094488188975
11
5.9801427559055114
21
-2.9008411023622047
0
LINE
8
F.Cu
6
CONTINUOUS
10
5.9801427559055114
20
-2.9008411023622047
11
5.9801428346456689
21
-2.9008414173228347
0
LINE
8
F.Cu
6
CONTINUOUS
10
5.9801428346456689
20
-2.9008414173228347
11
5.9833024015748029
21
-2.9105658267716534
0
LINE
8
F.Cu
6
CONTINUOUS
10
5.9833024015748029
20
-2.9105658267716534
11
5.9833024409448816
21
-2.9105658661417322
0
LINE
8
F.Cu
6
CONTINUOUS
10
5.9833024409448816
20
-2.9105658661417322
11
5.9879447244094486
21
-2.9196767716535432
0
LINE
8
F.Cu
6
CONTINUOUS
10
5.9879447244094486
20
-2.9196767716535432
11
5.9879448425196848
21
-2.9196770078740157
0
LINE
8
F.Cu
6
CONTINUOUS
10
5.9879448425196848
20
-2.9196770078740157
11
5.9925059448818896
21
-2.9259548818897638
0
LINE
8
F.Cu
6
CONTINUOUS
10
5.9925059448818896
20
-2.9259548818897638
11
5.9943623228346459
21
-2.9298624015748032
0
LINE
8
F.Cu
6
CONTINUOUS
10
5.9943623228346459
20
-2.9298624015748032
11
5.9946818110236215
21
-2.9341766535433069
0
LINE
8
F.Cu
6
CONTINUOUS
10
5.9946818110236215
20
-2.9341766535433069
11
5.9934212204724409
21
-2.938314960629921
0
LINE
8
F.Cu
6
CONTINUOUS
10
5.9934212204724409
20
-2.938314960629921
11
5.9925059448818896
21
-2.9397931496062992
0
LINE
8
F.Cu
6
CONTINUOUS
10
5.9925059448818896
20
-2.9397931496062992
11
5.9879448425196848
21
-2.9460709842519686
0
LINE
8
F.Cu
6
CONTINUOUS
10
5.9879448425196848
20
-2.9460709842519686
11
5.9879447244094486
21
-2.9460712204724411
0
LINE
8
F.Cu
6
CONTINUOUS
10
5.9879447244094486
20
-2.9460712204724411
11
5.9833024409448816
21
-2.9551821259842521
0
LINE
8
F.Cu
6
CONTINUOUS
10
5.9833024409448816
20
-2.9551821259842521
11
5.9833024015748029
21
-2.9551821653543304
0
LINE
8
F.Cu
6
CONTINUOUS
10
5.9833024015748029
20
-2.9551821653543304
11
5.9801428346456689
21
-2.9649065748031496
0
LINE
8
F.Cu
6
CONTINUOUS
10
5.9801428346456689
20
-2.9649065748031496
11
5.9801427559055114
21
-2.9649068897637796
0
LINE
8
F.Cu
6
CONTINUOUS
10
5.9801427559055114
20
-2.9649068897637796
11
5.9799160236220468
21
-2.9663385433070864
0
LINE
8
F.Cu
6
CONTINUOUS
10
5.9799160236220468
20
-2.9663385433070864
11
5.9799160629921255
21
-2.9663385826771651
0
LINE
8
F.Cu
6
CONTINUOUS
10
5.9799160629921255
20
-2.9663385826771651
11
6.0089233858267717
21
-2.9663385826771651
0
LINE
8
F.Cu
6
CONTINUOUS
10
6.0089233858267717
20
-2.9663385826771651
11
6.0105187007874017
21
-2.9624871259842518
0
LINE
8
F.Cu
6
CONTINUOUS
10
6.0105187007874017
20
-2.9624871259842518
11
6.0145921259842519
21
-2.9563907874015749
0
LINE
8
F.Cu
6
CONTINUOUS
10
6.0145921259842519
20
-2.9563907874015749
11
6.0197766141732281
21
-2.9512062992125982
0
LINE
8
F.Cu
6
CONTINUOUS
10
6.0197766141732281
20
-2.9512062992125982
11
6.025872952755905
21
-2.9471328740157481
0
LINE
8
F.Cu
6
CONTINUOUS
10
6.025872952755905
20
-2.9471328740157481
11
6.0277559055118113
21
-2.9463529133858266
0
LINE
8
F.Cu
6
CONTINUOUS
10
6.0277559055118113
20
-2.9463529133858266
11
6.0277559055118113
21
-2.9193950787401572
0
LINE
8
F.Cu
6
CONTINUOUS
10
6.0277559055118113
20
-2.9193950787401572
11
6.025872952755905
21
-2.918615157480315
0
LINE
8
F.Cu
6
CONTINUOUS
10
6.025872952755905
20
-2.918615157480315
11
6.0197766141732281
21
-2.9145417322834644
0
LINE
8
F.Cu
6
CONTINUOUS
10
6.0197766141732281
20
-2.9145417322834644
11
6.0145921259842519
21
-2.9093572440944881
0
LINE
8
F.Cu
6
CONTINUOUS
10
6.0145921259842519
20
-2.9093572440944881
11
6.0105187007874017
21
-2.9032609055118108
0
LINE
8
F.Cu
6
CONTINUOUS
10
6.0105187007874017
20
-2.9032609055118108
11
6.0089233858267717
21
-2.8994094488188975
0
LINE
8
F.Cu
6
CONTINUOUS
10
6.0089233858267717
20
-2.8994094488188975
11
5.9799160236220468
21
-2.8994094488188975
0
LINE
8
F.Cu
6
CONTINUOUS
10
6.0592519685039372
20
-2.8479277165354331
11
6.0611349212598427
21
-2.8487076771653541
0
LINE
8
F.Cu
6
CONTINUOUS
10
6.0611349212598427
20
-2.8487076771653541
11
6.0672312598425195
21
-2.8527811023622047
0
LINE
8
F.Cu
6
CONTINUOUS
10
6.0672312598425195
20
-2.8527811023622047
11
6.0724157480314958
21
-2.8579655905511809
0
LINE
8
F.Cu
6
CONTINUOUS
10
6.0724157480314958
20
-2.8579655905511809
11
6.0764891732283459
21
-2.8640619291338583
0
LINE
8
F.Cu
6
CONTINUOUS
10
6.0764891732283459
20
-2.8640619291338583
11
6.078084488188976
21
-2.8679133858267716
0
LINE
8
F.Cu
6
CONTINUOUS
10
6.078084488188976
20
-2.8679133858267716
11
6.1070918110236221
21
-2.8679133858267716
0
LINE
8
F.Cu
6
CONTINUOUS
10
6.1070918110236221
20
-2.8679133858267716
11
6.1070918110236221
21
-2.8679133464566928
0
LINE
8
F.Cu
6
CONTINUOUS
10
6.1070918110236221
20
-2.8679133464566928
11
6.1068650787401575
21
-2.8664816929133856
0
LINE
8
F.Cu
6
CONTINUOUS
10
6.1068650787401575
20
-2.8664816929133856
11
6.106865
21
-2.866481377952756
0
LINE
8
F.Cu
6
CONTINUOUS
10
6.106865
20
-2.866481377952756
11
6.103705433070866
21
-2.8567569685039369
0
LINE
8
F.Cu
6
CONTINUOUS
10
6.103705433070866
20
-2.8567569685039369
11
6.1037053937007872
21
-2.8567569291338581
0
LINE
8
F.Cu
6
CONTINUOUS
10
6.1037053937007872
20
-2.8567569291338581
11
6.0990631102362203
21
-2.8476460236220471
0
LINE
8
F.Cu
6
CONTINUOUS
10
6.0990631102362203
20
-2.8476460236220471
11
6.0990629527559053
21
-2.8476457086614171
0
LINE
8
F.Cu
6
CONTINUOUS
10
6.0990629527559053
20
-2.8476457086614171
11
6.0930531889763779
21
-2.8393739763779529
0
LINE
8
F.Cu
6
CONTINUOUS
10
6.0930531889763779
20
-2.8393739763779529
11
6.0858228346456693
21
-2.8321436220472442
0
LINE
8
F.Cu
6
CONTINUOUS
10
6.0858228346456693
20
-2.8321436220472442
11
6.0775511023622046
21
-2.8261338582677165
0
LINE
8
F.Cu
6
CONTINUOUS
10
6.0775511023622046
20
-2.8261338582677165
11
6.0775507874015746
21
-2.8261337007874014
0
LINE
8
F.Cu
6
CONTINUOUS
10
6.0775507874015746
20
-2.8261337007874014
11
6.0684399212598423
21
-2.8214914173228345
0
LINE
8
F.Cu
6
CONTINUOUS
10
6.0684399212598423
20
-2.8214914173228345
11
6.0592519685039372
21
-2.8185061023622047
0
LINE
8
F.Cu
6
CONTINUOUS
10
6.0592519685039372
20
-2.8185061023622047
11
6.0592519685039372
21
-2.8479277165354331
0
LINE
8
F.Cu
6
CONTINUOUS
10
6.0185679133858265
20
-2.8214914173228345
11
6.0094570472440942
21
-2.8261337007874014
0
LINE
8
F.Cu
6
CONTINUOUS
10
6.0094570472440942
20
-2.8261337007874014
11
6.0094567322834642
21
-2.8261338582677165
0
LINE
8
F.Cu
6
CONTINUOUS
10
6.0094567322834642
20
-2.8261338582677165
11
6.0011849999999995
21
-2.8321436220472442
0
LINE
8
F.Cu
6
CONTINUOUS
10
6.0011849999999995
20
-2.8321436220472442
11
5.9939546456692909
21
-2.8393739763779529
0
LINE
8
F.Cu
6
CONTINUOUS
10
5.9939546456692909
20
-2.8393739763779529
11
5.9879448818897636
21
-2.8476457086614171
0
LINE
8
F.Cu
6
CONTINUOUS
10
5.9879448818897636
20
-2.8476457086614171
11
5.9879447244094486
21
-2.8476460236220471
0
LINE
8
F.Cu
6
CONTINUOUS
10
5.9879447244094486
20
-2.8476460236220471
11
5.9833024409448816
21
-2.8567569291338581
0
LINE
8
F.Cu
6
CONTINUOUS
10
5.9833024409448816
20
-2.8567569291338581
11
5.9833024015748029
21
-2.8567569685039369
0
LINE
8
F.Cu
6
CONTINUOUS
10
5.9833024015748029
20
-2.8567569685039369
11
5.9801428346456689
21
-2.866481377952756
0
LINE
8
F.Cu
6
CONTINUOUS
10
5.9801428346456689
20
-2.866481377952756
11
5.9801427559055114
21
-2.8664816929133856
0
LINE
8
F.Cu
6
CONTINUOUS
10
5.9801427559055114
20
-2.8664816929133856
11
5.9799160236220468
21
-2.8679133464566928
0
LINE
8
F.Cu
6
CONTINUOUS
10
5.9799160236220468
20
-2.8679133464566928
11
5.9799160629921255
21
-2.8679133858267716
0
LINE
8
F.Cu
6
CONTINUOUS
10
5.9799160629921255
20
-2.8679133858267716
11
6.0089233858267717
21
-2.8679133858267716
0
LINE
8
F.Cu
6
CONTINUOUS
10
6.0089233858267717
20
-2.8679133858267716
11
6.0105187007874017
21
-2.8640619291338583
0
LINE
8
F.Cu
6
CONTINUOUS
10
6.0105187007874017
20
-2.8640619291338583
11
6.0145921259842519
21
-2.8579655905511809
0
LINE
8
F.Cu
6
CONTINUOUS
10
6.0145921259842519
20
-2.8579655905511809
11
6.0197766141732281
21
-2.8527811023622047
0
LINE
8
F.Cu
6
CONTINUOUS
10
6.0197766141732281
20
-2.8527811023622047
11
6.025872952755905
21
-2.8487076771653541
0
LINE
8
F.Cu
6
CONTINUOUS
10
6.025872952755905
20
-2.8487076771653541
11
6.0277559055118113
21
-2.8479277165354331
0
LINE
8
F.Cu
6
CONTINUOUS
10
6.0277559055118113
20
-2.8479277165354331
11
6.0277559055118113
21
-2.8185061023622047
0
LINE
8
F.Cu
6
CONTINUOUS
10
6.0277559055118113
20
-2.8185061023622047
11
6.0277558661417325
21
-2.8185061023622047
0
LINE
8
F.Cu
6
CONTINUOUS
10
6.0277558661417325
20
-2.8185061023622047
11
6.0185679133858265
21
-2.8214914173228345
0
LINE
8
F.Cu
6
CONTINUOUS
10
5.9799160236220468
20
-2.407283464566929
11
5.9801427559055114
21
-2.4087151181102362
0
LINE
8
F.Cu
6
CONTINUOUS
10
5.9801427559055114
20
-2.4087151181102362
11
5.9801428346456689
21
-2.4087154330708662
0
LINE
8
F.Cu
6
CONTINUOUS
10
5.9801428346456689
20
-2.4087154330708662
11
5.9833024015748029
21
-2.4184398425196849
0
LINE
8
F.Cu
6
CONTINUOUS
10
5.9833024015748029
20
-2.4184398425196849
11
5.9833024409448816
21
-2.4184398818897637
0
LINE
8
F.Cu
6
CONTINUOUS
10
5.9833024409448816
20
-2.4184398818897637
11
5.9879447244094486
21
-2.4275507874015747
0
LINE
8
F.Cu
6
CONTINUOUS
10
5.9879447244094486
20
-2.4275507874015747
11
5.9879448818897636
21
-2.4275511023622047
0
LINE
8
F.Cu
6
CONTINUOUS
10
5.9879448818897636
20
-2.4275511023622047
11
5.9939546456692909
21
-2.4358228346456694
0
LINE
8
F.Cu
6
CONTINUOUS
10
5.9939546456692909
20
-2.4358228346456694
11
6.0011849999999995
21
-2.443053188976378
0
LINE
8
F.Cu
6
CONTINUOUS
10
6.0011849999999995
20
-2.443053188976378
11
6.0094567322834642
21
-2.4490629527559054
0
LINE
8
F.Cu
6
CONTINUOUS
10
6.0094567322834642
20
-2.4490629527559054
11
6.0094570472440942
21
-2.4490631102362204
0
LINE
8
F.Cu
6
CONTINUOUS
10
6.0094570472440942
20
-2.4490631102362204
11
6.0185679133858265
21
-2.4537053543307086
0
LINE
8
F.Cu
6
CONTINUOUS
10
6.0185679133858265
20
-2.4537053543307086
11
6.0185679527559053
21
-2.4537053937007873
0
LINE
8
F.Cu
6
CONTINUOUS
10
6.0185679527559053
20
-2.4537053937007873
11
6.0277558661417325
21
-2.4566907086614171
0
LINE
8
F.Cu
6
CONTINUOUS
10
6.0277558661417325
20
-2.4566907086614171
11
6.0277559055118113
21
-2.4566907086614171
0
LINE
8
F.Cu
6
CONTINUOUS
10
6.0277559055118113
20
-2.4566907086614171
11
6.0277559055118113
21
-2.4272690944881887
0
LINE
8
F.Cu
6
CONTINUOUS
10
6.0277559055118113
20
-2.4272690944881887
11
6.025872952755905
21
-2.4264891732283465
0
LINE
8
F.Cu
6
CONTINUOUS
10
6.025872952755905
20
-2.4264891732283465
11
6.0197766141732281
21
-2.4224157480314958
0
LINE
8
F.Cu
6
CONTINUOUS
10
6.0197766141732281
20
-2.4224157480314958
11
6.0145921259842519
21
-2.4172312598425196
0
LINE
8
F.Cu
6
CONTINUOUS
10
6.0145921259842519
20
-2.4172312598425196
11
6.0105187007874017
21
-2.4111349212598423
0
LINE
8
F.Cu
6
CONTINUOUS
10
6.0105187007874017
20
-2.4111349212598423
11
6.0089233858267717
21
-2.407283464566929
0
LINE
8
F.Cu
6
CONTINUOUS
10
6.0089233858267717
20
-2.407283464566929
11
5.9799160236220468
21
-2.407283464566929
0
LINE
8
F.Cu
6
CONTINUOUS
10
6.0764891732283459
20
-2.4111349212598423
11
6.0724157480314958
21
-2.4172312598425196
0
LINE
8
F.Cu
6
CONTINUOUS
10
6.0724157480314958
20
-2.4172312598425196
11
6.0672312598425195
21
-2.4224157480314958
0
LINE
8
F.Cu
6
CONTINUOUS
10
6.0672312598425195
20
-2.4224157480314958
11
6.0611349212598427
21
-2.4264891732283465
0
LINE
8
F.Cu
6
CONTINUOUS
10
6.0611349212598427
20
-2.4264891732283465
11
6.0592519685039372
21
-2.4272690944881887
0
LINE
8
F.Cu
6
CONTINUOUS
10
6.0592519685039372
20
-2.4272690944881887
11
6.0592519685039372
21
-2.4566907086614171
0
LINE
8
F.Cu
6
CONTINUOUS
10
6.0592519685039372
20
-2.4566907086614171
11
6.0684398818897636
21
-2.4537053937007873
0
LINE
8
F.Cu
6
CONTINUOUS
10
6.0684398818897636
20
-2.4537053937007873
11
6.0684399212598423
21
-2.4537053543307086
0
LINE
8
F.Cu
6
CONTINUOUS
10
6.0684399212598423
20
-2.4537053543307086
11
6.0775507874015746
21
-2.4490631102362204
0
LINE
8
F.Cu
6
CONTINUOUS
10
6.0775507874015746
20
-2.4490631102362204
11
6.0775511023622046
21
-2.4490629527559054
0
LINE
8
F.Cu
6
CONTINUOUS
10
6.0775511023622046
20
-2.4490629527559054
11
6.0858228346456693
21
-2.443053188976378
0
LINE
8
F.Cu
6
CONTINUOUS
10
6.0858228346456693
20
-2.443053188976378
11
6.0930531889763779
21
-2.4358228346456694
0
LINE
8
F.Cu
6
CONTINUOUS
10
6.0930531889763779
20
-2.4358228346456694
11
6.0990629527559053
21
-2.4275511023622047
0
LINE
8
F.Cu
6
CONTINUOUS
10
6.0990629527559053
20
-2.4275511023622047
11
6.0990631102362203
21
-2.4275507874015747
0
LINE
8
F.Cu
6
CONTINUOUS
10
6.0990631102362203
20
-2.4275507874015747
11
6.1037053937007872
21
-2.4184398818897637
0
LINE
8
F.Cu
6
CONTINUOUS
10
6.1037053937007872
20
-2.4184398818897637
11
6.103705433070866
21
-2.4184398425196849
0
LINE
8
F.Cu
6
CONTINUOUS
10
6.103705433070866
20
-2.4184398425196849
11
6.106865
21
-2.4087154330708662
0
LINE
8
F.Cu
6
CONTINUOUS
10
6.106865
20
-2.4087154330708662
11
6.1068650787401575
21
-2.4087151181102362
0
LINE
8
F.Cu
6
CONTINUOUS
10
6.1068650787401575
20
-2.4087151181102362
11
6.1070918503937008
21
-2.407283464566929
0
LINE
8
F.Cu
6
CONTINUOUS
10
6.1070918503937008
20
-2.407283464566929
11
6.078084488188976
21
-2.407283464566929
0
LINE
8
F.Cu
6
CONTINUOUS
10
6.078084488188976
20
-2.407283464566929
11
6.0764891732283459
21
-2.4111349212598423
0
LINE
8
F.Cu
6
CONTINUOUS
10
6.0592519685039372
20
-2.3558017322834646
11
6.0611349212598427
21
-2.3565816929133856
0
LINE
8
F.Cu
6
CONTINUOUS
10
6.0611349212598427
20
-2.3565816929133856
11
6.0672312598425195
21
-2.3606551181102362
0
LINE
8
F.Cu
6
CONTINUOUS
10
6.0672312598425195
20
-2.3606551181102362
11
6.0724157480314958
21
-2.3658396062992124
0
LINE
8
F.Cu
6
CONTINUOUS
10
6.0724157480314958
20
-2.3658396062992124
11
6.0764891732283459
21
-2.3719359448818897
0
LINE
8
F.Cu
6
CONTINUOUS
10
6.0764891732283459
20
-2.3719359448818897
11
6.078084488188976
21
-2.3757874015748031
0
LINE
8
F.Cu
6
CONTINUOUS
10
6.078084488188976
20
-2.3757874015748031
11
6.1070918110236221
21
-2.3757874015748031
0
LINE
8
F.Cu
6
CONTINUOUS
10
6.1070918110236221
20
-2.3757874015748031
11
6.1070918110236221
21
-2.3757873622047243
0
LINE
8
F.Cu
6
CONTINUOUS
10
6.1070918110236221
20
-2.3757873622047243
11
6.1068650787401575
21
-2.3743557086614171
0
LINE
8
F.Cu
6
CONTINUOUS
10
6.1068650787401575
20
-2.3743557086614171
11
6.106865
21
-2.3743553937007875
0
LINE
8
F.Cu
6
CONTINUOUS
10
6.106865
20
-2.3743553937007875
11
6.103705433070866
21
-2.3646309842519684
0
LINE
8
F.Cu
6
CONTINUOUS
10
6.103705433070866
20
-2.3646309842519684
11
6.1037053937007872
21
-2.3646309448818896
0
LINE
8
F.Cu
6
CONTINUOUS
10
6.1037053937007872
20
-2.3646309448818896
11
6.0990631102362203
21
-2.3555200393700786
0
LINE
8
F.Cu
6
CONTINUOUS
10
6.0990631102362203
20
-2.3555200393700786
11
6.0990629527559053
21
-2.3555197244094486
0
LINE
8
F.Cu
6
CONTINUOUS
10
6.0990629527559053
20
-2.3555197244094486
11
6.0930531889763779
21
-2.3472479921259843
0
LINE
8
F.Cu
6
CONTINUOUS
10
6.0930531889763779
20
-2.3472479921259843
11
6.0858228346456693
21
-2.3400176377952757
0
LINE
8
F.Cu
6
CONTINUOUS
10
6.0858228346456693
20
-2.3400176377952757
11
6.0775511023622046
21
-2.3340078740157479
0
LINE
8
F.Cu
6
CONTINUOUS
10
6.0775511023622046
20
-2.3340078740157479
11
6.0775507874015746
21
-2.3340077165354329
0
LINE
8
F.Cu
6
CONTINUOUS
10
6.0775507874015746
20
-2.3340077165354329
11
6.0684399212598423
21
-2.329365433070866
0
LINE
8
F.Cu
6
CONTINUOUS
10
6.0684399212598423
20
-2.329365433070866
11
6.0592519685039372
21
-2.3263801181102362
0
LINE
8
F.Cu
6
CONTINUOUS
10
6.0592519685039372
20
-2.3263801181102362
11
6.0592519685039372
21
-2.3558017322834646
0
LINE
8
F.Cu
6
CONTINUOUS
10
6.0185679133858265
20
-2.329365433070866
11
6.0094570472440942
21
-2.3340077165354329
0
LINE
8
F.Cu
6
CONTINUOUS
10
6.0094570472440942
20
-2.3340077165354329
11
6.0094567322834642
21
-2.3340078740157479
0
LINE
8
F.Cu
6
CONTINUOUS
10
6.0094567322834642
20
-2.3340078740157479
11
6.0011849999999995
21
-2.3400176377952757
0
LINE
8
F.Cu
6
CONTINUOUS
10
6.0011849999999995
20
-2.3400176377952757
11
5.9939546456692909
21
-2.3472479921259843
0
LINE
8
F.Cu
6
CONTINUOUS
10
5.9939546456692909
20
-2.3472479921259843
11
5.9879448818897636
21
-2.3555197244094486
0
LINE
8
F.Cu
6
CONTINUOUS
10
5.9879448818897636
20
-2.3555197244094486
11
5.9879447244094486
21
-2.3555200393700786
0
LINE
8
F.Cu
6
CONTINUOUS
10
5.9879447244094486
20
-2.3555200393700786
11
5.9833024409448816
21
-2.3646309448818896
0
LINE
8
F.Cu
6
CONTINUOUS
10
5.9833024409448816
20
-2.3646309448818896
11
5.9833024015748029
21
-2.3646309842519684
0
LINE
8
F.Cu
6
CONTINUOUS
10
5.9833024015748029
20
-2.3646309842519684
11
5.9801428346456689
21
-2.3743553937007875
0
LINE
8
F.Cu
6
CONTINUOUS
10
5.9801428346456689
20
-2.3743553937007875
11
5.9801427559055114
21
-2.3743557086614171
0
LINE
8
F.Cu
6
CONTINUOUS
10
5.9801427559055114
20
-2.3743557086614171
11
5.9799160236220468
21
-2.3757873622047243
0
LINE
8
F.Cu
6
CONTINUOUS
10
5.9799160236220468
20
-2.3757873622047243
11
5.9799160629921255
21
-2.3757874015748031
0
LINE
8
F.Cu
6
CONTINUOUS
10
5.9799160629921255
20
-2.3757874015748031
11
6.0089233858267717
21
-2.3757874015748031
0
LINE
8
F.Cu
6
CONTINUOUS
10
6.0089233858267717
20
-2.3757874015748031
11
6.0105187007874017
21
-2.3719359448818897
0
LINE
8
F.Cu
6
CONTINUOUS
10
6.0105187007874017
20
-2.3719359448818897
11
6.0145921259842519
21
-2.3658396062992124
0
LINE
8
F.Cu
6
CONTINUOUS
10
6.0145921259842519
20
-2.3658396062992124
11
6.0197766141732281
21
-2.3606551181102362
0
LINE
8
F.Cu
6
CONTINUOUS
10
6.0197766141732281
20
-2.3606551181102362
11
6.025872952755905
21
-2.3565816929133856
0
LINE
8
F.Cu
6
CONTINUOUS
10
6.025872952755905
20
-2.3565816929133856
11
6.0277559055118113
21
-2.3558017322834646
0
LINE
8
F.Cu
6
CONTINUOUS
10
6.0277559055118113
20
-2.3558017322834646
11
6.0277559055118113
21
-2.3263801181102362
0
LINE
8
F.Cu
6
CONTINUOUS
10
6.0277559055118113
20
-2.3263801181102362
11
6.0277558661417325
21
-2.3263801181102362
0
LINE
8
F.Cu
6
CONTINUOUS
10
6.0277558661417325
20
-2.3263801181102362
11
6.0185679133858265
21
-2.329365433070866
0
LINE
8
F.Cu
6
CONTINUOUS
10
6.1613865354330706
20
-2.0391645275590551
11
6.1613863779527556
21
-2.0391644881889763
0
LINE
8
F.Cu
6
CONTINUOUS
10
6.1613863779527556
20
-2.0391644881889763
11
6.1537218503937003
21
-2.0366741338582677
0
LINE
8
F.Cu
6
CONTINUOUS
10
6.1537218503937003
20
-2.0366741338582677
11
6.1457619291338581
21
-2.0354133858267716
0
LINE
8
F.Cu
6
CONTINUOUS
10
6.1457619291338581
20
-2.0354133858267716
11
6.1457618897637794
21
-2.0354133858267716
0
LINE
8
F.Cu
6
CONTINUOUS
10
6.1457618897637794
20
-2.0354133858267716
11
6.137702677165354
21
-2.0354133858267716
0
LINE
8
F.Cu
6
CONTINUOUS
10
6.137702677165354
20
-2.0354133858267716
11
6.1377025984251965
21
-2.0354133858267716
0
LINE
8
F.Cu
6
CONTINUOUS
10
6.1377025984251965
20
-2.0354133858267716
11
6.1297426771653543
21
-2.0366741338582677
0
LINE
8
F.Cu
6
CONTINUOUS
10
6.1297426771653543
20
-2.0366741338582677
11
6.122078149606299
21
-2.0391644881889763
0
LINE
8
F.Cu
6
CONTINUOUS
10
6.122078149606299
20
-2.0391644881889763
11
6.122077992125984
21
-2.0391645275590551
0
LINE
8
F.Cu
6
CONTINUOUS
10
6.122077992125984
20
-2.0391645275590551
11
6.1148973228346453
21
-2.0428232677165354
0
LINE
8
F.Cu
6
CONTINUOUS
10
6.1148973228346453
20
-2.0428232677165354
11
6.1148971259842515
21
-2.0428233858267717
0
LINE
8
F.Cu
6
CONTINUOUS
10
6.1148971259842515
20
-2.0428233858267717
11
6.1083772440944877
21
-2.0475603543307086
0
LINE
8
F.Cu
6
CONTINUOUS
10
6.1083772440944877
20
-2.0475603543307086
11
6.1083769685039373
21
-2.0475605905511811
0
LINE
8
F.Cu
6
CONTINUOUS
10
6.1083769685039373
20
-2.0475605905511811
11
6.1026787007874015
21
-2.0532588582677165
0
LINE
8
F.Cu
6
CONTINUOUS
10
6.1026787007874015
20
-2.0532588582677165
11
6.102678464566929
21
-2.0532591338582677
0
LINE
8
F.Cu
6
CONTINUOUS
10
6.102678464566929
20
-2.0532591338582677
11
6.0979414960629921
21
-2.0597790157480316
0
LINE
8
F.Cu
6
CONTINUOUS
10
6.0979414960629921
20
-2.0597790157480316
11
6.0979413779527558
21
-2.0597792125984253
0
LINE
8
F.Cu
6
CONTINUOUS
10
6.0979413779527558
20
-2.0597792125984253
11
6.094282637795275
21
-2.0669598818897637
0
LINE
8
F.Cu
6
CONTINUOUS
10
6.094282637795275
20
-2.0669598818897637
11
6.0942825984251972
21
-2.0669600393700787
0
LINE
8
F.Cu
6
CONTINUOUS
10
6.0942825984251972
20
-2.0669600393700787
11
6.0917922440944876
21
-2.0746245669291339
0
LINE
8
F.Cu
6
CONTINUOUS
10
6.0917922440944876
20
-2.0746245669291339
11
6.0905314960629919
21
-2.0825844881889761
0
LINE
8
F.Cu
6
CONTINUOUS
10
6.0905314960629919
20
-2.0825844881889761
11
6.0905314960629919
21
-2.0906438188976377
0
LINE
8
F.Cu
6
CONTINUOUS
10
6.0905314960629919
20
-2.0906438188976377
11
6.0917922440944876
21
-2.0986037401574804
0
LINE
8
F.Cu
6
CONTINUOUS
10
6.0917922440944876
20
-2.0986037401574804
11
6.0942825984251972
21
-2.1062682677165352
0
LINE
8
F.Cu
6
CONTINUOUS
10
6.0942825984251972
20
-2.1062682677165352
11
6.094282637795275
21
-2.1062684251968502
0
LINE
8
F.Cu
6
CONTINUOUS
10
6.094282637795275
20
-2.1062684251968502
11
6.0979413779527558
21
-2.113449094488189
0
LINE
8
F.Cu
6
CONTINUOUS
10
6.0979413779527558
20
-2.113449094488189
11
6.0979414960629921
21
-2.1134492913385827
0
LINE
8
F.Cu
6
CONTINUOUS
10
6.0979414960629921
20
-2.1134492913385827
11
6.0995850787401578
21
-2.1157114960629921
0
LINE
8
F.Cu
6
CONTINUOUS
10
6.0995850787401578
20
-2.1157114960629921
11
6.1026785039370077
21
-2.1199692519685041
0
LINE
8
F.Cu
6
CONTINUOUS
10
6.1026785039370077
20
-2.1199692519685041
11
6.1083772047244089
21
-2.1256679527559053
0
LINE
8
F.Cu
6
CONTINUOUS
10
6.1083772047244089
20
-2.1256679527559053
11
6.1148972440944878
21
-2.1304050000000001
0
LINE
8
F.Cu
6
CONTINUOUS
10
6.1148972440944878
20
-2.1304050000000001
11
6.122077992125984
21
-2.1340637795275592
0
LINE
8
F.Cu
6
CONTINUOUS
10
6.122077992125984
20
-2.1340637795275592
11
6.1297427559055118
21
-2.1365542125984249
0
LINE
8
F.Cu
6
CONTINUOUS
10
6.1297427559055118
20
-2.1365542125984249
11
6.137702677165354
21
-2.137814960629921
0
LINE
8
F.Cu
6
CONTINUOUS
10
6.137702677165354
20
-2.137814960629921
11
6.1377027165354328
21
-2.137814960629921
0
LINE
8
F.Cu
6
CONTINUOUS
10
6.1377027165354328
20
-2.137814960629921
11
6.1457618503937006
21
-2.137814960629921
0
LINE
8
F.Cu
6
CONTINUOUS
10
6.1457618503937006
20
-2.137814960629921
11
6.1457618897637794
21
-2.137814960629921
0
LINE
8
F.Cu
6
CONTINUOUS
10
6.1457618897637794
20
-2.137814960629921
11
6.1537218110236216
21
-2.1365542125984249
0
LINE
8
F.Cu
6
CONTINUOUS
10
6.1537218110236216
20
-2.1365542125984249
11
6.1613865748031493
21
-2.1340637795275592
0
LINE
8
F.Cu
6
CONTINUOUS
10
6.1613865748031493
20
-2.1340637795275592
11
6.1685673228346456
21
-2.1304050000000001
0
LINE
8
F.Cu
6
CONTINUOUS
10
6.1685673228346456
20
-2.1304050000000001
11
6.1750873622047244
21
-2.1256679527559053
0
LINE
8
F.Cu
6
CONTINUOUS
10
6.1750873622047244
20
-2.1256679527559053
11
6.1807860629921256
21
-2.1199692519685041
0
LINE
8
F.Cu
6
CONTINUOUS
10
6.1807860629921256
20
-2.1199692519685041
11
6.18552311023622
21
-2.1134492125984252
0
LINE
8
F.Cu
6
CONTINUOUS
10
6.18552311023622
20
-2.1134492125984252
11
6.1891818897637796
21
-2.106268464566929
0
LINE
8
F.Cu
6
CONTINUOUS
10
6.1891818897637796
20
-2.106268464566929
11
6.1916723228346457
21
-2.0986037007874017
0
LINE
8
F.Cu
6
CONTINUOUS
10
6.1916723228346457
20
-2.0986037007874017
11
6.1929330708661414
21
-2.090643779527559
0
LINE
8
F.Cu
6
CONTINUOUS
10
6.1929330708661414
20
-2.090643779527559
11
6.1929330708661414
21
-2.0825845669291336
0
LINE
8
F.Cu
6
CONTINUOUS
10
6.1929330708661414
20
-2.0825845669291336
11
6.1916723228346457
21
-2.0746246456692914
0
LINE
8
F.Cu
6
CONTINUOUS
10
6.1916723228346457
20
-2.0746246456692914
11
6.1891818897637796
21
-2.0669598818897637
0
LINE
8
F.Cu
6
CONTINUOUS
10
6.1891818897637796
20
-2.0669598818897637
11
6.18552311023622
21
-2.0597791338582678
0
LINE
8
F.Cu
6
CONTINUOUS
10
6.18552311023622
20
-2.0597791338582678
11
6.1807860629921256
21
-2.053259094488189
0
LINE
8
F.Cu
6
CONTINUOUS
10
6.1807860629921256
20
-2.053259094488189
11
6.1750873622047244
21
-2.0475603937007874
0
LINE
8
F.Cu
6
CONTINUOUS
10
6.1750873622047244
20
-2.0475603937007874
11
6.1718273228346456
21
-2.0451918503937008
0
LINE
8
F.Cu
6
CONTINUOUS
10
6.1718273228346456
20
-2.0451918503937008
11
6.1685674015748031
21
-2.0428233858267717
0
LINE
8
F.Cu
6
CONTINUOUS
10
6.1685674015748031
20
-2.0428233858267717
11
6.1685672047244093
21
-2.0428232677165354
0
LINE
8
F.Cu
6
CONTINUOUS
10
6.1685672047244093
20
-2.0428232677165354
11
6.1651451574803149
21
-2.0410796456692912
0
LINE
8
F.Cu
6
CONTINUOUS
10
6.1651451574803149
20
-2.0410796456692912
11
6.1613865354330706
21
-2.0391645275590551
0
LINE
8
F.Cu
6
CONTINUOUS
10
6.6856999212598422
20
-1.969488188976378
11
6.6890722440944881
21
-1.971576220472441
0
LINE
8
F.Cu
6
CONTINUOUS
10
6.6890722440944881
20
-1.971576220472441
11
6.6916792913385823
21
-1.9750285039370079
0
LINE
8
F.Cu
6
CONTINUOUS
10
6.6916792913385823
20
-1.9750285039370079
11
6.6919291338582676
21
-1.9759065748031495
0
LINE
8
F.Cu
6
CONTINUOUS
10
6.6919291338582676
20
-1.9759065748031495
11
6.6919291338582676
21
-1.969488188976378
0
LINE
8
F.Cu
6
CONTINUOUS
10
6.6919291338582676
20
-1.969488188976378
11
6.6856999212598422
21
-1.969488188976378
0
LINE
8
F.Cu
6
CONTINUOUS
10
5.9064960629921259
20
-1.969488188976378
11
5.9064960629921259
21
-1.9757174015748031
0
LINE
8
F.Cu
6
CONTINUOUS
10
5.9064960629921259
20
-1.9757174015748031
11
5.9085840944881891
21
-1.9723450787401575
0
LINE
8
F.Cu
6
CONTINUOUS
10
5.9085840944881891
20
-1.9723450787401575
11
5.9120363779527558
21
-1.9697380314960629
0
LINE
8
F.Cu
6
CONTINUOUS
10
5.9120363779527558
20
-1.9697380314960629
11
5.9129144881889761
21
-1.969488188976378
0
LINE
8
F.Cu
6
CONTINUOUS
10
5.9129144881889761
20
-1.969488188976378
11
5.9064960629921259
21
-1.969488188976378
0
LINE
8
F.Cu
6
CONTINUOUS
10
6.5728346456692908
20
-2.061023622047244
11
6.6003937007874018
21
-2.061023622047244
0
LINE
8
F.Cu
6
CONTINUOUS
10
6.6003937007874018
20
-2.061023622047244
11
6.6003937007874018
21
-2.0433070866141732
0
LINE
8
F.Cu
6
CONTINUOUS
10
6.6003937007874018
20
-2.0433070866141732
11
6.6181102362204722
21
-2.0433070866141732
0
LINE
8
F.Cu
6
CONTINUOUS
10
6.6181102362204722
20
-2.0433070866141732
11
6.6181102362204722
21
-2.015748031496063
0
LINE
8
F.Cu
6
CONTINUOUS
10
6.6181102362204722
20
-2.015748031496063
11
6.5981667716535428
21
-2.015748031496063
0
LINE
8
F.Cu
6
CONTINUOUS
10
6.5981667716535428
20
-2.015748031496063
11
6.5981665748031491
21
-2.0157480708661417
0
LINE
8
F.Cu
6
CONTINUOUS
10
6.5981665748031491
20
-2.0157480708661417
11
6.59538937007874
21
-2.0160003543307088
0
LINE
8
F.Cu
6
CONTINUOUS
10
6.59538937007874
20
-2.0160003543307088
11
6.5890000393700783
21
-2.0179913779527561
0
LINE
8
F.Cu
6
CONTINUOUS
10
6.5890000393700783
20
-2.0179913779527561
11
6.5889999606299208
21
-2.0179914173228344
0
LINE
8
F.Cu
6
CONTINUOUS
10
6.5889999606299208
20
-2.0179914173228344
11
6.583272834645669
21
-2.0214535826771654
0
LINE
8
F.Cu
6
CONTINUOUS
10
6.583272834645669
20
-2.0214535826771654
11
6.5785401968503932
21
-2.0261862204724408
0
LINE
8
F.Cu
6
CONTINUOUS
10
6.5785401968503932
20
-2.0261862204724408
11
6.5750780708661418
21
-2.0319132677165355
0
LINE
8
F.Cu
6
CONTINUOUS
10
6.5750780708661418
20
-2.0319132677165355
11
6.5730869685039366
21
-2.0383029527559056
0
LINE
8
F.Cu
6
CONTINUOUS
10
6.5730869685039366
20
-2.0383029527559056
11
6.5730869685039366
21
-2.0383030314960631
0
LINE
8
F.Cu
6
CONTINUOUS
10
6.5730869685039366
20
-2.0383030314960631
11
6.5728346456692908
21
-2.0410796456692912
0
LINE
8
F.Cu
6
CONTINUOUS
10
6.5728346456692908
20
-2.0410796456692912
11
6.5728346456692908
21
-2.061023622047244
  0
ENDSEC
  0
EOF
