%TF.GenerationSoftware,KiCad,Pcbnew,10.0.0*%
%TF.CreationDate,2026-04-10T00:53:23-04:00*%
%TF.ProjectId,lcr,6c63722e-6b69-4636-9164-5f7063625858,rev?*%
%TF.SameCoordinates,Original*%
%TF.FileFunction,Copper,L2,Inr*%
%TF.FilePolarity,Positive*%
%FSLAX46Y46*%
G04 Gerber Fmt 4.6, Leading zero omitted, Abs format (unit mm)*
G04 Created by KiCad (PCBNEW 10.0.0) date 2026-04-10 00:53:23*
%MOMM*%
%LPD*%
G01*
G04 APERTURE LIST*
G04 Aperture macros list*
%AMRoundRect*
0 Rectangle with rounded corners*
0 $1 Rounding radius*
0 $2 $3 $4 $5 $6 $7 $8 $9 X,Y pos of 4 corners*
0 Add a 4 corners polygon primitive as box body*
4,1,4,$2,$3,$4,$5,$6,$7,$8,$9,$2,$3,0*
0 Add four circle primitives for the rounded corners*
1,1,$1+$1,$2,$3*
1,1,$1+$1,$4,$5*
1,1,$1+$1,$6,$7*
1,1,$1+$1,$8,$9*
0 Add four rect primitives between the rounded corners*
20,1,$1+$1,$2,$3,$4,$5,0*
20,1,$1+$1,$4,$5,$6,$7,0*
20,1,$1+$1,$6,$7,$8,$9,0*
20,1,$1+$1,$8,$9,$2,$3,0*%
G04 Aperture macros list end*
%TA.AperFunction,ComponentPad*%
%ADD10O,2.500000X1.600000*%
%TD*%
%TA.AperFunction,ComponentPad*%
%ADD11O,7.000000X3.500000*%
%TD*%
%TA.AperFunction,ComponentPad*%
%ADD12C,2.600000*%
%TD*%
%TA.AperFunction,ComponentPad*%
%ADD13RoundRect,0.250000X1.050000X-1.050000X1.050000X1.050000X-1.050000X1.050000X-1.050000X-1.050000X0*%
%TD*%
%TA.AperFunction,ComponentPad*%
%ADD14O,4.200000X2.000000*%
%TD*%
%TA.AperFunction,ComponentPad*%
%ADD15O,2.000000X4.200000*%
%TD*%
%TA.AperFunction,ComponentPad*%
%ADD16R,2.000000X4.600000*%
%TD*%
%TA.AperFunction,ComponentPad*%
%ADD17C,1.700000*%
%TD*%
%TA.AperFunction,ComponentPad*%
%ADD18R,1.700000X1.700000*%
%TD*%
%TA.AperFunction,ComponentPad*%
%ADD19C,3.600000*%
%TD*%
%TA.AperFunction,ComponentPad*%
%ADD20R,1.300000X1.300000*%
%TD*%
%TA.AperFunction,ComponentPad*%
%ADD21C,1.300000*%
%TD*%
%TA.AperFunction,ViaPad*%
%ADD22C,0.600000*%
%TD*%
G04 APERTURE END LIST*
D10*
%TO.N,Net-(J3-In)*%
%TO.C,J3*%
X113080000Y-111400000D03*
D11*
%TO.N,GND*%
X108000000Y-116480000D03*
D10*
X113080000Y-113940000D03*
D11*
X108000000Y-106320000D03*
%TD*%
D12*
%TO.N,GND*%
%TO.C,J6*%
X194372500Y-117965000D03*
D13*
%TO.N,Net-(J6-Pin_1)*%
X194372500Y-123045000D03*
%TD*%
D14*
%TO.N,GND*%
%TO.C,J7*%
X188150000Y-129850000D03*
D15*
X191550000Y-134650000D03*
D16*
%TO.N,Net-(J6-Pin_1)*%
X185250000Y-134650000D03*
%TD*%
D17*
%TO.N,/sig_buf*%
%TO.C,JP1*%
X178800000Y-136560000D03*
D18*
%TO.N,/sig_conn*%
X178800000Y-134020000D03*
%TD*%
D11*
%TO.N,GND*%
%TO.C,J4*%
X108000000Y-127920000D03*
D10*
X113080000Y-135540000D03*
D11*
X108000000Y-138080000D03*
D10*
%TO.N,Net-(J4-In)*%
X113080000Y-133000000D03*
%TD*%
D11*
%TO.N,GND*%
%TO.C,J1*%
X108000000Y-63120000D03*
D10*
X113080000Y-70740000D03*
D11*
X108000000Y-73280000D03*
D10*
%TO.N,Net-(J1-In)*%
X113080000Y-68200000D03*
%TD*%
D11*
%TO.N,GND*%
%TO.C,J2*%
X108000000Y-84720000D03*
D10*
X113080000Y-92340000D03*
D11*
X108000000Y-94880000D03*
D10*
%TO.N,Net-(J2-In)*%
X113080000Y-89800000D03*
%TD*%
D19*
%TO.N,unconnected-(H3-Pad1)_2*%
%TO.C,H3*%
X104000000Y-146000000D03*
%TD*%
%TO.N,unconnected-(H2-Pad1)_2*%
%TO.C,H2*%
X196000000Y-54000000D03*
%TD*%
%TO.N,unconnected-(H1-Pad1)_1*%
%TO.C,H1*%
X104000000Y-54000000D03*
%TD*%
%TO.N,unconnected-(H4-Pad1)_1*%
%TO.C,H4*%
X196000000Y-146000000D03*
%TD*%
D18*
%TO.N,/BTN1*%
%TO.C,J8*%
X151340000Y-54400000D03*
D17*
%TO.N,/BTN2*%
X148800000Y-54400000D03*
%TO.N,/BTN3*%
X146260000Y-54400000D03*
%TO.N,/BTN4*%
X143720000Y-54400000D03*
%TO.N,/BTN5*%
X141180000Y-54400000D03*
%TO.N,/BTN6*%
X138640000Y-54400000D03*
%TO.N,/BTN7*%
X136100000Y-54400000D03*
%TO.N,/BTN8*%
X133560000Y-54400000D03*
%TO.N,GND*%
X131020000Y-54400000D03*
%TD*%
D18*
%TO.N,+5VD*%
%TO.C,J9*%
X189820000Y-54400000D03*
D17*
%TO.N,GND*%
X187280000Y-54400000D03*
%TO.N,/DISP_CS*%
X184740000Y-54400000D03*
%TO.N,/DISP_RESET*%
X182200000Y-54400000D03*
%TO.N,/DISP_DC*%
X179660000Y-54400000D03*
%TO.N,/DISP_MOSI*%
X177120000Y-54400000D03*
%TO.N,/DISP_SCK*%
X174580000Y-54400000D03*
%TO.N,Net-(J9-Pin_8)*%
X172040000Y-54400000D03*
%TO.N,/DISP_MISO*%
X169500000Y-54400000D03*
%TO.N,/DISP_SCK*%
X166960000Y-54400000D03*
%TO.N,/DISP_T_CS*%
X164420000Y-54400000D03*
%TO.N,/DISP_MOSI*%
X161880000Y-54400000D03*
%TO.N,/DISP_MISO*%
X159340000Y-54400000D03*
%TO.N,/DISP_T_IRQ*%
X156800000Y-54400000D03*
%TD*%
D18*
%TO.N,GND*%
%TO.C,U6*%
X197675000Y-60780000D03*
D17*
%TO.N,unconnected-(U6-0_RX1_CRX2_CS1-Pad2)*%
X195135000Y-60780000D03*
%TO.N,unconnected-(U6-1_TX1_CTX2_MISO1-Pad3)*%
X192595000Y-60780000D03*
%TO.N,CODEC_RST*%
X190055000Y-60780000D03*
%TO.N,/DISP_T_IRQ*%
X187515000Y-60780000D03*
%TO.N,/DISP_T_CS*%
X184975000Y-60780000D03*
%TO.N,/DISP_RESET*%
X182435000Y-60780000D03*
%TO.N,unconnected-(U6-6_OUT1D-Pad8)*%
X179895000Y-60780000D03*
%TO.N,SDOUT*%
X177355000Y-60780000D03*
%TO.N,SDIN*%
X174815000Y-60780000D03*
%TO.N,/DISP_DC*%
X172275000Y-60780000D03*
%TO.N,/DISP_CS*%
X169735000Y-60780000D03*
%TO.N,/DISP_MOSI*%
X167195000Y-60780000D03*
%TO.N,/DISP_MISO*%
X164655000Y-60780000D03*
%TO.N,+3.3V*%
X162115000Y-60780000D03*
%TO.N,unconnected-(U6-24_A10_TX6_SCL2-Pad16)*%
X159575000Y-60780000D03*
%TO.N,unconnected-(U6-25_A11_RX6_SDA2-Pad17)*%
X157035000Y-60780000D03*
%TO.N,RSEL_0*%
X154495000Y-60780000D03*
%TO.N,RSEL_1*%
X151955000Y-60780000D03*
%TO.N,PGA_I_0*%
X149415000Y-60780000D03*
%TO.N,PGA_I_1*%
X146875000Y-60780000D03*
%TO.N,PGA_V_0*%
X144335000Y-60780000D03*
%TO.N,PGA_V_1*%
X141795000Y-60780000D03*
%TO.N,unconnected-(U6-32_OUT1B-Pad24)*%
X139255000Y-60780000D03*
%TO.N,/BTN8*%
X139255000Y-76020000D03*
%TO.N,/BTN7*%
X141795000Y-76020000D03*
%TO.N,/BTN6*%
X144335000Y-76020000D03*
%TO.N,/BTN5*%
X146875000Y-76020000D03*
%TO.N,/BTN4*%
X149415000Y-76020000D03*
%TO.N,/BTN3*%
X151955000Y-76020000D03*
%TO.N,/BTN2*%
X154495000Y-76020000D03*
%TO.N,/BTN1*%
X157035000Y-76020000D03*
%TO.N,unconnected-(U6-41_A17-Pad33)*%
X159575000Y-76020000D03*
%TO.N,GND*%
X162115000Y-76020000D03*
%TO.N,/DISP_SCK*%
X164655000Y-76020000D03*
%TO.N,unconnected-(U6-14_A0_TX3_SPDIF_OUT-Pad36)*%
X167195000Y-76020000D03*
%TO.N,unconnected-(U6-15_A1_RX3_SPDIF_IN-Pad37)*%
X169735000Y-76020000D03*
%TO.N,unconnected-(U6-16_A2_RX4_SCL1-Pad38)*%
X172275000Y-76020000D03*
%TO.N,unconnected-(U6-17_A3_TX4_SDA1-Pad39)*%
X174815000Y-76020000D03*
%TO.N,SDA*%
X177355000Y-76020000D03*
%TO.N,SCL*%
X179895000Y-76020000D03*
%TO.N,LRCLK*%
X182435000Y-76020000D03*
%TO.N,BCLK*%
X184975000Y-76020000D03*
%TO.N,unconnected-(U6-22_A8_CTX1-Pad44)*%
X187515000Y-76020000D03*
%TO.N,MCLK*%
X190055000Y-76020000D03*
%TO.N,+3.3V*%
X192595000Y-76020000D03*
%TO.N,GND*%
X195135000Y-76020000D03*
%TO.N,+5VD*%
X197675000Y-76020000D03*
%TO.N,unconnected-(U6-VUSB-Pad49)*%
X195135000Y-73480000D03*
%TO.N,unconnected-(U6-VBAT-Pad50)*%
X151955000Y-63320000D03*
%TO.N,unconnected-(U6-3V3-Pad51)*%
X151955000Y-65860000D03*
%TO.N,unconnected-(U6-GND-Pad52)*%
X151955000Y-68400000D03*
%TO.N,unconnected-(U6-PROGRAM-Pad53)*%
X151955000Y-70940000D03*
%TO.N,unconnected-(U6-ON_OFF-Pad54)*%
X151955000Y-73480000D03*
D18*
%TO.N,unconnected-(U6-5V-Pad55)*%
X191375800Y-63830800D03*
D17*
%TO.N,unconnected-(U6-D--Pad56)*%
X188835800Y-63830800D03*
%TO.N,unconnected-(U6-D+-Pad57)*%
X186295800Y-63830800D03*
%TO.N,unconnected-(U6-GND-Pad58)*%
X183755800Y-63830800D03*
%TO.N,unconnected-(U6-GND-Pad59)*%
X181215800Y-63830800D03*
D20*
%TO.N,unconnected-(U6-R+-Pad60)*%
X184705000Y-73581600D03*
D21*
%TO.N,unconnected-(U6-LED-Pad61)*%
X184705000Y-71581600D03*
%TO.N,unconnected-(U6-T--Pad62)*%
X184705000Y-69581600D03*
%TO.N,unconnected-(U6-T+-Pad63)*%
X182705000Y-69581600D03*
%TO.N,unconnected-(U6-GND-Pad64)*%
X182705000Y-71581600D03*
%TO.N,unconnected-(U6-R--Pad65)*%
X182705000Y-73581600D03*
%TO.N,unconnected-(U6-D--Pad66)*%
X196945000Y-69670000D03*
%TO.N,unconnected-(U6-D+-Pad67)*%
X196945000Y-67130000D03*
%TD*%
D22*
%TO.N,Net-(D9-K-Pad1)*%
X121100000Y-105300000D03*
X128200000Y-112600000D03*
%TO.N,Net-(D10-K-Pad1)*%
X120700000Y-100200000D03*
X140300000Y-112300000D03*
%TO.N,SCL*%
X144825000Y-84737500D03*
%TO.N,SDA*%
X143925000Y-84737500D03*
%TO.N,CODEC_RST*%
X143025000Y-84737500D03*
%TO.N,SDOUT*%
X147950000Y-84800000D03*
%TO.N,/TIA_FB*%
X134931250Y-134600000D03*
%TO.N,/TIA_OUT*%
X138443750Y-137550000D03*
%TO.N,/TIA_FB*%
X152131250Y-114000000D03*
%TO.N,/TIA_OUT*%
X168731250Y-115100000D03*
%TO.N,+5VA*%
X126675000Y-72225000D03*
%TO.N,GND*%
X127325000Y-62375000D03*
%TO.N,RSEL_0*%
X127300000Y-61100000D03*
%TO.N,GND*%
X134118750Y-142500000D03*
%TO.N,RSEL_0*%
X132018750Y-140200000D03*
%TO.N,RSEL_1*%
X138518750Y-141300000D03*
%TO.N,VMID*%
X143093750Y-138512500D03*
%TO.N,+5VA*%
X136693750Y-130900000D03*
%TO.N,GND*%
X134293750Y-128025000D03*
X138106250Y-109500000D03*
X132193750Y-130900000D03*
X134606250Y-106200000D03*
%TO.N,Net-(U14-Y1)*%
X130593750Y-127500000D03*
%TO.N,Net-(U15-+)*%
X133406250Y-109100000D03*
%TO.N,PGA_V_0*%
X140093750Y-128600000D03*
%TO.N,+5VA*%
X134706250Y-118300000D03*
X135556250Y-107150000D03*
%TO.N,GND*%
X138306250Y-113300000D03*
%TO.N,Net-(U14-Y1)*%
X126993750Y-123900000D03*
%TO.N,GND*%
X135806250Y-120100000D03*
%TO.N,Net-(U15-+)*%
X136018750Y-109387500D03*
%TO.N,+5VA*%
X139793750Y-122800000D03*
%TO.N,PGA_V_1*%
X136993750Y-128300000D03*
%TO.N,GND*%
X157243750Y-130800000D03*
X159656250Y-106100000D03*
X163156250Y-109400000D03*
%TO.N,+5VA*%
X160606250Y-107050000D03*
%TO.N,GND*%
X159343750Y-127925000D03*
%TO.N,Net-(U4-Y1)*%
X152043750Y-123800000D03*
%TO.N,PGA_I_0*%
X165087500Y-128443750D03*
%TO.N,Net-(U4-Y1)*%
X155643750Y-127400000D03*
%TO.N,+5VA*%
X161743750Y-130800000D03*
X159756250Y-118200000D03*
%TO.N,Net-(U2-+)*%
X158456250Y-109000000D03*
X161068750Y-109287500D03*
%TO.N,GND*%
X163356250Y-113200000D03*
X160856250Y-120000000D03*
%TO.N,+5VA*%
X164843750Y-122700000D03*
%TO.N,PGA_I_1*%
X162043750Y-128200000D03*
%TO.N,+5VA*%
X128700000Y-99012500D03*
X127900000Y-89312500D03*
%TD*%
M02*
