%TF.GenerationSoftware,KiCad,Pcbnew,10.0.0*%
%TF.CreationDate,2026-04-10T00:53:24-04:00*%
%TF.ProjectId,lcr,6c63722e-6b69-4636-9164-5f7063625858,rev?*%
%TF.SameCoordinates,Original*%
%TF.FileFunction,Soldermask,Bot*%
%TF.FilePolarity,Negative*%
%FSLAX46Y46*%
G04 Gerber Fmt 4.6, Leading zero omitted, Abs format (unit mm)*
G04 Created by KiCad (PCBNEW 10.0.0) date 2026-04-10 00:53:24*
%MOMM*%
%LPD*%
G01*
G04 APERTURE LIST*
G04 Aperture macros list*
%AMRoundRect*
0 Rectangle with rounded corners*
0 $1 Rounding radius*
0 $2 $3 $4 $5 $6 $7 $8 $9 X,Y pos of 4 corners*
0 Add a 4 corners polygon primitive as box body*
4,1,4,$2,$3,$4,$5,$6,$7,$8,$9,$2,$3,0*
0 Add four circle primitives for the rounded corners*
1,1,$1+$1,$2,$3*
1,1,$1+$1,$4,$5*
1,1,$1+$1,$6,$7*
1,1,$1+$1,$8,$9*
0 Add four rect primitives between the rounded corners*
20,1,$1+$1,$2,$3,$4,$5,0*
20,1,$1+$1,$4,$5,$6,$7,0*
20,1,$1+$1,$6,$7,$8,$9,0*
20,1,$1+$1,$8,$9,$2,$3,0*%
G04 Aperture macros list end*
%ADD10O,2.500000X1.600000*%
%ADD11O,7.000000X3.500000*%
%ADD12C,2.600000*%
%ADD13RoundRect,0.250000X1.050000X-1.050000X1.050000X1.050000X-1.050000X1.050000X-1.050000X-1.050000X0*%
%ADD14O,4.200000X2.000000*%
%ADD15O,2.000000X4.200000*%
%ADD16R,2.000000X4.600000*%
%ADD17C,1.700000*%
%ADD18R,1.700000X1.700000*%
%ADD19C,5.500000*%
%ADD20C,3.600000*%
%ADD21R,1.300000X1.300000*%
%ADD22C,1.300000*%
G04 APERTURE END LIST*
D10*
%TO.C,J3*%
X113080000Y-111400000D03*
D11*
X108000000Y-116480000D03*
D10*
X113080000Y-113940000D03*
D11*
X108000000Y-106320000D03*
%TD*%
D12*
%TO.C,J6*%
X194372500Y-117965000D03*
D13*
X194372500Y-123045000D03*
%TD*%
D14*
%TO.C,J7*%
X188150000Y-129850000D03*
D15*
X191550000Y-134650000D03*
D16*
X185250000Y-134650000D03*
%TD*%
D17*
%TO.C,JP1*%
X178800000Y-136560000D03*
D18*
X178800000Y-134020000D03*
%TD*%
D11*
%TO.C,J4*%
X108000000Y-127920000D03*
D10*
X113080000Y-135540000D03*
D11*
X108000000Y-138080000D03*
D10*
X113080000Y-133000000D03*
%TD*%
D11*
%TO.C,J1*%
X108000000Y-63120000D03*
D10*
X113080000Y-70740000D03*
D11*
X108000000Y-73280000D03*
D10*
X113080000Y-68200000D03*
%TD*%
D11*
%TO.C,J2*%
X108000000Y-84720000D03*
D10*
X113080000Y-92340000D03*
D11*
X108000000Y-94880000D03*
D10*
X113080000Y-89800000D03*
%TD*%
D19*
%TO.C,H3*%
X104000000Y-146000000D03*
D20*
X104000000Y-146000000D03*
%TD*%
D19*
%TO.C,H2*%
X196000000Y-54000000D03*
D20*
X196000000Y-54000000D03*
%TD*%
D19*
%TO.C,H1*%
X104000000Y-54000000D03*
D20*
X104000000Y-54000000D03*
%TD*%
D19*
%TO.C,H4*%
X196000000Y-146000000D03*
D20*
X196000000Y-146000000D03*
%TD*%
D18*
%TO.C,J8*%
X151340000Y-54400000D03*
D17*
X148800000Y-54400000D03*
X146260000Y-54400000D03*
X143720000Y-54400000D03*
X141180000Y-54400000D03*
X138640000Y-54400000D03*
X136100000Y-54400000D03*
X133560000Y-54400000D03*
X131020000Y-54400000D03*
%TD*%
D18*
%TO.C,J9*%
X189820000Y-54400000D03*
D17*
X187280000Y-54400000D03*
X184740000Y-54400000D03*
X182200000Y-54400000D03*
X179660000Y-54400000D03*
X177120000Y-54400000D03*
X174580000Y-54400000D03*
X172040000Y-54400000D03*
X169500000Y-54400000D03*
X166960000Y-54400000D03*
X164420000Y-54400000D03*
X161880000Y-54400000D03*
X159340000Y-54400000D03*
X156800000Y-54400000D03*
%TD*%
D18*
%TO.C,U6*%
X197675000Y-60780000D03*
D17*
X195135000Y-60780000D03*
X192595000Y-60780000D03*
X190055000Y-60780000D03*
X187515000Y-60780000D03*
X184975000Y-60780000D03*
X182435000Y-60780000D03*
X179895000Y-60780000D03*
X177355000Y-60780000D03*
X174815000Y-60780000D03*
X172275000Y-60780000D03*
X169735000Y-60780000D03*
X167195000Y-60780000D03*
X164655000Y-60780000D03*
X162115000Y-60780000D03*
X159575000Y-60780000D03*
X157035000Y-60780000D03*
X154495000Y-60780000D03*
X151955000Y-60780000D03*
X149415000Y-60780000D03*
X146875000Y-60780000D03*
X144335000Y-60780000D03*
X141795000Y-60780000D03*
X139255000Y-60780000D03*
X139255000Y-76020000D03*
X141795000Y-76020000D03*
X144335000Y-76020000D03*
X146875000Y-76020000D03*
X149415000Y-76020000D03*
X151955000Y-76020000D03*
X154495000Y-76020000D03*
X157035000Y-76020000D03*
X159575000Y-76020000D03*
X162115000Y-76020000D03*
X164655000Y-76020000D03*
X167195000Y-76020000D03*
X169735000Y-76020000D03*
X172275000Y-76020000D03*
X174815000Y-76020000D03*
X177355000Y-76020000D03*
X179895000Y-76020000D03*
X182435000Y-76020000D03*
X184975000Y-76020000D03*
X187515000Y-76020000D03*
X190055000Y-76020000D03*
X192595000Y-76020000D03*
X195135000Y-76020000D03*
X197675000Y-76020000D03*
X195135000Y-73480000D03*
X151955000Y-63320000D03*
X151955000Y-65860000D03*
X151955000Y-68400000D03*
X151955000Y-70940000D03*
X151955000Y-73480000D03*
D18*
X191375800Y-63830800D03*
D17*
X188835800Y-63830800D03*
X186295800Y-63830800D03*
X183755800Y-63830800D03*
X181215800Y-63830800D03*
D21*
X184705000Y-73581600D03*
D22*
X184705000Y-71581600D03*
X184705000Y-69581600D03*
X182705000Y-69581600D03*
X182705000Y-71581600D03*
X182705000Y-73581600D03*
X196945000Y-69670000D03*
X196945000Y-67130000D03*
%TD*%
M02*
