  0
SECTION
  2
HEADER
  9
$ACADVER
  1
AC1015
  9
$ACADMAINTVER
 70
     6
  9
$DWGCODEPAGE
  3
ANSI_1252
  9
$INSBASE
 10
0.0
 20
0.0
 30
0.0
  9
$EXTMIN
 10
-1295.1949865503
 20
-899.3698768491
 30
0.0
  9
$EXTMAX
 10
-1204.1949865503
 20
-779.3697241682
 30
0.0
  9
$LIMMIN
 10
0.0
 20
0.0
  9
$LIMMAX
 10
420.0
 20
297.0
  9
$ORTHOMODE
 70
     0
  9
$REGENMODE
 70
     1
  9
$FILLMODE
 70
     1
  9
$QTEXTMODE
 70
     0
  9
$MIRRTEXT
 70
     0
  9
$LTSCALE
 40
1.0
  9
$ATTMODE
 70
     1
  9
$TEXTSIZE
 40
3.5
  9
$TRACEWID
 40
1.0
  9
$TEXTSTYLE
  7
Standard
  9
$CLAYER
  8
0
  9
$CELTYPE
  6
ByLayer
  9
$CECOLOR
 62
   256
  9
$CELTSCALE
 40
1.0
  9
$DISPSILH
 70
     0
  9
$DIMSCALE
 40
1.0
  9
$DIMASZ
 40
3.302
  9
$DIMEXO
 40
0.0
  9
$DIMDLI
 40
3.75
  9
$DIMRND
 40
0.0
  9
$DIMDLE
 40
0.0
  9
$DIMEXE
 40
1.0
  9
$DIMTP
 40
0.0
  9
$DIMTM
 40
0.0
  9
$DIMTXT
 40
3.5
  9
$DIMCEN
 40
2.5
  9
$DIMTSZ
 40
0.0
  9
$DIMTOL
 70
     0
  9
$DIMLIM
 70
     0
  9
$DIMTIH
 70
     1
  9
$DIMTOH
 70
     1
  9
$DIMSE1
 70
     0
  9
$DIMSE2
 70
     0
  9
$DIMTAD
 70
     1
  9
$DIMZIN
 70
     1
  9
$DIMBLK
  1

  9
$DIMASO
 70
     1
  9
$DIMSHO
 70
     1
  9
$DIMPOST
  1

  9
$DIMAPOST
  1

  9
$DIMALT
 70
     0
  9
$DIMALTD
 70
     3
  9
$DIMALTF
 40
0.0393700787
  9
$DIMLFAC
 40
1.0
  9
$DIMTOFL
 70
     1
  9
$DIMTVP
 40
0.0
  9
$DIMTIX
 70
     0
  9
$DIMSOXD
 70
     0
  9
$DIMSAH
 70
     0
  9
$DIMBLK1
  1

  9
$DIMBLK2
  1

  9
$DIMSTYLE
  2
ISO-25
  9
$DIMCLRD
 70
     0
  9
$DIMCLRE
 70
     0
  9
$DIMCLRT
 70
     0
  9
$DIMTFAC
 40
1.0
  9
$DIMGAP
 40
1.524
  9
$DIMJUST
 70
     0
  9
$DIMSD1
 70
     0
  9
$DIMSD2
 70
     0
  9
$DIMTOLJ
 70
     0
  9
$DIMTZIN
 70
     1
  9
$DIMALTZ
 70
     0
  9
$DIMALTTZ
 70
     0
  9
$DIMUPT
 70
     0
  9
$DIMDEC
 70
     2
  9
$DIMTDEC
 70
     2
  9
$DIMALTU
 70
     2
  9
$DIMALTTD
 70
     3
  9
$DIMTXSTY
  7
Standard
  9
$DIMAUNIT
 70
     0
  9
$DIMADEC
 70
     2
  9
$DIMALTRND
 40
0.0
  9
$DIMAZIN
 70
     0
  9
$DIMDSEP
 70
    44
  9
$DIMATFIT
 70
     3
  9
$DIMFRAC
 70
     0
  9
$DIMLDRBLK
  1

  9
$DIMLUNIT
 70
     2
  9
$DIMLWD
 70
    -2
  9
$DIMLWE
 70
    -2
  9
$DIMTMOVE
 70
     0
  9
$LUNITS
 70
     2
  9
$LUPREC
 70
     2
  9
$SKETCHINC
 40
1.0
  9
$FILLETRAD
 40
0.0
  9
$AUNITS
 70
     0
  9
$AUPREC
 70
     2
  9
$MENU
  1
.
  9
$ELEVATION
 40
0.0
  9
$PELEVATION
 40
0.0
  9
$THICKNESS
 40
0.0
  9
$LIMCHECK
 70
     0
  9
$CHAMFERA
 40
0.0
  9
$CHAMFERB
 40
0.0
  9
$CHAMFERC
 40
0.0
  9
$CHAMFERD
 40
0.0
  9
$SKPOLY
 70
     0
  9
$TDCREATE
 40
2461306.943474595
  9
$TDUCREATE
 40
2461307.110141262
  9
$TDUPDATE
 40
2461306.943503183
  9
$TDUUPDATE
 40
2461307.11016985
  9
$TDINDWG
 40
0.0000000116
  9
$TDUSRTIMER
 40
0.0000000116
  9
$USRTIMER
 70
     1
  9
$ANGBASE
 50
0.0
  9
$ANGDIR
 70
     0
  9
$PDMODE
 70
     0
  9
$PDSIZE
 40
-1.0
  9
$PLINEWID
 40
0.0
  9
$SPLFRAME
 70
     0
  9
$SPLINETYPE
 70
     6
  9
$SPLINESEGS
 70
     8
  9
$HANDSEED
  5
A3
  9
$SURFTAB1
 70
     6
  9
$SURFTAB2
 70
     6
  9
$SURFTYPE
 70
     6
  9
$SURFU
 70
     6
  9
$SURFV
 70
     6
  9
$UCSBASE
  2

  9
$UCSNAME
  2

  9
$UCSORG
 10
0.0
 20
0.0
 30
0.0
  9
$UCSXDIR
 10
1.0
 20
0.0
 30
0.0
  9
$UCSYDIR
 10
0.0
 20
1.0
 30
0.0
  9
$UCSORTHOREF
  2

  9
$UCSORTHOVIEW
 70
     0
  9
$UCSORGTOP
 10
0.0
 20
0.0
 30
0.0
  9
$UCSORGBOTTOM
 10
0.0
 20
0.0
 30
0.0
  9
$UCSORGLEFT
 10
0.0
 20
0.0
 30
0.0
  9
$UCSORGRIGHT
 10
0.0
 20
0.0
 30
0.0
  9
$UCSORGFRONT
 10
0.0
 20
0.0
 30
0.0
  9
$UCSORGBACK
 10
0.0
 20
0.0
 30
0.0
  9
$PUCSBASE
  2

  9
$PUCSNAME
  2

  9
$PUCSORG
 10
0.0
 20
0.0
 30
0.0
  9
$PUCSXDIR
 10
1.0
 20
0.0
 30
0.0
  9
$PUCSYDIR
 10
0.0
 20
1.0
 30
0.0
  9
$PUCSORTHOREF
  2

  9
$PUCSORTHOVIEW
 70
     0
  9
$PUCSORGTOP
 10
0.0
 20
0.0
 30
0.0
  9
$PUCSORGBOTTOM
 10
0.0
 20
0.0
 30
0.0
  9
$PUCSORGLEFT
 10
0.0
 20
0.0
 30
0.0
  9
$PUCSORGRIGHT
 10
0.0
 20
0.0
 30
0.0
  9
$PUCSORGFRONT
 10
0.0
 20
0.0
 30
0.0
  9
$PUCSORGBACK
 10
0.0
 20
0.0
 30
0.0
  9
$USERI1
 70
     0
  9
$USERI2
 70
     0
  9
$USERI3
 70
     0
  9
$USERI4
 70
     0
  9
$USERI5
 70
     0
  9
$USERR1
 40
0.0
  9
$USERR2
 40
0.0
  9
$USERR3
 40
0.0
  9
$USERR4
 40
0.0
  9
$USERR5
 40
0.0
  9
$WORLDVIEW
 70
     1
  9
$SHADEDGE
 70
     3
  9
$SHADEDIF
 70
    70
  9
$TILEMODE
 70
     1
  9
$MAXACTVP
 70
    64
  9
$PINSBASE
 10
0.0
 20
0.0
 30
0.0
  9
$PLIMCHECK
 70
     0
  9
$PEXTMIN
 10
1.0000000000E+20
 20
1.0000000000E+20
 30
1.0000000000E+20
  9
$PEXTMAX
 10
-1.0000000000E+20
 20
-1.0000000000E+20
 30
-1.0000000000E+20
  9
$PLIMMIN
 10
0.0
 20
0.0
  9
$PLIMMAX
 10
420.0
 20
297.0
  9
$UNITMODE
 70
     0
  9
$VISRETAIN
 70
     1
  9
$PLINEGEN
 70
     0
  9
$PSLTSCALE
 70
     1
  9
$TREEDEPTH
 70
  3020
  9
$CMLSTYLE
  2
Standard
  9
$CMLJUST
 70
     0
  9
$CMLSCALE
 40
20.0
  9
$PROXYGRAPHICS
 70
     1
  9
$MEASUREMENT
 70
     1
  9
$CELWEIGHT
370
    -1
  9
$ENDCAPS
280
     0
  9
$JOINSTYLE
280
     0
  9
$LWDISPLAY
290
     1
  9
$INSUNITS
 70
     4
  9
$HYPERLINKBASE
  1

  9
$STYLESHEET
  1

  9
$XEDIT
290
     1
  9
$CEPSNTYPE
380
     0
  9
$PSTYLEMODE
290
     1
  9
$FINGERPRINTGUID
  2
{c81932c8-8650-4551-aa35-dbe1aa97878c}
  9
$VERSIONGUID
  2
{FAEB1C32-E019-11D5-929B-00C0DF256EC4}
  9
$EXTNAMES
290
     1
  9
$PSVPSCALE
 40
0.0
  9
$OLESTARTUP
290
     0
  0
ENDSEC
  0
SECTION
  2
CLASSES
  0
CLASS
  1
ACDBDICTIONARYWDFLT
  2
AcDbDictionaryWithDefault
  3
ObjectDBX Classes
 90
        0
280
     0
281
     0
  0
CLASS
  1
VISUALSTYLE
  2
AcDbVisualStyle
  3
ObjectDBX Classes
 90
     4095
280
     0
281
     0
  0
CLASS
  1
MATERIAL
  2
AcDbMaterial
  3
ObjectDBX Classes
 90
     1153
280
     0
281
     0
  0
CLASS
  1
SCALE
  2
AcDbScale
  3
ObjectDBX Classes
 90
     1153
280
     0
281
     0
  0
CLASS
  1
TABLESTYLE
  2
AcDbTableStyle
  3
ObjectDBX Classes
 90
     4095
280
     0
281
     0
  0
CLASS
  1
MLEADERSTYLE
  2
AcDbMLeaderStyle
  3
ACDB_MLEADERSTYLE_CLASS
 90
     4095
280
     0
281
     0
  0
CLASS
  1
SUN
  2
AcDbSun
  3
SCENEOE
 90
     1153
280
     0
281
     0
  0
CLASS
  1
ACDBPLACEHOLDER
  2
AcDbPlaceHolder
  3
ObjectDBX Classes
 90
        0
280
     0
281
     0
  0
CLASS
  1
LAYOUT
  2
AcDbLayout
  3
ObjectDBX Classes
 90
        0
280
     0
281
     0
  0
ENDSEC
  0
SECTION
  2
TABLES
  0
TABLE
  2
VPORT
  5
8
330
0
100
AcDbSymbolTable
 70
     1
  0
VPORT
  5
29
330
8
100
AcDbSymbolTableRecord
100
AcDbViewportTableRecord
  2
*Active
 70
     0
 10
0.0
 20
0.0
 11
1.0
 21
1.0
 12
-1249.6949865503
 22
-839.3698005087
 13
0.0
 23
0.0
 14
10.0
 24
10.0
 15
10.0
 25
10.0
 16
0.0
 26
0.0
 36
1.0
 17
0.0
 27
0.0
 37
0.0
 40
122.4001557346
 41
0.7583323685
 42
50.0
 43
0.0
 44
0.0
 50
0.0
 51
0.0
 71
     0
 72
   100
 73
     1
 74
     3
 75
     0
 76
     0
 77
     0
 78
     0
281
     0
 65
     1
110
0.0
120
0.0
130
0.0
111
1.0
121
0.0
131
0.0
112
0.0
122
1.0
132
0.0
 79
     0
146
0.0
  0
ENDTAB
  0
TABLE
  2
LTYPE
  5
5
330
0
100
AcDbSymbolTable
 70
     6
  0
LTYPE
  5
14
330
5
100
AcDbSymbolTableRecord
100
AcDbLinetypeTableRecord
  2
ByBlock
 70
     0
  3

 72
    65
 73
     0
 40
0.0
  0
LTYPE
  5
15
330
5
100
AcDbSymbolTableRecord
100
AcDbLinetypeTableRecord
  2
ByLayer
 70
     0
  3

 72
    65
 73
     0
 40
0.0
  0
LTYPE
  5
16
330
5
100
AcDbSymbolTableRecord
100
AcDbLinetypeTableRecord
  2
Continuous
 70
     0
  3
Solid line
 72
    65
 73
     0
 40
0.0
  0
LTYPE
  5
5E
330
5
100
AcDbSymbolTableRecord
100
AcDbLinetypeTableRecord
  2
HIDDEN
 70
     0
  3
Hidden __ __ __ __ __ __ __ __ __ __ __ __ __ __
 72
    65
 73
     2
 40
1.905
 49
1.27
 74
     0
 49
-0.635
 74
     0
  0
LTYPE
  5
5F
330
5
100
AcDbSymbolTableRecord
100
AcDbLinetypeTableRecord
  2
PHANTOM
 70
     0
  3
Phantom ______  __  __  ______  __  __  ______
 72
    65
 73
     6
 40
12.7
 49
6.35
 74
     0
 49
-1.27
 74
     0
 49
1.27
 74
     0
 49
-1.27
 74
     0
 49
1.27
 74
     0
 49
-1.27
 74
     0
  0
LTYPE
  5
60
330
5
100
AcDbSymbolTableRecord
100
AcDbLinetypeTableRecord
  2
CENTER
 70
     0
  3
Center ____ _ ____ _ ____ _ ____ _ ____ _ ____
 72
    65
 73
     4
 40
10.16
 49
6.35
 74
     0
 49
-1.27
 74
     0
 49
1.27
 74
     0
 49
-1.27
 74
     0
  0
LTYPE
  5
61
330
5
100
AcDbSymbolTableRecord
100
AcDbLinetypeTableRecord
  2
CENTERX2
 70
     0
  3
Center (2x) ________  __  ________  __  _____
 72
    65
 73
     4
 40
20.32
 49
12.7
 74
     0
 49
-2.54
 74
     0
 49
2.54
 74
     0
 49
-2.54
 74
     0
  0
LTYPE
  5
62
330
5
100
AcDbSymbolTableRecord
100
AcDbLinetypeTableRecord
  2
DOT2
 70
     0
  3
Dot (.5x) ........................................
 72
    65
 73
     2
 40
0.635
 49
0.0
 74
     0
 49
-0.635
 74
     0
  0
ENDTAB
  0
TABLE
  2
LAYER
  5
2
330
0
100
AcDbSymbolTable
 70
     1
  0
LAYER
  5
10
330
2
100
AcDbSymbolTableRecord
100
AcDbLayerTableRecord
  2
0
 70
     0
 62
     7
  6
Continuous
370
    -3
390
F
  0
ENDTAB
  0
TABLE
  2
STYLE
  5
3
330
0
100
AcDbSymbolTable
 70
     2
  0
STYLE
  5
11
330
3
100
AcDbSymbolTableRecord
100
AcDbTextStyleTableRecord
  2
Standard
 70
     0
 40
0.0
 41
1.0
 50
0.0
 71
     0
 42
3.5
  3
txt
  4

  0
STYLE
  5
9F
330
3
100
AcDbSymbolTableRecord
100
AcDbTextStyleTableRecord
  2
SLDTEXTSTYLE0
 70
     0
 40
0.0
 41
0.7
 50
0.0
 71
     0
 42
3.5
  3
TXT
  4

  0
ENDTAB
  0
TABLE
  2
VIEW
  5
6
330
0
100
AcDbSymbolTable
 70
     0
  0
ENDTAB
  0
TABLE
  2
UCS
  5
7
330
0
100
AcDbSymbolTable
 70
     0
  0
ENDTAB
  0
TABLE
  2
APPID
  5
9
330
0
100
AcDbSymbolTable
 70
     1
  0
APPID
  5
12
330
9
100
AcDbSymbolTableRecord
100
AcDbRegAppTableRecord
  2
ACAD
 70
     0
  0
ENDTAB
  0
TABLE
  2
DIMSTYLE
  5
A
330
0
100
AcDbSymbolTable
 70
     1
100
AcDbDimStyleTable
  0
DIMSTYLE
105
27
330
A
100
AcDbSymbolTableRecord
100
AcDbDimStyleTableRecord
  2
ISO-25
 70
     0
 41
2.5
 42
0.625
 43
3.75
 44
1.25
 73
     0
 74
     0
 77
     1
 78
     8
140
2.5
141
2.5
143
0.0393700787
147
0.625
171
     3
172
     1
178
     0
271
     2
272
     2
274
     3
278
    44
283
     0
284
     8
340
11
  0
ENDTAB
  0
TABLE
  2
BLOCK_RECORD
  5
1
330
0
100
AcDbSymbolTable
 70
     1
  0
BLOCK_RECORD
  5
1F
330
1
100
AcDbSymbolTableRecord
100
AcDbBlockTableRecord
  2
*Model_Space
340
22
  0
BLOCK_RECORD
  5
1B
330
1
100
AcDbSymbolTableRecord
100
AcDbBlockTableRecord
  2
*Paper_Space
340
1E
  0
BLOCK_RECORD
  5
23
330
1
100
AcDbSymbolTableRecord
100
AcDbBlockTableRecord
  2
*Paper_Space0
340
26
  0
ENDTAB
  0
ENDSEC
  0
SECTION
  2
BLOCKS
  0
BLOCK
  5
20
330
1F
100
AcDbEntity
  8
0
100
AcDbBlockBegin
  2
*Model_Space
 70
     0
 10
0.0
 20
0.0
 30
0.0
  3
*Model_Space
  1

  0
ENDBLK
  5
21
330
1F
100
AcDbEntity
  8
0
100
AcDbBlockEnd
  0
BLOCK
  5
1C
330
1B
100
AcDbEntity
 67
     1
  8
0
100
AcDbBlockBegin
  2
*Paper_Space
 70
     0
 10
0.0
 20
0.0
 30
0.0
  3
*Paper_Space
  1

  0
ENDBLK
  5
1D
330
1B
100
AcDbEntity
 67
     1
  8
0
100
AcDbBlockEnd
  0
BLOCK
  5
24
330
23
100
AcDbEntity
  8
0
100
AcDbBlockBegin
  2
*Paper_Space0
 70
     0
 10
0.0
 20
0.0
 30
0.0
  3
*Paper_Space0
  1

  0
ENDBLK
  5
25
330
23
100
AcDbEntity
  8
0
100
AcDbBlockEnd
  0
ENDSEC
  0
SECTION
  2
ENTITIES
  0
LINE
  5
63
330
1F
100
AcDbEntity
  8
0
  6
CENTERX2
 62
     7
100
AcDbLine
 10
-1272.2499865503
 20
-816.0698733491
 30
0.0
 11
-1272.2499865503
 21
-802.6698733864
 31
0.0
  0
LINE
  5
64
330
1F
100
AcDbEntity
  8
0
  6
CENTERX2
 62
     7
100
AcDbLine
 10
-1280.4999865503
 20
-816.0698733491
 30
0.0
 11
-1272.2499865503
 21
-816.0698733491
 31
0.0
  0
LINE
  5
65
330
1F
100
AcDbEntity
  8
0
  6
CENTERX2
 62
     7
100
AcDbLine
 10
-1280.4999865503
 20
-802.6698733864
 30
0.0
 11
-1272.2499865503
 21
-802.6698733864
 31
0.0
  0
LINE
  5
66
330
1F
100
AcDbEntity
  8
0
  6
CENTERX2
 62
     7
100
AcDbLine
 10
-1280.4999865503
 20
-822.6698733307
 30
0.0
 11
-1272.2499865503
 21
-822.6698733307
 31
0.0
  0
LINE
  5
67
330
1F
100
AcDbEntity
  8
0
  6
CENTERX2
 62
     7
100
AcDbLine
 10
-1272.2499865503
 20
-822.6698733307
 30
0.0
 11
-1272.2499865503
 21
-836.0698732934
 31
0.0
  0
LINE
  5
68
330
1F
100
AcDbEntity
  8
0
  6
CENTERX2
 62
     7
100
AcDbLine
 10
-1272.2499865503
 20
-836.0698732934
 30
0.0
 11
-1280.4999865503
 21
-836.0698732934
 31
0.0
  0
LINE
  5
69
330
1F
100
AcDbEntity
  8
0
  6
CENTERX2
 62
     7
100
AcDbLine
 10
-1280.4999865503
 20
-842.669873275
 30
0.0
 11
-1272.2499865503
 21
-842.669873275
 31
0.0
  0
LINE
  5
6A
330
1F
100
AcDbEntity
  8
0
  6
CENTERX2
 62
     7
100
AcDbLine
 10
-1272.2499865503
 20
-842.669873275
 30
0.0
 11
-1272.2499865503
 21
-856.0698732377
 31
0.0
  0
LINE
  5
6B
330
1F
100
AcDbEntity
  8
0
  6
CENTERX2
 62
     7
100
AcDbLine
 10
-1272.2499865503
 20
-856.0698732377
 30
0.0
 11
-1280.4999865503
 21
-856.0698732377
 31
0.0
  0
LINE
  5
6C
330
1F
100
AcDbEntity
  8
0
  6
CENTERX2
 62
     7
100
AcDbLine
 10
-1280.4999865503
 20
-809.3698733678
 30
0.0
 11
-1280.4999865503
 21
-816.0698733491
 31
0.0
  0
LINE
  5
6D
330
1F
100
AcDbEntity
  8
0
  6
CENTERX2
 62
     7
100
AcDbLine
 10
-1280.4999865503
 20
-809.3698733678
 30
0.0
 11
-1280.4999865503
 21
-802.6698733864
 31
0.0
  0
LINE
  5
6E
330
1F
100
AcDbEntity
  8
0
  6
CENTERX2
 62
     7
100
AcDbLine
 10
-1280.4999865503
 20
-829.3698733121
 30
0.0
 11
-1280.4999865503
 21
-822.6698733307
 31
0.0
  0
LINE
  5
6F
330
1F
100
AcDbEntity
  8
0
  6
CENTERX2
 62
     7
100
AcDbLine
 10
-1280.4999865503
 20
-829.3698733121
 30
0.0
 11
-1280.4999865503
 21
-836.0698732934
 31
0.0
  0
LINE
  5
70
330
1F
100
AcDbEntity
  8
0
  6
CENTERX2
 62
     7
100
AcDbLine
 10
-1280.4999865503
 20
-849.3698732563
 30
0.0
 11
-1280.4999865503
 21
-842.669873275
 31
0.0
  0
LINE
  5
71
330
1F
100
AcDbEntity
  8
0
  6
CENTERX2
 62
     7
100
AcDbLine
 10
-1280.4999865503
 20
-849.3698732563
 30
0.0
 11
-1280.4999865503
 21
-856.0698732377
 31
0.0
  0
LINE
  5
72
330
1F
100
AcDbEntity
  8
0
  6
CENTERX2
 62
     7
100
AcDbLine
 10
-1280.4999865503
 20
-869.3698732006
 30
0.0
 11
-1280.4999865503
 21
-862.6698732193
 31
0.0
  0
LINE
  5
73
330
1F
100
AcDbEntity
  8
0
  6
CENTERX2
 62
     7
100
AcDbLine
 10
-1280.4999865503
 20
-862.6698732193
 30
0.0
 11
-1272.2499865503
 21
-862.6698732193
 31
0.0
  0
LINE
  5
74
330
1F
100
AcDbEntity
  8
0
  6
CENTERX2
 62
     7
100
AcDbLine
 10
-1272.2499865503
 20
-862.6698732193
 30
0.0
 11
-1272.2499865503
 21
-876.069873182
 31
0.0
  0
LINE
  5
75
330
1F
100
AcDbEntity
  8
0
  6
CENTERX2
 62
     7
100
AcDbLine
 10
-1272.2499865503
 20
-876.069873182
 30
0.0
 11
-1280.4999865503
 21
-876.069873182
 31
0.0
  0
LINE
  5
76
330
1F
100
AcDbEntity
  8
0
  6
CENTERX2
 62
     7
100
AcDbLine
 10
-1280.4999865503
 20
-876.069873182
 30
0.0
 11
-1280.4999865503
 21
-869.3698732006
 31
0.0
  0
LWPOLYLINE
  5
77
330
1F
100
AcDbEntity
  8
0
  6
Continuous
 62
     7
100
AcDbPolyline
 90
       58
 70
   128
 43
0.0
 10
-1269.2499865503
 20
-812.9083348964
 10
-1269.2499865503
 20
-813.5357387408
 10
-1269.2499865503
 20
-813.5357387408
 10
-1269.2511884733
 20
-813.6601377789
 10
-1269.2553952041
 20
-813.7749214324
 10
-1269.262005781
 20
-813.8806906629
 10
-1269.2716211656
 20
-813.9768445088
 10
-1269.2842413579
 20
-814.0645848932
 10
-1269.2992653964
 20
-814.1421089314
 10
-1269.316693281
 20
-814.2106185466
 10
-1269.3371259733
 20
-814.2701137387
 10
-1269.3605634733
 20
-814.3235993155
 10
-1269.3876067426
 20
-814.3740800846
 10
-1269.418255781
 20
-814.421556046
 10
-1269.4525105887
 20
-814.4672291228
 10
-1269.4903711656
 20
-814.5098973919
 10
-1269.5318375118
 20
-814.5495608533
 10
-1269.5769096272
 20
-814.5868204686
 10
-1269.6255875118
 20
-814.6216762378
 10
-1269.6772702041
 20
-814.6529262377
 10
-1269.730755781
 20
-814.6799695068
 10
-1269.7872461656
 20
-814.7028060452
 10
-1269.8455394349
 20
-814.7214358529
 10
-1269.9062365503
 20
-814.7358589297
 10
-1269.9693375118
 20
-814.7460752759
 10
-1270.0342413579
 20
-814.7526858528
 10
-1270.1021500118
 20
-814.7544887374
 10
-1270.1021500118
 20
-814.7544887374
 10
-1270.1730634733
 20
-814.7520848912
 10
-1270.2409721272
 20
-814.7460752759
 10
-1270.3058759733
 20
-814.7352579682
 10
-1270.3677750118
 20
-814.7196329683
 10
-1270.4272702041
 20
-814.7004021991
 10
-1270.4831596272
 20
-814.6763637376
 10
-1270.5366452041
 20
-814.6481185454
 10
-1270.5865250118
 20
-814.6156666224
 10
-1270.6340009733
 20
-814.5790079686
 10
-1270.6778711656
 20
-814.5375416226
 10
-1270.7193375118
 20
-814.4918685458
 10
-1270.7571980887
 20
-814.4413877767
 10
-1270.7926548195
 20
-814.3867002769
 10
-1270.8251067426
 20
-814.3278060463
 10
-1270.8545538579
 20
-814.2647050849
 10
-1270.8809961656
 20
-814.1967964312
 10
-1270.8809961656
 20
-814.1967964312
 10
-1272.2499865503
 20
-814.8891041216
 10
-1272.2499865503
 20
-814.8891041216
 10
-1272.2499865503
 20
-814.290546431
 10
-1272.2499865503
 20
-814.290546431
 10
-1270.9422942426
 20
-813.6294887405
 10
-1270.9422942426
 20
-813.6294887405
 10
-1270.9422942426
 20
-813.4467964333
 10
-1270.9422942426
 20
-813.4467964333
 10
-1272.2499865503
 20
-813.4467964333
 10
-1272.2499865503
 20
-813.4467964333
 10
-1272.2499865503
 20
-812.9083348964
 10
-1272.2499865503
 20
-812.9083348964
 10
-1269.2499865503
 20
-812.9083348964
  0
LWPOLYLINE
  5
78
330
1F
100
AcDbEntity
  8
0
  6
Continuous
 62
     7
100
AcDbPolyline
 90
       40
 70
   128
 43
0.0
 10
-1270.4038327041
 20
-813.4467964333
 10
-1270.4038327041
 20
-813.6565320097
 10
-1270.4038327041
 20
-813.6565320097
 10
-1270.402630781
 20
-813.7334550864
 10
-1270.3996259733
 20
-813.8037675862
 10
-1270.3936163579
 20
-813.8680704706
 10
-1270.3858038579
 20
-813.9257627782
 10
-1270.3761884733
 20
-813.9774454703
 10
-1270.363568281
 20
-814.0231185471
 10
-1270.3491452041
 20
-814.0627820085
 10
-1270.332318281
 20
-814.0958348931
 10
-1270.3130875118
 20
-814.1240800853
 10
-1270.2908519349
 20
-814.1481185468
 10
-1270.2656115503
 20
-814.1691522006
 10
-1270.2373663579
 20
-814.1859791236
 10
-1270.2061163579
 20
-814.1992002774
 10
-1270.1718615503
 20
-814.2082147004
 10
-1270.1352028964
 20
-814.2142243158
 10
-1270.0949384733
 20
-814.2160272004
 10
-1270.0949384733
 20
-814.2160272004
 10
-1270.0474625118
 20
-814.2124214312
 10
-1270.0029913579
 20
-814.201003162
 10
-1269.9621259733
 20
-814.1823733544
 10
-1269.9242653964
 20
-814.1565320083
 10
-1269.8906115503
 20
-814.1240800853
 10
-1269.8617653964
 20
-814.08682047
 10
-1269.8383278964
 20
-814.0447531624
 10
-1269.8202990503
 20
-813.997277201
 10
-1269.8130875118
 20
-813.9696329703
 10
-1269.8064769349
 20
-813.9365800858
 10
-1269.801068281
 20
-813.898719509
 10
-1269.7962605887
 20
-813.8554502784
 10
-1269.7926548195
 20
-813.8067723939
 10
-1269.7902509733
 20
-813.7532868171
 10
-1269.7890490503
 20
-813.6943925865
 10
-1269.7884480887
 20
-813.6300897021
 10
-1269.7884480887
 20
-813.6300897021
 10
-1269.7884480887
 20
-813.4467964333
 10
-1269.7884480887
 20
-813.4467964333
 10
-1270.4038327041
 20
-813.4467964333
  0
LWPOLYLINE
  5
79
330
1F
100
AcDbEntity
  8
0
  6
Continuous
 62
     7
100
AcDbPolyline
 90
       92
 70
   128
 43
0.0
 10
-1269.2499865503
 20
-810.2544887499
 10
-1269.2499865503
 20
-810.7929502869
 10
-1269.2499865503
 20
-810.7929502869
 10
-1271.2019096272
 20
-810.7929502869
 10
-1271.2019096272
 20
-810.7929502869
 10
-1271.2626067426
 20
-810.7935512484
 10
-1271.3190971272
 20
-810.7959550946
 10
-1271.3701788579
 20
-810.7989599023
 10
-1271.4170538579
 20
-810.8037675945
 10
-1271.4597221272
 20
-810.8103781715
 10
-1271.4975827041
 20
-810.8175897099
 10
-1271.5306355887
 20
-810.8266041329
 10
-1271.558880781
 20
-810.8368204791
 10
-1271.6087605887
 20
-810.8620608636
 10
-1271.652630781
 20
-810.8951137481
 10
-1271.6922942426
 20
-810.9347772096
 10
-1271.7259480887
 20
-810.9816522094
 10
-1271.7529913579
 20
-811.0345368247
 10
-1271.7728230887
 20
-811.0928300937
 10
-1271.7842413579
 20
-811.1565320166
 10
-1271.7884480887
 20
-811.2250416318
 10
-1271.7884480887
 20
-811.2250416318
 10
-1271.7842413579
 20
-811.2977579778
 10
-1271.7710202041
 20
-811.3656666314
 10
-1271.7493855887
 20
-811.4281666313
 10
-1271.7187365503
 20
-811.4852579773
 10
-1271.6814769349
 20
-811.5357387464
 10
-1271.6394096272
 20
-811.5772050924
 10
-1271.5931355887
 20
-811.6108589385
 10
-1271.5414528964
 20
-811.636099323
 10
-1271.5114048195
 20
-811.6457147076
 10
-1271.4753471272
 20
-811.6541281691
 10
-1271.4332798195
 20
-811.6613397075
 10
-1271.3846019349
 20
-811.6673493229
 10
-1271.3305153964
 20
-811.6715560537
 10
-1271.269818281
 20
-811.6751618229
 10
-1271.2031115503
 20
-811.6769647075
 10
-1271.1303952041
 20
-811.677565669
 10
-1271.1303952041
 20
-811.677565669
 10
-1269.2499865503
 20
-811.677565669
 10
-1269.2499865503
 20
-811.677565669
 10
-1269.2499865503
 20
-812.216027206
 10
-1269.2499865503
 20
-812.216027206
 10
-1271.0396500118
 20
-812.216027206
 10
-1271.0396500118
 20
-812.216027206
 10
-1271.1484240503
 20
-812.2154262445
 10
-1271.2487846272
 20
-812.2130223983
 10
-1271.340130781
 20
-812.2088156676
 10
-1271.4230634733
 20
-812.2034070137
 10
-1271.4969817426
 20
-812.1967964368
 10
-1271.5624865503
 20
-812.1883829753
 10
-1271.6195778964
 20
-812.1781666292
 10
-1271.6676548195
 20
-812.16674836
 10
-1271.7547942426
 20
-812.1367002831
 10
-1271.840130781
 20
-812.0952339371
 10
-1271.9242653964
 20
-812.0423493219
 10
-1272.0065971272
 20
-811.978647399
 10
-1272.0829192426
 20
-811.9065320146
 10
-1272.1490250118
 20
-811.8290079763
 10
-1272.2043134733
 20
-811.7466762458
 10
-1272.2487846272
 20
-811.6589358614
 10
-1272.2830394349
 20
-811.5645849001
 10
-1272.3070778964
 20
-811.4624214389
 10
-1272.3221019349
 20
-811.3536474007
 10
-1272.3269096272
 20
-811.2370608626
 10
-1272.3269096272
 20
-811.2370608626
 10
-1272.324505781
 20
-811.1595368243
 10
-1272.3172942426
 20
-811.0844166322
 10
-1272.3058759733
 20
-811.0123012478
 10
-1272.2896500118
 20
-810.9425897095
 10
-1272.2686163579
 20
-810.8752820174
 10
-1272.2427750118
 20
-810.8103781715
 10
-1272.2121259733
 20
-810.7484791332
 10
-1272.1772702041
 20
-810.688983941
 10
-1272.1388086656
 20
-810.6324935566
 10
-1272.0973423195
 20
-810.5802099029
 10
-1272.0540730887
 20
-810.5321329799
 10
-1272.0084000118
 20
-810.4882627877
 10
-1271.9603230887
 20
-810.4485993263
 10
-1271.9098423195
 20
-810.4131425956
 10
-1271.8569577041
 20
-810.3818925957
 10
-1271.8016692426
 20
-810.3548493266
 10
-1271.7403711656
 20
-810.3314118266
 10
-1271.6694577041
 20
-810.3109791344
 10
-1271.5889288579
 20
-810.2935512498
 10
-1271.4981836656
 20
-810.2797291345
 10
-1271.3984240503
 20
-810.2683108653
 10
-1271.2884480887
 20
-810.2604983653
 10
-1271.1688567426
 20
-810.2562916345
 10
-1271.0396500118
 20
-810.2544887499
 10
-1271.0396500118
 20
-810.2544887499
 10
-1269.2499865503
 20
-810.2544887499
  0
LWPOLYLINE
  5
7A
330
1F
100
AcDbEntity
  8
0
  6
Continuous
 62
     7
100
AcDbPolyline
 90
      144
 70
   128
 43
0.0
 10
-1269.7704192426
 20
-809.716027213
 10
-1270.1478230887
 20
-809.3211954833
 10
-1270.1478230887
 20
-809.3211954833
 10
-1270.0456596272
 20
-809.219032022
 10
-1269.9567173195
 20
-809.1132627916
 10
-1269.8821980887
 20
-809.0050897149
 10
-1269.8202990503
 20
-808.8933108691
 10
-1269.7728230887
 20
-808.7785272156
 10
-1269.738568281
 20
-808.6601377928
 10
-1269.7181355887
 20
-808.5393445239
 10
-1269.7115250118
 20
-808.4149454858
 10
-1269.7115250118
 20
-808.4149454858
 10
-1269.7163327041
 20
-808.31097914
 10
-1269.7301548195
 20
-808.2106185633
 10
-1269.7535923195
 20
-808.115065679
 10
-1269.7860442426
 20
-808.0237195254
 10
-1269.8281115503
 20
-807.935979141
 10
-1269.879193281
 20
-807.8530464489
 10
-1269.9398903964
 20
-807.7737195261
 10
-1270.0096019349
 20
-807.6992002955
 10
-1270.0859240503
 20
-807.6312916418
 10
-1270.1670538579
 20
-807.5717964497
 10
-1270.2523903964
 20
-807.5219166421
 10
-1270.3419336656
 20
-807.4810512576
 10
-1270.4356836656
 20
-807.4492002962
 10
-1270.5342413579
 20
-807.4263637578
 10
-1270.637005781
 20
-807.413142604
 10
-1270.7439769349
 20
-807.4083349117
 10
-1270.7439769349
 20
-807.4083349117
 10
-1270.8190971272
 20
-807.4101377963
 10
-1270.8918134733
 20
-807.4161474117
 10
-1270.9627269349
 20
-807.4263637578
 10
-1271.0312365503
 20
-807.4407868347
 10
-1271.0973423195
 20
-807.4588156808
 10
-1271.1616452041
 20
-807.4810512576
 10
-1271.2241452041
 20
-807.5074935653
 10
-1271.2842413579
 20
-807.5375416421
 10
-1271.3413327041
 20
-807.5711954882
 10
-1271.3954192426
 20
-807.6084551034
 10
-1271.4465009733
 20
-807.6493204879
 10
-1271.4945778964
 20
-807.6925897186
 10
-1271.5390490503
 20
-807.74006568
 10
-1271.5805153964
 20
-807.7905464491
 10
-1271.6189769349
 20
-807.8446329874
 10
-1271.6544336656
 20
-807.9017243334
 10
-1271.6856836656
 20
-807.9612195255
 10
-1271.7133278964
 20
-808.0225176023
 10
-1271.7361644349
 20
-808.0856185637
 10
-1271.7547942426
 20
-808.1505224096
 10
-1271.769818281
 20
-808.2166281787
 10
-1271.7800346272
 20
-808.2845368323
 10
-1271.7866452041
 20
-808.3542483706
 10
-1271.7884480887
 20
-808.4251618319
 10
-1271.7884480887
 20
-808.4251618319
 10
-1271.7824384733
 20
-808.5453541393
 10
-1271.7650105887
 20
-808.6601377928
 10
-1271.7355634733
 20
-808.7701137541
 10
-1271.6946980887
 20
-808.8746810615
 10
-1271.6688567426
 20
-808.9263637536
 10
-1271.6376067426
 20
-808.9786474073
 10
-1271.6021500118
 20
-809.0327339456
 10
-1271.5618855887
 20
-809.088022407
 10
-1271.5168134733
 20
-809.1445127915
 10
-1271.4663327041
 20
-809.202205099
 10
-1271.4116452041
 20
-809.2610993296
 10
-1271.3521500118
 20
-809.3211954833
 10
-1271.3521500118
 20
-809.3211954833
 10
-1271.754193281
 20
-809.7040079822
 10
-1271.754193281
 20
-809.7040079822
 10
-1271.8317173195
 20
-809.6228781748
 10
-1271.9032317426
 20
-809.5435512519
 10
-1271.9681355887
 20
-809.4648252906
 10
-1272.027630781
 20
-809.3873012523
 10
-1272.0805153964
 20
-809.3109791372
 10
-1272.1267894349
 20
-809.2358589451
 10
-1272.1676548195
 20
-809.1613397145
 10
-1272.2019096272
 20
-809.0886233686
 10
-1272.2313567426
 20
-809.0147050995
 10
-1272.2565971272
 20
-808.9383829844
 10
-1272.2782317426
 20
-808.859657023
 10
-1272.2956596272
 20
-808.7785272156
 10
-1272.3094817426
 20
-808.6943926004
 10
-1272.3190971272
 20
-808.6078541391
 10
-1272.3251067426
 20
-808.5189118317
 10
-1272.3269096272
 20
-808.4275656781
 10
-1272.3269096272
 20
-808.4275656781
 10
-1272.3196980887
 20
-808.2598974093
 10
-1272.2992653964
 20
-808.1006426021
 10
-1272.2644096272
 20
-807.9485993333
 10
-1272.2157317426
 20
-807.8043685644
 10
-1272.1532317426
 20
-807.6685512571
 10
-1272.0769096272
 20
-807.5399454883
 10
-1271.9867653964
 20
-807.4191522194
 10
-1271.8827990503
 20
-807.3061714504
 10
-1271.7680153964
 20
-807.2040079892
 10
-1271.6454192426
 20
-807.1150656817
 10
-1271.5144096272
 20
-807.0405464512
 10
-1271.3761884733
 20
-806.9786474129
 10
-1271.2301548195
 20
-806.9311714515
 10
-1271.0763086656
 20
-806.8969166439
 10
-1270.9146500118
 20
-806.8764839516
 10
-1270.7451788579
 20
-806.8698733747
 10
-1270.7451788579
 20
-806.8698733747
 10
-1270.6346019349
 20
-806.8728781824
 10
-1270.5264288579
 20
-806.882493567
 10
-1270.4224625118
 20
-806.898118567
 10
-1270.3209000118
 20
-806.9197531823
 10
-1270.222943281
 20
-806.947397413
 10
-1270.1273903964
 20
-806.9816522206
 10
-1270.0360442426
 20
-807.0219166435
 10
-1269.9471019349
 20
-807.0687916434
 10
-1269.8617653964
 20
-807.1210752971
 10
-1269.7812365503
 20
-807.1787676046
 10
-1269.7043134733
 20
-807.241868566
 10
-1269.6321980887
 20
-807.3103781812
 10
-1269.5642894349
 20
-807.3842964502
 10
-1269.5005875118
 20
-807.4630224115
 10
-1269.4410923195
 20
-807.5477579882
 10
-1269.3858038579
 20
-807.6379022187
 10
-1269.3359240503
 20
-807.731051257
 10
-1269.2926548195
 20
-807.8266041413
 10
-1269.2559961656
 20
-807.9233589487
 10
-1269.2259480887
 20
-808.0225176023
 10
-1269.2031115503
 20
-808.1228781789
 10
-1269.1862846272
 20
-808.2256426017
 10
-1269.1766692426
 20
-808.3296089476
 10
-1269.1730634733
 20
-808.4359791396
 10
-1269.1730634733
 20
-808.4359791396
 10
-1269.1754673195
 20
-808.5267243317
 10
-1269.1826788579
 20
-808.6162676006
 10
-1269.1946980887
 20
-808.7046089465
 10
-1269.2121259733
 20
-808.7929502925
 10
-1269.2337605887
 20
-808.8800897153
 10
-1269.2608038579
 20
-808.966027215
 10
-1269.2920538579
 20
-809.0513637533
 10
-1269.3287125118
 20
-809.13609933
 10
-1269.3695778964
 20
-809.219032022
 10
-1269.4146500118
 20
-809.2983589449
 10
-1269.4633278964
 20
-809.3752820216
 10
-1269.5168134733
 20
-809.4492002906
 10
-1269.5739048195
 20
-809.520113752
 10
-1269.6352028964
 20
-809.5886233672
 10
-1269.7007077041
 20
-809.6535272131
 10
-1269.7704192426
 20
-809.716027213
  0
LWPOLYLINE
  5
7B
330
1F
100
AcDbEntity
  8
0
  6
Continuous
 62
     7
100
AcDbPolyline
 90
       24
 70
   128
 43
0.0
 10
-1269.2499865503
 20
-804.2160272283
 10
-1269.2499865503
 20
-804.7544887652
 10
-1269.2499865503
 20
-804.7544887652
 10
-1270.4038327041
 20
-804.7544887652
 10
-1270.4038327041
 20
-804.7544887652
 10
-1270.4038327041
 20
-805.7929503008
 10
-1270.4038327041
 20
-805.7929503008
 10
-1269.2499865503
 20
-805.7929503008
 10
-1269.2499865503
 20
-805.7929503008
 10
-1269.2499865503
 20
-806.3314118378
 10
-1269.2499865503
 20
-806.3314118378
 10
-1272.2499865503
 20
-806.3314118378
 10
-1272.2499865503
 20
-806.3314118378
 10
-1272.2499865503
 20
-805.7929503008
 10
-1272.2499865503
 20
-805.7929503008
 10
-1270.9422942426
 20
-805.7929503008
 10
-1270.9422942426
 20
-805.7929503008
 10
-1270.9422942426
 20
-804.7544887652
 10
-1270.9422942426
 20
-804.7544887652
 10
-1272.2499865503
 20
-804.7544887652
 10
-1272.2499865503
 20
-804.7544887652
 10
-1272.2499865503
 20
-804.2160272283
 10
-1272.2499865503
 20
-804.2160272283
 10
-1269.2499865503
 20
-804.2160272283
  0
LWPOLYLINE
  5
7C
330
1F
100
AcDbEntity
  8
0
  6
Continuous
 62
     7
100
AcDbPolyline
 90
       24
 70
   128
 43
0.0
 10
-1269.2499865503
 20
-824.4083348643
 10
-1269.2499865503
 20
-824.9467964013
 10
-1269.2499865503
 20
-824.9467964013
 10
-1270.4038327041
 20
-824.9467964013
 10
-1270.4038327041
 20
-824.9467964013
 10
-1270.4038327041
 20
-825.9852579369
 10
-1270.4038327041
 20
-825.9852579369
 10
-1269.2499865503
 20
-825.9852579369
 10
-1269.2499865503
 20
-825.9852579369
 10
-1269.2499865503
 20
-826.5237194738
 10
-1269.2499865503
 20
-826.5237194738
 10
-1272.2499865503
 20
-826.5237194738
 10
-1272.2499865503
 20
-826.5237194738
 10
-1272.2499865503
 20
-825.9852579369
 10
-1272.2499865503
 20
-825.9852579369
 10
-1270.9422942426
 20
-825.9852579369
 10
-1270.9422942426
 20
-825.9852579369
 10
-1270.9422942426
 20
-824.9467964013
 10
-1270.9422942426
 20
-824.9467964013
 10
-1272.2499865503
 20
-824.9467964013
 10
-1272.2499865503
 20
-824.9467964013
 10
-1272.2499865503
 20
-824.4083348643
 10
-1272.2499865503
 20
-824.4083348643
 10
-1269.2499865503
 20
-824.4083348643
  0
LWPOLYLINE
  5
7D
330
1F
100
AcDbEntity
  8
0
  6
Continuous
 62
     7
100
AcDbPolyline
 90
       59
 70
   128
 43
0.0
 10
-1269.2499865503
 20
-827.2160271642
 10
-1269.2499865503
 20
-827.816988701
 10
-1269.2499865503
 20
-827.816988701
 10
-1269.2511884733
 20
-827.9347771622
 10
-1269.2553952041
 20
-828.0441521619
 10
-1269.2626067426
 20
-828.1445127385
 10
-1269.2722221272
 20
-828.2370608152
 10
-1269.2848423195
 20
-828.3205944688
 10
-1269.2998663579
 20
-828.3957146609
 10
-1269.3178952041
 20
-828.4624213915
 10
-1269.3389288579
 20
-828.5207146606
 10
-1269.3629673195
 20
-828.5729983143
 10
-1269.3900105887
 20
-828.6228781218
 10
-1269.4212605887
 20
-828.6697531217
 10
-1269.4549144349
 20
-828.7136233139
 10
-1269.4927750118
 20
-828.7544886984
 10
-1269.5336403964
 20
-828.7929502367
 10
-1269.5781115503
 20
-828.8284069674
 10
-1269.6261884733
 20
-828.8608588904
 10
-1269.6772702041
 20
-828.8903060057
 10
-1269.7301548195
 20
-828.9155463902
 10
-1269.7860442426
 20
-828.936580044
 10
-1269.8443375118
 20
-828.9540079286
 10
-1269.9050346272
 20
-828.9678300439
 10
-1269.9681355887
 20
-828.9774454285
 10
-1270.0342413579
 20
-828.9834550439
 10
-1270.1021500118
 20
-828.9852579285
 10
-1270.1021500118
 20
-828.9852579285
 10
-1270.1772702041
 20
-828.9828540824
 10
-1270.2493855887
 20
-828.9750415824
 10
-1270.3178952041
 20
-828.9618204286
 10
-1270.3834000118
 20
-828.9437915825
 10
-1270.4459000118
 20
-828.9203540825
 10
-1270.5047942426
 20
-828.8915079288
 10
-1270.5606836656
 20
-828.8578540827
 10
-1270.6129673195
 20
-828.8187915828
 10
-1270.6622461656
 20
-828.7749213906
 10
-1270.707318281
 20
-828.7280463908
 10
-1270.7481836656
 20
-828.6769646601
 10
-1270.785443281
 20
-828.6216761988
 10
-1270.8190971272
 20
-828.5633829297
 10
-1270.8491452041
 20
-828.5014838914
 10
-1270.8749865503
 20
-828.4353781224
 10
-1270.8966211656
 20
-828.3656665841
 10
-1270.8966211656
 20
-828.3656665841
 10
-1270.9074384733
 20
-828.3193925458
 10
-1270.9164528964
 20
-828.2647050459
 10
-1270.9242653964
 20
-828.201003123
 10
-1270.9308759733
 20
-828.1288877386
 10
-1270.9356836656
 20
-828.0483588927
 10
-1270.9392894349
 20
-827.9588156237
 10
-1270.941693281
 20
-827.8608588932
 10
-1270.9422942426
 20
-827.7544887012
 10
-1270.9422942426
 20
-827.7544887012
 10
-1272.2499865503
 20
-827.7544887012
 10
-1272.2499865503
 20
-827.7544887012
 10
-1272.2499865503
 20
-827.2160271642
 10
-1272.2499865503
 20
-827.2160271642
 10
-1269.2499865503
 20
-827.2160271642
  0
LWPOLYLINE
  5
7E
330
1F
100
AcDbEntity
  8
0
  6
Continuous
 62
     7
100
AcDbPolyline
 90
       37
 70
   128
 43
0.0
 10
-1270.4038327041
 20
-827.7544887012
 10
-1270.4038327041
 20
-827.9449935083
 10
-1270.4038327041
 20
-827.9449935083
 10
-1270.4020298195
 20
-828.0489598542
 10
-1270.3960202041
 20
-828.136099277
 10
-1270.3864048195
 20
-828.2058108153
 10
-1270.3731836656
 20
-828.258094469
 10
-1270.3551548195
 20
-828.299560815
 10
-1270.332318281
 20
-828.3362194688
 10
-1270.3046740503
 20
-828.3686713918
 10
-1270.2722221272
 20
-828.3963156225
 10
-1270.2349625118
 20
-828.4185511993
 10
-1270.1940971272
 20
-828.4341761993
 10
-1270.1496259733
 20
-828.4437915839
 10
-1270.1015490503
 20
-828.4467963916
 10
-1270.1015490503
 20
-828.4467963916
 10
-1270.0594817426
 20
-828.4443925454
 10
-1270.0204192426
 20
-828.4377819685
 10
-1269.9843615503
 20
-828.4269646608
 10
-1269.9507077041
 20
-828.4113396609
 10
-1269.9206596272
 20
-828.3915079302
 10
-1269.8936163579
 20
-828.3674694687
 10
-1269.8689769349
 20
-828.3386233149
 10
-1269.847943281
 20
-828.3055704304
 10
-1269.847943281
 20
-828.3055704304
 10
-1269.8341211656
 20
-828.2767242766
 10
-1269.8221019349
 20
-828.2430704306
 10
-1269.8118855887
 20
-828.2034069692
 10
-1269.8034721272
 20
-828.1583348539
 10
-1269.7968615503
 20
-828.1078540848
 10
-1269.7920538579
 20
-828.0519646619
 10
-1269.7896500118
 20
-827.9906665851
 10
-1269.7884480887
 20
-827.9239598545
 10
-1269.7884480887
 20
-827.9239598545
 10
-1269.7884480887
 20
-827.7544887012
 10
-1269.7884480887
 20
-827.7544887012
 10
-1270.4038327041
 20
-827.7544887012
  0
CIRCLE
  5
7F
330
1F
100
AcDbEntity
  8
0
  6
Continuous
 62
     7
100
AcDbCircle
 10
-1270.73935205
 20
-830.9652786302
 30
0.0
 40
1.566303156475622
  0
CIRCLE
  5
80
330
1F
100
AcDbEntity
  8
0
  6
Continuous
 62
     7
100
AcDbCircle
 10
-1270.7372361677
 20
-830.9688583492
 30
0.0
 40
1.025724515162031
  0
LWPOLYLINE
  5
81
330
1F
100
AcDbEntity
  8
0
  6
Continuous
 62
     7
100
AcDbPolyline
 90
       16
 70
   128
 43
0.0
 10
-1269.2499865503
 20
-832.7544886872
 10
-1269.2499865503
 20
-834.3698732981
 10
-1269.2499865503
 20
-834.3698732981
 10
-1269.7884480887
 20
-834.3698732981
 10
-1269.7884480887
 20
-834.3698732981
 10
-1269.7884480887
 20
-833.8314117612
 10
-1269.7884480887
 20
-833.8314117612
 10
-1272.2499865503
 20
-833.8314117612
 10
-1272.2499865503
 20
-833.8314117612
 10
-1272.2499865503
 20
-833.2929502242
 10
-1272.2499865503
 20
-833.2929502242
 10
-1269.7884480887
 20
-833.2929502242
 10
-1269.7884480887
 20
-833.2929502242
 10
-1269.7884480887
 20
-832.7544886872
 10
-1269.7884480887
 20
-832.7544886872
 10
-1269.2499865503
 20
-832.7544886872
  0
LWPOLYLINE
  5
82
330
1F
100
AcDbEntity
  8
0
  6
Continuous
 62
     7
100
AcDbPolyline
 90
       12
 70
   128
 43
0.0
 10
-1269.2499865503
 20
-844.8698732689
 10
-1269.2499865503
 20
-845.4083348058
 10
-1269.2499865503
 20
-845.4083348058
 10
-1271.7115250118
 20
-845.4083348058
 10
-1271.7115250118
 20
-845.4083348058
 10
-1271.7115250118
 20
-846.2544886496
 10
-1271.7115250118
 20
-846.2544886496
 10
-1272.2499865503
 20
-846.2544886496
 10
-1272.2499865503
 20
-846.2544886496
 10
-1272.2499865503
 20
-844.8698732689
 10
-1272.2499865503
 20
-844.8698732689
 10
-1269.2499865503
 20
-844.8698732689
  0
LWPOLYLINE
  5
83
330
1F
100
AcDbEntity
  8
0
  6
Continuous
 62
     7
100
AcDbPolyline
 90
       59
 70
   128
 43
0.0
 10
-1269.2499865503
 20
-846.7160271099
 10
-1269.2499865503
 20
-847.3169886467
 10
-1269.2499865503
 20
-847.3169886467
 10
-1269.2511884733
 20
-847.4347771079
 10
-1269.2553952041
 20
-847.5441521076
 10
-1269.2626067426
 20
-847.6445126842
 10
-1269.2722221272
 20
-847.7370607609
 10
-1269.2848423195
 20
-847.8205944145
 10
-1269.2998663579
 20
-847.8957146066
 10
-1269.3178952041
 20
-847.9624213372
 10
-1269.3389288579
 20
-848.0207146063
 10
-1269.3629673195
 20
-848.07299826
 10
-1269.3900105887
 20
-848.1228780675
 10
-1269.4212605887
 20
-848.1697530674
 10
-1269.4549144349
 20
-848.2136232596
 10
-1269.4927750118
 20
-848.2544886441
 10
-1269.5336403964
 20
-848.2929501824
 10
-1269.5781115503
 20
-848.3284069131
 10
-1269.6261884733
 20
-848.3608588361
 10
-1269.6772702041
 20
-848.3903059514
 10
-1269.7301548195
 20
-848.4155463359
 10
-1269.7860442426
 20
-848.4365799897
 10
-1269.8443375118
 20
-848.4540078743
 10
-1269.9050346272
 20
-848.4678299896
 10
-1269.9681355887
 20
-848.4774453742
 10
-1270.0342413579
 20
-848.4834549896
 10
-1270.1021500118
 20
-848.4852578742
 10
-1270.1021500118
 20
-848.4852578742
 10
-1270.1772702041
 20
-848.482854028
 10
-1270.2493855887
 20
-848.4750415281
 10
-1270.3178952041
 20
-848.4618203743
 10
-1270.3834000118
 20
-848.4437915282
 10
-1270.4459000118
 20
-848.4203540282
 10
-1270.5047942426
 20
-848.3915078745
 10
-1270.5606836656
 20
-848.3578540284
 10
-1270.6129673195
 20
-848.3187915285
 10
-1270.6622461656
 20
-848.2749213363
 10
-1270.707318281
 20
-848.2280463364
 10
-1270.7481836656
 20
-848.1769646058
 10
-1270.785443281
 20
-848.1216761444
 10
-1270.8190971272
 20
-848.0633828754
 10
-1270.8491452041
 20
-848.0014838371
 10
-1270.8749865503
 20
-847.935378068
 10
-1270.8966211656
 20
-847.8656665298
 10
-1270.8966211656
 20
-847.8656665298
 10
-1270.9074384733
 20
-847.8193924914
 10
-1270.9164528964
 20
-847.7647049916
 10
-1270.9242653964
 20
-847.7010030687
 10
-1270.9308759733
 20
-847.6288876843
 10
-1270.9356836656
 20
-847.5483588383
 10
-1270.9392894349
 20
-847.4588155694
 10
-1270.941693281
 20
-847.3608588389
 10
-1270.9422942426
 20
-847.2544886469
 10
-1270.9422942426
 20
-847.2544886469
 10
-1272.2499865503
 20
-847.2544886469
 10
-1272.2499865503
 20
-847.2544886469
 10
-1272.2499865503
 20
-846.7160271099
 10
-1272.2499865503
 20
-846.7160271099
 10
-1269.2499865503
 20
-846.7160271099
  0
LWPOLYLINE
  5
84
330
1F
100
AcDbEntity
  8
0
  6
Continuous
 62
     7
100
AcDbPolyline
 90
       37
 70
   128
 43
0.0
 10
-1270.4038327041
 20
-847.2544886469
 10
-1270.4038327041
 20
-847.444993454
 10
-1270.4038327041
 20
-847.444993454
 10
-1270.4020298195
 20
-847.5489597999
 10
-1270.3960202041
 20
-847.6360992227
 10
-1270.3864048195
 20
-847.705810761
 10
-1270.3731836656
 20
-847.7580944147
 10
-1270.3551548195
 20
-847.7995607607
 10
-1270.332318281
 20
-847.8362194145
 10
-1270.3046740503
 20
-847.8686713374
 10
-1270.2722221272
 20
-847.8963155681
 10
-1270.2349625118
 20
-847.918551145
 10
-1270.1940971272
 20
-847.934176145
 10
-1270.1496259733
 20
-847.9437915295
 10
-1270.1015490503
 20
-847.9467963372
 10
-1270.1015490503
 20
-847.9467963372
 10
-1270.0594817426
 20
-847.9443924911
 10
-1270.0204192426
 20
-847.9377819142
 10
-1269.9843615503
 20
-847.9269646065
 10
-1269.9507077041
 20
-847.9113396066
 10
-1269.9206596272
 20
-847.8915078758
 10
-1269.8936163579
 20
-847.8674694144
 10
-1269.8689769349
 20
-847.8386232606
 10
-1269.847943281
 20
-847.8055703761
 10
-1269.847943281
 20
-847.8055703761
 10
-1269.8341211656
 20
-847.7767242223
 10
-1269.8221019349
 20
-847.7430703763
 10
-1269.8118855887
 20
-847.7034069148
 10
-1269.8034721272
 20
-847.6583347996
 10
-1269.7968615503
 20
-847.6078540305
 10
-1269.7920538579
 20
-847.5519646076
 10
-1269.7896500118
 20
-847.4906665308
 10
-1269.7884480887
 20
-847.4239598002
 10
-1269.7884480887
 20
-847.4239598002
 10
-1269.7884480887
 20
-847.2544886469
 10
-1269.7884480887
 20
-847.2544886469
 10
-1270.4038327041
 20
-847.2544886469
  0
CIRCLE
  5
85
330
1F
100
AcDbEntity
  8
0
  6
Continuous
 62
     7
100
AcDbCircle
 10
-1270.73935205
 20
-850.4652785759
 30
0.0
 40
1.566303156476533
  0
CIRCLE
  5
86
330
1F
100
AcDbEntity
  8
0
  6
Continuous
 62
     7
100
AcDbCircle
 10
-1270.7372361677
 20
-850.4688582949
 30
0.0
 40
1.025724515161575
  0
LWPOLYLINE
  5
87
330
1F
100
AcDbEntity
  8
0
  6
Continuous
 62
     7
100
AcDbPolyline
 90
       16
 70
   128
 43
0.0
 10
-1269.2499865503
 20
-852.2544886329
 10
-1269.2499865503
 20
-853.8698732438
 10
-1269.2499865503
 20
-853.8698732438
 10
-1269.7884480887
 20
-853.8698732438
 10
-1269.7884480887
 20
-853.8698732438
 10
-1269.7884480887
 20
-853.3314117068
 10
-1269.7884480887
 20
-853.3314117068
 10
-1272.2499865503
 20
-853.3314117068
 10
-1272.2499865503
 20
-853.3314117068
 10
-1272.2499865503
 20
-852.7929501699
 10
-1272.2499865503
 20
-852.7929501699
 10
-1269.7884480887
 20
-852.7929501699
 10
-1269.7884480887
 20
-852.7929501699
 10
-1269.7884480887
 20
-852.2544886329
 10
-1269.7884480887
 20
-852.2544886329
 10
-1269.2499865503
 20
-852.2544886329
  0
LWPOLYLINE
  5
88
330
1F
100
AcDbEntity
  8
0
  6
Continuous
 62
     7
100
AcDbPolyline
 90
       12
 70
   128
 43
0.0
 10
-1269.2499865503
 20
-864.4467962913
 10
-1269.2499865503
 20
-864.9852578282
 10
-1269.2499865503
 20
-864.9852578282
 10
-1271.7115250118
 20
-864.9852578282
 10
-1271.7115250118
 20
-864.9852578282
 10
-1271.7115250118
 20
-865.831411672
 10
-1271.7115250118
 20
-865.831411672
 10
-1272.2499865503
 20
-865.831411672
 10
-1272.2499865503
 20
-865.831411672
 10
-1272.2499865503
 20
-864.4467962913
 10
-1272.2499865503
 20
-864.4467962913
 10
-1269.2499865503
 20
-864.4467962913
  0
LWPOLYLINE
  5
89
330
1F
100
AcDbEntity
  8
0
  6
Continuous
 62
     7
100
AcDbPolyline
 90
      144
 70
   128
 43
0.0
 10
-1269.7704192426
 20
-868.9852578171
 10
-1270.1478230887
 20
-868.5904260874
 10
-1270.1478230887
 20
-868.5904260874
 10
-1270.0456596272
 20
-868.4882626262
 10
-1269.9567173195
 20
-868.3824933957
 10
-1269.8821980887
 20
-868.2743203191
 10
-1269.8202990503
 20
-868.1625414732
 10
-1269.7728230887
 20
-868.0477578197
 10
-1269.738568281
 20
-867.9293683969
 10
-1269.7181355887
 20
-867.8085751281
 10
-1269.7115250118
 20
-867.6841760899
 10
-1269.7115250118
 20
-867.6841760899
 10
-1269.7163327041
 20
-867.5802097441
 10
-1269.7301548195
 20
-867.4798491674
 10
-1269.7535923195
 20
-867.3842962831
 10
-1269.7860442426
 20
-867.2929501295
 10
-1269.8281115503
 20
-867.2052097451
 10
-1269.879193281
 20
-867.122277053
 10
-1269.9398903964
 20
-867.0429501302
 10
-1270.0096019349
 20
-866.9684308996
 10
-1270.0859240503
 20
-866.900522246
 10
-1270.1670538579
 20
-866.8410270538
 10
-1270.2523903964
 20
-866.7911472463
 10
-1270.3419336656
 20
-866.7502818618
 10
-1270.4356836656
 20
-866.7184309003
 10
-1270.5342413579
 20
-866.6955943619
 10
-1270.637005781
 20
-866.6823732081
 10
-1270.7439769349
 20
-866.6775655158
 10
-1270.7439769349
 20
-866.6775655158
 10
-1270.8190971272
 20
-866.6793684004
 10
-1270.8918134733
 20
-866.6853780158
 10
-1270.9627269349
 20
-866.6955943619
 10
-1271.0312365503
 20
-866.7100174388
 10
-1271.0973423195
 20
-866.7280462849
 10
-1271.1616452041
 20
-866.7502818618
 10
-1271.2241452041
 20
-866.7767241694
 10
-1271.2842413579
 20
-866.8067722462
 10
-1271.3413327041
 20
-866.8404260923
 10
-1271.3954192426
 20
-866.8776857076
 10
-1271.4465009733
 20
-866.9185510921
 10
-1271.4945778964
 20
-866.9618203227
 10
-1271.5390490503
 20
-867.0092962841
 10
-1271.5805153964
 20
-867.0597770532
 10
-1271.6189769349
 20
-867.1138635915
 10
-1271.6544336656
 20
-867.1709549375
 10
-1271.6856836656
 20
-867.2304501297
 10
-1271.7133278964
 20
-867.2917482064
 10
-1271.7361644349
 20
-867.3548491678
 10
-1271.7547942426
 20
-867.4197530138
 10
-1271.769818281
 20
-867.4858587828
 10
-1271.7800346272
 20
-867.5537674365
 10
-1271.7866452041
 20
-867.6234789747
 10
-1271.7884480887
 20
-867.6943924361
 10
-1271.7884480887
 20
-867.6943924361
 10
-1271.7824384733
 20
-867.8145847434
 10
-1271.7650105887
 20
-867.9293683969
 10
-1271.7355634733
 20
-868.0393443582
 10
-1271.6946980887
 20
-868.1439116656
 10
-1271.6688567426
 20
-868.1955943577
 10
-1271.6376067426
 20
-868.2478780114
 10
-1271.6021500118
 20
-868.3019645498
 10
-1271.5618855887
 20
-868.3572530111
 10
-1271.5168134733
 20
-868.4137433956
 10
-1271.4663327041
 20
-868.4714357031
 10
-1271.4116452041
 20
-868.5303299337
 10
-1271.3521500118
 20
-868.5904260874
 10
-1271.3521500118
 20
-868.5904260874
 10
-1271.754193281
 20
-868.9732385863
 10
-1271.754193281
 20
-868.9732385863
 10
-1271.8317173195
 20
-868.8921087789
 10
-1271.9032317426
 20
-868.812781856
 10
-1271.9681355887
 20
-868.7340558947
 10
-1272.027630781
 20
-868.6565318565
 10
-1272.0805153964
 20
-868.5802097413
 10
-1272.1267894349
 20
-868.5050895492
 10
-1272.1676548195
 20
-868.4305703186
 10
-1272.2019096272
 20
-868.3578539727
 10
-1272.2313567426
 20
-868.2839357037
 10
-1272.2565971272
 20
-868.2076135885
 10
-1272.2782317426
 20
-868.1288876272
 10
-1272.2956596272
 20
-868.0477578197
 10
-1272.3094817426
 20
-867.9636232045
 10
-1272.3190971272
 20
-867.8770847432
 10
-1272.3251067426
 20
-867.7881424358
 10
-1272.3269096272
 20
-867.6967962822
 10
-1272.3269096272
 20
-867.6967962822
 10
-1272.3196980887
 20
-867.5291280134
 10
-1272.2992653964
 20
-867.3698732062
 10
-1272.2644096272
 20
-867.2178299374
 10
-1272.2157317426
 20
-867.0735991686
 10
-1272.1532317426
 20
-866.9377818613
 10
-1272.0769096272
 20
-866.8091760924
 10
-1271.9867653964
 20
-866.6883828235
 10
-1271.8827990503
 20
-866.5754020546
 10
-1271.7680153964
 20
-866.4732385933
 10
-1271.6454192426
 20
-866.3842962859
 10
-1271.5144096272
 20
-866.3097770553
 10
-1271.3761884733
 20
-866.247878017
 10
-1271.2301548195
 20
-866.2004020556
 10
-1271.0763086656
 20
-866.166147248
 10
-1270.9146500118
 20
-866.1457145558
 10
-1270.7451788579
 20
-866.1391039789
 10
-1270.7451788579
 20
-866.1391039789
 10
-1270.6346019349
 20
-866.1421087865
 10
-1270.5264288579
 20
-866.1517241711
 10
-1270.4224625118
 20
-866.1673491711
 10
-1270.3209000118
 20
-866.1889837864
 10
-1270.222943281
 20
-866.2166280171
 10
-1270.1273903964
 20
-866.2508828247
 10
-1270.0360442426
 20
-866.2911472477
 10
-1269.9471019349
 20
-866.3380222475
 10
-1269.8617653964
 20
-866.3903059012
 10
-1269.7812365503
 20
-866.4479982088
 10
-1269.7043134733
 20
-866.5110991701
 10
-1269.6321980887
 20
-866.5796087853
 10
-1269.5642894349
 20
-866.6535270543
 10
-1269.5005875118
 20
-866.7322530157
 10
-1269.4410923195
 20
-866.8169885924
 10
-1269.3858038579
 20
-866.9071328229
 10
-1269.3359240503
 20
-867.0002818611
 10
-1269.2926548195
 20
-867.0958347454
 10
-1269.2559961656
 20
-867.1925895528
 10
-1269.2259480887
 20
-867.2917482064
 10
-1269.2031115503
 20
-867.3921087831
 10
-1269.1862846272
 20
-867.4948732059
 10
-1269.1766692426
 20
-867.5988395517
 10
-1269.1730634733
 20
-867.7052097437
 10
-1269.1730634733
 20
-867.7052097437
 10
-1269.1754673195
 20
-867.7959549358
 10
-1269.1826788579
 20
-867.8854982048
 10
-1269.1946980887
 20
-867.9738395507
 10
-1269.2121259733
 20
-868.0621808966
 10
-1269.2337605887
 20
-868.1493203194
 10
-1269.2608038579
 20
-868.2352578192
 10
-1269.2920538579
 20
-868.3205943574
 10
-1269.3287125118
 20
-868.4053299341
 10
-1269.3695778964
 20
-868.4882626262
 10
-1269.4146500118
 20
-868.567589549
 10
-1269.4633278964
 20
-868.6445126257
 10
-1269.5168134733
 20
-868.7184308948
 10
-1269.5739048195
 20
-868.7893443561
 10
-1269.6352028964
 20
-868.8578539713
 10
-1269.7007077041
 20
-868.9227578173
 10
-1269.7704192426
 20
-868.9852578171
  0
LWPOLYLINE
  5
8A
330
1F
100
AcDbEntity
  8
0
  6
Continuous
 62
     7
100
AcDbPolyline
 90
       92
 70
   128
 43
0.0
 10
-1269.2499865503
 20
-869.523719354
 10
-1269.2499865503
 20
-870.062180891
 10
-1269.2499865503
 20
-870.062180891
 10
-1271.2019096272
 20
-870.062180891
 10
-1271.2019096272
 20
-870.062180891
 10
-1271.2626067426
 20
-870.0627818525
 10
-1271.3190971272
 20
-870.0651856987
 10
-1271.3701788579
 20
-870.0681905064
 10
-1271.4170538579
 20
-870.0729981987
 10
-1271.4597221272
 20
-870.0796087756
 10
-1271.4975827041
 20
-870.086820314
 10
-1271.5306355887
 20
-870.0958347371
 10
-1271.558880781
 20
-870.1060510832
 10
-1271.6087605887
 20
-870.1312914677
 10
-1271.652630781
 20
-870.1643443523
 10
-1271.6922942426
 20
-870.2040078137
 10
-1271.7259480887
 20
-870.2508828136
 10
-1271.7529913579
 20
-870.3037674288
 10
-1271.7728230887
 20
-870.3620606979
 10
-1271.7842413579
 20
-870.4257626208
 10
-1271.7884480887
 20
-870.494272236
 10
-1271.7884480887
 20
-870.494272236
 10
-1271.7842413579
 20
-870.5669885819
 10
-1271.7710202041
 20
-870.6348972356
 10
-1271.7493855887
 20
-870.6973972354
 10
-1271.7187365503
 20
-870.7544885814
 10
-1271.6814769349
 20
-870.8049693505
 10
-1271.6394096272
 20
-870.8464356965
 10
-1271.5931355887
 20
-870.8800895426
 10
-1271.5414528964
 20
-870.9053299271
 10
-1271.5114048195
 20
-870.9149453117
 10
-1271.4753471272
 20
-870.9233587732
 10
-1271.4332798195
 20
-870.9305703117
 10
-1271.3846019349
 20
-870.936579927
 10
-1271.3305153964
 20
-870.9407866578
 10
-1271.269818281
 20
-870.944392427
 10
-1271.2031115503
 20
-870.9461953116
 10
-1271.1303952041
 20
-870.9467962732
 10
-1271.1303952041
 20
-870.9467962732
 10
-1269.2499865503
 20
-870.9467962732
 10
-1269.2499865503
 20
-870.9467962732
 10
-1269.2499865503
 20
-871.4852578101
 10
-1269.2499865503
 20
-871.4852578101
 10
-1271.0396500118
 20
-871.4852578101
 10
-1271.0396500118
 20
-871.4852578101
 10
-1271.1484240503
 20
-871.4846568486
 10
-1271.2487846272
 20
-871.4822530024
 10
-1271.340130781
 20
-871.4780462717
 10
-1271.4230634733
 20
-871.4726376178
 10
-1271.4969817426
 20
-871.4660270409
 10
-1271.5624865503
 20
-871.4576135794
 10
-1271.6195778964
 20
-871.4473972333
 10
-1271.6676548195
 20
-871.4359789641
 10
-1271.7547942426
 20
-871.4059308873
 10
-1271.840130781
 20
-871.3644645412
 10
-1271.9242653964
 20
-871.311579926
 10
-1272.0065971272
 20
-871.2478780031
 10
-1272.0829192426
 20
-871.1757626187
 10
-1272.1490250118
 20
-871.0982385804
 10
-1272.2043134733
 20
-871.0159068499
 10
-1272.2487846272
 20
-870.9281664655
 10
-1272.2830394349
 20
-870.8338155042
 10
-1272.3070778964
 20
-870.731652043
 10
-1272.3221019349
 20
-870.6228780048
 10
-1272.3269096272
 20
-870.5062914667
 10
-1272.3269096272
 20
-870.5062914667
 10
-1272.324505781
 20
-870.4287674284
 10
-1272.3172942426
 20
-870.3536472364
 10
-1272.3058759733
 20
-870.2815318519
 10
-1272.2896500118
 20
-870.2118203137
 10
-1272.2686163579
 20
-870.1445126215
 10
-1272.2427750118
 20
-870.0796087756
 10
-1272.2121259733
 20
-870.0177097373
 10
-1272.1772702041
 20
-869.9582145451
 10
-1272.1388086656
 20
-869.9017241607
 10
-1272.0973423195
 20
-869.849440507
 10
-1272.0540730887
 20
-869.801363584
 10
-1272.0084000118
 20
-869.7574933919
 10
-1271.9603230887
 20
-869.7178299304
 10
-1271.9098423195
 20
-869.6823731998
 10
-1271.8569577041
 20
-869.6511231998
 10
-1271.8016692426
 20
-869.6240799307
 10
-1271.7403711656
 20
-869.6006424308
 10
-1271.6694577041
 20
-869.5802097385
 10
-1271.5889288579
 20
-869.5627818539
 10
-1271.4981836656
 20
-869.5489597386
 10
-1271.3984240503
 20
-869.5375414694
 10
-1271.2884480887
 20
-869.5297289694
 10
-1271.1688567426
 20
-869.5255222387
 10
-1271.0396500118
 20
-869.523719354
 10
-1271.0396500118
 20
-869.523719354
 10
-1269.2499865503
 20
-869.523719354
  0
LWPOLYLINE
  5
8B
330
1F
100
AcDbEntity
  8
0
  6
Continuous
 62
     7
100
AcDbPolyline
 90
       58
 70
   128
 43
0.0
 10
-1269.2499865503
 20
-872.1775655005
 10
-1269.2499865503
 20
-872.8049693449
 10
-1269.2499865503
 20
-872.8049693449
 10
-1269.2511884733
 20
-872.929368383
 10
-1269.2553952041
 20
-873.0441520365
 10
-1269.262005781
 20
-873.149921267
 10
-1269.2716211656
 20
-873.2460751129
 10
-1269.2842413579
 20
-873.3338154973
 10
-1269.2992653964
 20
-873.4113395355
 10
-1269.316693281
 20
-873.4798491507
 10
-1269.3371259733
 20
-873.5393443429
 10
-1269.3605634733
 20
-873.5928299196
 10
-1269.3876067426
 20
-873.6433106887
 10
-1269.418255781
 20
-873.6907866501
 10
-1269.4525105887
 20
-873.7364597269
 10
-1269.4903711656
 20
-873.779127996
 10
-1269.5318375118
 20
-873.8187914575
 10
-1269.5769096272
 20
-873.8560510727
 10
-1269.6255875118
 20
-873.8909068419
 10
-1269.6772702041
 20
-873.9221568418
 10
-1269.730755781
 20
-873.9492001109
 10
-1269.7872461656
 20
-873.9720366493
 10
-1269.8455394349
 20
-873.990666457
 10
-1269.9062365503
 20
-874.0050895339
 10
-1269.9693375118
 20
-874.01530588
 10
-1270.0342413579
 20
-874.0219164569
 10
-1270.1021500118
 20
-874.0237193415
 10
-1270.1021500118
 20
-874.0237193415
 10
-1270.1730634733
 20
-874.0213154954
 10
-1270.2409721272
 20
-874.01530588
 10
-1270.3058759733
 20
-874.0044885723
 10
-1270.3677750118
 20
-873.9888635724
 10
-1270.4272702041
 20
-873.9696328032
 10
-1270.4831596272
 20
-873.9455943417
 10
-1270.5366452041
 20
-873.9173491495
 10
-1270.5865250118
 20
-873.8848972265
 10
-1270.6340009733
 20
-873.8482385728
 10
-1270.6778711656
 20
-873.8067722267
 10
-1270.7193375118
 20
-873.7610991499
 10
-1270.7571980887
 20
-873.7106183808
 10
-1270.7926548195
 20
-873.655930881
 10
-1270.8251067426
 20
-873.5970366504
 10
-1270.8545538579
 20
-873.533935689
 10
-1270.8809961656
 20
-873.4660270354
 10
-1270.8809961656
 20
-873.4660270354
 10
-1272.2499865503
 20
-874.1583347258
 10
-1272.2499865503
 20
-874.1583347258
 10
-1272.2499865503
 20
-873.5597770351
 10
-1272.2499865503
 20
-873.5597770351
 10
-1270.9422942426
 20
-872.8987193446
 10
-1270.9422942426
 20
-872.8987193446
 10
-1270.9422942426
 20
-872.7160270375
 10
-1270.9422942426
 20
-872.7160270375
 10
-1272.2499865503
 20
-872.7160270375
 10
-1272.2499865503
 20
-872.7160270375
 10
-1272.2499865503
 20
-872.1775655005
 10
-1272.2499865503
 20
-872.1775655005
 10
-1269.2499865503
 20
-872.1775655005
  0
LWPOLYLINE
  5
8C
330
1F
100
AcDbEntity
  8
0
  6
Continuous
 62
     7
100
AcDbPolyline
 90
       40
 70
   128
 43
0.0
 10
-1270.4038327041
 20
-872.7160270375
 10
-1270.4038327041
 20
-872.9257626138
 10
-1270.4038327041
 20
-872.9257626138
 10
-1270.402630781
 20
-873.0026856905
 10
-1270.3996259733
 20
-873.0729981903
 10
-1270.3936163579
 20
-873.1373010747
 10
-1270.3858038579
 20
-873.1949933823
 10
-1270.3761884733
 20
-873.2466760744
 10
-1270.363568281
 20
-873.2923491512
 10
-1270.3491452041
 20
-873.3320126127
 10
-1270.332318281
 20
-873.3650654972
 10
-1270.3130875118
 20
-873.3933106894
 10
-1270.2908519349
 20
-873.4173491509
 10
-1270.2656115503
 20
-873.4383828047
 10
-1270.2373663579
 20
-873.4552097277
 10
-1270.2061163579
 20
-873.4684308815
 10
-1270.1718615503
 20
-873.4774453046
 10
-1270.1352028964
 20
-873.4834549199
 10
-1270.0949384733
 20
-873.4852578045
 10
-1270.0949384733
 20
-873.4852578045
 10
-1270.0474625118
 20
-873.4816520353
 10
-1270.0029913579
 20
-873.4702337661
 10
-1269.9621259733
 20
-873.4516039585
 10
-1269.9242653964
 20
-873.4257626124
 10
-1269.8906115503
 20
-873.3933106894
 10
-1269.8617653964
 20
-873.3560510741
 10
-1269.8383278964
 20
-873.3139837666
 10
-1269.8202990503
 20
-873.2665078052
 10
-1269.8130875118
 20
-873.2388635745
 10
-1269.8064769349
 20
-873.2058106899
 10
-1269.801068281
 20
-873.1679501131
 10
-1269.7962605887
 20
-873.1246808825
 10
-1269.7926548195
 20
-873.076002998
 10
-1269.7902509733
 20
-873.0225174212
 10
-1269.7890490503
 20
-872.9636231906
 10
-1269.7884480887
 20
-872.8993203062
 10
-1269.7884480887
 20
-872.8993203062
 10
-1269.7884480887
 20
-872.7160270375
 10
-1269.7884480887
 20
-872.7160270375
 10
-1270.4038327041
 20
-872.7160270375
  0
LINE
  5
98
330
1F
100
AcDbEntity
  8
0
  6
Continuous
 62
     7
370
    25
100
AcDbLine
 10
-1204.1949865503
 20
-899.3698768491
 30
0.0
 11
-1204.1949865503
 21
-779.3697241682
 31
0.0
  0
LINE
  5
99
330
1F
100
AcDbEntity
  8
0
  6
Continuous
 62
     7
370
    25
100
AcDbLine
 10
-1204.1949865503
 20
-779.3698771834
 30
0.0
 11
-1295.1949865503
 21
-779.3698771834
 31
0.0
  0
LINE
  5
9A
330
1F
100
AcDbEntity
  8
0
  6
Continuous
 62
     7
370
    25
100
AcDbLine
 10
-1295.1949865503
 20
-779.3697241682
 30
0.0
 11
-1295.1949865503
 21
-899.3698768491
 31
0.0
  0
LINE
  5
9B
330
1F
100
AcDbEntity
  8
0
  6
Continuous
 62
     7
370
    25
100
AcDbLine
 10
-1204.1949865503
 20
-779.3698734513
 30
0.0
 11
-1295.1949865503
 21
-779.3698734513
 31
0.0
  0
LINE
  5
9C
330
1F
100
AcDbEntity
  8
0
  6
Continuous
 62
     7
370
    25
100
AcDbLine
 10
-1295.1949865503
 20
-899.3698768491
 30
0.0
 11
-1204.1949865503
 21
-899.3698768491
 31
0.0
  0
LINE
  5
9D
330
1F
100
AcDbEntity
  8
0
  6
Continuous
 62
     7
370
    25
100
AcDbLine
 10
-1204.1949865503
 20
-899.369875581
 30
0.0
 11
-1295.1949865503
 21
-899.3698731171
 31
0.0
  0
LINE
  5
9E
330
1F
100
AcDbEntity
  8
0
  6
Continuous
 62
     7
370
    25
100
AcDbLine
 10
-1204.1949865503
 20
-779.3697241682
 30
0.0
 11
-1295.1949865503
 21
-779.3697241682
 31
0.0
  0
MTEXT
  5
A0
330
1F
100
AcDbEntity
  8
0
  6
Continuous
 62
     7
100
AcDbMText
 10
-1295.1949865503
 20
-900.3894432408
 30
0.0
 40
4.83362
 41
0.0
 71
     1
 72
     1
  1
SOLIDWORKS Maker Product.
  7
SLDTEXTSTYLE0
 73
     1
 44
1.0
  0
MTEXT
  5
A1
330
1F
100
AcDbEntity
  8
0
  6
Continuous
 62
     7
100
AcDbMText
 10
-1295.1949865503
 20
-907.6398732408
 30
0.0
 40
4.83362
 41
0.0
 71
     1
 72
     1
  1
For Personal Use Only.
  7
SLDTEXTSTYLE0
 73
     1
 44
1.0
  0
ENDSEC
  0
SECTION
  2
OBJECTS
  0
DICTIONARY
  5
C
330
0
100
AcDbDictionary
281
     1
  3
ACAD_GROUP
350
D
  3
ACAD_LAYOUT
350
1A
  3
ACAD_MLINESTYLE
350
17
  3
ACAD_PLOTSETTINGS
350
19
  3
ACAD_PLOTSTYLENAME
350
E
  3
ACAD_SCALELIST
350
47
  3
DWGPROPS
350
A2
  0
DICTIONARY
  5
D
102
{ACAD_REACTORS
330
C
102
}
330
C
100
AcDbDictionary
281
     1
  0
DICTIONARY
  5
1A
102
{ACAD_REACTORS
330
C
102
}
330
C
100
AcDbDictionary
281
     1
  3
Layout1
350
1E
  3
Layout2
350
26
  3
Model
350
22
  0
DICTIONARY
  5
17
102
{ACAD_REACTORS
330
C
102
}
330
C
100
AcDbDictionary
281
     1
  3
Standard
350
18
  0
DICTIONARY
  5
19
102
{ACAD_REACTORS
330
C
102
}
330
C
100
AcDbDictionary
281
     1
  0
ACDBDICTIONARYWDFLT
  5
E
102
{ACAD_REACTORS
330
C
102
}
330
C
100
AcDbDictionary
281
     1
  3
Normal
350
F
100
AcDbDictionaryWithDefault
340
F
  0
DICTIONARY
  5
47
102
{ACAD_REACTORS
330
C
102
}
330
C
100
AcDbDictionary
281
     1
  3
A0
350
48
  3
A1
350
49
  3
A2
350
4A
  3
A3
350
4B
  3
A4
350
4C
  3
A5
350
4D
  3
A6
350
4E
  3
A7
350
4F
  3
A8
350
50
  3
A9
350
51
  3
B0
350
52
  3
B1
350
53
  3
B2
350
54
  3
B3
350
55
  3
B4
350
56
  3
B5
350
57
  3
B6
350
58
  0
XRECORD
  5
A2
102
{ACAD_REACTORS
330
C
102
}
330
C
100
AcDbXrecord
280
     1
  1
DWGPROPS COOKIE
  2

  3

  4

  6

  7

  8
owend
  9

300
=
301
=
302
=
303
=
304
=
305
=
306
=
307
=
308
=
309
=
 40
0.0
 41
2461307.110141262
 42
2461307.11016985
  1

 90
        0
  0
LAYOUT
  5
1E
102
{ACAD_REACTORS
330
1A
102
}
330
1A
100
AcDbPlotSettings
  1

  2
none_device
  4

  6

 40
0.0
 41
0.0
 42
0.0
 43
0.0
 44
0.0
 45
0.0
 46
0.0
 47
0.0
 48
0.0
 49
0.0
140
0.0
141
0.0
142
1.0
143
1.0
 70
   688
 72
     1
 73
     0
 74
     5
  7

 75
    16
147
1.0
148
0.0
149
0.0
100
AcDbLayout
  1
Layout1
 70
     1
 71
     1
 10
0.0
 20
0.0
 11
420.0
 21
297.0
 12
0.0
 22
0.0
 32
0.0
 14
1.0000000000E+20
 24
1.0000000000E+20
 34
1.0000000000E+20
 15
-1.0000000000E+20
 25
-1.0000000000E+20
 35
-1.0000000000E+20
146
0.0
 13
0.0
 23
0.0
 33
0.0
 16
1.0
 26
0.0
 36
0.0
 17
0.0
 27
1.0
 37
0.0
 76
     0
330
1B
  0
LAYOUT
  5
26
102
{ACAD_REACTORS
330
1A
102
}
330
1A
100
AcDbPlotSettings
  1

  2
none_device
  4

  6

 40
0.0
 41
0.0
 42
0.0
 43
0.0
 44
0.0
 45
0.0
 46
0.0
 47
0.0
 48
0.0
 49
0.0
140
0.0
141
0.0
142
1.0
143
1.0
 70
   688
 72
     1
 73
     0
 74
     5
  7

 75
    16
147
1.0
148
0.0
149
0.0
100
AcDbLayout
  1
Layout2
 70
     1
 71
     2
 10
0.0
 20
0.0
 11
0.0
 21
0.0
 12
0.0
 22
0.0
 32
0.0
 14
0.0
 24
0.0
 34
0.0
 15
0.0
 25
0.0
 35
0.0
146
0.0
 13
0.0
 23
0.0
 33
0.0
 16
1.0
 26
0.0
 36
0.0
 17
0.0
 27
1.0
 37
0.0
 76
     0
330
23
  0
LAYOUT
  5
22
102
{ACAD_REACTORS
330
1A
102
}
330
1A
100
AcDbPlotSettings
  1

  2
none_device
  4
ANSI_A_(11.00_x_8.50_Inches)
  6

 40
6.35
 41
19.05
 42
6.35000508
 43
19.05000254
 44
279.4
 45
215.9
 46
2359.272632995
 47
1583.9626009209
 48
0.0
 49
0.0
140
0.0
141
0.0
142
0.0701249108
143
1.0
 70
  1696
 72
     0
 73
     0
 74
     0
  7

 75
     0
147
0.0179189148
148
-1300.4909072572
149
0.0
100
AcDbLayout
  1
Model
 70
     1
 71
     0
 10
0.0
 20
0.0
 11
420.0
 21
297.0
 12
0.0
 22
0.0
 32
0.0
 14
-1295.1949865503
 24
-899.3698768491
 34
0.0
 15
-1204.1949865503
 25
-779.3697241682
 35
0.0
146
0.0
 13
0.0
 23
0.0
 33
0.0
 16
1.0
 26
0.0
 36
0.0
 17
0.0
 27
1.0
 37
0.0
 76
     0
330
1F
331
29
  0
MLINESTYLE
  5
18
102
{ACAD_REACTORS
330
17
102
}
330
17
100
AcDbMlineStyle
  2
Standard
 70
     0
  3

 62
   256
 51
90.0
 52
90.0
 71
     2
 49
0.5
 62
   256
  6
BYLAYER
 49
-0.5
 62
   256
  6
BYLAYER
  0
ACDBPLACEHOLDER
  5
F
102
{ACAD_REACTORS
330
E
102
}
330
E
  0
SCALE
  5
48
102
{ACAD_REACTORS
330
47
102
}
330
47
100
AcDbScale
 70
     0
300
1:1
140
1.0
141
1.0
290
     1
  0
SCALE
  5
49
102
{ACAD_REACTORS
330
47
102
}
330
47
100
AcDbScale
 70
     0
300
1:2
140
1.0
141
2.0
290
     0
  0
SCALE
  5
4A
102
{ACAD_REACTORS
330
47
102
}
330
47
100
AcDbScale
 70
     0
300
1:4
140
1.0
141
4.0
290
     0
  0
SCALE
  5
4B
102
{ACAD_REACTORS
330
47
102
}
330
47
100
AcDbScale
 70
     0
300
1:5
140
1.0
141
5.0
290
     0
  0
SCALE
  5
4C
102
{ACAD_REACTORS
330
47
102
}
330
47
100
AcDbScale
 70
     0
300
1:8
140
1.0
141
8.0
290
     0
  0
SCALE
  5
4D
102
{ACAD_REACTORS
330
47
102
}
330
47
100
AcDbScale
 70
     0
300
1:10
140
1.0
141
10.0
290
     0
  0
SCALE
  5
4E
102
{ACAD_REACTORS
330
47
102
}
330
47
100
AcDbScale
 70
     0
300
1:16
140
1.0
141
16.0
290
     0
  0
SCALE
  5
4F
102
{ACAD_REACTORS
330
47
102
}
330
47
100
AcDbScale
 70
     0
300
1:20
140
1.0
141
20.0
290
     0
  0
SCALE
  5
50
102
{ACAD_REACTORS
330
47
102
}
330
47
100
AcDbScale
 70
     0
300
1:30
140
1.0
141
30.0
290
     0
  0
SCALE
  5
51
102
{ACAD_REACTORS
330
47
102
}
330
47
100
AcDbScale
 70
     0
300
1:40
140
1.0
141
40.0
290
     0
  0
SCALE
  5
52
102
{ACAD_REACTORS
330
47
102
}
330
47
100
AcDbScale
 70
     0
300
1:50
140
1.0
141
50.0
290
     0
  0
SCALE
  5
53
102
{ACAD_REACTORS
330
47
102
}
330
47
100
AcDbScale
 70
     0
300
1:100
140
1.0
141
100.0
290
     0
  0
SCALE
  5
54
102
{ACAD_REACTORS
330
47
102
}
330
47
100
AcDbScale
 70
     0
300
2:1
140
2.0
141
1.0
290
     0
  0
SCALE
  5
55
102
{ACAD_REACTORS
330
47
102
}
330
47
100
AcDbScale
 70
     0
300
4:1
140
4.0
141
1.0
290
     0
  0
SCALE
  5
56
102
{ACAD_REACTORS
330
47
102
}
330
47
100
AcDbScale
 70
     0
300
8:1
140
8.0
141
1.0
290
     0
  0
SCALE
  5
57
102
{ACAD_REACTORS
330
47
102
}
330
47
100
AcDbScale
 70
     0
300
10:1
140
10.0
141
1.0
290
     0
  0
SCALE
  5
58
102
{ACAD_REACTORS
330
47
102
}
330
47
100
AcDbScale
 70
     0
300
100:1
140
100.0
141
1.0
290
     0
  0
ENDSEC
  0
EOF
